<svg id="Camada_1" data-name="Camada 1" xmlns="http://www.w3.org/2000/svg" viewBox="0 0 498.37 198.76"><defs><style>.cls-1{fill:#ffeb90;}.cls-2{fill:none;stroke:#ffce00;stroke-miterlimit:10;}.cls-3{fill:#e5b900;}.cls-4{fill:#ffce00;}.cls-5{fill:#bd342e;}</style></defs><path class="cls-1" d="M81.16,303,115,365.19l1.24,2.47c.07.17.27,1,.35,1.17.19.35.82,1,1,1.34a11.78,11.78,0,0,0,.94,1.32,21.15,21.15,0,0,0,3.83,4.21l2.72,1.92,2.3,1.1,1.83.43a18.27,18.27,0,0,0,9,.42c1.93-.32,8.12-1.53,9.23-1.91,2.05-.71,15.54-3.6,17.28-4.17l323.36-75.08a49.27,49.27,0,0,0,5.27-1.24l8.27-1.87c-.57-.82-2.32-2.12-2.95-2.87a56.12,56.12,0,0,0-5-4.8l-52-50.41c-.67-.67-1.35-1.45-2.22-2.39a91,91,0,0,0-8.76-8.71l-4,.83c-2.51-.07-14.9,3.2-17.49,3.58L87.1,292.74A13.26,13.26,0,0,0,82.87,295l-.73,1a4.31,4.31,0,0,0-1.35,2.69A10.79,10.79,0,0,0,81.16,303Z" transform="translate(-48.45 -198.01)"/><path class="cls-2" d="M77.1,294.4l-6.1-10a9.42,9.42,0,0,1,2.42-11.94,18.66,18.66,0,0,1,7.92-3.53l345.49-64.22c1.76-.32,6.2-1.5,8-1.17h0a13.09,13.09,0,0,1,7.54,4.67,7.12,7.12,0,0,0,.77.84c12,10.76,80,70.94,81.85,72.17a2.48,2.48,0,0,1,.75,2,8.68,8.68,0,0,1-6.83,8.58l-379.63,88a20.68,20.68,0,0,1-9.83-.1l-.2-.05a18.53,18.53,0,0,1-11.76-9.24L76.62,293.49" transform="translate(-48.45 -198.01)"/><path class="cls-2" d="M58,294.38l-8.43-17.87c-2.1-4.83,1.67-7.46,5.37-10.72,2.32-2.05,12.6-3.64,15.53-4.23l362-62.92a31.72,31.72,0,0,1,5.6,0,15.53,15.53,0,0,1,9,3.51l.59.48c1.62.88,7.88,6.48,9.19,7.91,11.83,13,82.46,71.5,84.28,73,.51.41,5.24,6.53,5.25,7.65.06,4.86-4.59,5.09-8.59,6.13L126.28,394.09a17.8,17.8,0,0,1-9.84-.28l-.2-.07a19.36,19.36,0,0,1-11.58-11.15L58,294.38" transform="translate(-48.45 -198.01)"/><polygon class="cls-3" points="77.64 196.59 93.53 198.76 458.89 111.18 471.97 103.34 77.64 196.59"/><path class="cls-3" d="M431.08,204.3l-14.95,2.59,14.36,19.45,71.16,69,15.52-3.41c.75-.25,2-.41,2.81-.74l1.59-.45c.48-.24.54-.89,1-1.23a2.7,2.7,0,0,0,.59-.58c.77-1,1.8-1.92,1.93-3.46l.27-1.58c-.08-.63.08-1.63-.44-2.17s-1.54-1.26-2.21-1.85l-82.56-73.21a15,15,0,0,0-1.49-1.12l-1.45-1.07a16.51,16.51,0,0,0-3.07-.51c-.64,0-.85.06-1.91.15C432.22,204.07,431.07,204.27,431.08,204.3Z" transform="translate(-48.45 -198.01)"/><path class="cls-3" d="M419.41,209.93l4.14,6.13c.83,1.28,2.21,2.83,3.21,4.38s2,3.18,2.72,4.38c.43.68.7,1,1,1.52L205.28,272.48c-.9.27-15.47,2.67-16.16,2.79L88.17,292.73a12.06,12.06,0,0,0-3.89,1.42l-.19.12a3.43,3.43,0,0,0-.58.42l-.73.64a3.74,3.74,0,0,0-.85,1.12,15.19,15.19,0,0,0-1.23,3.72h0l-3.55-6.52a3.13,3.13,0,0,0-.2-.3c-.64-.87-2.4-4.26-2.93-4.91l-2.32-3.63c-.34-.5-.92-2.15-1.21-2.78a9,9,0,0,1-.18-2.18c0-.71.1-1.34.11-1.47a7.35,7.35,0,0,1,.89-2.76c.29-.51.26-.4.51-.84a7,7,0,0,1,1.37-1.56l1.74-1.3a22.13,22.13,0,0,1,3.87-2c.84-.25,2.45-.53,3.32-.71l109.07-20.3c.34-.08,34.69-6.54,35.3-6.58L268,234.2c.72.26,46.92-8.23,47.91-8.43,1.47-.3,100.54-19.46,101.42-18.86C417.39,206.92,419.43,209.91,419.41,209.93Z" transform="translate(-48.45 -198.01)"/><path class="cls-4" d="M49.33,275l8,17.23L71,318l35.9,68.2,5.15,5.67,6.58,3,6.33.26,17.8-4.77,395.66-92.43L544,296c.23-.08.42-.35.6-.51l1.34-1.57a1.55,1.55,0,0,0,.36-1.3v-1a4.09,4.09,0,0,0-.13-1.49L543,285.41a1.91,1.91,0,0,0-.31-.38l-1.9-1.29-1.7-2.05-89.64-77.18-4.31-3.41a33.18,33.18,0,0,0-3.22-1.28l-1.46-.52c-.12,0-2.18-.21-2.31-.21l-4.31-.2c-.09,0-1.44.2-1.54.22l-9.8,1.62c-1.15.19-249.47,42-359.32,62.51l27.34,3.95c12.71-2.39,26.26-4.4,41.5-7.25,11.22-2.09,24.69-5.39,36.61-7.64,76.64-14.46,164.71-30.16,214.6-39.39,24.23-4.48,39.79-8,40-8l9.15-1.15,1-.11,2.49,0,2.94,1.1a1.79,1.79,0,0,1,.56.34l7.61,7.5,78.24,68.93a1.73,1.73,0,0,1,.53.85l.4,1.42-1.51,4.66-3.47,3.17-22.93,5.05-60.27,14-301,70-6.32-.06-6-2.1-3-2.72-3.48-3.28L98.06,333.52l-17-31.6-9.58-16.46Z" transform="translate(-48.45 -198.01)"/><path class="cls-5" d="M84.83,309.74" transform="translate(-48.45 -198.01)"/><polygon class="cls-4" points="15.96 64.9 40.88 69.01 34.62 70.2 26.89 73.13 22.61 77.13 21.39 80.25 22.79 87.36 0.88 77.18 0.76 74.23 2.4 71.55 5.64 68.5 8.53 66.67 14.73 64.67 15.96 64.9"/></svg>