<svg id="Layer_25" data-name="Layer 25" xmlns="http://www.w3.org/2000/svg" viewBox="0 0 250 296.9"><defs><style>.cls-1,.cls-6,.cls-7{fill:#e5b900;}.cls-2,.cls-8,.cls-9{fill:#ffce00;}.cls-3,.cls-4,.cls-5{fill:#ffeb90;}.cls-3,.cls-7,.cls-9{opacity:0.8;}.cls-4,.cls-6,.cls-8{opacity:0.6;}</style></defs><path class="cls-1" d="M125.06,398.45c-.1-2.86-.06-5.08,0-6.61,0-.73.07-1.42.19-2.31a19,19,0,0,1,4.95-10.27c.51-.56,1-1,1.31-1.29h237l.27.25a19.28,19.28,0,0,1,1.62,1.69,20.38,20.38,0,0,1,2.11,3,19.76,19.76,0,0,1,1.61,3.73,21.17,21.17,0,0,1,.76,3.81,39.81,39.81,0,0,1,.09,4.25c0,1.65,0,3,0,3.74Z" transform="translate(-125 -101.55)"/><path class="cls-2" d="M131.51,378h237l-.6-.51a19.07,19.07,0,0,0-9.91-4.21,20.82,20.82,0,0,0-3.28-.13c-19.63.85-39.3-.66-58.94,0,0,0-11.69.4-133.86,0-5.28,0-10.55.21-15.82,0-.24,0-1.2-.05-2.49,0-.47,0-1.22.06-2.09.18a19,19,0,0,0-7.72,2.9c-.65.42-1.17.81-1.55,1.11Z" transform="translate(-125 -101.55)"/><path class="cls-3" d="M292.62,326.7l7.65,46.42H207.79q3.28-23.21,6.58-46.42" transform="translate(-125 -101.55)"/><polygon class="cls-4" points="175.27 271.57 196.54 271.57 185.72 225.15 167.62 225.15 175.27 271.57"/><polygon class="cls-5" points="64.34 225.15 89.37 225.15 82.79 271.57 53.51 271.57 64.34 225.15"/><path class="cls-6" d="M300.27,281.91l10.44,44.79H292.62l-7.38-44.79Z" transform="translate(-125 -101.55)"/><polygon class="cls-7" points="89.37 225.15 167.62 225.15 160.24 180.36 95.73 180.36 89.37 225.15"/><polygon class="cls-1" points="64.34 225.15 89.37 225.15 95.73 180.36 74.78 180.36 64.34 225.15"/><polygon class="cls-8" points="160.24 180.36 175.27 180.36 167.27 146.05 154.59 146.05 160.24 180.36"/><polygon class="cls-9" points="95.73 180.36 160.24 180.36 154.59 146.05 100.6 146.05 95.73 180.36"/><polygon class="cls-2" points="74.78 180.36 95.73 180.36 100.6 146.05 82.79 146.05 74.78 180.36"/><polygon class="cls-5" points="82.79 146.05 100.6 146.05 106.95 101.27 93.23 101.27 82.79 146.05"/><polygon class="cls-3" points="100.6 146.05 154.59 146.05 147.21 101.27 106.95 101.27 100.6 146.05"/><polygon class="cls-4" points="154.59 146.05 167.27 146.05 156.82 101.27 147.21 101.27 154.59 146.05"/><polygon class="cls-1" points="93.23 101.27 106.95 101.27 111.9 66.4 101.36 66.4 93.23 101.27"/><polygon class="cls-7" points="106.95 101.27 147.21 101.27 141.47 66.4 111.9 66.4 106.95 101.27"/><polygon class="cls-6" points="147.21 101.27 156.82 101.27 148.69 66.4 141.47 66.4 147.21 101.27"/><polygon class="cls-2" points="101.36 66.4 111.9 66.4 118.25 21.61 111.81 21.61 101.36 66.4"/><polygon class="cls-9" points="111.9 66.4 141.47 66.4 134.09 21.61 118.25 21.61 111.9 66.4"/><polygon class="cls-8" points="141.47 66.4 148.69 66.4 138.24 21.61 134.09 21.61 141.47 66.4"/><path class="cls-5" d="M236.81,123.17h6.44l3-20.93a10,10,0,0,0-1.2.55,10.58,10.58,0,0,0-4.29,4.56,26.42,26.42,0,0,0-1.14,3.91c-.5,1.93-.73,3.08-1.27,5.43-.24,1.06-.61,2.66-1.08,4.63Z" transform="translate(-125 -101.55)"/><path class="cls-3" d="M243.25,123.17h15.84l-3.28-19.92c-.16-.11-.39-.25-.68-.41a10.74,10.74,0,0,0-4.56-1.27,10.89,10.89,0,0,0-4.35.67Z" transform="translate(-125 -101.55)"/><path class="cls-4" d="M259.09,123.17h4.15l-3.52-14.85a9.6,9.6,0,0,0-.79-1.74,10,10,0,0,0-3.12-3.33Z" transform="translate(-125 -101.55)"/></svg>