<svg xmlns="http://www.w3.org/2000/svg" viewBox="0 0 250 265.9"><defs><style>.cls-1{fill:#ffce00;}.cls-2{fill:#e5b900;}.cls-3{fill:#ffeb90;}</style></defs><g id="Layer_5" data-name="Layer 5"><path class="cls-1" d="M125.37,140.63c12.64,21.9,22.84,39.51,29.8,51.53l17,29.32c11.57,20,23.77,41,24.57,42.34,2,3.38,28.17,48.55,30.25,52.12h46c.7-1.21,14.66-25.27,29.08-50.1,25.55-44,38.94-67.06,58.49-100.87,3.52-6.08,9.89-17.11,13.32-23.05.09-.16.22-.4.39-.68s.26-.44.34-.61a3.18,3.18,0,0,0,.23-.79,5.34,5.34,0,0,0-.11-2.83,6,6,0,0,0-.69-1.51c-.1-.16-.23-.37-.4-.6,0,0-.22-.29-.47-.58a15,15,0,0,0-1.87-1.74,12.52,12.52,0,0,0-1.11-.8,27.46,27.46,0,0,0-2.92-1.7c-.53-.26-1.4-.69-2.47-1.14A78.19,78.19,0,0,0,356.2,126c-6.66-1.78-12.74-2.88-14.08-3.12-5.74-1-10.08-1.57-13.71-2-6.75-.84-11.81-1.27-16-1.62-9.1-.76-16.1-1.09-21.16-1.32-.44,0-7.23-.33-14.74-.53-22.35-.58-40.62-.3-50.64-.06-3.55.09-8.09.2-14.18.46-6.89.29-15.82.68-27.32,1.73-9.86.9-16.46,1.81-18.09,2-2.36.33-9.85,1.41-19.15,3.57A104.41,104.41,0,0,0,137,128.19c-4.25,1.51-6.66,2.64-8.88,4.81a16.76,16.76,0,0,0-2.72,3.47,5.87,5.87,0,0,0-.34,1.09,5.68,5.68,0,0,0,.13,2.67Z" transform="translate(-125 -117.05)"/><path class="cls-2" d="M368.31,136.63c0,8.59-53,15.56-118.31,15.56-37.56,0-71-2.3-92.7-5.89-16-2.66-25.62-6-25.62-9.67,0-8.6,53-15.57,118.32-15.57S368.31,128,368.31,136.63Z" transform="translate(-125 -117.05)"/><polygon class="cls-3" points="101.99 198.9 101.99 210.67 148.01 205.48 148.01 198.9 101.99 198.9"/><polygon class="cls-1" points="101.99 210.67 101.99 265.9 148.01 244.09 148.01 205.48 101.99 210.67"/></g></svg>