<svg width="116" height="224" viewBox="0 0 116 224" fill="none" xmlns="http://www.w3.org/2000/svg">
<g id="Frame" clip-path="url(#clip0_791_563)">
<g id="Group">
<g id="Group_2">
<path id="Vector" d="M94.9717 112.339C95.8425 107.797 82.5829 90.0111 62.7541 86.2088C42.9362 82.3497 24.0838 94.037 23.2129 98.5784L6.16608 187.476C4.43527 196.503 9.05831 205.57 17.3617 209.575C22.9766 212.241 29.9987 214.941 37.8393 216.445C45.68 217.948 53.2028 218.037 59.4056 217.637C68.6016 216.988 76.2399 210.33 77.9816 201.248L94.9717 112.339Z" fill="#DAE4FE"/>
<g id="Group_3">
<path id="Vector_2" d="M41.3639 197.757C22.9555 194.227 4.94032 187.418 6.11597 181.287L8.38861 181.723C8.21444 182.631 9.86794 185.067 17.087 188.276C23.4974 191.094 32.2542 193.656 41.7425 195.476C51.2308 197.295 60.3142 198.154 67.3124 197.907C75.2632 197.607 77.6328 196.002 77.8179 195.036L80.0905 195.472C79.0285 201.625 59.7723 201.287 41.3639 197.757Z" fill="#C6D5FE"/>
</g>
<g id="Group_4">
<path id="Vector_3" d="M44.4446 181.692C26.0362 178.162 8.02101 171.353 9.19666 165.222L11.4693 165.657C11.2951 166.566 12.9486 169.002 20.1677 172.21C26.5781 175.029 35.3349 177.591 44.8232 179.41C54.3115 181.23 63.3949 182.089 70.3931 181.842C78.3439 181.542 80.7135 179.936 80.8985 178.971L83.1712 179.407C82.1092 185.56 62.853 185.222 44.4446 181.692Z" fill="#C6D5FE"/>
</g>
<g id="Group_5">
<path id="Vector_4" d="M47.5252 165.627C29.1168 162.097 11.1016 155.288 12.2772 149.157L14.5499 149.593C14.3757 150.501 16.0292 152.937 23.2483 156.145C29.6587 158.964 38.4155 161.526 47.9038 163.345C57.3921 165.165 66.4755 166.024 73.4737 165.777C81.4245 165.477 83.7941 163.871 83.9791 162.906L86.2518 163.342C85.1897 169.495 65.9336 169.157 47.5252 165.627Z" fill="#C6D5FE"/>
</g>
<g id="Group_6">
<path id="Vector_5" d="M50.6059 149.561C32.1975 146.031 14.1823 139.222 15.3579 133.091L17.6306 133.527C17.4564 134.435 19.1099 136.871 26.329 140.08C32.7394 142.898 41.4962 145.46 50.9845 147.28C60.4728 149.099 69.5562 149.958 76.5544 149.711C84.5052 149.411 86.8747 147.806 87.0598 146.841L89.3324 147.276C88.2704 153.429 69.0143 153.091 50.6059 149.561Z" fill="#C6D5FE"/>
</g>
<g id="Group_7">
<path id="Vector_6" d="M53.6864 133.496C35.278 129.967 17.2628 123.157 18.4385 117.026L20.7111 117.462C20.537 118.37 22.1904 120.806 29.4095 124.015C35.8199 126.833 44.5768 129.395 54.065 131.215C63.5533 133.034 72.6367 133.893 79.6349 133.646C87.5858 133.346 89.9553 131.741 90.1404 130.776L92.413 131.212C91.351 137.364 72.0948 137.026 53.6864 133.496Z" fill="#C6D5FE"/>
</g>
<g id="Group_8">
<path id="Vector_7" d="M57.0284 116.069C38.6199 112.539 20.6047 105.73 21.7804 99.5986L24.053 100.034C23.8789 100.943 25.5324 103.379 32.7515 106.587C39.1618 109.406 47.9187 111.968 57.407 113.787C66.8952 115.607 75.9787 116.466 82.9769 116.218C90.9277 115.919 93.2972 114.313 93.4823 113.348L95.7549 113.784C94.6929 119.936 75.4368 119.599 57.0284 116.069Z" fill="#C6D5FE"/>
</g>
<path id="Vector_8" d="M99.1349 53.4579C96.6693 48.8064 95.5775 49.8918 87.6013 38.6512C79.8547 27.749 91.5278 26.1618 74.8807 22.9696C58.2336 19.7774 68.5881 26.2948 58.7932 32.8328C48.3212 39.8295 46.1985 38.3043 41.058 42.38C29.0517 51.8488 24.7224 79.0336 29.9629 90.1027C33.4486 97.4217 42.1425 100.619 59.3578 103.92C76.5731 107.221 85.879 107.534 91.7788 101.956C100.753 93.5542 106.359 67.085 99.1349 53.4579Z" fill="#DAE4FE"/>
<g id="Group_9">
<path id="Vector_9" d="M62.8304 85.8116C44.0243 82.2054 25.6573 75.3875 26.8112 69.3701L29.0838 69.8059C28.5395 72.6443 41.5621 79.379 63.2658 83.5409C84.9695 87.7027 99.5596 86.2629 100.104 83.4245L102.377 83.8603C101.269 89.9454 81.6365 89.4178 62.8304 85.8116Z" fill="#C6D5FE"/>
</g>
<g id="Group_10">
<path id="Vector_10" d="M65.5953 71.3924C51.6185 68.7123 31.1916 62.4999 32.3563 56.4258L34.629 56.8616C34.2262 58.962 44.6679 65.0252 65.9739 69.1108C87.2799 73.1964 99.2238 71.4257 99.6266 69.3253L101.899 69.7611C100.848 75.8571 79.6289 74.0835 65.5953 71.3924Z" fill="#C6D5FE"/>
</g>
<g id="Group_11">
<path id="Vector_11" d="M68.2732 57.4278C52.8192 54.4643 37.739 48.6299 38.7841 43.1802L41.0567 43.616C40.5886 46.057 51.0956 51.7796 68.6518 55.1462C86.2079 58.5127 98.0865 57.0826 98.5546 54.6416L100.827 55.0774C99.8958 60.5489 83.7271 60.3912 68.2732 57.4278Z" fill="#C6D5FE"/>
</g>
<g id="Group_12">
<path id="Vector_12" d="M59.2248 104.307C46.1003 101.79 33.1755 97.3106 27.6962 91.7869L29.3622 90.1642C39.7937 100.581 80.2964 107.465 91.8187 102.67L92.6986 104.84C86.4907 107.416 72.7471 106.9 59.2248 104.307Z" fill="#C6D5FE"/>
</g>
</g>
<path id="Vector_13" d="M84.6078 29.0723C84.5752 29.2426 84.5993 29.4238 84.6017 29.7186C84.6041 30.0133 84.5956 30.3648 84.633 30.784C84.6221 30.8407 84.6378 31.3734 84.7103 31.917C84.8552 33.0042 85.1683 33.8293 85.2275 34.135C85.8317 35.8988 86.7044 37.1844 87.4634 38.4482C87.7741 38.9786 88.1524 39.4631 88.9091 40.4322C90.2628 42.2809 91.1923 43.5773 92.5437 45.1313C93.0707 45.762 93.8382 46.6743 95.3842 48.4422C96.1167 49.23 96.7114 49.8149 97.4681 50.784C97.6977 51.1223 98.2598 51.8775 98.8351 52.8706C99.7561 54.5186 100.255 55.9091 100.557 56.791C101.081 58.3627 101.374 59.5962 101.563 60.4563C101.859 61.9844 101.993 63.1284 102.135 63.9208C102.439 66.3332 102.431 68.2151 102.417 69.2128C102.43 69.4508 102.424 70.097 102.374 70.9703C102.333 71.4921 102.321 72.7846 102.175 74.4635C102.091 75.2124 101.956 76.8346 101.632 78.8324C101.469 79.6839 101.243 81.1707 100.838 82.9764C100.794 83.2035 100.751 83.4305 100.74 83.4873C100.367 85.1227 99.9354 86.4524 99.7153 87.293C99.3731 88.4634 99.0285 89.339 98.9849 89.566C98.1191 91.9308 97.3948 93.5575 97.1941 93.9899C96.9148 94.5249 96.5811 95.3437 95.9874 96.2893C95.551 97.0295 95.0032 98.0427 94.1279 99.2286C93.6564 99.8444 93.0954 100.62 92.2285 101.454C91.5757 102.094 90.9446 102.62 90.4598 102.998C90.4598 102.998 90.5166 103.009 90.5057 103.066C91.3192 104.046 91.8704 104.858 92.0541 105.128C92.2378 105.399 92.5243 105.748 92.8349 106.279C93.1455 106.809 93.6048 107.486 94.0774 108.4C94.5391 109.372 94.7711 110.005 94.9113 110.502C95.1325 111.192 95.124 111.544 95.1155 111.895C95.0828 112.065 95.0284 112.349 95.0199 112.701C94.9437 113.098 94.8784 113.439 94.8675 113.496C94.5954 114.915 94.3341 116.277 94.062 117.696C94.062 117.696 93.5503 120.364 93.4088 121.102C93.3 121.67 92.0155 128.369 92.0046 128.425C91.9828 128.539 91.5256 130.923 91.5147 130.98C91.4821 131.15 90.7527 134.954 90.6874 135.294C90.6874 135.294 89.2941 142.561 89.1634 143.242C88.924 144.491 88.6736 145.796 88.4341 147.045C88.1075 148.748 87.781 150.451 87.4544 152.154C87.3347 152.779 85.9522 159.988 85.9413 160.045C85.9195 160.159 85.3752 162.997 85.3644 163.054C85.3535 163.11 84.7983 166.006 84.7765 166.119C84.7656 166.176 83.7424 171.512 83.6662 171.909C83.6335 172.08 82.2946 179.062 82.2837 179.119C82.0987 180.084 81.9245 180.992 81.7394 181.957C81.2714 184.398 80.7924 186.896 80.3243 189.337C80.3243 189.337 79.1922 195.241 79.1813 195.298C78.6153 198.25 78.3323 199.726 78.3323 199.726C78.2343 200.237 78.1799 200.52 78.0819 201.031C77.9513 201.712 77.8968 201.996 77.7965 202.212C77.7529 202.44 77.6199 202.826 77.5437 203.223C77.3889 203.723 77.245 204.167 77.1229 204.496C77.0117 204.769 76.8678 205.213 76.667 205.645C76.5667 205.861 76.4663 206.077 76.3768 206.237C76.2656 206.51 76.0867 206.828 75.8291 207.25C75.4604 207.944 75.1242 208.468 74.8208 208.822C74.5741 209.187 74.2598 209.597 73.8777 210.054C73.642 210.362 73.3494 210.659 73.035 211.069C72.6747 211.412 72.2927 211.869 71.7293 212.349C71.3013 212.738 70.8056 213.173 70.2531 213.596C69.4975 214.158 68.7637 214.606 68.1653 214.962C67.51 215.307 66.7871 215.698 65.8937 216.056C65.8937 216.056 64.8649 216.506 63.8011 216.832C60.236 217.914 53.7117 217.84 53.7117 217.84C50.5916 217.83 47.9478 217.794 44.3139 217.392C39.9874 216.915 36.5893 216.205 34.8957 215.821C30.6672 214.834 27.6294 213.78 25.0461 212.814C23.9993 212.437 21.1887 211.427 17.908 209.797C16.3474 209.027 15.2764 208.469 14.203 207.616C12.5941 206.483 11.5292 205.278 10.8426 204.558C9.58313 203.14 8.73222 201.74 8.13274 200.566C7.18758 198.737 6.67519 197.108 6.42748 195.943C5.9804 193.974 5.8766 192.365 5.84766 191.594C5.85616 191.242 5.83095 189.531 6.20106 187.601C6.21194 187.544 6.35346 186.806 6.63648 185.33C6.66914 185.16 6.87597 184.081 6.89774 183.968C6.89774 183.968 7.80124 179.256 7.92098 178.631C8.58501 175.169 9.24903 171.706 9.91305 168.243C10.6968 164.156 11.4806 160.068 12.2643 155.981C12.8195 153.086 13.3638 150.248 13.919 147.352C14.5285 144.173 15.149 140.938 15.7586 137.759C16.3356 134.75 16.9125 131.741 17.4785 128.789C17.9902 126.121 18.5018 123.453 19.0134 120.785C19.6448 117.493 20.668 112.157 20.668 112.157C21.5389 107.615 21.9308 105.571 22.6492 101.825C22.9322 100.349 23.15 99.2135 23.3023 98.4188L23.3132 98.362C23.335 98.2485 23.4245 98.0891 23.5248 97.8729C23.7933 97.3947 24.1185 96.9273 24.1185 96.9273C24.2757 96.7221 24.5005 96.4709 24.804 96.1171C25.1075 95.7633 25.9175 94.9181 27.7563 93.6228C28.5688 93.0723 29.652 92.3383 30.9057 91.6371C30.8597 91.5694 30.7679 91.4341 30.676 91.2988C30.676 91.2988 30.3194 90.7007 30.0306 90.0567C29.5338 88.961 29.2317 88.0791 29.0456 87.5137C28.7544 86.575 28.6009 85.8393 28.5284 85.2957C28.3267 84.1976 28.195 83.3484 28.1334 82.7481C27.9752 81.4229 27.933 80.4143 27.8822 79.7571C27.869 79.5192 27.8026 78.3294 27.8584 76.8098C27.856 76.5151 27.8597 75.5741 27.9638 74.417C28.0073 74.1899 28.0025 73.6004 28.0981 72.7948C28.0981 72.7948 28.2519 70.7643 28.576 68.7666C29.4047 63.2165 31.0686 58.5329 31.0686 58.5329C32.0323 55.6573 33.1859 52.406 35.6742 48.6456C37.2544 46.2413 38.5662 44.3152 41.0362 42.4935C43.8555 40.3857 47.8135 38.7904 48.0057 38.7096C48.3224 38.5938 49.1481 38.2812 50.2446 37.7852C50.6291 37.6235 51.9178 37.0467 53.5668 36.1269C55.3403 35.1722 56.5481 34.4033 57.485 33.8178C58.9527 32.9222 59.6406 32.4067 60.4071 31.7885C61.1167 31.1595 61.8941 30.4846 62.5881 29.3229C63.2035 28.2638 63.559 27.3314 63.7247 26.7746C63.8904 26.2179 64.0452 25.7178 64.1214 25.3205C64.1214 25.3205 64.1782 25.3314 64.235 25.3423C65.3737 25.8549 66.3069 26.2104 66.8074 26.3652C69.4584 27.2856 72.5155 27.9307 72.5155 27.9307C73.1405 28.0505 74.266 28.3252 75.6972 28.5408C77.3558 28.8 78.5707 28.9152 78.798 28.9588C79.6611 29.0654 80.5919 29.1262 81.8177 29.1847C82.884 29.1538 83.8366 29.101 84.6078 29.0723Z" fill="#FFCE00"/>
<g id="Group_13">
<path id="Vector_14" d="M68.3843 57.1545C68.1003 57.1001 67.8162 57.0456 67.5889 57.002C64.6345 56.4355 61.5422 55.6659 58.9046 54.9836C56.7214 54.3884 54.5032 53.6687 52.6827 53.0254C51.8522 52.7484 50.6917 52.3493 49.223 51.7146C46.6047 50.6239 45.055 49.7971 43.4594 48.9025C42.7643 48.5338 40.8254 47.2792 39.7122 45.7121C39.3906 45.2384 39.2396 44.7975 39.2505 44.7407C39.0994 44.2998 39.0729 43.8238 39.1031 43.3588L40.8294 43.5721C40.7858 43.7992 40.7991 44.0371 40.8801 44.2292C40.8801 44.2292 40.9502 44.4781 41.1448 44.692C42.2121 46.1915 44.2296 47.3434 44.2755 47.4111C45.9279 48.3165 47.364 49.1216 49.8687 50.1904C51.3483 50.7684 52.452 51.1566 53.2147 51.4795C54.9784 52.1119 57.1507 52.7639 59.3339 53.3591C61.9607 54.0982 65.007 54.8001 67.9046 55.3557C70.0068 55.7589 72.0522 56.1511 74.0625 56.4189C75.0961 56.5582 77.0387 56.8719 79.6499 57.0783C81.0352 57.2262 83.1241 57.3914 85.7571 57.4843C88.5145 57.5422 90.1816 57.4499 92.2113 57.3094C95.1368 57.1053 96.1788 56.8931 97.1835 56.2618C97.9173 55.814 98.5593 55.2308 99.0635 54.4447L100.467 55.42C99.8164 56.3547 99.0173 57.1431 98.0803 57.7286C96.6695 58.6351 95.2188 58.8278 92.2933 59.0319C90.2636 59.1724 88.472 59.2997 85.7146 59.2418C82.9789 59.0703 80.89 58.9052 79.5046 58.7572C76.8475 58.4831 74.894 58.2262 73.8605 58.0869C72.0314 57.795 70.2025 57.5032 68.3843 57.1545Z" fill="#FFEB90"/>
</g>
<g id="Group_14">
<path id="Vector_15" d="M65.6497 71.1088C64.1157 70.8146 62.5248 70.5096 61.0585 70.1695C59.3649 69.7859 57.5577 69.3805 55.9886 68.9619C53.4077 68.2904 51.4627 67.682 50.4509 67.4292C49.6772 67.1631 48.3354 66.7881 46.6285 66.1665C45.7981 65.8896 44.5348 65.4119 42.8957 64.7444C42.2356 64.5002 41.2565 64.077 40.0719 63.4967C39.5364 63.2174 38.7736 62.8946 37.873 62.3688L37.5539 62.1899C35.7419 61.195 34.7277 60.6474 33.936 59.5539C33.328 58.7311 32.9123 57.8274 32.6887 56.8428L34.3534 56.4558C34.5528 57.2591 34.8875 57.9707 35.3009 58.5797C35.863 59.3349 36.7176 59.793 38.37 60.6985L38.6892 60.8774C39.5438 61.3355 40.2389 61.7042 40.7852 61.9267C41.9699 62.507 42.8463 62.8516 43.5063 63.0959C45.0887 63.7524 46.3628 64.1733 47.1364 64.4394C48.8433 65.061 50.1283 65.4251 50.902 65.6912C51.8461 65.9899 53.802 66.5415 56.326 67.2021C57.2242 67.4332 59.0205 67.8954 61.3391 68.3988C63.5441 68.8805 65.7599 69.3054 68.0325 69.7412C70.0779 70.1334 72.2019 70.423 74.1445 70.7366C75.1781 70.876 76.9612 71.1002 79.3233 71.3766C80.7654 71.5354 82.9112 71.7115 85.7146 71.837C87.7575 71.9345 89.7655 71.9076 91.7843 71.8239C92.7937 71.782 94.1199 71.6243 96.6694 71.2304C97.5193 71.0991 98.3692 70.9678 99.1356 70.3496C99.485 70.0635 99.7994 69.6529 100.057 69.2315L101.618 70.0016C101.26 70.6392 100.856 71.2092 100.292 71.6897C99.1656 72.6507 97.8963 72.8193 96.9896 72.9397C94.3264 73.3119 92.9894 73.5263 91.8664 73.5464C89.8475 73.6301 87.7828 73.6462 85.683 73.5378C82.8119 73.4581 80.6202 73.2144 79.1671 73.1123C76.7941 72.8927 75.0111 72.6685 73.9207 72.5182C71.9672 72.2613 69.8541 71.915 67.741 71.5686C67.0701 71.3811 66.3315 71.2395 65.6497 71.1088Z" fill="#FFEB90"/>
</g>
<g id="Group_15">
<path id="Vector_16" d="M61.4643 85.2553C60.7257 85.1137 54.349 83.6555 54.1218 83.6119C53.8945 83.5684 48.4136 82.0465 47.7995 81.8699L42.8058 80.2649L34.8832 77.0389L32.5248 75.8215L30.529 74.556C30.3695 74.4666 30.164 74.3095 30.0153 74.1632L28.896 73.2423C28.6905 73.0852 28.5418 72.939 28.3472 72.7251C27.9121 72.2297 27.6014 71.6993 27.4262 71.0771L27.0758 69.8328L28.7622 69.3322L29.1126 70.5765C29.2178 70.9498 29.3906 71.2773 29.688 71.5697C29.7798 71.705 29.8826 71.7836 29.9853 71.8621L31.1046 72.783C31.2074 72.8616 31.3101 72.9402 31.4129 73.0187L33.5682 74.3737L35.8238 75.5125L43.5301 78.6382L48.1938 80.121C50.6042 80.7598 54.2996 81.7627 54.4592 81.8521C54.6297 81.8848 58.9259 82.8264 61.7449 83.4847L69.0392 84.7657L77.3755 85.8345L83.3013 86.2646L88.3508 86.35L93.0026 86.3592C93.2407 86.346 93.5357 86.3437 93.7847 86.2738L98.0751 85.0954C98.381 85.0364 98.6518 84.8529 98.9117 84.7262L99.4533 84.3592C99.8595 84.0839 100.231 83.6843 100.442 83.1951L102.003 83.9652C101.623 84.7164 101.095 85.3214 100.418 85.7801L99.8763 86.1471C99.47 86.4223 99.0179 86.6299 98.5198 86.7698L94.2294 87.9481C93.8559 88.0531 93.4364 88.0903 93.0169 88.1276L88.2974 88.1643L82.9639 88.0244L76.9812 87.5834L68.8722 86.5581L61.4643 85.2553Z" fill="#FFEB90"/>
</g>
<g id="Group_16">
<path id="Vector_17" d="M59.2224 104.012C59.0519 103.979 58.8815 103.947 58.711 103.914C57.2906 103.642 55.9379 103.323 54.5175 103.051C53.1648 102.733 52.0394 102.458 51.3117 102.26C49.913 101.874 48.7876 101.599 48.2303 101.433C46.3312 100.893 44.8867 100.439 44.2267 100.195C43.2257 99.8852 42.1789 99.5079 41.3025 99.1633C40.3693 98.8078 39.3792 98.4414 38.5705 98.0509C38.1837 97.9178 37.4778 97.6059 36.6122 97.2045C36.0767 96.9253 35.1544 96.513 33.9807 95.8759C33.3883 95.5858 32.6933 95.2171 31.8036 94.6345C31.2222 94.2876 30.3325 93.705 29.3159 92.8626C28.8022 92.4698 28.3561 92.0312 27.9101 91.5925L29.1481 90.3586C29.5373 90.7863 29.9943 91.1682 30.4512 91.5501C31.4218 92.3248 32.2088 92.8288 32.7902 93.1757C33.6339 93.6906 34.329 94.0594 34.8536 94.3954C35.9706 95.0215 36.8361 95.4229 37.3825 95.6454C38.248 96.0468 38.9539 96.3587 39.2839 96.4809C40.1035 96.8146 41.0367 97.1701 41.97 97.5256C42.8464 97.8703 43.8473 98.1799 44.8373 98.5463C45.4973 98.7906 46.9419 99.2441 48.7842 99.774C49.3414 99.9397 50.3992 100.26 51.8087 100.589C52.4796 100.777 53.605 101.052 54.9577 101.37C56.3104 101.688 57.674 101.95 59.0944 102.222C60.3444 102.462 61.5943 102.701 62.8552 102.884C64.3433 103.111 65.8882 103.348 67.3195 103.564C68.5235 103.736 69.7952 103.862 70.8965 103.955C71.8841 104.027 73.6672 104.251 75.9484 104.336C77.4691 104.392 79.5689 104.5 82.2345 104.423C84.367 104.361 85.8527 104.293 87.8691 103.914C89.2739 103.654 90.6436 103.269 91.9673 102.817L92.5365 104.456C91.1451 104.954 89.6617 105.317 88.1893 105.623C86.0483 106.037 84.5058 106.094 82.3165 106.145C79.5264 106.258 77.4266 106.149 75.8599 106.025C73.522 105.93 71.6821 105.695 70.6945 105.623C69.5364 105.519 68.2755 105.336 67.0606 105.221C65.5616 105.051 64.0735 104.825 62.5395 104.53C61.4382 104.437 60.3587 104.23 59.2224 104.012Z" fill="#FFEB90"/>
</g>
<g id="Group_17">
<path id="Vector_18" d="M57.0826 115.785C55.5486 115.491 54.0714 115.207 52.605 114.867C48.8201 114.024 45.8524 113.219 44.397 112.823C43.3393 112.502 41.497 111.972 39.1083 111.22C37.6746 110.71 35.6728 110.09 33.1113 109.011C32.189 108.598 30.2875 107.763 28.0427 106.567C27.9859 106.556 26.5499 105.751 24.5868 104.316C23.8676 103.766 23.2051 103.227 22.6758 102.301C22.2841 101.579 22.0279 100.764 22.0208 99.8802L23.7446 99.7987C23.7494 100.388 23.9355 100.954 24.2002 101.416C24.5109 101.947 24.911 102.318 25.6302 102.868C27.4337 104.214 28.8238 104.951 28.8238 104.951C31.0118 106.136 32.8673 106.904 33.7328 107.305C36.2375 108.374 38.1717 109.039 39.6162 109.493C41.9372 110.291 43.7226 110.81 44.7913 111.074C46.1899 111.46 49.1576 112.264 52.8857 113.097C55.2611 113.611 57.7042 114.08 60.2041 114.559C62.8853 115.014 65.1229 115.326 66.4974 115.53C68.2236 115.744 71.1539 116.129 75.0017 116.337C76.0462 116.42 77.7374 116.509 80.0971 116.49C83.8072 116.495 86.7895 116.302 88.7491 115.913C88.9982 115.843 89.2931 115.841 89.5422 115.771C90.3352 115.628 91.0605 115.532 91.8512 115.095C92.7095 114.612 93.4301 113.927 94.002 113.095L95.4622 114.081C94.7223 115.175 93.7986 115.998 92.7371 116.619C91.6757 117.239 90.7122 117.349 89.8515 117.537C89.6024 117.607 89.3643 117.62 89.1152 117.69C87.0311 118.114 83.9243 118.342 80.1006 118.315C77.7517 118.277 75.9469 118.166 74.8916 118.141C70.9869 117.921 68.0566 117.536 66.2736 117.312C64.8991 117.107 62.6615 116.796 59.9234 116.33C59.0253 116.099 58.0485 115.97 57.0826 115.785Z" fill="#FFEB90"/>
</g>
<g id="Group_18">
<path id="Vector_19" d="M53.8544 133.234C52.0363 132.886 50.2291 132.48 48.4787 132.086C46.7282 131.691 45.3187 131.362 44.6478 131.175C42.681 130.68 41.1228 130.204 40.3383 129.995C38.8828 129.598 37.4383 129.145 36.1642 128.724C35.6637 128.569 34.8332 128.292 33.7864 127.915C32.4095 127.415 30.259 126.65 27.7761 125.467C26.751 124.977 25.6691 124.475 24.7118 123.938C20.8714 121.848 20.0688 120.811 19.5853 119.953C19.1478 119.163 18.8457 118.281 18.7249 117.375L20.4705 117.18C20.5671 117.905 20.7424 118.527 21.0989 119.125C21.3177 119.521 21.8471 120.446 25.5279 122.447C26.4394 122.916 27.4535 123.463 28.4786 123.954C30.9156 125.069 33.0093 125.824 34.3293 126.312C35.3762 126.689 36.1498 126.955 36.6503 127.11C37.8676 127.52 39.369 127.985 40.7676 128.371C41.4953 128.569 43.0535 129.044 45.0203 129.539C45.6912 129.727 47.1007 130.056 48.7943 130.439C51.6134 131.098 54.6814 131.686 57.5331 132.174C62.0434 132.921 65.6204 133.313 66.9489 133.45C70.1851 133.776 72.5798 133.882 73.4538 133.932C75.9054 134.049 78.1407 134.066 80.284 133.947C80.8739 133.943 82.541 133.85 84.7847 133.515C86.1217 133.301 87.0393 133.124 87.5482 132.927C88.7584 132.453 89.7957 131.651 90.7169 130.533L92.0986 131.622C91.0093 133.002 89.7011 133.987 88.2311 134.588C87.982 134.658 87.27 134.992 85.094 135.281C82.7935 135.605 81.0128 135.676 80.412 135.737C78.2118 135.845 75.9198 135.818 73.4682 135.701C72.5942 135.651 70.1426 135.534 66.8496 135.197C65.5211 135.059 61.8873 134.657 57.3202 133.899C56.1379 133.613 54.9907 133.452 53.8544 133.234Z" fill="#FFEB90"/>
</g>
<g id="Group_19">
<path id="Vector_20" d="M50.6601 149.278C50.4897 149.245 50.3761 149.223 50.3192 149.212C49.6374 149.081 49.0693 148.972 48.6148 148.885C47.7057 148.711 46.9671 148.569 46.5803 148.436C45.6144 148.251 44.8298 148.042 44.4321 147.966C43.7044 147.767 43.0794 147.647 42.7954 147.593C41.2722 147.242 40.044 146.889 39.4299 146.712C37.5877 146.182 36.1322 145.785 35.4154 145.53C34.4145 145.221 33.3567 144.9 32.4694 144.612C31.1953 144.191 30.1485 143.814 29.6589 143.602C28.7825 143.258 28.1793 143.024 27.9629 142.924C27.5193 142.78 26.8133 142.468 25.9478 142.067C25.3555 141.777 24.3654 141.41 23.1917 140.773C22.4398 140.394 21.4716 139.914 20.2628 139.152C18.9971 138.38 18.3915 137.852 18.186 137.695C17.5236 137.156 17.0667 136.774 16.6642 136.108C16.1131 135.296 15.8109 134.414 15.7687 133.405L17.5035 133.267C17.5433 133.981 17.7753 134.614 18.1428 135.155C18.4184 135.561 18.7157 135.854 19.389 136.336C19.5945 136.493 20.1542 136.954 21.3062 137.704C22.4581 138.455 23.4264 138.935 24.1324 139.247C25.2602 139.816 26.1825 140.228 26.7857 140.462C27.6512 140.863 28.3681 141.118 28.7549 141.251C28.9713 141.352 29.6313 141.596 30.4509 141.93C30.9513 142.085 31.9414 142.451 33.2046 142.929C34.0919 143.217 35.0928 143.526 36.0937 143.836C36.8214 144.034 38.266 144.488 40.0515 145.007C40.6656 145.183 41.9046 145.48 43.3601 145.877C43.701 145.942 44.2582 146.108 44.9969 146.249C45.3946 146.326 46.1791 146.535 47.145 146.72C47.5427 146.796 48.2813 146.938 49.1795 147.169C49.5772 147.245 50.1453 147.354 50.8271 147.485C51.1112 147.54 51.8498 147.681 52.7589 147.855C54.6906 148.226 56.2924 148.474 56.8714 148.526C58.1891 148.72 59.5635 148.925 60.7676 149.097C62.9483 149.397 64.6855 149.554 65.5595 149.604C67.4103 149.782 68.8065 149.873 69.5101 149.891C70.2136 149.908 71.3717 150.012 72.9034 150.012C73.6638 150.04 74.7191 150.065 76.148 149.986C76.9761 149.969 78.0423 149.938 79.4253 149.791C80.2074 149.705 81.2846 149.618 82.6325 149.346C83.6746 149.134 84.4217 148.924 85.2365 148.669C86.1299 148.31 86.4007 148.127 86.4684 148.081C86.9423 147.76 87.3352 147.247 87.5686 146.644L89.1401 147.357C88.7386 148.222 88.1885 148.94 87.5006 149.456C87.2298 149.639 86.8236 149.915 85.8057 150.308C84.9232 150.61 84.0515 150.854 82.9527 151.056C81.4911 151.305 80.3463 151.439 79.5641 151.524C78.1244 151.66 77.0013 151.68 76.1732 151.698C74.6984 151.709 73.6322 151.74 72.815 151.701C71.2265 151.691 70.0007 151.633 69.3648 151.569C68.6613 151.552 67.2082 151.45 65.3574 151.272C64.4943 151.165 62.7572 151.009 60.5087 150.754C59.2479 150.571 57.8625 150.423 56.5557 150.173C55.9308 150.053 54.329 149.804 52.3864 149.491C51.626 149.463 51.0578 149.354 50.6601 149.278Z" fill="#FFEB90"/>
</g>
<g id="Group_20">
<path id="Vector_21" d="M47.5795 165.343C47.4091 165.31 47.2386 165.278 47.0682 165.245C45.8751 165.016 44.9092 164.831 44.2951 164.654C43.0451 164.415 42.0902 164.173 41.6356 164.086C40.3966 163.789 39.4984 163.558 39.0439 163.471C37.9184 163.196 37.0771 162.976 36.7471 162.854C35.5757 162.511 34.2798 162.204 33.2221 161.884C31.7207 161.419 30.6061 161.088 30.2761 160.966C29.2752 160.656 28.5584 160.401 28.2852 160.29C27.2383 159.912 26.4647 159.646 26.3051 159.557C25.1555 159.101 24.2223 158.745 23.8923 158.623C23.5055 158.49 22.9131 158.2 22.1504 157.877C21.7176 157.676 21.0685 157.375 20.203 156.974C19.827 156.784 19.3483 156.516 18.5965 156.136C18.2773 155.957 17.8555 155.7 17.274 155.353C16.8522 155.096 16.3843 154.77 15.757 154.356C15.2433 153.963 14.7295 153.57 14.1348 152.985C13.5969 152.411 13.2077 151.984 12.8729 151.272C12.63 150.696 12.5225 150.028 12.5395 149.325L14.2875 149.425C14.2681 149.833 14.3055 150.252 14.4784 150.579C14.6403 150.964 14.8918 151.188 15.3728 151.751C15.8648 152.258 16.2758 152.572 16.7436 152.897C17.3141 153.301 17.7819 153.626 18.1579 153.816C18.6825 154.152 19.0584 154.342 19.3776 154.52C20.0158 154.878 20.5513 155.157 20.8704 155.336C21.7359 155.738 22.3283 156.028 22.761 156.229C23.5238 156.551 24.1161 156.842 24.5029 156.975C24.833 157.097 25.7094 157.441 26.8589 157.897C27.0185 157.987 27.7922 158.253 28.7822 158.619C28.9986 158.72 29.7154 158.975 30.7163 159.284C31.0463 159.406 32.1609 159.738 33.6623 160.202C34.72 160.523 35.9482 160.876 37.1304 161.162C37.4713 161.227 38.3018 161.504 39.4272 161.779C39.8818 161.866 40.7799 162.097 42.019 162.393C42.4735 162.481 43.4285 162.723 44.6785 162.962C45.2466 163.071 46.2016 163.313 47.3948 163.542C48.3038 163.716 49.0992 163.869 49.6106 163.967C51.0878 164.25 52.235 164.411 52.8032 164.52C54.1776 164.725 55.5521 164.93 56.813 165.113C58.1874 165.317 59.2887 165.411 59.6864 165.487C60.9581 165.613 61.9349 165.742 62.2867 165.75C63.7966 165.863 64.8978 165.957 65.2496 165.965C66.7027 166.067 67.758 166.093 67.9962 166.08C69.4601 166.125 70.5155 166.151 70.8673 166.16C71.2758 166.179 71.8658 166.175 72.6939 166.157C73.1702 166.13 74.1119 166.134 75.189 166.047C76.0848 165.983 77.2187 165.906 78.6235 165.646C79.7792 165.455 80.7644 165.232 81.7037 164.942C83.1411 164.511 83.5014 164.168 83.7831 163.928C84.0757 163.631 84.2546 163.312 84.3876 162.926L86.0377 163.536C85.8043 164.139 85.4682 164.663 85.0185 165.165C84.501 165.714 83.8917 166.126 82.1944 166.684C81.1873 167.02 80.1453 167.232 78.865 167.458C77.3467 167.696 76.1559 167.762 75.2601 167.826C74.1262 167.903 73.1845 167.899 72.6514 167.914C71.8233 167.932 71.1765 167.926 70.7679 167.906C70.473 167.908 69.3499 167.929 67.8401 167.816C67.6019 167.829 66.4897 167.792 65.0367 167.69C64.6849 167.681 63.5836 167.588 62.0738 167.475C61.722 167.466 60.7452 167.338 59.4735 167.212C59.0649 167.192 57.9745 167.042 56.5323 166.883C55.2715 166.7 53.8402 166.485 52.4657 166.28C51.8976 166.171 50.7504 166.01 49.2163 165.716C48.8863 165.594 48.3182 165.485 47.5795 165.343Z" fill="#FFEB90"/>
</g>
<g id="Group_21">
<path id="Vector_22" d="M44.5557 181.419C43.9876 181.31 43.4762 181.212 43.0217 181.125C41.5445 180.842 40.3622 180.556 39.7373 180.436C38.2141 180.085 37.0319 179.8 36.4637 179.691C35.1678 179.383 34.156 179.131 33.7692 178.998C32.7006 178.734 31.8701 178.457 31.5292 178.391C30.1874 178.016 29.1297 177.696 28.5724 177.53C27.1846 177.088 26.1837 176.778 25.8537 176.656C24.9664 176.368 24.3064 176.124 24.09 176.023C23.2136 175.679 22.4968 175.423 22.3263 175.391C21.8827 175.247 21.1767 174.935 20.2544 174.523C19.7648 174.311 18.8884 173.966 17.7606 173.397C17.271 173.185 16.576 172.817 15.7213 172.359C15.1858 172.079 14.5476 171.722 13.7607 171.218C13.1901 170.814 12.5519 170.456 11.8435 169.849C10.9865 169.096 10.4268 168.636 9.9893 167.846C9.5977 167.123 9.44425 166.388 9.4262 165.56L11.1392 165.536C11.1548 166.068 11.2841 166.623 11.492 167.075C11.7458 167.594 12.1568 167.908 12.9111 168.583C13.5735 169.122 14.0981 169.458 14.6687 169.861C15.3988 170.355 15.9911 170.645 16.5266 170.924C17.3812 171.382 18.0304 171.683 18.509 171.951C19.5909 172.453 20.4105 172.787 20.9001 172.999C21.8224 173.411 22.5393 173.666 22.9829 173.81C23.1425 173.899 23.8025 174.144 24.6898 174.431C24.9062 174.532 25.5203 174.708 26.3967 175.053C26.7267 175.175 27.7276 175.485 29.0585 175.917C29.559 176.071 30.6167 176.392 31.9585 176.767C32.2994 176.832 33.0731 177.098 34.1417 177.362C34.5285 177.495 35.5403 177.748 36.7794 178.045C37.2907 178.143 38.4621 178.485 39.9961 178.779C40.5643 178.888 41.7466 179.174 43.2238 179.457C43.9056 179.588 44.701 179.74 45.6669 179.925C47.0873 180.198 48.1776 180.348 48.8594 180.479C49.8821 180.675 50.6316 180.76 51.0293 180.836C52.4606 181.052 53.551 181.202 54.0732 181.243C55.3341 181.426 56.2649 181.487 56.6626 181.563C57.8775 181.678 58.7975 181.796 59.1493 181.804C60.1369 181.876 60.8864 181.961 61.1246 181.948C61.874 182.033 62.9862 182.069 64.212 182.128C64.6774 182.158 65.4946 182.197 66.55 182.223C67.1399 182.218 68.1384 182.233 69.3751 182.235C70.26 182.228 71.6212 182.195 73.31 181.989C74.6253 181.888 75.486 181.7 75.7919 181.641C77.0153 181.405 77.7624 181.195 78.1359 181.09C79.0753 180.799 79.4597 180.638 79.9227 180.373C80.4644 180.006 80.9141 179.504 81.2261 178.799L82.7866 179.569C82.3175 180.479 81.6997 181.244 80.8982 181.737C80.2211 182.196 79.6554 182.382 78.6592 182.662C78.2857 182.767 77.414 183.012 76.1338 183.237C75.828 183.296 74.8536 183.462 73.4815 183.552C71.6791 183.736 70.3179 183.77 69.3762 183.766C68.0718 183.81 67.0732 183.795 66.4265 183.788C65.3711 183.763 64.554 183.724 64.0885 183.693C62.8059 183.624 61.6938 183.587 60.9443 183.502C60.717 183.459 59.9566 183.431 58.9122 183.348C58.5604 183.339 57.6404 183.222 56.3687 183.096C55.9601 183.076 55.0402 182.959 53.7793 182.776C53.2571 182.735 52.1099 182.573 50.6786 182.358C50.2809 182.282 49.4746 182.186 48.4519 181.99C47.7701 181.859 46.6229 181.698 45.2593 181.436C45.1239 181.528 44.8398 181.474 44.5557 181.419Z" fill="#FFEB90"/>
</g>
<g id="Group_22">
<path id="Vector_23" d="M41.4751 197.484C40.6229 197.321 39.9411 197.19 39.4297 197.092C38.0093 196.82 36.9407 196.556 36.3725 196.447C35.0198 196.129 33.9512 195.865 33.4967 195.778C32.144 195.459 31.1431 195.15 30.6885 195.063C29.5063 194.777 28.6758 194.5 28.2781 194.424C27.2772 194.114 26.5495 193.916 26.2763 193.804C25.1049 193.462 24.2176 193.174 23.9444 193.063C22.8408 192.675 22.0103 192.398 21.7939 192.298C20.5766 191.888 19.7002 191.543 19.4838 191.443C19.0402 191.299 18.2774 190.976 17.3551 190.564C16.8087 190.341 16.2164 190.051 15.34 189.706C14.9072 189.506 14.2581 189.205 13.4035 188.746C12.9707 188.546 12.2297 188.109 11.3291 187.584C10.7477 187.237 10.3827 186.99 10.2799 186.912C10.0176 186.743 9.60661 186.429 9.14969 186.047C8.84145 185.812 8.48728 185.508 8.09807 185.081C7.80072 184.788 7.50336 184.496 7.18185 184.022C6.9522 183.684 6.67661 183.278 6.5582 182.667C6.46396 182.236 6.42652 181.817 6.50272 181.42L8.22897 181.633C8.18543 181.86 8.20959 182.042 8.27968 182.29C8.33888 182.596 8.47668 182.799 8.6604 183.07C8.89005 183.408 9.08466 183.622 9.3252 183.903C9.66848 184.263 9.97672 184.499 10.2281 184.724C10.6391 185.038 11.0042 185.285 11.2556 185.51C11.4152 185.599 11.7234 185.835 12.248 186.171C13.0918 186.686 13.7868 187.054 14.2196 187.255C15.0174 187.702 15.6665 188.003 16.0993 188.204C16.908 188.594 17.5112 188.828 18.0576 189.05C18.9799 189.463 19.6968 189.718 20.1404 189.862C20.3568 189.962 21.1764 190.296 22.3937 190.706C22.6101 190.806 23.4405 191.083 24.4983 191.404C24.7714 191.515 25.6587 191.803 26.8301 192.145C27.1033 192.256 27.831 192.455 28.7751 192.753C29.1051 192.876 30.0033 193.107 31.1287 193.381C31.5724 193.525 32.5842 193.778 33.9369 194.096C34.3914 194.184 35.46 194.447 36.8127 194.766C37.3809 194.875 38.4495 195.138 39.8131 195.4C40.4381 195.52 41.2903 195.683 42.313 195.879C43.6766 196.141 44.7561 196.348 45.4488 196.422C46.6987 196.661 47.7323 196.801 48.1977 196.831C49.2881 196.981 50.1512 197.088 50.6058 197.175C51.4689 197.282 52.1616 197.356 52.5025 197.421C53.536 197.56 54.3424 197.656 54.6941 197.665C55.7386 197.747 56.6017 197.854 56.8967 197.852C57.6462 197.937 58.7475 198.03 59.9164 198.078C61.3127 198.169 62.368 198.195 62.6062 198.181C63.0716 198.212 63.9565 198.205 65.0687 198.242C65.8967 198.224 67.1334 198.226 68.7436 198.122C69.4581 198.083 70.4107 198.03 71.68 197.861C73.4366 197.61 74.4218 197.387 74.7386 197.271C75.2934 197.142 75.916 196.967 76.639 196.576C77.4864 196.15 77.7113 195.899 77.8467 195.807C78.0716 195.556 78.2397 195.294 78.305 194.953L79.9768 195.45C79.8111 196.007 79.5427 196.485 79.1607 196.942C78.8681 197.239 78.4401 197.628 77.4004 198.134C76.553 198.56 75.8058 198.77 75.1941 198.888C74.2089 199.112 73.1668 199.324 71.8975 199.492C70.5713 199.65 69.6187 199.703 68.8366 199.788C67.1695 199.88 65.876 199.868 65.0479 199.886C63.8681 199.895 62.9941 199.845 62.5178 199.871C62.2796 199.884 61.2243 199.859 59.7712 199.757C58.5454 199.698 57.4441 199.605 56.7515 199.531C56.3997 199.522 55.5934 199.426 54.4921 199.333C54.1403 199.324 53.334 199.228 52.2436 199.078C51.9595 199.024 51.21 198.939 50.3469 198.832C49.9492 198.756 49.0292 198.638 47.9389 198.488C47.4275 198.39 46.3939 198.251 45.1331 198.068C44.5081 197.948 43.3609 197.787 41.9973 197.525C41.7592 197.539 41.5887 197.506 41.4751 197.484Z" fill="#FFEB90"/>
</g>
<g id="Group_23">
<path id="Vector_24" d="M63.6396 7.86621C63.6288 7.92298 63.6288 7.92298 63.6288 7.92298C63.6288 7.92298 63.6288 7.92298 63.6179 7.97975L63.607 8.03651C63.607 8.03651 63.5961 8.09328 63.5852 8.15005C63.5852 8.15005 63.5743 8.20682 63.5634 8.26358C63.5526 8.32035 63.5526 8.32035 63.5417 8.37712L63.5199 8.49066L63.4981 8.60419L63.4872 8.66096L63.4764 8.71773C63.4655 8.77449 63.4546 8.83126 63.4546 8.83126C63.4546 8.83126 63.4546 8.83126 63.4437 8.88803L63.4328 8.9448C63.4328 8.9448 63.4111 9.05833 63.4002 9.1151L63.3893 9.17187C63.3566 9.34217 63.3131 9.56924 63.2804 9.73954C63.2587 9.85308 63.226 10.0234 63.2042 10.1369L63.1389 10.4775C63.1389 10.4775 62.9974 11.2155 62.9865 11.2723C62.9647 11.3858 61.8786 17.3573 61.8677 17.4141C61.8241 17.6411 60.9859 22.0122 60.9642 22.1258C60.9315 22.2961 60.8989 22.4664 60.8662 22.6367C60.8662 22.6367 60.8662 22.6367 60.8553 22.6935L60.8444 22.7502C60.8444 22.7502 60.8444 22.7502 60.8335 22.807C60.8335 22.807 60.8335 22.807 60.8227 22.8638C60.8227 22.8638 60.8227 22.8638 60.8118 22.9205C60.8118 22.9205 60.8118 22.9205 60.8009 22.9773C60.8009 22.9773 60.8009 22.9773 60.79 23.0341L60.7791 23.0908C60.7791 23.0908 60.7791 23.0908 60.7682 23.1476C60.7682 23.1476 60.7574 23.2044 60.8142 23.2153C60.8142 23.2153 60.8601 23.2829 60.906 23.3506C60.9979 23.4859 61.0897 23.6212 61.0897 23.6212C61.2384 23.7675 61.3303 23.9028 61.433 23.9813C61.5249 24.1167 61.6276 24.1952 61.7413 24.217C61.844 24.2956 61.9468 24.3741 62.0495 24.4527C62.1063 24.4636 62.3118 24.6207 62.5741 24.7887C62.6309 24.7996 62.7905 24.889 62.996 25.0462C63.6911 25.4149 64.5675 25.7595 64.5566 25.8163C65.1598 26.0496 65.5925 26.2503 65.9226 26.3725C66.1389 26.4728 66.5258 26.6058 67.0262 26.7607C67.5267 26.9155 68.8576 27.3473 70.7676 27.8312C70.9949 27.8748 71.7226 28.0732 72.7453 28.2693C73.0862 28.3347 73.6543 28.4436 74.3929 28.5853C75.0179 28.7051 75.4724 28.7923 75.7674 28.79C76.2219 28.8771 76.5737 28.8857 76.7442 28.9184C77.0851 28.9838 77.38 28.9815 77.4937 29.0033C77.5505 29.0142 77.7209 29.0469 77.9023 29.0228C78.6517 29.1077 79.2876 29.1707 79.3444 29.1816C79.9235 29.2338 80.3889 29.2642 80.5025 29.286C80.6162 29.3078 80.9679 29.3164 81.3765 29.3359C81.8988 29.3772 82.7268 29.3594 83.7931 29.3284C83.7931 29.3284 84.7457 29.2757 85.5387 29.1335C85.5387 29.1335 86.0259 29.0503 86.4563 28.9563C86.5808 28.9213 86.7053 28.8863 86.7053 28.8863C86.8298 28.8514 86.9543 28.8164 87.0897 28.7246C87.2143 28.6897 87.282 28.6438 87.4283 28.4953C87.496 28.4494 87.6314 28.3577 87.7776 28.2091C87.7885 28.1524 87.8562 28.1065 87.878 27.993C87.8889 27.9362 87.8998 27.8794 87.8998 27.8794C87.9107 27.8227 87.9215 27.7659 87.9324 27.7091C87.9542 27.5956 87.9869 27.4253 88.0086 27.3117C88.0086 27.3117 88.0957 26.8576 88.1066 26.8008L88.2263 26.1764C88.2917 25.8358 88.3461 25.552 88.4114 25.2113C88.4658 24.9275 88.5203 24.6437 88.5747 24.3598L88.7271 23.5651C88.7815 23.2812 88.8468 22.9406 88.9012 22.6568L89.0754 21.7485C89.3476 20.3293 89.6306 18.8534 89.9027 17.4342C90.0987 16.4124 90.2946 15.3906 90.4905 14.3687L90.5667 13.9714L90.6212 13.6875L90.6865 13.3469C90.6865 13.3469 90.6865 13.3469 90.6756 13.4037C90.6647 13.4605 90.6538 13.5172 90.6538 13.5172C90.6538 13.5172 90.6429 13.574 90.5752 13.6199C90.5752 13.6199 90.5644 13.6766 90.4967 13.7225C90.429 13.7684 90.4181 13.8251 90.4181 13.8251C90.6079 13.4496 90.5402 13.4954 90.5402 13.4954C90.4725 13.5413 90.4725 13.5413 90.4048 13.5872C90.3371 13.633 90.2694 13.6789 90.2694 13.6789L90.2017 13.7248C90.2017 13.7248 90.0772 13.7598 90.0095 13.8056C89.9418 13.8515 89.885 13.8406 89.8173 13.8865C89.7496 13.9324 89.6927 13.9215 89.625 13.9673C89.625 13.9673 89.5005 14.0023 89.4328 14.0482C89.4328 14.0482 89.3083 14.0832 89.2515 14.0723C89.1838 14.1182 89.0024 14.1422 88.6966 14.2013C88.5721 14.2363 88.4476 14.2713 88.3907 14.2604C88.2094 14.2844 88.0849 14.3194 87.9713 14.2976C87.9144 14.2867 87.7899 14.3217 87.5518 14.3349C87.495 14.324 87.3704 14.359 87.1323 14.3722C87.1323 14.3722 86.8941 14.3854 86.656 14.3985C85.6466 14.4404 84.4776 14.3928 84.4776 14.3928C83.6604 14.3538 83.0137 14.3475 82.6159 14.2712C82.4455 14.2386 81.5147 14.1778 80.3566 14.0734C80.0725 14.0189 79.1525 13.9014 77.9485 13.7294C76.5741 13.5246 75.5054 13.2609 74.9941 13.1628C74.3691 13.043 73.3005 12.7792 71.9019 12.3933C70.3328 11.9747 69.1832 11.5188 68.9559 11.4753C68.5123 11.3313 67.7954 11.0762 66.9299 10.6748C66.8163 10.653 66.1672 10.352 65.4262 9.91558C65.3693 9.90469 65.0611 9.66902 64.5933 9.34389C64.5933 9.34389 64.2851 9.10822 64.0445 8.82667C63.9986 8.75901 63.9527 8.69135 63.8608 8.55602C63.8149 8.48836 63.7798 8.36393 63.7798 8.36393C63.7907 8.30716 63.7448 8.2395 63.7557 8.18273C63.6288 7.92298 63.6396 7.86621 63.6396 7.86621Z" fill="#FFEB90"/>
<path id="Vector_25" d="M75.6759 13.2935C76.0168 13.3588 76.3577 13.4242 76.6418 13.4787C76.8122 13.5114 77.0395 13.555 77.3235 13.6094C77.5508 13.653 77.8917 13.7184 78.2894 13.7946C79.028 13.9363 79.6071 13.9885 79.7775 14.0211C80.8111 14.1605 81.6742 14.2671 81.8556 14.2431C82.321 14.2734 83.0137 14.3474 83.8877 14.3973C85.2948 14.4317 86.2933 14.4466 86.5315 14.4334C86.8264 14.4311 87.3027 14.4048 87.9036 14.3434C87.9036 14.3434 88.6857 14.258 89.3083 14.0831C89.376 14.0372 89.5573 14.0131 89.7496 13.9323C90.0095 13.8056 90.1449 13.7138 90.2017 13.7247C90.3939 13.6439 90.4725 13.5412 90.4725 13.5412C90.5402 13.4953 90.6079 13.4495 90.6865 13.3468C90.7542 13.301 90.7651 13.2442 90.7651 13.2442C90.776 13.1874 90.8328 13.1983 90.8437 13.1416C90.8546 13.0848 90.8546 13.0848 90.8546 13.0848L90.8654 13.028C90.8654 13.028 90.8654 13.028 90.8763 12.9712L90.8872 12.9145C90.8981 12.8577 90.909 12.8009 90.909 12.8009C90.909 12.8009 90.9199 12.7442 90.8739 12.6765C90.8739 12.6765 90.8848 12.6197 90.8389 12.5521C90.793 12.4844 90.747 12.4168 90.7579 12.36C90.712 12.2923 90.6661 12.2247 90.6201 12.157C90.5633 12.1461 90.5742 12.0893 90.5283 12.0217C90.3796 11.8755 90.1741 11.7183 90.185 11.6616C90.0363 11.5154 89.8767 11.4259 89.774 11.3473C89.5685 11.1902 89.4089 11.1008 89.2494 11.0113C89.1466 10.9328 89.0439 10.8542 88.8275 10.7539C88.4624 10.5073 88.1893 10.3961 87.8701 10.2172C87.1642 9.90521 86.6178 9.68273 86.2878 9.56059C86.231 9.5497 85.8441 9.41667 85.3546 9.20508C85.3546 9.20508 85.0814 9.09384 84.7973 9.03936C83.3068 8.51813 81.5104 8.05596 81.5104 8.05596C81.1127 7.97969 79.7709 7.60468 78.0096 7.26694C77.3278 7.1362 76.8165 7.03814 76.5324 6.98367C74.5898 6.67001 73.0908 6.50028 72.6254 6.46989C71.5809 6.38731 70.7637 6.34832 70.5256 6.36151C69.7652 6.33341 69.2321 6.34889 69.0048 6.30531C68.4149 6.3099 67.9954 6.34717 67.8249 6.31448C67.2918 6.32997 66.986 6.38903 66.8723 6.36724C66.691 6.39132 66.4529 6.40451 66.2038 6.47446C65.4785 6.57079 65.0372 6.7216 64.9127 6.75658C64.7882 6.79156 64.596 6.87241 64.3929 7.01003C64.3252 7.0559 64.0652 7.18262 63.919 7.33113C63.8513 7.37701 63.8295 7.49054 63.7618 7.53641C63.6832 7.63906 63.6723 7.69582 63.6614 7.75259C63.6614 7.75259 63.6397 7.86613 63.6179 7.97966C63.607 8.03643 63.642 8.16086 63.6771 8.28529C63.804 8.54504 64.0445 8.82659 64.0445 8.82659C64.4906 9.26525 64.9124 9.52271 64.9124 9.52271C65.3802 9.84784 65.7562 10.0376 66.0185 10.2056C66.178 10.2951 66.8272 10.5961 67.8063 11.0193C68.3527 11.2418 68.7395 11.3748 69.0696 11.497C69.2291 11.5864 69.9568 11.7848 70.9578 12.0945C71.2878 12.2166 72.3455 12.5371 73.8118 12.8772C74.5964 13.0865 75.2214 13.2063 75.6759 13.2935Z" fill="#FFCE00"/>
</g>
</g>
</g>
<defs>
<clipPath id="clip0_791_563">
<rect width="77" height="213" fill="white" transform="translate(40.1133) rotate(10.8551)"/>
</clipPath>
</defs>
</svg>
