<svg xmlns="http://www.w3.org/2000/svg" xmlns:xlink="http://www.w3.org/1999/xlink" viewBox="0 0 429.38 281.69"><defs><style>.cls-1{fill:#545469;}.cls-2{fill:#636277;}.cls-3{isolation:isolate;}.cls-4{clip-path:url(#clip-path);}.cls-5{clip-path:url(#clip-path-2);}.cls-6{clip-path:url(#clip-path-3);}.cls-7{clip-path:url(#clip-path-4);}.cls-8{clip-path:url(#clip-path-5);}.cls-9{clip-path:url(#clip-path-6);}.cls-10{clip-path:url(#clip-path-7);}.cls-11{clip-path:url(#clip-path-8);}.cls-12{clip-path:url(#clip-path-9);}.cls-13{clip-path:url(#clip-path-10);}.cls-14{clip-path:url(#clip-path-11);}.cls-15{clip-path:url(#clip-path-12);}.cls-16{clip-path:url(#clip-path-13);}.cls-17{clip-path:url(#clip-path-14);}.cls-18{clip-path:url(#clip-path-15);}.cls-19{clip-path:url(#clip-path-16);}.cls-20{clip-path:url(#clip-path-17);}.cls-21{clip-path:url(#clip-path-18);}.cls-22{clip-path:url(#clip-path-19);}.cls-23{clip-path:url(#clip-path-20);}.cls-24{clip-path:url(#clip-path-21);}.cls-25{clip-path:url(#clip-path-22);}.cls-26{clip-path:url(#clip-path-23);}.cls-27{clip-path:url(#clip-path-24);}.cls-28{clip-path:url(#clip-path-25);}.cls-29{clip-path:url(#clip-path-26);}.cls-30{clip-path:url(#clip-path-27);}.cls-31{clip-path:url(#clip-path-28);}.cls-32{clip-path:url(#clip-path-29);}.cls-33{clip-path:url(#clip-path-30);}.cls-34{clip-path:url(#clip-path-31);}.cls-35{clip-path:url(#clip-path-32);}.cls-36{clip-path:url(#clip-path-33);}.cls-37{clip-path:url(#clip-path-34);}.cls-38{clip-path:url(#clip-path-35);}.cls-39{clip-path:url(#clip-path-36);}.cls-40{clip-path:url(#clip-path-37);}.cls-41{clip-path:url(#clip-path-38);}.cls-42{clip-path:url(#clip-path-39);}.cls-43{clip-path:url(#clip-path-40);}.cls-44{clip-path:url(#clip-path-41);}.cls-45{clip-path:url(#clip-path-42);}.cls-46{clip-path:url(#clip-path-43);}.cls-47{clip-path:url(#clip-path-44);}.cls-48{clip-path:url(#clip-path-45);}.cls-49{clip-path:url(#clip-path-46);}.cls-50{clip-path:url(#clip-path-47);}.cls-51{clip-path:url(#clip-path-48);}.cls-52{clip-path:url(#clip-path-49);}.cls-53{clip-path:url(#clip-path-50);}.cls-54{clip-path:url(#clip-path-51);}.cls-55{clip-path:url(#clip-path-52);}.cls-56{clip-path:url(#clip-path-53);}.cls-57{clip-path:url(#clip-path-54);}.cls-58{clip-path:url(#clip-path-55);}.cls-59{clip-path:url(#clip-path-56);}.cls-60{clip-path:url(#clip-path-57);}.cls-61{clip-path:url(#clip-path-58);}.cls-62{clip-path:url(#clip-path-59);}.cls-63{fill:#068cac;}.cls-64{fill:#8b8b8b;}.cls-65{fill:#9f9f9f;}.cls-66,.cls-81{fill:#fff;}.cls-66,.cls-82{opacity:0.5;}.cls-67{fill:#7195b4;opacity:0.56;}.cls-68,.cls-89{fill:#c3cdc7;}.cls-69{fill:#e7eee9;}.cls-70{fill:#868b88;}.cls-71{fill:#6cc2c3;stroke:#6cc2c3;}.cls-71,.cls-72,.cls-73,.cls-84,.cls-85,.cls-88{stroke-linejoin:round;}.cls-71,.cls-73{stroke-width:1.56px;}.cls-72,.cls-84,.cls-85,.cls-88{fill:none;}.cls-72{stroke:#727272;stroke-width:1.2px;}.cls-73{fill:#daedec;}.cls-73,.cls-84,.cls-85{stroke:#daedec;}.cls-74,.cls-80{mix-blend-mode:multiply;}.cls-75,.cls-80{fill:#b5bab5;}.cls-76{fill:#5b3014;}.cls-77{fill:#e1e0e0;}.cls-78{fill:#2d2d2e;}.cls-79{fill:#abacaf;}.cls-82{fill:#c2e1ec;}.cls-83{fill:#5a5a5a;}.cls-84{stroke-width:0.6px;}.cls-85{stroke-width:0.3px;}.cls-86{fill:#8c998f;}.cls-87{fill:#969596;}.cls-88{stroke:#000;stroke-width:0.63px;}.cls-89{stroke:#838383;stroke-miterlimit:10;stroke-width:0.9px;}.cls-90{fill:#92979e;}.cls-91{fill:#eaeaea;}.cls-92{fill:#c2c8cc;}.cls-93{fill:#acb1b7;}</style><clipPath id="clip-path" transform="translate(2.12)"><path class="cls-1" d="M186.38.91a45.63,45.63,0,0,1-9.54.47c-4.21-.12-7.1-.49-11.16.76-2.62.81-4.29,1.84-7.44,3.78-7.4,4.57-8,6.87-12.65,8.33-2,.62-4.06.66-8.19.75a54.57,54.57,0,0,1-8.3-.37,33.87,33.87,0,0,0-5.09-.38c-3.69.07-9.4,3.94-21.58,9.83-6.25,3-10.32,5.15-11.16,9.08-.32,1.49,0,4,.74,9.08.75,5.31,1.14,5.6.75,6.81C91.7,52.25,88,53,81.59,55.86a75.13,75.13,0,0,0-11.16,6c-9.31,6.65-14.57,19.56-14.14,31,.15,3.81.77,3.31.75,6.81,0,9.69-4.8,17.55-8.93,24.21-2.08,3.34-1.53,2-5.21,7.56-7.65,11.6-9.74,17.05-10.42,18.92-2,5.64-3.08,8.47-2.23,12.1,1.05,4.49,3.83,5.39,3.72,9.08-.06,1.91-.83,2.74-5.95,9.84s-5.59,8-6,9.07c-.45,1.36-.79,3,0,12.11.71,8.08,1.22,9.58,1.49,15.13.31,6.43.45,9.69-.74,12.11-2,4.06-5.23,3.77-10.42,9.07-3.81,3.89-6.22,6.36-8.19,9.84-4.47,7.92-6.32,20.57-.74,25.72,2.76,2.55,6.42,2.51,11.16,2.27,4.35-.21,8.71-.15,13.08-.09A135.69,135.69,0,0,0,47.36,276c3.62-.48,16.31-.32,41.68,0,28.52.35,50.16,1.33,54.32,1.51,25.47,1.1,95.81,2.43,276.81,3.78,4.92-5.27,6.27-10,6.7-12.86a60.52,60.52,0,0,0,0-8.32c-.13-4.16-.23-7.61-.75-12.11-.69-6.06-1-9.09-2.23-11.35-.87-1.65-1.11-1.42-7.44-8.32-4.35-4.74-5.19-5.88-5.95-7.56s-2.2-4.83-1.49-8.33c.67-3.3,2.5-3.36,5.21-8.32,1.16-2.13,2.9-5.31,3-9.08.07-3.24-1.14-4.9-3-9.08-2.27-5.16-5-11.33-5.21-18.15-.21-6.23,1.85-7.16.74-12.86a27.15,27.15,0,0,0-3.72-9.08c-2.43-3.84-3.61-3.64-8.18-9.08-3.65-4.34-5.49-6.58-6-9.84s.92-4.31.75-7.56c-.22-4.23-2.82-7.08-6.7-11.35-10-11-15-16.54-15.63-17.4-3.23-4.71-5.13-8.85-9.67-13.62-3.6-3.78-6-5-6.7-5.3-2.58-1.22-3.42-.84-5.2-2.27a18.39,18.39,0,0,1-4.47-6,24.36,24.36,0,0,0,0-9.08c-1.35-5.44-6.2-8.74-6.7-9.08-2.35-1.56-3.26-1.18-5.21-3a14.91,14.91,0,0,1-3.72-6.05c-.95-2.92-.3-3.92-1.48-6.81a18.69,18.69,0,0,0-2.24-3.79C321.39,21,312.67,19.26,307.81,18s-10.49-3.61-21.58-8.32c-9.58-4.07-10.51-5.13-16.37-6.81C265.05,1.52,260,.11,253.49.63c-2.59.2-2.48.48-14.14,3.78-12,3.4-15.24,4-19.35,3.78a43.45,43.45,0,0,1-8.93-1.51c-10.55-2.51-10.87-5-17.86-6A18.17,18.17,0,0,0,190.45.4a22,22,0,0,0-4.07.51"/></clipPath><clipPath id="clip-path-2" transform="translate(2.12)"><path class="cls-2" d="M16.48,246.13c-2.6.32-3.65.12-6,.76-.44.12-1,.26-1.69.41a9,9,0,0,0-6.62,6.21C.73,258.45.11,260.72.11,265.05c0,1.67,1.66,2.26,10.42,6.05,3.3,1.43,4.52,2.07,6,1.51,2.55-1,3.33-4.85,3.72-6.81.64-3.15,0-3.8,0-8.32.07-6.88,2.44-10.12.75-11.35a2.71,2.71,0,0,0-1.42-.25,27.75,27.75,0,0,0-3.05.25"/></clipPath><clipPath id="clip-path-3" transform="translate(2.12)"><path class="cls-2" d="M23.18,210.57c0,1.87,1.34,13.38,0,18.16-.52,1.84,0,1.51-8.93,8.32-8.16,6.23-7.21,8-7.44,8.32-1.49,2.27,7.78-1.11,8.93-1.51.64-.22,1.68-.65,3.72-1.51,5.66-2.37,8.5-3.56,8.93-3.78,4.19-2.16,6.49-3.33,8.18-6.06a20.53,20.53,0,0,0,2.24-6c.67-2.55,1-3.83.74-5.29-.62-3.5-3.69-5.55-4.46-6.06-1.63-1.08-2.07-.76-6-2.27-3.63-1.4-5.23-2.53-5.75-2.53-.14,0-.2.08-.2.26"/></clipPath><clipPath id="clip-path-4" transform="translate(2.12)"><path class="cls-2" d="M353.57,84.23a37.1,37.1,0,0,0-2.64,9.12,34.92,34.92,0,0,0,1.15,10.55c.8,2.25,1.12,1.24,2.24,3,1.69,2.73,3.58,1.68,7.77,3.84.43.22,3.27,1.41,8.93,3.78,2,.85,3.08,1.29,3.72,1.51,1.15.4,16,.55,16.78-.8.21-.38-8.23-9.79-8.93-10.6-5.21-6.05-6.69-7.56-8.18-9.07-3.46-3.52-9.68-11-9.68-12.87,0-.84-2.23-4.53-6.69-8.32a1.52,1.52,0,0,0-1-.42c-2.36,0-2.85,8.91-3.52,10.26"/></clipPath><clipPath id="clip-path-5" transform="translate(2.12)"><path class="cls-2" d="M409.08,248.88c-3,4.85-4.23,6.87-5.38,11.25-.43,1.63,1.16,4.24,8.66,10.21a36.79,36.79,0,0,1,6.7,7.57c2.23,3.78,2.85,1.75,3.72,0,1.41-2.88,1.85-1.68,3-6.06,1.51-5.85.75-9.07.75-21.18,0-.68-.75-6.81-1.49-8.32-1.17-2.38-.6-3-3-3-.61,0-5-.7-5.95-.75H416c-2.74,0-5.47,8-6.93,10.32"/></clipPath><clipPath id="clip-path-6" transform="translate(2.12)"><path class="cls-2" d="M43.27,238.57a11.11,11.11,0,0,1-2.24,0,4.8,4.8,0,0,0-1.48,0l-.86.22A8.56,8.56,0,0,0,33.78,242c-2.25,3-4,5.74-5.39,7.91-5.77,9.28-6.11,12.78-5.95,15.14,0,.81.48,6,3,6.8a2.53,2.53,0,0,0,1.49,0c3.49-.93,10.94,1.24,14.88,2.27,1.66.44,17.4,2.18,23.82,0a30.21,30.21,0,0,0,3.72-1.51c.43-.38,3.31-.83,5.2-3A28.81,28.81,0,0,0,79,263.53a64,64,0,0,0,2.23-6c.8-2.31.51-1.62,1.49-4.54,1.49-4.45,1.82-5.07,1.49-6.05s-1.47-1.69-3.72-3-4-.86-6.7-1.51-2.71-.83-6-1.51c-2.69-.58-2.46-.17-5.21-.76a37.09,37.09,0,0,0-6.7-.76c-.05,0-.76-.75-4.46-.75H46.25c-1.64,0-2-.06-2.33-.06a6,6,0,0,0-.65.06"/></clipPath><clipPath id="clip-path-7" transform="translate(2.12)"><path class="cls-2" d="M52.2,145.51a27,27,0,0,0-9.08,2c-1,.24-1.81,1.31-3.35,3.45a19.35,19.35,0,0,0-3.2,6,27.21,27.21,0,0,0-1.48,4.54c-.51,2.07-3,4.54-2.24,6,1.81,3.67.91,1.33,1.49,3.78.53,2.21-4.48,5.39-5.21,9.08-.95,1.45-1.49,6.05-1.49,6.05s-.36,1.88-.58,3a8.07,8.07,0,0,0-.16,1.55c.09,3.06-1.86,9.62,0,11.35,2.36,2.19,7.17,4.64,8.93,6.05,8.47,6.8,14.88,6.06,17.12,6.06,2.85,0,22.75,5.46,23.81,3,.29-.67,5.8-5.19,5.95-5.29,2.23-1.52,12.71-18.82,14.14-22.7.6-1.63-1.52-8.42-3-15.13-.5-2.34-3.72-10.59-3.72-12.11,0-7.17-6.24-13-8.18-15.13-1.23-1.35-2.79-1.22-4.28-1.1a4.86,4.86,0,0,1-3.17-.41c-.79-.54-3-.76-10.41-1.51l-.46,0c-2.14,0-3.79,1.54-11.45,1.54"/></clipPath><clipPath id="clip-path-8" transform="translate(2.12)"><path class="cls-2" d="M138.88,188.65a19.93,19.93,0,0,1-5.57,0,3.17,3.17,0,0,0-2.57.39,3.29,3.29,0,0,1-2.64.37,4,4,0,0,0-3.07.3,2.56,2.56,0,0,1-1.39.46c-.06,0,0,0-3.72,0h-5.21a26.83,26.83,0,0,0-3.72,0,23.17,23.17,0,0,0-3.72.75,12.06,12.06,0,0,0-6.59,4.54c-1.87,2.59-3.39,4.9-4.58,6.81-5.76,9.27-6.94,14.23-5.95,12.11-.22.49-2.25,5.19,0,6,.68.26,6.52,2.24,6.7,2.27,4.46.75,16.15,4.26,20.09,5.29,1.65.44,14.14,4,20.84,3,3.52-.51,12.65-3,11.16-3a7.6,7.6,0,0,0,3.72-2.27c2.12-2.44,7.06-3.1,8.18-5.29.45-.86,6.38-4.22,8.93-6.81,1.49-1.51,4.24-2.38,5.21-5.3,1.49-4.44-8.59-11.88-8.93-12.86s-5.93-4.71-8.18-6.05c-1.24-.73-4.81-.66-8.15-.59a30.91,30.91,0,0,1-6-.17,8,8,0,0,0-1.78-.17c-.94,0-2,.1-3.07.19"/></clipPath><clipPath id="clip-path-9" transform="translate(2.12)"><path class="cls-2" d="M46.25,219.65a7.72,7.72,0,0,0-3.72,3.78,9.34,9.34,0,0,0-.75,5.3,10.59,10.59,0,0,0,1.49,4.54c1.73,2.47,4.93,2.55,11.16,3,11.88.9,10.57,1.39,17.12,1.51,3.1.06,4.89,0,6.16-.11a17.72,17.72,0,0,1,5,.11c3.17.49,5.2,1.24,6.7,0s1.51-3.86,1.49-6.05c0-1.83-.05-3.81-1.49-5.3-.19-.19-.49-.44-3-1.51-2-.85-2.93-1.27-3.72-1.52-2.82-.88-3.68-.23-8.19-.75-1-.12-2.14-.33-4.46-.76-5.16-.95-5.27-1.22-7.44-1.51a12,12,0,0,0-4.17,0,12.33,12.33,0,0,1-4,0c-3-.38-4.86-1.09-6.46-1.09a4.35,4.35,0,0,0-1.72.33"/></clipPath><clipPath id="clip-path-10" transform="translate(2.12)"><path class="cls-2" d="M121.4,231.76a6.26,6.26,0,0,0-3,.75,4.67,4.67,0,0,0-1.49,1.52,4.42,4.42,0,0,0,0,2.27c.26.91.69,1.16,1.49,2.27,1.38,1.92,1,2.46,2.23,3.78a4.14,4.14,0,0,0,2.23,1.51,4.79,4.79,0,0,0,3-.75,11.17,11.17,0,0,0,2.23-1.52,7.94,7.94,0,0,0,2.23-2.27,5.27,5.27,0,0,0,.75-3,4,4,0,0,0-.75-2.27c-.52-.68-1.34-1-3-1.52a13.94,13.94,0,0,0-3-.75,11.28,11.28,0,0,0-1.46-.09,13.44,13.44,0,0,0-1.52.09"/></clipPath><clipPath id="clip-path-11" transform="translate(2.12)"><path class="cls-2" d="M99.83,232.51A9.83,9.83,0,0,0,97.59,234a10.57,10.57,0,0,0-1.49,1.51,9.5,9.5,0,0,0-1.48,3,23.65,23.65,0,0,1-3.72,6.05c-1.44,1.91-1.74,1.9-2.24,3a10.64,10.64,0,0,0-.74,4.54,10.31,10.31,0,0,0,.74,4.54,12.16,12.16,0,0,0,2.24,3c1.61,1.84,2.35,2.36,3.72,3.78,1.65,1.72,1.13,1.54,3.72,4.54,2.8,3.26,3.33,3.4,4.46,5.3.86,1.44.82,1.83,1.49,2.27,1.41.93,2.45.57,5.95.75a7.09,7.09,0,0,0,3.72-.75,7.85,7.85,0,0,0,2.24-1.52,28.7,28.7,0,0,0,2.23-2.27c1.5-1.56,1.56-1.49,2.23-2.27a30.85,30.85,0,0,0,2.23-3c2.6-3.62,4-3.35,5.21-6.05a6.52,6.52,0,0,0,.75-3.79c-.17-1-.59-1.61-3-4.54-1.76-2.15-2.7-3.28-3.72-4.54-2.11-2.6-1.79-2.38-3-3.78a51.24,51.24,0,0,0-5.21-5.29c-1-.91-.56-.43-3.72-3a24.28,24.28,0,0,0-3-2.27,8.28,8.28,0,0,0-3.72-1.51l-.55,0a7.28,7.28,0,0,0-3.17.78"/></clipPath><clipPath id="clip-path-12" transform="translate(2.12)"><path class="cls-2" d="M87.92,266.55c-1.22.42-1.38.76-3.72,2.23S82,270,80.48,271c-1.29.91-1.5,1.23-3,2.24-1.82,1.24-2.24,1.26-2.23,1.48.09,1.75,25.9,2.31,26,.75,0-.06,0-.07-.74-.75s-1.61-1.52-2.23-2.23c-1.07-1.22-.66-1.35-1.49-2.23-1.48-1.56-2.77-1.16-4.47-3a3.5,3.5,0,0,0-.74-.75,2.87,2.87,0,0,0-1.59-.43,6.86,6.86,0,0,0-2.13.43"/></clipPath><clipPath id="clip-path-13" transform="translate(2.12)"><path class="cls-2" d="M137,268.06c-1.22.42-2.12.05-4.46,1.52s-2.24,1.23-3.72,2.27c-1.29.91-1.5,1.27-3,2.27-1.83,1.25-3,1.3-3,1.52.09,1.74,31.86,2.32,32,.75a22.24,22.24,0,0,1-2.23-1.51c-.59-.56-2.36-.81-3-1.51-1.07-1.22-1.4-.63-2.23-1.52-1.47-1.55-4.26-1.23-5.95-3a4,4,0,0,0-.75-.75,2.92,2.92,0,0,0-1.59-.42,6.89,6.89,0,0,0-2.13.42"/></clipPath><clipPath id="clip-path-14" transform="translate(2.12)"><path class="cls-2" d="M119.92,127.35c-2.59,1.11-4.18,1.66-6,3-2.75,2.12-.54,2.09-3,3.78s-2,2.06-4.47,3.78c-1.22.87-3.89,1.14-7.44,6.06-2,2.84-2.48,3.2-3,4.54-.61,1.66-.14,1.63-.74,5.29-.57,3.44-1.17,4.6-.74,6.81a11.88,11.88,0,0,0,.74,2.27c1.36,3.57,1.09,4.16,3,10.59,1.18,4,1.66,5.06,2.23,6.05a16.15,16.15,0,0,0,3,3.79,14.2,14.2,0,0,0,5.2,3c3.27.93,4.09-.76,9.68-1.51,2.14-.29,6.14-.19,14.14,0,.42,0,1.19,0,2.23,0a46.92,46.92,0,0,0,6.7-.76c5-.72,4.77,0,8.18-.75,2.51-.54,4.2-.91,5.95-2.27a12.49,12.49,0,0,0,3.73-5.3,13.41,13.41,0,0,0,1.48-6.81c-.27-2.61-1.61-3.93-4.46-7.56-5.7-7.26-4.29-7-8.19-11.35-3.07-3.43-3.78-3.4-8.18-8.32-.41-.46-2.22-2.49-4.47-5.3-2.68-3.36-4-5-4.46-6.05a10.22,10.22,0,0,0-2.23-3.78,5.69,5.69,0,0,0-2.24-1.52,2.51,2.51,0,0,0-.79-.13c-1.16,0-2.33.87-5.9,2.4"/></clipPath><clipPath id="clip-path-15" transform="translate(2.12)"><path class="cls-2" d="M180.93,155.34c-.65,0-2.5.23-5.2,2.27s-2.43,3.08-6,6.81c-1.92,2-2.5,2.26-4.46,4.54-2.46,2.87-2.84,4-3,4.54s-.58,2.51.75,6.05c1.59,4.25,3.33,4.62,6.69,9.84,2.67,4.13,2.08,4.68,4.47,7.57,1.75,2.11,2,1.73,5.21,5.29,2.07,2.3,2.68,3.24,4.46,4.54s1.9.88,3.72,2.27c2.23,1.69,2.92,3,4.47,3a4,4,0,0,0,2.23-.76c2.17-1.28,3.9-3.24,5.95-6.81a55,55,0,0,0,3-6.05c1.38-3.17,1.29-3.57,3-7.57,1.38-3.3,1.6-3.41,2.23-5.29.71-2.15.54-2.34,1.49-6.06,1.23-4.85,1.72-5.33,1.48-6.8-.14-.91-.62-2.6-3.72-5.3s-4.58-2.8-11.16-6c-2.89-1.44-5.9-2.72-11.9-5.3a8.31,8.31,0,0,0-3.35-.77h-.38"/></clipPath><clipPath id="clip-path-16" transform="translate(2.12)"><path class="cls-2" d="M235.26,174.26c-1.91.09-4.65.16-8,0-.51,0-1-.08-1.55-.14a9.69,9.69,0,0,0-5.29.85,10,10,0,0,0-3,2.27c-1.24,1.33-1.84,2.58-3,5.3-1.34,3.2-2,4.8-3,7.57-1.13,3.25-1,3.22-2.23,6.81-1.55,4.55-3,8.32-3,8.32-1.63,4.29-2.18,5.37-2.24,7.56,0,1.33-.06,3.68,1.49,5.3a5.86,5.86,0,0,0,3,1.51,44,44,0,0,0,8.93,1.52c.66,0,.45,0,5.95,0h13.39a54.07,54.07,0,0,0,6,0,20.47,20.47,0,0,0,3.72-.76c2-.64,3.41-1.07,4.46-2.27a7.44,7.44,0,0,0,1.49-4.54,20.15,20.15,0,0,0-.74-6.81c-.9-4.11.85,3.31-2.24-11.35-1.15-5.48-1.32-6.19-1.48-6.81a83.47,83.47,0,0,0-3-9.08c-1.32-3.58-1.66-4.08-2.23-4.54a5,5,0,0,0-3.39-.94c-1.07,0-2.37.11-4.05.19"/></clipPath><clipPath id="clip-path-17" transform="translate(2.12)"><path class="cls-2" d="M183.2,215.11A8.05,8.05,0,0,0,179,216.3l-.87.53a3.3,3.3,0,0,0-1.32,1.54l-1.61,3.9a2.47,2.47,0,0,0-.1.29l-.7,2.26a3.28,3.28,0,0,0-.15,1v2.86a3.31,3.31,0,0,0,1.85,3l1.21.57a3.17,3.17,0,0,0,1.39.31l8-.06.33,0,5.86-.65a3.64,3.64,0,0,0,.79-.19l6.86-2.65a3.46,3.46,0,0,0,1-.59l.06,0a3.33,3.33,0,0,0,.28-4.67l-1-1.14a3.22,3.22,0,0,0-1.19-.85l-2.9-1.18-.25-.11-4.26-2.17-.17-.08-4.95-2.16a3,3,0,0,0-.5-.17l-2.21-.56a3.4,3.4,0,0,0-.78-.1Z"/></clipPath><clipPath id="clip-path-18" transform="translate(2.12)"><path class="cls-2" d="M163.4,229.78l-1.32.34a4.21,4.21,0,0,1-1,.12H161a4,4,0,0,0-1.77.41l-1.95.94-.34.14-2.08.78-5,2.2-.32.13L143.1,237l-.23.09-3.61,1.47L136,239.88a4.12,4.12,0,0,0-.91.52l-2.52,1.88a4.28,4.28,0,0,0-.85.85l-.58.79a4.27,4.27,0,0,0-.84,2.53v.33a4.32,4.32,0,0,0,.34,1.66l1.7,4a4.26,4.26,0,0,0,.49.86l1.76,2.39a4.19,4.19,0,0,0,.39.45l2.56,2.6a4.09,4.09,0,0,0,.44.39l2.57,2a2.71,2.71,0,0,0,.35.24l3.41,2.08.27.15,2.84,1.45,4.35,2.46a3,3,0,0,1,.44.29l2.82,2.11a4.28,4.28,0,0,0,1.26.64l3.08.94a4.26,4.26,0,0,0,1.18.17,4.09,4.09,0,0,0,2.72-1l1.91-1.7.19-.19,1.78-1.81a4,4,0,0,0,.62-.8L172,259l3.61-6.62c.07-.12.13-.25.19-.38l1.48-3.51a4.22,4.22,0,0,0,0-3.2l-.85-2.17-1.09-2.63a4.35,4.35,0,0,0-.66-1.09l-1.81-2.15a3,3,0,0,1-.3-.4l-1.25-1.91a2.92,2.92,0,0,0-.21-.28l-1.4-1.8a3.78,3.78,0,0,0-.59-.61l-1.77-1.49a4,4,0,0,0-1.33-.76l-.36-.12a4.11,4.11,0,0,0-1.3-.21,4.21,4.21,0,0,0-1,.12"/></clipPath><clipPath id="clip-path-19" transform="translate(2.12)"><path class="cls-2" d="M237.47,224.19h-4.15a2.39,2.39,0,0,0-.79.14l-.53.19a2.39,2.39,0,0,0-1.52,1.7l-.33,1.34a2.33,2.33,0,0,0-.06.83l.33,3.34.36,3.17a1.7,1.7,0,0,0,0,.22l.65,3.14a2.34,2.34,0,0,0,.2.58l1.35,2.75,1.32,2.68a2.28,2.28,0,0,0,.45.63,2.36,2.36,0,0,0,2.75.45l1.09-.56a2.29,2.29,0,0,0,.62-.45l1.1-1.11.22-.26,2.13-2.89,2.91-3.7.12-.17,1.2-1.83a2.44,2.44,0,0,0,.33-.76l.57-2.33a2.33,2.33,0,0,0,.08-.59v-1.9a2.45,2.45,0,0,0-.81-1.82l-1-.93a2.34,2.34,0,0,0-.88-.5l-1.81-.57-.21,0-3.2-.69a2.63,2.63,0,0,0-.49-.05Z"/></clipPath><clipPath id="clip-path-20" transform="translate(2.12)"><path class="cls-2" d="M279.16,215.87c-.79.08-.19,0-4.47.76-2.94.48-4.43.72-5.2.75a17.35,17.35,0,0,1-2.35-.07,8.48,8.48,0,0,0-2.86.07c-1.07.21-1.12.36-3,.76-2.18.46-2.49.33-3,.76-1.32,1.15-.87,3.75-.74,4.53a13,13,0,0,0,1.49,3.79c2.24,4.7,1.32,5.62,3,7.56,1,1.19,2.41,1.8,5.21,3,3.17,1.39,3.56,1,6.7,2.27,2.66,1.07,2.36,1.34,7.44,3.78a37.77,37.77,0,0,0,5.21,2.27,34.26,34.26,0,0,1,5.21,1.51c1.53.67,1.37.85,3,1.52,1.9.79,2.57.74,4.46,1.51s1.57,1,3,1.51a6.58,6.58,0,0,0,3,.45,13.44,13.44,0,0,1,3.64.31c1.24.26,2.24.58,3,0a2.4,2.4,0,0,0,.75-1.51c.3-1.51-.38-2.46-.75-4.54-.33-1.86-.49-2.8-.74-3.78a43.74,43.74,0,0,0-1.49-4.54c-.74-2-1.1-3-1.49-3.79-.81-1.6-1.11-1.65-3-4.54a29.89,29.89,0,0,1-2.23-3.78c-.8-1.72-.65-2-1.49-3.78a14.17,14.17,0,0,0-2.23-3.78,8.54,8.54,0,0,0-4.46-3c-.7-.16-.78-.05-3.72,0h-3.73c-4.07,0-5.5-.1-6.53-.1a14.38,14.38,0,0,0-1.65.1"/></clipPath><clipPath id="clip-path-21" transform="translate(2.12)"><path class="cls-2" d="M273.21,245.37c-.38.67.11,1.45.74,3,.94,2.39.49,2.31,1.49,5.3.72,2.15,1.07,2.53,2.23,5.29a62.76,62.76,0,0,1,2.23,6.06,10.81,10.81,0,0,0,1.49,3,5.51,5.51,0,0,0,1.49,1.51,5.16,5.16,0,0,0,2.23.76c1,.12,1.92,0,4.47-.76,3.06-.92,4.6-1.38,5.95-2.26.8-.53,1.1-.85,2.23-1.52,1.47-.86,1.75-.78,3-1.51s3-1.77,3-3c0-.39-.15-.77-.75-1.51a12.44,12.44,0,0,0-3.72-3c-2.71-1.53-2-1.76-5.21-3.78a43.93,43.93,0,0,0-6-3c-5.26-2.33-5.19-1.53-7.44-3-1.57-1-2.56-2-4.47-2.27a7.08,7.08,0,0,0-.8-.05c-.75,0-1.79.13-2.17.8"/></clipPath><clipPath id="clip-path-22" transform="translate(2.12)"><path class="cls-2" d="M327.53,253.7c-2.18.6-2,.16-4.47.75-.87.22-2.07.65-4.46,1.52a23.35,23.35,0,0,0-3.72,1.51,12,12,0,0,0-3,2.27c-.74.76-1,.11-1.49,1.51-.7,1.9-1.05,4.37-.74,5.3s1.08,1.48,2.23,2.27a21.73,21.73,0,0,0,3,1.51c1.82.89,1.74.94,3,1.51s2.29,1,3.72,1.52c1.83.68,3.13,1.09,4.47,1.51,3.7,1.17,4.6,1.27,5.21.76a9.47,9.47,0,0,0,1.49-2.27c1.39-2.83,1.4-2.76,1.48-3,.75-2.27.75-1.51.75-4.54a25.78,25.78,0,0,1,0-3c.09-1.23-.06-1.34,0-3.79a12,12,0,0,0,0-2.27,4.63,4.63,0,0,0-1.49-3,4,4,0,0,0-2.23-.76l-.47,0a12.15,12.15,0,0,0-3.25.78"/></clipPath><clipPath id="clip-path-23" transform="translate(2.12)"><path class="cls-2" d="M361.76,244.62c-3.54.23-6,.64-6.7.75-1.5.26-2.77.54-3.72.76a5.31,5.31,0,0,0-2.23,2.27c-.38.8-.3,1.24-.75,2.27a9.58,9.58,0,0,1-1.49,2.27,43.11,43.11,0,0,0-3,4.54,23.83,23.83,0,0,0-1.49,3c-.87,2.16-.65,2.63-1.49,5.29-.95,3-1.43,3.06-1.49,4.54a6.49,6.49,0,0,0,1.49,4.54c1.44,1.48,3.51,1.44,5.21,1.51,3.79.17,7.42,1.64,11.16,2.27,8.51,1.45,20.09,1.52,24.56,2.27,1.39.24,2.23-1.51,2.23-1.51,1.19-1.09,1.35-2.08,2.23-3,1.92-2.06,2.91-2.08,4.47-3.78,1-1.08.69-1.17,3-5.29,2-3.61,2.25-3.55,3-5.3a16.78,16.78,0,0,0,1.49-6c.08-1.89.2-4.9-1.49-6.06-.66-.45-.94-.17-3.72-.75-.83-.18-1.56-.37-3-.76-2.77-.75-3.68-1.09-5.2-1.51a63.09,63.09,0,0,0-7.45-1.52c-1.74-.27-3.54-.56-5.95-.75-1.74-.14-3.31-.19-4.7-.19-2.06,0-3.73.11-5,.19"/></clipPath><clipPath id="clip-path-24" transform="translate(2.12)"><path class="cls-2" d="M250.88,236.3a9.89,9.89,0,0,0-5.21,3c-1.79,1.81-2.17,3-3.72,5.3-4,6-6.34,5.85-8.18,10.59-.78,2-.48,2.39-1.49,4.54-1.5,3.18-2.9,3.89-3,6.05,0,.81.48,2.06,1.49,4.54a38.94,38.94,0,0,0,2.23,4.54c1.39,2.42,2,2.85,2.24,3a6.09,6.09,0,0,0,3.72.75c1,0,1.9,0,2.85,0a39.06,39.06,0,0,0,4.59,0,71.44,71.44,0,0,1,11.16,0c9.53.55,11.91.76,11.91.76,2.35.21,4.34.42,5.2-.76.7-.93,0-2.1,0-5.29v-4.54c.05-4,.2-4.1,0-5.3a19,19,0,0,0-1.48-4.54,26.43,26.43,0,0,0-2.24-4.54c-1.42-2.21-2-1.92-3.72-4.54-1.51-2.28-1.54-3-3-4.54s-1.57-1-3.72-3a29.83,29.83,0,0,1-3-3,8.18,8.18,0,0,0-2.23-2.27,6.32,6.32,0,0,0-2.23-.75,7.44,7.44,0,0,0-1.15-.08,7.18,7.18,0,0,0-1.09.08"/></clipPath><clipPath id="clip-path-25" transform="translate(2.12)"><path class="cls-2" d="M201.77,234a13,13,0,0,0-5.21,2.27,22.65,22.65,0,0,0-4.46,3.78,42.66,42.66,0,0,0-3.72,4.54c-1.93,2.58-2.74,3.9-3.72,5.29-2.86,4.05-3.9,4.06-6.7,7.57-5.23,6.54-3.06,8.29-8.19,14.37-1.38,1.65-3.65,4-3,5.3a2,2,0,0,0,1.48.76,16.36,16.36,0,0,0,7.45-.76c3.18-.92,3.2.32,11.9.76.6,0,.25,0,9.68,0h18.6c2.49.23,4,.71,6,0a4.4,4.4,0,0,0,2.23-1.52,5.59,5.59,0,0,0,.75-3c.09-1,0-1.32,0-3.79,0-1.26,0-1.9,0-2.26a27,27,0,0,1,.74-4.54,39.72,39.72,0,0,0,.75-4.54c.11-1.31,0-1.33,0-4.54,0-3.94.15-3.86,0-5.3-.28-2.66-.78-2.58-.75-4.54s.49-2.5,0-3.78a8.54,8.54,0,0,0-1.49-2.27,6,6,0,0,0-1.48-1.51c-.78-.5-1.18-.37-3-.76s-1-.59-2.23-.76-1.15-.82-2.24-.75a12.41,12.41,0,0,0-4.46-.76l-1.57,0a40.18,40.18,0,0,0-7.36.79"/></clipPath><clipPath id="clip-path-26" transform="translate(2.12)"><path class="cls-2" d="M297,273.37a24.82,24.82,0,0,0-5.95,1.51c-2.31.93-6.84,3.68-6,3.78,6.7.76,32,1.52,34.23,0,.3-.2-1.46-1-4.46-2.27a39.6,39.6,0,0,0-6.7-2.27,32.64,32.64,0,0,0-7.61-1,26.27,26.27,0,0,0-3.55.23"/></clipPath><clipPath id="clip-path-27" transform="translate(2.12)"><path class="cls-2" d="M399,275.64c-2.08,1.13-2.73,1.77-5.21,3-2.29,1.16-3,1.24-3,1.52.09.85,7.05.15,18.6.75,2.07.11,7.4.42,7.44,0,0-.13-.51-.24-1.49-.75a13.53,13.53,0,0,1-2.23-1.52c-1.81-1.45-1.51-1.93-3-3a11.19,11.19,0,0,0-3-1.52,14.34,14.34,0,0,0-3-.75,33.74,33.74,0,0,0-5.21,2.27"/></clipPath><clipPath id="clip-path-28" transform="translate(2.12)"><path class="cls-2" d="M169,94.82c-3.09,1.43-2.24,1.25-7.44,3.78-4.48,2.19-6.13,2.82-11.16,5.3-2.35,1.15-3.81,1.91-6,3-7.4,3.85-9,5-10.42,6.81-1,1.28-2.8,3.64-2.23,6.06.36,1.5,1.31,1.6,3.72,4.54,1.74,2.11,1.44,2.29,3.72,5.29,1.93,2.53,2.22,2.51,3.72,4.54,2.06,2.78,2,3.47,3.73,6.05,2,3,2.33,2.4,5.95,6.81,2.46,3,3.34,4.54,6,6.81,2.3,2,3.44,2.4,4.47,2.27s1.63-.82,3.72-3c3.55-3.74,2.62-2.41,5.21-5.29,2-2.25,3-3.58,4.46-5.3,3.68-4.45,4.72-5.15,7.44-8.32,4.84-5.65,7.32-10.2,10.42-15.89,2.22-4.08,3.12-6.29,3-9.08-.13-2.39-1-4.15-2.24-6.8a29,29,0,0,0-5.95-8.33,14.46,14.46,0,0,0-3.72-3,7.76,7.76,0,0,0-3.29-.71c-3.33,0-7.31,1.81-13.08,4.49"/></clipPath><clipPath id="clip-path-29" transform="translate(2.12)"><path class="cls-2" d="M200.28,83.47a7.7,7.7,0,0,0-2.23,3.78c-.6,2.4.18,4.37,1.49,7.57a39.93,39.93,0,0,0,3.72,6.81,65.52,65.52,0,0,0,4.46,6.05c1.76,2.22,2.25,2.67,3,3,2,1,4,.47,6,0,.67-.16,1.41-.39,6.7-3,3.44-1.72,4.22-2.17,5.21-3a8.28,8.28,0,0,0,3-3.78c1-3.14-1.07-6.17-1.49-6.81-1.18-1.74-2.79-2.7-6-4.54-2.26-1.31-3-1.52-6-3-6.64-3.36-6.47-4-8.93-4.54a15.21,15.21,0,0,0-3.33-.4,8.22,8.22,0,0,0-5.6,1.91"/></clipPath><clipPath id="clip-path-30" transform="translate(2.12)"><path class="cls-2" d="M232.28,110c-2.93,1.38-5.95,2.52-8.93,3.78-6.82,2.89-8.74,3.5-9.67,3.79-2.8.85-3,.7-5.21,1.51a33.53,33.53,0,0,0-7.44,3.78,17.72,17.72,0,0,0-3.72,3c-1.23,1.39-2.07,2.95-3.73,8.32-1.37,4.46-2.06,6.69-2.23,8.32-.36,3.4-.79,7.53,1.49,10.59,1.6,2.16,3.46,2.33,8.93,4.54,8.11,3.28,8.67,3.91,9.67,4.54,2.17,1.36,3,2.17,5.21,3a43.26,43.26,0,0,0,6,1.51c.41.1,3.27.78,5.95,1.52,6.45,1.77,6.33,2.39,8.18,2.27,3.45-.23,6-2.49,7.45-3.79a20.67,20.67,0,0,0,4.46-6.05,48.33,48.33,0,0,0,2.23-5.3c1.85-4.61,2.77-6.91,3.72-9.07,2-4.64,2.65-5.27,3-7.57a21.18,21.18,0,0,0,0-5.3,25.89,25.89,0,0,0-1.49-6.8c-.57-1.55-1.87-3.55-4.46-7.57-2.92-4.51-3.71-5.36-4.47-6-.43-.4-1.52-1.27-3.72-3a29.61,29.61,0,0,0-3-2.27,3.71,3.71,0,0,0-1.42-.28c-1.7,0-3.62,1.07-6.76,2.55"/></clipPath><clipPath id="clip-path-31" transform="translate(2.12)"><path class="cls-2" d="M264.28,146.27c-.74,0-1.16.57-3.72,3.78-2.83,3.55-2.82,3.51-3,3.78-.89,1.53-1.35,3.31-2.23,6.81-1.09,4.33-.93,4.91-.75,5.3.56,1.2,1.59,1.31,6,3s4.22,1.94,7.44,3A40.94,40.94,0,0,0,274,173.5c3.78.67,4.29.21,4.47,0,.75-.9-.08-2.81-1.49-6.05-.95-2.16-1.3-2.48-2.24-4.54-1.48-3.27-1-3.46-2.23-6-.83-1.82-2-3.48-4.46-6.81s-3-3.79-3.68-3.79h0"/></clipPath><clipPath id="clip-path-32" transform="translate(2.12)"><path class="cls-2" d="M250.88,173.5c-1.81,1.22-1.42,4.92-.74,11.35.09.86.31,2.76.74,5.3.83,4.79,1.27,5.06,2.24,9.83,1.16,5.77.82,6.9,2.23,8.32s3.54,1.87,6,2.27,3.41.13,7.44,0c1.92-.06,2.64,0,3.56,0s1.79.05,3.88,0a70.32,70.32,0,0,0,10.42-.75c3.95-.65,5.94-1,6.7-2.27,1.48-2.49-.88-6.67-2.23-9.08-1.14-2-1.44-1.84-3.73-5.3-2.48-3.75-2-3.89-3.72-6a50.27,50.27,0,0,0-5.95-6.05c-2.51-2.34-3.19-2.75-3.72-3-1.85-1-2.56-.5-5.95-1.51-3.56-1.06-4.42-1.61-7.44-2.27a37.72,37.72,0,0,0-5.21-.76c-1.47-.11-2.54-.19-3.28-.19a2.43,2.43,0,0,0-1.19.19"/></clipPath><clipPath id="clip-path-33" transform="translate(2.12)"><path class="cls-2" d="M185.4,60a21.55,21.55,0,0,0-5.21.75c-2.05.54-1.91.76-4.46,1.52-3.23,1-3.85.72-4.47,1.51s-.49,2.4,0,5.3a46.72,46.72,0,0,0,1.49,6.05c.86,2.78.86,2.08,2.23,6,1.07,3.08,1.24,4,2.23,4.54s2,.33,3.72,0a22.45,22.45,0,0,0,4.47-1.51A45.34,45.34,0,0,0,190.61,82a32.89,32.89,0,0,0,3.72-3c1.35-1.19,2-1.8,2.23-2.27.64-1.54-.13-3.2-1.49-6s-1.8-2.68-3-5.3c-1.25-2.78-1.08-3.69-2.24-4.54-.92-.68-1.93-.76-3.72-.76h-.74"/></clipPath><clipPath id="clip-path-34" transform="translate(2.12)"><path class="cls-2" d="M267.25,109.19a21.78,21.78,0,0,1-3.11-.06,8.82,8.82,0,0,0-2.84.06c-1.52.3-3.52.7-4.46,2.27-1.31,2.19-.07,5.77,2.23,7.57,1.86,1.46,4.72,2,6.7.76.48-.3.9-.69,2.23-3,2.42-4.27,3.77-6.63,3-7.57a.73.73,0,0,0-.64-.24c-.51,0-1.37.17-3.08.24"/></clipPath><clipPath id="clip-path-35" transform="translate(2.12)"><path class="cls-2" d="M251.63,50.18c-2.08,2.8-1.58,4.07-3.72,9.08-1.44,3.36-1.65,2.77-4.47,8.32-.85,1.67-.57,1.22-4.46,9.84-2.41,5.33-2.9,6.35-3,8.32a14.12,14.12,0,0,0,1.49,6.81c.58,1.16,1,1.57,4.46,5.3,4.58,4.93,4.85,5.3,6,6.05,1.77,1.2,4.8,3.25,7.44,2.27,1.28-.48,1.63-1.36,3.72-4.54.43-.66,2.27-3.22,5.95-8.32,3.28-4.56,3.18-3.8,5.21-6.81a55.65,55.65,0,0,0,6.7-13.62c1.23-3.76,1.27-5.36.74-6.81a28.91,28.91,0,0,0-3-4.54c-1.09-1.53-1.64-2.3-2.23-3C270.67,56.31,270,56.05,268,54a48.89,48.89,0,0,1-3.41-4.3,8.54,8.54,0,0,0-1.06-1c-1.28-1.08-3.32-2.81-5.21-3l-.42,0c-2.89,0-5.38,3.36-6.27,4.56"/></clipPath><clipPath id="clip-path-36" transform="translate(2.12)"><path class="cls-2" d="M291.81,65.31c-1.87.75-3,2.27-5.21,5.3-2.67,3.67-2.52,4.46-5.21,8.32-2.39,3.44-2.82,3.27-4.46,6a25.06,25.06,0,0,0-3,6.81,24.23,24.23,0,0,0-.74,6.81c0,4.13.05,6.28,1.48,7.57.85.76,1.52.62,6.7.75,6,.16,6.61.38,8.93,0a20.12,20.12,0,0,0,5.21-1.51,11.31,11.31,0,0,0,4.46-3c1.33-1.62,1.12-2.63,2.24-5.3,1.28-3.08,2-2.91,3.72-6,.92-1.74.51-1.46,3-9.08,1.28-3.94,1.83-5.37,1.49-7.57a7.27,7.27,0,0,0-1.49-3.78c-1.2-1.45-2.3-1.32-5.95-3-3.11-1.45-2.79-1.77-4.46-2.27a12.56,12.56,0,0,0-3.56-.57,8.61,8.61,0,0,0-3.14.57"/></clipPath><clipPath id="clip-path-37" transform="translate(2.12)"><path class="cls-2" d="M221.12,16.89a44.14,44.14,0,0,0-5.21,1.52c-3.42,1.17-3.5,1.56-7.44,3-.88.33-3,1.11-6,2.27A8.52,8.52,0,0,0,198.79,26a9.71,9.71,0,0,0-1.48,3c-1.17,2.93-.56,1.08-2.24,5.29a60.69,60.69,0,0,0-2.23,6.06,28.28,28.28,0,0,0-.74,4.54c-.28,3.87.69,6.82,2.23,11.35a42.64,42.64,0,0,0,5.21,11.34,28.06,28.06,0,0,0,5.21,6.06,30,30,0,0,0,7.44,4.54,44.16,44.16,0,0,0,8.93,3c4.22,1,6.37,1.55,8.18.76.51-.23,1.86-.89,4.47-5.3,2.31-3.9,2.6-5.64,5.21-11.35.55-1.21,1.61-3.33,3.72-7.56,3.49-7,3.67-7.13,4.46-9.08a74.28,74.28,0,0,0,3-9.84c2.24-8.58,1.83-9.85,1.49-10.59-1.23-2.66-4.25-4.34-6-5.29-1.35-.76-2.09-.92-4.46-2.27-1.91-1.09-2.5-1.6-3.72-2.27a20.41,20.41,0,0,0-6.7-2.27,17.5,17.5,0,0,0-2.82-.22,31.52,31.52,0,0,0-6.85,1"/></clipPath><clipPath id="clip-path-38" transform="translate(2.12)"><path class="cls-2" d="M279.16,113.73c-.81.35-2.77,2-6.7,5.3-4.95,4.17-5.56,5.16-5.95,6-1.41,3.22-.63,6.48,0,9.08.87,3.6,1.77,3.54,4.46,9.84,1.65,3.84,1.78,4.94,3.72,9.07,2.3,4.88,3.21,5.67,3.73,6.06,2.36,1.78,5.08,1.67,8.92,1.51a34.78,34.78,0,0,0,10.42-2.27c2.89-1,4.34-1.47,5.21-2.27,1.41-1.3,2.15-3,3-12.1.6-6.68.15-5.13.74-12.87.28-3.62.47-5.16,0-7.56-.36-1.86-1.07-5.46-3.72-7.57-1.86-1.48-3.32-1.13-8.93-1.51-7.1-.48-9.83-1.38-12-1.38a7,7,0,0,0-2.87.62"/></clipPath><clipPath id="clip-path-39" transform="translate(2.12)"><path class="cls-2" d="M320.09,72.12c-1,.77-1.1,1.35-3,5.3-2.61,5.49-2.5,4.7-3.72,7.56a72.47,72.47,0,0,0-3,8.33c-1.54,5.41-.77,5.38-2.23,10.59-1.34,4.76-2.34,6.07-1.49,7.56,1.27,2.23,5.18,2.26,6.7,2.27,2.79,0,3.14-.8,7.44-1.51,3.84-.63,4.18-.08,7.44-.76s2.9-1.22,6.7-2.27c5.51-1.52,7.77-.8,9.67-3a10.14,10.14,0,0,0,1.49-3,24,24,0,0,0,1.49-7.56c.21-2.94-.14-3.37,0-8.33.16-5.77.56-7.62-.75-9.83a9.92,9.92,0,0,0-4.46-3.78c-2.07-1-2.87-.69-7.44-1.52-4.82-.87-4.76-1.39-7.44-1.51-.62,0-1.26-.06-1.91-.06a8.43,8.43,0,0,0-5.53,1.57"/></clipPath><clipPath id="clip-path-40" transform="translate(2.12)"><path class="cls-2" d="M374.41,120.54c-1.84.13-2.76.19-3.72.76s-1.52,1.35-3.72,6a30.38,30.38,0,0,0-2.24,5.3c-.34,2.24.34,2.62,0,6-.17,1.79-.42,2.34,0,3,.33.52.85.79,4.47,1.51a41.38,41.38,0,0,0,4.46.76c1.32.1,1.79,0,4.47,0,1.77,0,2.62,0,3.2,0s1,0,2,0c2-.09,1.63-.2,6.69-.76,2.9-.32,3.28-.31,3.72-.76,1.08-1.07.73-3,0-6.81a37.65,37.65,0,0,0-2.23-7.56c-1.2-2.93-1.81-4.39-3-5.3-.81-.62-1.24-.63-6.7-1.51a41.69,41.69,0,0,0-6.34-.8c-.36,0-.71,0-1.1,0"/></clipPath><clipPath id="clip-path-41" transform="translate(2.12)"><path class="cls-2" d="M340.92,116c-2,.13-4.32.29-7.44.76-4.36.66-4.42,1.07-8.18,1.51a42.37,42.37,0,0,0-6,.76c-2.39.58-3.91,1-5.21,2.27s-1.66,2.82-2.23,5.3-.45,3.54-.74,7.56c-.29,3.82-.44,3.49-.75,7.57-.33,4.35-.48,6.56,0,8.32a11.18,11.18,0,0,0,3.72,6c1.15.87,1.45.63,6,2.27,3.89,1.42,3.58,1.57,6,2.27,1.08.32,1.17.3,5.95,1.51,3,.76,2.88.75,3,.76,3.34.26,6.12-2.19,9.67-5.3a42.38,42.38,0,0,0,4.47-4.54,33.66,33.66,0,0,0,4.46-6,34,34,0,0,0,3-7.56,36.52,36.52,0,0,0,1.49-6.81,35.63,35.63,0,0,0,0-7.57c-.32-3.76-.48-5.63-1.49-6.81-1.33-1.55-3.21-1.8-6.7-2.27a26.69,26.69,0,0,0-3.64-.24c-1.48,0-3.1.1-5.29.24"/></clipPath><clipPath id="clip-path-42" transform="translate(2.12)"><path class="cls-2" d="M313.39,213.6a9.73,9.73,0,0,0-5.21,3,9.61,9.61,0,0,0-2.23,6.05c0,2.18.84,2.65,3,7.56,1.52,3.49,1.2,3.5,3,7.57a59.07,59.07,0,0,0,3,6.05c1.52,2.69,2.29,4,3,4.54,3.6,2.67,10-.07,13.4-1.51,3.65-1.56,4.29-2.64,8.18-3.78,1.63-.48,2.91-.7,5.21-1.52,2.9-1,4.39-1.48,5.21-2.27,1.48-1.42,1.75-3.49,2.23-7.56.55-4.57.82-6.85,0-8.33-1.2-2.17-4-3-9.67-4.53-4.2-1.16-4.8-.93-10.42-2.27-4.3-1-4.75-1.36-8.93-2.27a35.83,35.83,0,0,0-7.22-1.08,9,9,0,0,0-2.45.32"/></clipPath><clipPath id="clip-path-43" transform="translate(2.12)"><path class="cls-2" d="M364,225a8.15,8.15,0,0,0-4.46,3.78c-1.15,2.12-.94,4.14-.75,6.05.21,2.06.36,3.58,1.49,4.54s1.89.54,5.21.76c1.38.09.3.08,5.95.76,3.17.37,3.76.4,6.7.75,3.82.45,3.76.51,5.95.76a53.7,53.7,0,0,0,7.3.42,31.73,31.73,0,0,1,5.35.34c3.4.45,4.66.93,5.95,0s1.69-2.67,2.24-5.3c.52-2.48.85-4.09,0-5.3s-2.47-1.31-4.47-1.51c-3.49-.34-6.93-1.11-10.42-1.51-4-.46-6.75-.78-10.41-1.52s-6.7-1.51-6.7-1.51c-4.16-1.07-5.92-1.75-7.42-1.75A4.8,4.8,0,0,0,364,225"/></clipPath><clipPath id="clip-path-44" transform="translate(2.12)"><path class="cls-2" d="M376.64,150.05c-3.32.17-5.69.45-8.19.75-5.81.71-8.75,1.08-10.41,2.27s-2.67,3.12-4.47,6.81c-1.4,2.88-1.95,4.62-4.46,12.11-2.65,7.92-3,8.75-3.72,11.35-.4,1.34-1,3.67-2.24,8.32a38.61,38.61,0,0,0-1.48,6.81c-.27,2.93-.48,5.27.74,7.56.8,1.51,2.27,2.52,5.21,4.54a35.3,35.3,0,0,0,6.7,3.79c3,1.25,3.28.83,7.44,2.27,3.69,1.28,3.6,1.66,7.44,3a49.44,49.44,0,0,0,8.18,2.27,59.39,59.39,0,0,0,7.45.76c3.69.23,5.54.35,6.69,0,.91-.27,2.22-.84,6.7-6.05a68.24,68.24,0,0,0,7.44-9.84c1.47-2.42,1.11-2.22,3.72-6.81,3.12-5.47,3.45-5.42,3.72-6.81.59-2.95-.77-3.67-2.23-10.59-.92-4.38-.55-4.9-1.49-8.32a62.64,62.64,0,0,0-3-7.57c-3.9-9.08-4.91-10.34-5.95-11.35a18.13,18.13,0,0,0-5.95-3.78c-2.59-1.05-4.6-1.22-8.19-1.51-1.59-.13-3-.18-4.38-.18-1.8,0-3.49.08-5.29.18"/></clipPath><clipPath id="clip-path-45" transform="translate(2.12)"><path class="cls-2" d="M306,162.15a36.19,36.19,0,0,0-6,.76,47.1,47.1,0,0,0-5.2,1.51c-3.59,1.19-5.39,1.78-6,2.27-2.56,2.23-2.4,6.35-2.23,10.59a21.93,21.93,0,0,0,2.23,9.84c1.57,3,2.45,2.63,6,7.57,2.36,3.32,2.17,3.78,4.46,6.8,2.51,3.32,3.77,5,5.95,6.06,1.89.93,4,.88,8.19.75a105.75,105.75,0,0,0,11.91-1.51c5.46-.85,6.7-1.13,8.18-2.27a11.81,11.81,0,0,0,3.72-5.3c.57-1.6.63-3.34.75-6.8,0-1.23,0-1.35,0-5.3,0-2,0-4,0-6.05,0-6.27.17-7.26-.75-8.32a16.57,16.57,0,0,0-3.72-2.27c-4.05-2.18-3.7-1.84-6-3-3.63-1.92-4.21-2.41-6-3a38.21,38.21,0,0,0-7.44-1.51,49.57,49.57,0,0,0-7.32-.77H306"/></clipPath><clipPath id="clip-path-46" transform="translate(2.12)"><path class="cls-2" d="M406.4,218.9c-1.25,2.87-1.87,4.3-1.48,5.29s1.17.87,5.21,3a31.41,31.41,0,0,0,4.46,2.27c.69.25,3.44,1.27,3.72.75s-4.08-2.34-6.7-6.81c-2.44-4.15-1.87-8.25-3-8.32h0c-.56,0-1.11,1.27-2.21,3.79"/></clipPath><clipPath id="clip-path-47" transform="translate(2.12)"><path class="cls-2" d="M340.18,57c-1.28,2.6-2.19,3.89-2.23,6a3.94,3.94,0,0,0,.74,3c.76.75,1.51.36,5.21.76,1.47.16,2.06.29,2.23,0,.29-.5-1.54-1.26-2.23-3-.8-2,.66-3.43.74-6a9.41,9.41,0,0,0-2.23-6A53.58,53.58,0,0,1,340.18,57"/></clipPath><clipPath id="clip-path-48" transform="translate(2.12)"><path class="cls-2" d="M321.57,29c-.94,1.9-1.19,3.21-2.23,8.32-1.2,5.9-1.27,6.15-1.49,7.57-.53,3.51-.69,5.94-.74,6.81-.33,5.7.32,7.41.74,8.32a8.64,8.64,0,0,0,2.24,3,8.27,8.27,0,0,0,8.18,1.52c2.09-.84,3.14-2.49,4.47-4.54,1.74-2.71,1.25-3.45,3-6.81,2.22-4.34,4.13-5.24,3.72-6.81-.45-1.73-3.59-.75-6.69-3-1.77-1.29-2.55-2.85-3.72-5.29-3.49-7.22-2.87-12.66-4.47-12.86h-.09c-1,0-2,2.09-2.89,3.79"/></clipPath><clipPath id="clip-path-49" transform="translate(2.12)"><path class="cls-2" d="M274.69,4.79a36,36,0,0,0-3,4.54c-1.61,2.86-1.5,3.52-3,6.05s-1.83,2.3-3.72,5.3c-1.74,2.76-2.62,4.14-3,6.05a12.89,12.89,0,0,0,.75,6.81c.4,1.15.93,2.22,3.72,6.05,2.25,3.1,2.83,3.68,5.21,6.81,3.46,4.56,3.85,5.48,5.95,7.57s3.22,3.16,5.21,3.78c1.07.33,2.08.43,6.7,0,3.33-.31,5-.44,6.69-.76,4.1-.76,6.73-1.24,9.68-3a18.08,18.08,0,0,0,6.7-6.81c.78-1.48.65-1.79,2.23-9.08,1.38-6.39,1.72-7.23,2.23-10.59.43-2.83.63-5.18.74-6.81C299.7,10.35,284.22,3.85,277.65,3.85a3.72,3.72,0,0,0-3,.94"/></clipPath><clipPath id="clip-path-50" transform="translate(2.12)"><path class="cls-2" d="M256.09.25c-3.51.32-3,.91-9.67,2.27-6.28,1.28-9,1.23-9.68,3-.53,1.37.47,2.92,1.49,4.53a18,18,0,0,0,8.93,6.81c3.46,1.4,6.37,2.58,9.68,1.52,2.75-.89,4.24-2.84,6.69-6.06C266.39,8.6,269.16,5,268,2.52c-1-2-4.35-2.52-7.43-2.52-1.76,0-3.41.15-4.48.25"/></clipPath><clipPath id="clip-path-51" transform="translate(2.12)"><path class="cls-2" d="M193.49,2.47c-2.26,6.74-1.58,12.78,1.58,15.18a9.49,9.49,0,0,0,5.21,1.51c4.18.22,7.28-1.66,9.68-3,10.4-5.9,16.69-7.15,16.37-8.32-.14-.48-1.21-.39-3.16-.31a45,45,0,0,1-9.49-.45,52.69,52.69,0,0,1-8.93-2.27,64,64,0,0,1-8.42-3.49,2,2,0,0,0-.91-.22,2,2,0,0,0-1.93,1.39"/></clipPath><clipPath id="clip-path-52" transform="translate(2.12)"><path class="cls-2" d="M55.92,114.49A10.74,10.74,0,0,0,51.46,119c-1.26,2.07-1.65,3.94-2.24,6.81-.16.81-.35,2.55-.74,6-.49,4.48-.51,5.22,0,6.05,1,1.65,3.12,2,4.47,2.27,2.79.51,3.37-.53,8.18-.75.81,0,2.28,0,5.21,0,3.26,0,3.44.08,4.46,0a12.4,12.4,0,0,0,6-1.52,6.59,6.59,0,0,0,3-3c.24-.57.54-1.61-.74-6.06a41,41,0,0,0-3.72-9.07,10.41,10.41,0,0,0-1.49-2.27c-1.72-1.74-3.79-1.85-7.44-2.27-5.49-.64-7.48-1.15-8.77-1.15a3.51,3.51,0,0,0-1.65.39"/></clipPath><clipPath id="clip-path-53" transform="translate(2.12)"><path class="cls-2" d="M100.57,89.52a10.92,10.92,0,0,0-5.21,3.79c-1.31,1.49-1.25,1.91-3,4.54a68.6,68.6,0,0,1-5.21,6.8c-.6.73-2.39,2.87-4.46,5.3a14.91,14.91,0,0,0-3,4.54,13.94,13.94,0,0,0-.74,3c-.4,3.42,1.1,5.44,2.23,9.08,1.81,5.83-.06,7.07,2.23,12.1,1.24,2.7,2.47,3.87,3.72,4.54a7.51,7.51,0,0,0,4.47.76c1.2-.18,2.12-.63,4.46-2.27,3-2.09,3.82-3,6-4.54,3.25-2.39,3.44-1.87,6-3.79a33.94,33.94,0,0,0,5.95-6.05c3.28-3.95,4.91-5.93,5.21-8.32s-.41-4.44-1.49-7.57c-.79-2.32-1.09-2.28-2.23-5.29-1.58-4.2-1.07-4.45-2.23-6.81-.23-.47-1.65-2.34-4.47-6-1.66-2.2-2.52-3.31-3.72-3.79a5.71,5.71,0,0,0-2.08-.38,8.81,8.81,0,0,0-2.38.38"/></clipPath><clipPath id="clip-path-54" transform="translate(2.12)"><path class="cls-2" d="M122.15,58.5c-3.73,1.06-6.21,4.24-11.16,10.6-2.64,3.38-3.4,5-3.72,6.81-.39,2.23,0,4,.74,6.8.87,3.46,1.6,4.49,3.72,9.84,2.58,6.5,2.27,6.89,3.72,9.08s3.2,4.82,6.7,6.05a11.71,11.71,0,0,0,7.44,0c2.07-.71,2.17-1.47,5.21-3,2.67-1.36,3.45-1.21,5.95-2.26,2.09-.88,2.2-1.26,8.19-5.3,4.28-2.89,6.42-4.34,8.18-5.3,2.66-1.44,3.51-1.65,5.21-3a17.06,17.06,0,0,0,4.47-5.3,10,10,0,0,0,1.48-4.54,10.14,10.14,0,0,0-1.48-5.29,17.74,17.74,0,0,0-8.19-8.33c-.73-.33-.18,0-5.21-1.51-4.28-1.28-4.92-1.59-7.44-2.27-2.27-.61-3.87-.93-6.7-1.51a74.46,74.46,0,0,0-8.93-1.52c-2.27-.2-3.92-.35-5.27-.35a10.46,10.46,0,0,0-2.91.35"/></clipPath><clipPath id="clip-path-55" transform="translate(2.12)"><path class="cls-2" d="M166.8,1.76c-4.41,2.69-8,4.72-10.42,6.06-4.22,2.32-6.39,3.36-8.19,6-1,1.49-1.42,3-2.23,6.05-1.56,5.82-.91,7-2.23,12.86-1,4.41-1.65,5-2.23,9.08-.72,5-.12,7,.74,8.32s2,2,3.72,3a29.36,29.36,0,0,0,8.19,3c6,1.56,9.06,2.34,10.41,2.26,1.16-.06,2.08-.25,8.93-3s10.22-4.16,11.17-5.3c.69-.84,1.3-1.86,3-12.86.86-5.66,1.3-8.49,1.49-11.35a112.23,112.23,0,0,0,0-12.86c-.11-3-.31-7.16-.74-12.1l-21.58.75"/></clipPath><clipPath id="clip-path-56" transform="translate(2.12)"><path class="cls-2" d="M124.38,14.62c-4.41.51-5.11,1.93-13.39,5.3-1.5.61-4,1.67-8.93,3.78-2.17.93-4.63,2-6,4.54a7,7,0,0,0-.74,2.27c-.31,2.44,1.26,4.07,3,6.81,2.18,3.5,1.18,3.2,3.72,7.57,2.06,3.54,3.13,5.33,5.21,6.81a14.41,14.41,0,0,0,6,2.27,24.49,24.49,0,0,0,11.91-.76c2.67-.84,5.24-1.65,7.44-3.78,3-3,3.07-6.18,4.46-13.62,2.6-13.94,5.38-18.32,3-20.43-.69-.6-3.45-.66-8.93-.76-2.13,0-3.68-.06-4.78-.06-.91,0-1.52,0-1.92.06"/></clipPath><clipPath id="clip-path-57" transform="translate(2.12)"><path class="cls-2" d="M84.34,56.73c-2,1.06-4.47,2.44-7.14,4.2-5.6,3.66-9,5.86-11.93,10-2.7,3.78-3.75,7.29-5.09,11.78-1.54,5.17-2.43,8.18-2,12.3.41,4.47,1.9,5.54,1.48,9.75-.39,3.94-1.92,5.34-1,6.91.61,1,2,1.7,9.07,1.56,6.28-.12,9.41-.18,11.13-.86,4-1.6,6.57-6,11.59-14.57,2.24-3.85,3.87-7.3,7.14-14.21,2.89-6.14,3.82-8.56,4.34-11.72a30.74,30.74,0,0,0,.35-6.51,5.2,5.2,0,0,0-3.21-4.54L88.66,56.54a5.11,5.11,0,0,0-2-.39,5.18,5.18,0,0,0-2.36.58"/></clipPath><clipPath id="clip-path-58" transform="translate(2.12)"><path class="cls-2" d="M91.64,34.29c-1.21.08,1.49,11.35.74,15.14-.52,2.67,6,.79,6.7-.76.25-.57,0-1-3-6.05-2.13-3.66-2.47-4.27-3-5.3-1.14-2.37-1.2-3-1.48-3h0"/></clipPath><clipPath id="clip-path-59" transform="translate(2.12)"><path class="cls-2" d="M399.71,138.7c-.86.47,1.31,9.27,5.21,9.84.84.12,1.94-.12,2.23-.76s-.49-1.69-4.47-6.05c-2.44-2.68-2.8-3-2.93-3h0"/></clipPath></defs><g class="cls-3"><g id="Camada_2" data-name="Camada 2"><g id="Camada_1-2" data-name="Camada 1"><g id="rocha_maior" data-name="rocha maior"><path class="cls-1" d="M186.38.91a45.63,45.63,0,0,1-9.54.47c-4.21-.12-7.1-.49-11.16.76-2.62.81-4.29,1.84-7.44,3.78-7.4,4.57-8,6.87-12.65,8.33-2,.62-4.06.66-8.19.75a54.57,54.57,0,0,1-8.3-.37,33.87,33.87,0,0,0-5.09-.38c-3.69.07-9.4,3.94-21.58,9.83-6.25,3-10.32,5.15-11.16,9.08-.32,1.49,0,4,.74,9.08.75,5.31,1.14,5.6.75,6.81C91.7,52.25,88,53,81.59,55.86a75.13,75.13,0,0,0-11.16,6c-9.31,6.65-14.57,19.56-14.14,31,.15,3.81.77,3.31.75,6.81,0,9.69-4.8,17.55-8.93,24.21-2.08,3.34-1.53,2-5.21,7.56-7.65,11.6-9.74,17.05-10.42,18.92-2,5.64-3.08,8.47-2.23,12.1,1.05,4.49,3.83,5.39,3.72,9.08-.06,1.91-.83,2.74-5.95,9.84s-5.59,8-6,9.07c-.45,1.36-.79,3,0,12.11.71,8.08,1.22,9.58,1.49,15.13.31,6.43.45,9.69-.74,12.11-2,4.06-5.23,3.77-10.42,9.07-3.81,3.89-6.22,6.36-8.19,9.84-4.47,7.92-6.32,20.57-.74,25.72,2.76,2.55,6.42,2.51,11.16,2.27,4.35-.21,8.71-.15,13.08-.09A135.69,135.69,0,0,0,47.36,276c3.62-.48,16.31-.32,41.68,0,28.52.35,50.16,1.33,54.32,1.51,25.47,1.1,95.81,2.43,276.81,3.78,4.92-5.27,6.27-10,6.7-12.86a60.52,60.52,0,0,0,0-8.32c-.13-4.16-.23-7.61-.75-12.11-.69-6.06-1-9.09-2.23-11.35-.87-1.65-1.11-1.42-7.44-8.32-4.35-4.74-5.19-5.88-5.95-7.56s-2.2-4.83-1.49-8.33c.67-3.3,2.5-3.36,5.21-8.32,1.16-2.13,2.9-5.31,3-9.08.07-3.24-1.14-4.9-3-9.08-2.27-5.16-5-11.33-5.21-18.15-.21-6.23,1.85-7.16.74-12.86a27.15,27.15,0,0,0-3.72-9.08c-2.43-3.84-3.61-3.64-8.18-9.08-3.65-4.34-5.49-6.58-6-9.84s.92-4.31.75-7.56c-.22-4.23-2.82-7.08-6.7-11.35-10-11-15-16.54-15.63-17.4-3.23-4.71-5.13-8.85-9.67-13.62-3.6-3.78-6-5-6.7-5.3-2.58-1.22-3.42-.84-5.2-2.27a18.39,18.39,0,0,1-4.47-6,24.36,24.36,0,0,0,0-9.08c-1.35-5.44-6.2-8.74-6.7-9.08-2.35-1.56-3.26-1.18-5.21-3a14.91,14.91,0,0,1-3.72-6.05c-.95-2.92-.3-3.92-1.48-6.81a18.69,18.69,0,0,0-2.24-3.79C321.39,21,312.67,19.26,307.81,18s-10.49-3.61-21.58-8.32c-9.58-4.07-10.51-5.13-16.37-6.81C265.05,1.52,260,.11,253.49.63c-2.59.2-2.48.48-14.14,3.78-12,3.4-15.24,4-19.35,3.78a43.45,43.45,0,0,1-8.93-1.51c-10.55-2.51-10.87-5-17.86-6A18.17,18.17,0,0,0,190.45.4a22,22,0,0,0-4.07.51" transform="translate(2.12)"/><g class="cls-4"><rect class="cls-1" y="0.11" width="429.2" height="281.2"/></g></g><g id="pedras"><path class="cls-2" d="M16.48,246.13c-2.6.32-3.65.12-6,.76-.44.12-1,.26-1.69.41a9,9,0,0,0-6.62,6.21C.73,258.45.11,260.72.11,265.05c0,1.67,1.66,2.26,10.42,6.05,3.3,1.43,4.52,2.07,6,1.51,2.55-1,3.33-4.85,3.72-6.81.64-3.15,0-3.8,0-8.32.07-6.88,2.44-10.12.75-11.35a2.71,2.71,0,0,0-1.42-.25,27.75,27.75,0,0,0-3.05.25" transform="translate(2.12)"/><g class="cls-5"><rect class="cls-2" x="2.24" y="245.88" width="22.53" height="27.29"/></g><path class="cls-2" d="M23.18,210.57c0,1.87,1.34,13.38,0,18.16-.52,1.84,0,1.51-8.93,8.32-8.16,6.23-7.21,8-7.44,8.32-1.49,2.27,7.78-1.11,8.93-1.51.64-.22,1.68-.65,3.72-1.51,5.66-2.37,8.5-3.56,8.93-3.78,4.19-2.16,6.49-3.33,8.18-6.06a20.53,20.53,0,0,0,2.24-6c.67-2.55,1-3.83.74-5.29-.62-3.5-3.69-5.55-4.46-6.06-1.63-1.08-2.07-.76-6-2.27-3.63-1.4-5.23-2.53-5.75-2.53-.14,0-.2.08-.2.26" transform="translate(2.12)"/><g class="cls-6"><rect class="cls-2" x="7.44" y="210.31" width="34.49" height="37.33"/></g><path class="cls-2" d="M353.57,84.23a37.1,37.1,0,0,0-2.64,9.12,34.92,34.92,0,0,0,1.15,10.55c.8,2.25,1.12,1.24,2.24,3,1.69,2.73,3.58,1.68,7.77,3.84.43.22,3.27,1.41,8.93,3.78,2,.85,3.08,1.29,3.72,1.51,1.15.4,16,.55,16.78-.8.21-.38-8.23-9.79-8.93-10.6-5.21-6.05-6.69-7.56-8.18-9.07-3.46-3.52-9.68-11-9.68-12.87,0-.84-2.23-4.53-6.69-8.32a1.52,1.52,0,0,0-1-.42c-2.36,0-2.85,8.91-3.52,10.26" transform="translate(2.12)"/><g class="cls-7"><rect class="cls-2" x="352.79" y="73.97" width="41.07" height="42.64"/></g><path class="cls-2" d="M409.08,248.88c-3,4.85-4.23,6.87-5.38,11.25-.43,1.63,1.16,4.24,8.66,10.21a36.79,36.79,0,0,1,6.7,7.57c2.23,3.78,2.85,1.75,3.72,0,1.41-2.88,1.85-1.68,3-6.06,1.51-5.85.75-9.07.75-21.18,0-.68-.75-6.81-1.49-8.32-1.17-2.38-.6-3-3-3-.61,0-5-.7-5.95-.75H416c-2.74,0-5.47,8-6.93,10.32" transform="translate(2.12)"/><g class="cls-8"><rect class="cls-2" x="405.39" y="238.56" width="23.99" height="43.13"/></g><path class="cls-2" d="M43.27,238.57a11.11,11.11,0,0,1-2.24,0,4.8,4.8,0,0,0-1.48,0l-.86.22A8.56,8.56,0,0,0,33.78,242c-2.25,3-4,5.74-5.39,7.91-5.77,9.28-6.11,12.78-5.95,15.14,0,.81.48,6,3,6.8a2.53,2.53,0,0,0,1.49,0c3.49-.93,10.94,1.24,14.88,2.27,1.66.44,17.4,2.18,23.82,0a30.21,30.21,0,0,0,3.72-1.51c.43-.38,3.31-.83,5.2-3A28.81,28.81,0,0,0,79,263.53a64,64,0,0,0,2.23-6c.8-2.31.51-1.62,1.49-4.54,1.49-4.45,1.82-5.07,1.49-6.05s-1.47-1.69-3.72-3-4-.86-6.7-1.51-2.71-.83-6-1.51c-2.69-.58-2.46-.17-5.21-.76a37.09,37.09,0,0,0-6.7-.76c-.05,0-.76-.75-4.46-.75H46.25c-1.64,0-2-.06-2.33-.06a6,6,0,0,0-.65.06" transform="translate(2.12)"/><g class="cls-9"><rect class="cls-2" x="24.4" y="238.47" width="62.26" height="37.83"/></g><path class="cls-2" d="M52.2,145.51a27,27,0,0,0-9.08,2c-1,.24-1.81,1.31-3.35,3.45a19.35,19.35,0,0,0-3.2,6,27.21,27.21,0,0,0-1.48,4.54c-.51,2.07-3,4.54-2.24,6,1.81,3.67.91,1.33,1.49,3.78.53,2.21-4.48,5.39-5.21,9.08-.95,1.45-1.49,6.05-1.49,6.05s-.36,1.88-.58,3a8.07,8.07,0,0,0-.16,1.55c.09,3.06-1.86,9.62,0,11.35,2.36,2.19,7.17,4.64,8.93,6.05,8.47,6.8,14.88,6.06,17.12,6.06,2.85,0,22.75,5.46,23.81,3,.29-.67,5.8-5.19,5.95-5.29,2.23-1.52,12.71-18.82,14.14-22.7.6-1.63-1.52-8.42-3-15.13-.5-2.34-3.72-10.59-3.72-12.11,0-7.17-6.24-13-8.18-15.13-1.23-1.35-2.79-1.22-4.28-1.1a4.86,4.86,0,0,1-3.17-.41c-.79-.54-3-.76-10.41-1.51l-.46,0c-2.14,0-3.79,1.54-11.45,1.54" transform="translate(2.12)"/><g class="cls-10"><rect class="cls-2" x="27.16" y="143.97" width="72.41" height="75.85"/></g><path class="cls-2" d="M138.88,188.65a19.93,19.93,0,0,1-5.57,0,3.17,3.17,0,0,0-2.57.39,3.29,3.29,0,0,1-2.64.37,4,4,0,0,0-3.07.3,2.56,2.56,0,0,1-1.39.46c-.06,0,0,0-3.72,0h-5.21a26.83,26.83,0,0,0-3.72,0,23.17,23.17,0,0,0-3.72.75,12.06,12.06,0,0,0-6.59,4.54c-1.87,2.59-3.39,4.9-4.58,6.81-5.76,9.27-6.94,14.23-5.95,12.11-.22.49-2.25,5.19,0,6,.68.26,6.52,2.24,6.7,2.27,4.46.75,16.15,4.26,20.09,5.29,1.65.44,14.14,4,20.84,3,3.52-.51,12.65-3,11.16-3a7.6,7.6,0,0,0,3.72-2.27c2.12-2.44,7.06-3.1,8.18-5.29.45-.86,6.38-4.22,8.93-6.81,1.49-1.51,4.24-2.38,5.21-5.3,1.49-4.44-8.59-11.88-8.93-12.86s-5.93-4.71-8.18-6.05c-1.24-.73-4.81-.66-8.15-.59a30.91,30.91,0,0,1-6-.17,8,8,0,0,0-1.78-.17c-.94,0-2,.1-3.07.19" transform="translate(2.12)"/><g class="cls-11"><rect class="cls-2" x="90.03" y="188.35" width="88.57" height="43.62"/></g><path class="cls-2" d="M46.25,219.65a7.72,7.72,0,0,0-3.72,3.78,9.34,9.34,0,0,0-.75,5.3,10.59,10.59,0,0,0,1.49,4.54c1.73,2.47,4.93,2.55,11.16,3,11.88.9,10.57,1.39,17.12,1.51,3.1.06,4.89,0,6.16-.11a17.72,17.72,0,0,1,5,.11c3.17.49,5.2,1.24,6.7,0s1.51-3.86,1.49-6.05c0-1.83-.05-3.81-1.49-5.3-.19-.19-.49-.44-3-1.51-2-.85-2.93-1.27-3.72-1.52-2.82-.88-3.68-.23-8.19-.75-1-.12-2.14-.33-4.46-.76-5.16-.95-5.27-1.22-7.44-1.51a12,12,0,0,0-4.17,0,12.33,12.33,0,0,1-4,0c-3-.38-4.86-1.09-6.46-1.09a4.35,4.35,0,0,0-1.72.33" transform="translate(2.12)"/><g class="cls-12"><rect class="cls-2" x="43.6" y="219.32" width="49.48" height="19.73"/></g><path class="cls-2" d="M121.4,231.76a6.26,6.26,0,0,0-3,.75,4.67,4.67,0,0,0-1.49,1.52,4.42,4.42,0,0,0,0,2.27c.26.91.69,1.16,1.49,2.27,1.38,1.92,1,2.46,2.23,3.78a4.14,4.14,0,0,0,2.23,1.51,4.79,4.79,0,0,0,3-.75,11.17,11.17,0,0,0,2.23-1.52,7.94,7.94,0,0,0,2.23-2.27,5.27,5.27,0,0,0,.75-3,4,4,0,0,0-.75-2.27c-.52-.68-1.34-1-3-1.52a13.94,13.94,0,0,0-3-.75,11.28,11.28,0,0,0-1.46-.09,13.44,13.44,0,0,0-1.52.09" transform="translate(2.12)"/><g class="cls-13"><rect class="cls-2" x="118.81" y="231.67" width="14.5" height="12.39"/></g><path class="cls-2" d="M99.83,232.51A9.83,9.83,0,0,0,97.59,234a10.57,10.57,0,0,0-1.49,1.51,9.5,9.5,0,0,0-1.48,3,23.65,23.65,0,0,1-3.72,6.05c-1.44,1.91-1.74,1.9-2.24,3a10.64,10.64,0,0,0-.74,4.54,10.31,10.31,0,0,0,.74,4.54,12.16,12.16,0,0,0,2.24,3c1.61,1.84,2.35,2.36,3.72,3.78,1.65,1.72,1.13,1.54,3.72,4.54,2.8,3.26,3.33,3.4,4.46,5.3.86,1.44.82,1.83,1.49,2.27,1.41.93,2.45.57,5.95.75a7.09,7.09,0,0,0,3.72-.75,7.85,7.85,0,0,0,2.24-1.52,28.7,28.7,0,0,0,2.23-2.27c1.5-1.56,1.56-1.49,2.23-2.27a30.85,30.85,0,0,0,2.23-3c2.6-3.62,4-3.35,5.21-6.05a6.52,6.52,0,0,0,.75-3.79c-.17-1-.59-1.61-3-4.54-1.76-2.15-2.7-3.28-3.72-4.54-2.11-2.6-1.79-2.38-3-3.78a51.24,51.24,0,0,0-5.21-5.29c-1-.91-.56-.43-3.72-3a24.28,24.28,0,0,0-3-2.27,8.28,8.28,0,0,0-3.72-1.51l-.55,0a7.28,7.28,0,0,0-3.17.78" transform="translate(2.12)"/><g class="cls-14"><rect class="cls-2" x="90.04" y="231.73" width="41.17" height="44.84"/></g><path class="cls-2" d="M87.92,266.55c-1.22.42-1.38.76-3.72,2.23S82,270,80.48,271c-1.29.91-1.5,1.23-3,2.24-1.82,1.24-2.24,1.26-2.23,1.48.09,1.75,25.9,2.31,26,.75,0-.06,0-.07-.74-.75s-1.61-1.52-2.23-2.23c-1.07-1.22-.66-1.35-1.49-2.23-1.48-1.56-2.77-1.16-4.47-3a3.5,3.5,0,0,0-.74-.75,2.87,2.87,0,0,0-1.59-.43,6.86,6.86,0,0,0-2.13.43" transform="translate(2.12)"/><g class="cls-15"><rect class="cls-2" x="77.38" y="266.12" width="26.06" height="10.92"/></g><path class="cls-2" d="M137,268.06c-1.22.42-2.12.05-4.46,1.52s-2.24,1.23-3.72,2.27c-1.29.91-1.5,1.27-3,2.27-1.83,1.25-3,1.3-3,1.52.09,1.74,31.86,2.32,32,.75a22.24,22.24,0,0,1-2.23-1.51c-.59-.56-2.36-.81-3-1.51-1.07-1.22-1.4-.63-2.23-1.52-1.47-1.55-4.26-1.23-5.95-3a4,4,0,0,0-.75-.75,2.92,2.92,0,0,0-1.59-.42,6.89,6.89,0,0,0-2.13.42" transform="translate(2.12)"/><g class="cls-16"><rect class="cls-2" x="125.01" y="267.64" width="32.01" height="10.32"/></g><path class="cls-2" d="M119.92,127.35c-2.59,1.11-4.18,1.66-6,3-2.75,2.12-.54,2.09-3,3.78s-2,2.06-4.47,3.78c-1.22.87-3.89,1.14-7.44,6.06-2,2.84-2.48,3.2-3,4.54-.61,1.66-.14,1.63-.74,5.29-.57,3.44-1.17,4.6-.74,6.81a11.88,11.88,0,0,0,.74,2.27c1.36,3.57,1.09,4.16,3,10.59,1.18,4,1.66,5.06,2.23,6.05a16.15,16.15,0,0,0,3,3.79,14.2,14.2,0,0,0,5.2,3c3.27.93,4.09-.76,9.68-1.51,2.14-.29,6.14-.19,14.14,0,.42,0,1.19,0,2.23,0a46.92,46.92,0,0,0,6.7-.76c5-.72,4.77,0,8.18-.75,2.51-.54,4.2-.91,5.95-2.27a12.49,12.49,0,0,0,3.73-5.3,13.41,13.41,0,0,0,1.48-6.81c-.27-2.61-1.61-3.93-4.46-7.56-5.7-7.26-4.29-7-8.19-11.35-3.07-3.43-3.78-3.4-8.18-8.32-.41-.46-2.22-2.49-4.47-5.3-2.68-3.36-4-5-4.46-6.05a10.22,10.22,0,0,0-2.23-3.78,5.69,5.69,0,0,0-2.24-1.52,2.51,2.51,0,0,0-.79-.13c-1.16,0-2.33.87-5.9,2.4" transform="translate(2.12)"/><g class="cls-17"><rect class="cls-2" x="96.31" y="124.95" width="66.95" height="62.34"/></g><path class="cls-2" d="M180.93,155.34c-.65,0-2.5.23-5.2,2.27s-2.43,3.08-6,6.81c-1.92,2-2.5,2.26-4.46,4.54-2.46,2.87-2.84,4-3,4.54s-.58,2.51.75,6.05c1.59,4.25,3.33,4.62,6.69,9.84,2.67,4.13,2.08,4.68,4.47,7.57,1.75,2.11,2,1.73,5.21,5.29,2.07,2.3,2.68,3.24,4.46,4.54s1.9.88,3.72,2.27c2.23,1.69,2.92,3,4.47,3a4,4,0,0,0,2.23-.76c2.17-1.28,3.9-3.24,5.95-6.81a55,55,0,0,0,3-6.05c1.38-3.17,1.29-3.57,3-7.57,1.38-3.3,1.6-3.41,2.23-5.29.71-2.15.54-2.34,1.49-6.06,1.23-4.85,1.72-5.33,1.48-6.8-.14-.91-.62-2.6-3.72-5.3s-4.58-2.8-11.16-6c-2.89-1.44-5.9-2.72-11.9-5.3a8.31,8.31,0,0,0-3.35-.77h-.38" transform="translate(2.12)"/><g class="cls-18"><rect class="cls-2" x="163.87" y="155.33" width="49.93" height="56.77"/></g><path class="cls-2" d="M235.26,174.26c-1.91.09-4.65.16-8,0-.51,0-1-.08-1.55-.14a9.69,9.69,0,0,0-5.29.85,10,10,0,0,0-3,2.27c-1.24,1.33-1.84,2.58-3,5.3-1.34,3.2-2,4.8-3,7.57-1.13,3.25-1,3.22-2.23,6.81-1.55,4.55-3,8.32-3,8.32-1.63,4.29-2.18,5.37-2.24,7.56,0,1.33-.06,3.68,1.49,5.3a5.86,5.86,0,0,0,3,1.51,44,44,0,0,0,8.93,1.52c.66,0,.45,0,5.95,0h13.39a54.07,54.07,0,0,0,6,0,20.47,20.47,0,0,0,3.72-.76c2-.64,3.41-1.07,4.46-2.27a7.44,7.44,0,0,0,1.49-4.54,20.15,20.15,0,0,0-.74-6.81c-.9-4.11.85,3.31-2.24-11.35-1.15-5.48-1.32-6.19-1.48-6.81a83.47,83.47,0,0,0-3-9.08c-1.32-3.58-1.66-4.08-2.23-4.54a5,5,0,0,0-3.39-.94c-1.07,0-2.37.11-4.05.19" transform="translate(2.12)"/><g class="cls-19"><rect class="cls-2" x="206.07" y="174.02" width="48.66" height="47.32"/></g><path class="cls-2" d="M183.2,215.11A8.05,8.05,0,0,0,179,216.3l-.87.53a3.3,3.3,0,0,0-1.32,1.54l-1.61,3.9a2.47,2.47,0,0,0-.1.29l-.7,2.26a3.28,3.28,0,0,0-.15,1v2.86a3.31,3.31,0,0,0,1.85,3l1.21.57a3.17,3.17,0,0,0,1.39.31l8-.06.33,0,5.86-.65a3.64,3.64,0,0,0,.79-.19l6.86-2.65a3.46,3.46,0,0,0,1-.59l.06,0a3.33,3.33,0,0,0,.28-4.67l-1-1.14a3.22,3.22,0,0,0-1.19-.85l-2.9-1.18-.25-.11-4.26-2.17-.17-.08-4.95-2.16a3,3,0,0,0-.5-.17l-2.21-.56a3.4,3.4,0,0,0-.78-.1Z" transform="translate(2.12)"/><g class="cls-20"><rect class="cls-2" x="176.36" y="215.11" width="28.77" height="17.4"/></g><path class="cls-2" d="M163.4,229.78l-1.32.34a4.21,4.21,0,0,1-1,.12H161a4,4,0,0,0-1.77.41l-1.95.94-.34.14-2.08.78-5,2.2-.32.13L143.1,237l-.23.09-3.61,1.47L136,239.88a4.12,4.12,0,0,0-.91.52l-2.52,1.88a4.28,4.28,0,0,0-.85.85l-.58.79a4.27,4.27,0,0,0-.84,2.53v.33a4.32,4.32,0,0,0,.34,1.66l1.7,4a4.26,4.26,0,0,0,.49.86l1.76,2.39a4.19,4.19,0,0,0,.39.45l2.56,2.6a4.09,4.09,0,0,0,.44.39l2.57,2a2.71,2.71,0,0,0,.35.24l3.41,2.08.27.15,2.84,1.45,4.35,2.46a3,3,0,0,1,.44.29l2.82,2.11a4.28,4.28,0,0,0,1.26.64l3.08.94a4.26,4.26,0,0,0,1.18.17,4.09,4.09,0,0,0,2.72-1l1.91-1.7.19-.19,1.78-1.81a4,4,0,0,0,.62-.8L172,259l3.61-6.62c.07-.12.13-.25.19-.38l1.48-3.51a4.22,4.22,0,0,0,0-3.2l-.85-2.17-1.09-2.63a4.35,4.35,0,0,0-.66-1.09l-1.81-2.15a3,3,0,0,1-.3-.4l-1.25-1.91a2.92,2.92,0,0,0-.21-.28l-1.4-1.8a3.78,3.78,0,0,0-.59-.61l-1.77-1.49a4,4,0,0,0-1.33-.76l-.36-.12a4.11,4.11,0,0,0-1.3-.21,4.21,4.21,0,0,0-1,.12" transform="translate(2.12)"/><g class="cls-21"><rect class="cls-2" x="132.46" y="229.66" width="47.4" height="42"/></g><path class="cls-2" d="M237.47,224.19h-4.15a2.39,2.39,0,0,0-.79.14l-.53.19a2.39,2.39,0,0,0-1.52,1.7l-.33,1.34a2.33,2.33,0,0,0-.06.83l.33,3.34.36,3.17a1.7,1.7,0,0,0,0,.22l.65,3.14a2.34,2.34,0,0,0,.2.58l1.35,2.75,1.32,2.68a2.28,2.28,0,0,0,.45.63,2.36,2.36,0,0,0,2.75.45l1.09-.56a2.29,2.29,0,0,0,.62-.45l1.1-1.11.22-.26,2.13-2.89,2.91-3.7.12-.17,1.2-1.83a2.44,2.44,0,0,0,.33-.76l.57-2.33a2.33,2.33,0,0,0,.08-.59v-1.9a2.45,2.45,0,0,0-.81-1.82l-1-.93a2.34,2.34,0,0,0-.88-.5l-1.81-.57-.21,0-3.2-.69a2.63,2.63,0,0,0-.49-.05Z" transform="translate(2.12)"/><g class="cls-22"><rect class="cls-2" x="232.19" y="224.19" width="17.84" height="21.63"/></g><path class="cls-2" d="M279.16,215.87c-.79.08-.19,0-4.47.76-2.94.48-4.43.72-5.2.75a17.35,17.35,0,0,1-2.35-.07,8.48,8.48,0,0,0-2.86.07c-1.07.21-1.12.36-3,.76-2.18.46-2.49.33-3,.76-1.32,1.15-.87,3.75-.74,4.53a13,13,0,0,0,1.49,3.79c2.24,4.7,1.32,5.62,3,7.56,1,1.19,2.41,1.8,5.21,3,3.17,1.39,3.56,1,6.7,2.27,2.66,1.07,2.36,1.34,7.44,3.78a37.77,37.77,0,0,0,5.21,2.27,34.26,34.26,0,0,1,5.21,1.51c1.53.67,1.37.85,3,1.52,1.9.79,2.57.74,4.46,1.51s1.57,1,3,1.51a6.58,6.58,0,0,0,3,.45,13.44,13.44,0,0,1,3.64.31c1.24.26,2.24.58,3,0a2.4,2.4,0,0,0,.75-1.51c.3-1.51-.38-2.46-.75-4.54-.33-1.86-.49-2.8-.74-3.78a43.74,43.74,0,0,0-1.49-4.54c-.74-2-1.1-3-1.49-3.79-.81-1.6-1.11-1.65-3-4.54a29.89,29.89,0,0,1-2.23-3.78c-.8-1.72-.65-2-1.49-3.78a14.17,14.17,0,0,0-2.23-3.78,8.54,8.54,0,0,0-4.46-3c-.7-.16-.78-.05-3.72,0h-3.73c-4.07,0-5.5-.1-6.53-.1a14.38,14.38,0,0,0-1.65.1" transform="translate(2.12)"/><g class="cls-23"><rect class="cls-2" x="259.13" y="215.71" width="55.95" height="37.81"/></g><path class="cls-2" d="M273.21,245.37c-.38.67.11,1.45.74,3,.94,2.39.49,2.31,1.49,5.3.72,2.15,1.07,2.53,2.23,5.29a62.76,62.76,0,0,1,2.23,6.06,10.81,10.81,0,0,0,1.49,3,5.51,5.51,0,0,0,1.49,1.51,5.16,5.16,0,0,0,2.23.76c1,.12,1.92,0,4.47-.76,3.06-.92,4.6-1.38,5.95-2.26.8-.53,1.1-.85,2.23-1.52,1.47-.86,1.75-.78,3-1.51s3-1.77,3-3c0-.39-.15-.77-.75-1.51a12.44,12.44,0,0,0-3.72-3c-2.71-1.53-2-1.76-5.21-3.78a43.93,43.93,0,0,0-6-3c-5.26-2.33-5.19-1.53-7.44-3-1.57-1-2.56-2-4.47-2.27a7.08,7.08,0,0,0-.8-.05c-.75,0-1.79.13-2.17.8" transform="translate(2.12)"/><g class="cls-24"><rect class="cls-2" x="274.95" y="244.57" width="30.89" height="25.89"/></g><path class="cls-2" d="M327.53,253.7c-2.18.6-2,.16-4.47.75-.87.22-2.07.65-4.46,1.52a23.35,23.35,0,0,0-3.72,1.51,12,12,0,0,0-3,2.27c-.74.76-1,.11-1.49,1.51-.7,1.9-1.05,4.37-.74,5.3s1.08,1.48,2.23,2.27a21.73,21.73,0,0,0,3,1.51c1.82.89,1.74.94,3,1.51s2.29,1,3.72,1.52c1.83.68,3.13,1.09,4.47,1.51,3.7,1.17,4.6,1.27,5.21.76a9.47,9.47,0,0,0,1.49-2.27c1.39-2.83,1.4-2.76,1.48-3,.75-2.27.75-1.51.75-4.54a25.78,25.78,0,0,1,0-3c.09-1.23-.06-1.34,0-3.79a12,12,0,0,0,0-2.27,4.63,4.63,0,0,0-1.49-3,4,4,0,0,0-2.23-.76l-.47,0a12.15,12.15,0,0,0-3.25.78" transform="translate(2.12)"/><g class="cls-25"><rect class="cls-2" x="311.48" y="252.92" width="25.71" height="23.23"/></g><path class="cls-2" d="M361.76,244.62c-3.54.23-6,.64-6.7.75-1.5.26-2.77.54-3.72.76a5.31,5.31,0,0,0-2.23,2.27c-.38.8-.3,1.24-.75,2.27a9.58,9.58,0,0,1-1.49,2.27,43.11,43.11,0,0,0-3,4.54,23.83,23.83,0,0,0-1.49,3c-.87,2.16-.65,2.63-1.49,5.29-.95,3-1.43,3.06-1.49,4.54a6.49,6.49,0,0,0,1.49,4.54c1.44,1.48,3.51,1.44,5.21,1.51,3.79.17,7.42,1.64,11.16,2.27,8.51,1.45,20.09,1.52,24.56,2.27,1.39.24,2.23-1.51,2.23-1.51,1.19-1.09,1.35-2.08,2.23-3,1.92-2.06,2.91-2.08,4.47-3.78,1-1.08.69-1.17,3-5.29,2-3.61,2.25-3.55,3-5.3a16.78,16.78,0,0,0,1.49-6c.08-1.89.2-4.9-1.49-6.06-.66-.45-.94-.17-3.72-.75-.83-.18-1.56-.37-3-.76-2.77-.75-3.68-1.09-5.2-1.51a63.09,63.09,0,0,0-7.45-1.52c-1.74-.27-3.54-.56-5.95-.75-1.74-.14-3.31-.19-4.7-.19-2.06,0-3.73.11-5,.19" transform="translate(2.12)"/><g class="cls-26"><rect class="cls-2" x="341.51" y="244.43" width="59.04" height="36.74"/></g><path class="cls-2" d="M250.88,236.3a9.89,9.89,0,0,0-5.21,3c-1.79,1.81-2.17,3-3.72,5.3-4,6-6.34,5.85-8.18,10.59-.78,2-.48,2.39-1.49,4.54-1.5,3.18-2.9,3.89-3,6.05,0,.81.48,2.06,1.49,4.54a38.94,38.94,0,0,0,2.23,4.54c1.39,2.42,2,2.85,2.24,3a6.09,6.09,0,0,0,3.72.75c1,0,1.9,0,2.85,0a39.06,39.06,0,0,0,4.59,0,71.44,71.44,0,0,1,11.16,0c9.53.55,11.91.76,11.91.76,2.35.21,4.34.42,5.2-.76.7-.93,0-2.1,0-5.29v-4.54c.05-4,.2-4.1,0-5.3a19,19,0,0,0-1.48-4.54,26.43,26.43,0,0,0-2.24-4.54c-1.42-2.21-2-1.92-3.72-4.54-1.51-2.28-1.54-3-3-4.54s-1.57-1-3.72-3a29.83,29.83,0,0,1-3-3,8.18,8.18,0,0,0-2.23-2.27,6.32,6.32,0,0,0-2.23-.75,7.44,7.44,0,0,0-1.15-.08,7.18,7.18,0,0,0-1.09.08" transform="translate(2.12)"/><g class="cls-27"><rect class="cls-2" x="231.4" y="236.22" width="46.11" height="43.62"/></g><path class="cls-2" d="M201.77,234a13,13,0,0,0-5.21,2.27,22.65,22.65,0,0,0-4.46,3.78,42.66,42.66,0,0,0-3.72,4.54c-1.93,2.58-2.74,3.9-3.72,5.29-2.86,4.05-3.9,4.06-6.7,7.57-5.23,6.54-3.06,8.29-8.19,14.37-1.38,1.65-3.65,4-3,5.3a2,2,0,0,0,1.48.76,16.36,16.36,0,0,0,7.45-.76c3.18-.92,3.2.32,11.9.76.6,0,.25,0,9.68,0h18.6c2.49.23,4,.71,6,0a4.4,4.4,0,0,0,2.23-1.52,5.59,5.59,0,0,0,.75-3c.09-1,0-1.32,0-3.79,0-1.26,0-1.9,0-2.26a27,27,0,0,1,.74-4.54,39.72,39.72,0,0,0,.75-4.54c.11-1.31,0-1.33,0-4.54,0-3.94.15-3.86,0-5.3-.28-2.66-.78-2.58-.75-4.54s.49-2.5,0-3.78a8.54,8.54,0,0,0-1.49-2.27,6,6,0,0,0-1.48-1.51c-.78-.5-1.18-.37-3-.76s-1-.59-2.23-.76-1.15-.82-2.24-.75a12.41,12.41,0,0,0-4.46-.76l-1.57,0a40.18,40.18,0,0,0-7.36.79" transform="translate(2.12)"/><g class="cls-28"><rect class="cls-2" x="168.24" y="233.24" width="60.36" height="45.38"/></g><path class="cls-2" d="M297,273.37a24.82,24.82,0,0,0-5.95,1.51c-2.31.93-6.84,3.68-6,3.78,6.7.76,32,1.52,34.23,0,.3-.2-1.46-1-4.46-2.27a39.6,39.6,0,0,0-6.7-2.27,32.64,32.64,0,0,0-7.61-1,26.27,26.27,0,0,0-3.55.23" transform="translate(2.12)"/><g class="cls-29"><rect class="cls-2" x="286.35" y="273.14" width="35.41" height="7.04"/></g><path class="cls-2" d="M399,275.64c-2.08,1.13-2.73,1.77-5.21,3-2.29,1.16-3,1.24-3,1.52.09.85,7.05.15,18.6.75,2.07.11,7.4.42,7.44,0,0-.13-.51-.24-1.49-.75a13.53,13.53,0,0,1-2.23-1.52c-1.81-1.45-1.51-1.93-3-3a11.19,11.19,0,0,0-3-1.52,14.34,14.34,0,0,0-3-.75,33.74,33.74,0,0,0-5.21,2.27" transform="translate(2.12)"/><g class="cls-30"><rect class="cls-2" x="392.87" y="273.37" width="26.09" height="7.98"/></g><path class="cls-2" d="M169,94.82c-3.09,1.43-2.24,1.25-7.44,3.78-4.48,2.19-6.13,2.82-11.16,5.3-2.35,1.15-3.81,1.91-6,3-7.4,3.85-9,5-10.42,6.81-1,1.28-2.8,3.64-2.23,6.06.36,1.5,1.31,1.6,3.72,4.54,1.74,2.11,1.44,2.29,3.72,5.29,1.93,2.53,2.22,2.51,3.72,4.54,2.06,2.78,2,3.47,3.73,6.05,2,3,2.33,2.4,5.95,6.81,2.46,3,3.34,4.54,6,6.81,2.3,2,3.44,2.4,4.47,2.27s1.63-.82,3.72-3c3.55-3.74,2.62-2.41,5.21-5.29,2-2.25,3-3.58,4.46-5.3,3.68-4.45,4.72-5.15,7.44-8.32,4.84-5.65,7.32-10.2,10.42-15.89,2.22-4.08,3.12-6.29,3-9.08-.13-2.39-1-4.15-2.24-6.8a29,29,0,0,0-5.95-8.33,14.46,14.46,0,0,0-3.72-3,7.76,7.76,0,0,0-3.29-.71c-3.33,0-7.31,1.81-13.08,4.49" transform="translate(2.12)"/><g class="cls-31"><rect class="cls-2" x="133.38" y="90.33" width="66.2" height="65.9"/></g><path class="cls-2" d="M200.28,83.47a7.7,7.7,0,0,0-2.23,3.78c-.6,2.4.18,4.37,1.49,7.57a39.93,39.93,0,0,0,3.72,6.81,65.52,65.52,0,0,0,4.46,6.05c1.76,2.22,2.25,2.67,3,3,2,1,4,.47,6,0,.67-.16,1.41-.39,6.7-3,3.44-1.72,4.22-2.17,5.21-3a8.28,8.28,0,0,0,3-3.78c1-3.14-1.07-6.17-1.49-6.81-1.18-1.74-2.79-2.7-6-4.54-2.26-1.31-3-1.52-6-3-6.64-3.36-6.47-4-8.93-4.54a15.21,15.21,0,0,0-3.33-.4,8.22,8.22,0,0,0-5.6,1.91" transform="translate(2.12)"/><g class="cls-32"><rect class="cls-2" x="199.58" y="81.56" width="35.06" height="30.12"/></g><path class="cls-2" d="M232.28,110c-2.93,1.38-5.95,2.52-8.93,3.78-6.82,2.89-8.74,3.5-9.67,3.79-2.8.85-3,.7-5.21,1.51a33.53,33.53,0,0,0-7.44,3.78,17.72,17.72,0,0,0-3.72,3c-1.23,1.39-2.07,2.95-3.73,8.32-1.37,4.46-2.06,6.69-2.23,8.32-.36,3.4-.79,7.53,1.49,10.59,1.6,2.16,3.46,2.33,8.93,4.54,8.11,3.28,8.67,3.91,9.67,4.54,2.17,1.36,3,2.17,5.21,3a43.26,43.26,0,0,0,6,1.51c.41.1,3.27.78,5.95,1.52,6.45,1.77,6.33,2.39,8.18,2.27,3.45-.23,6-2.49,7.45-3.79a20.67,20.67,0,0,0,4.46-6.05,48.33,48.33,0,0,0,2.23-5.3c1.85-4.61,2.77-6.91,3.72-9.07,2-4.64,2.65-5.27,3-7.57a21.18,21.18,0,0,0,0-5.3,25.89,25.89,0,0,0-1.49-6.8c-.57-1.55-1.87-3.55-4.46-7.57-2.92-4.51-3.71-5.36-4.47-6-.43-.4-1.52-1.27-3.72-3a29.61,29.61,0,0,0-3-2.27,3.71,3.71,0,0,0-1.42-.28c-1.7,0-3.62,1.07-6.76,2.55" transform="translate(2.12)"/><g class="cls-33"><rect class="cls-2" x="192.68" y="107.4" width="67.32" height="63.2"/></g><path class="cls-2" d="M264.28,146.27c-.74,0-1.16.57-3.72,3.78-2.83,3.55-2.82,3.51-3,3.78-.89,1.53-1.35,3.31-2.23,6.81-1.09,4.33-.93,4.91-.75,5.3.56,1.2,1.59,1.31,6,3s4.22,1.94,7.44,3A40.94,40.94,0,0,0,274,173.5c3.78.67,4.29.21,4.47,0,.75-.9-.08-2.81-1.49-6.05-.95-2.16-1.3-2.48-2.24-4.54-1.48-3.27-1-3.46-2.23-6-.83-1.82-2-3.48-4.46-6.81s-3-3.79-3.68-3.79h0" transform="translate(2.12)"/><g class="cls-34"><rect class="cls-2" x="256.38" y="146.26" width="24.92" height="27.9"/></g><path class="cls-2" d="M250.88,173.5c-1.81,1.22-1.42,4.92-.74,11.35.09.86.31,2.76.74,5.3.83,4.79,1.27,5.06,2.24,9.83,1.16,5.77.82,6.9,2.23,8.32s3.54,1.87,6,2.27,3.41.13,7.44,0c1.92-.06,2.64,0,3.56,0s1.79.05,3.88,0a70.32,70.32,0,0,0,10.42-.75c3.95-.65,5.94-1,6.7-2.27,1.48-2.49-.88-6.67-2.23-9.08-1.14-2-1.44-1.84-3.73-5.3-2.48-3.75-2-3.89-3.72-6a50.27,50.27,0,0,0-5.95-6.05c-2.51-2.34-3.19-2.75-3.72-3-1.85-1-2.56-.5-5.95-1.51-3.56-1.06-4.42-1.61-7.44-2.27a37.72,37.72,0,0,0-5.21-.76c-1.47-.11-2.54-.19-3.28-.19a2.43,2.43,0,0,0-1.19.19" transform="translate(2.12)"/><g class="cls-35"><rect class="cls-2" x="251.19" y="173.31" width="45.71" height="37.64"/></g><path class="cls-2" d="M185.4,60a21.55,21.55,0,0,0-5.21.75c-2.05.54-1.91.76-4.46,1.52-3.23,1-3.85.72-4.47,1.51s-.49,2.4,0,5.3a46.72,46.72,0,0,0,1.49,6.05c.86,2.78.86,2.08,2.23,6,1.07,3.08,1.24,4,2.23,4.54s2,.33,3.72,0a22.45,22.45,0,0,0,4.47-1.51A45.34,45.34,0,0,0,190.61,82a32.89,32.89,0,0,0,3.72-3c1.35-1.19,2-1.8,2.23-2.27.64-1.54-.13-3.2-1.49-6s-1.8-2.68-3-5.3c-1.25-2.78-1.08-3.69-2.24-4.54-.92-.68-1.93-.76-3.72-.76h-.74" transform="translate(2.12)"/><g class="cls-36"><rect class="cls-2" x="172.66" y="60.01" width="26.66" height="26.25"/></g><path class="cls-2" d="M267.25,109.19a21.78,21.78,0,0,1-3.11-.06,8.82,8.82,0,0,0-2.84.06c-1.52.3-3.52.7-4.46,2.27-1.31,2.19-.07,5.77,2.23,7.57,1.86,1.46,4.72,2,6.7.76.48-.3.9-.69,2.23-3,2.42-4.27,3.77-6.63,3-7.57a.73.73,0,0,0-.64-.24c-.51,0-1.37.17-3.08.24" transform="translate(2.12)"/><g class="cls-37"><rect class="cls-2" x="257.65" y="108.95" width="16.24" height="12.04"/></g><path class="cls-2" d="M251.63,50.18c-2.08,2.8-1.58,4.07-3.72,9.08-1.44,3.36-1.65,2.77-4.47,8.32-.85,1.67-.57,1.22-4.46,9.84-2.41,5.33-2.9,6.35-3,8.32a14.12,14.12,0,0,0,1.49,6.81c.58,1.16,1,1.57,4.46,5.3,4.58,4.93,4.85,5.3,6,6.05,1.77,1.2,4.8,3.25,7.44,2.27,1.28-.48,1.63-1.36,3.72-4.54.43-.66,2.27-3.22,5.95-8.32,3.28-4.56,3.18-3.8,5.21-6.81a55.65,55.65,0,0,0,6.7-13.62c1.23-3.76,1.27-5.36.74-6.81a28.91,28.91,0,0,0-3-4.54c-1.09-1.53-1.64-2.3-2.23-3C270.67,56.31,270,56.05,268,54a48.89,48.89,0,0,1-3.41-4.3,8.54,8.54,0,0,0-1.06-1c-1.28-1.08-3.32-2.81-5.21-3l-.42,0c-2.89,0-5.38,3.36-6.27,4.56" transform="translate(2.12)"/><g class="cls-38"><rect class="cls-2" x="237.99" y="45.62" width="42.34" height="61.53"/></g><path class="cls-2" d="M291.81,65.31c-1.87.75-3,2.27-5.21,5.3-2.67,3.67-2.52,4.46-5.21,8.32-2.39,3.44-2.82,3.27-4.46,6a25.06,25.06,0,0,0-3,6.81,24.23,24.23,0,0,0-.74,6.81c0,4.13.05,6.28,1.48,7.57.85.76,1.52.62,6.7.75,6,.16,6.61.38,8.93,0a20.12,20.12,0,0,0,5.21-1.51,11.31,11.31,0,0,0,4.46-3c1.33-1.62,1.12-2.63,2.24-5.3,1.28-3.08,2-2.91,3.72-6,.92-1.74.51-1.46,3-9.08,1.28-3.94,1.83-5.37,1.49-7.57a7.27,7.27,0,0,0-1.49-3.78c-1.2-1.45-2.3-1.32-5.95-3-3.11-1.45-2.79-1.77-4.46-2.27a12.56,12.56,0,0,0-3.56-.57,8.61,8.61,0,0,0-3.14.57" transform="translate(2.12)"/><g class="cls-39"><rect class="cls-2" x="275.32" y="64.74" width="37.56" height="42.56"/></g><path class="cls-2" d="M221.12,16.89a44.14,44.14,0,0,0-5.21,1.52c-3.42,1.17-3.5,1.56-7.44,3-.88.33-3,1.11-6,2.27A8.52,8.52,0,0,0,198.79,26a9.71,9.71,0,0,0-1.48,3c-1.17,2.93-.56,1.08-2.24,5.29a60.69,60.69,0,0,0-2.23,6.06,28.28,28.28,0,0,0-.74,4.54c-.28,3.87.69,6.82,2.23,11.35a42.64,42.64,0,0,0,5.21,11.34,28.06,28.06,0,0,0,5.21,6.06,30,30,0,0,0,7.44,4.54,44.16,44.16,0,0,0,8.93,3c4.22,1,6.37,1.55,8.18.76.51-.23,1.86-.89,4.47-5.3,2.31-3.9,2.6-5.64,5.21-11.35.55-1.21,1.61-3.33,3.72-7.56,3.49-7,3.67-7.13,4.46-9.08a74.28,74.28,0,0,0,3-9.84c2.24-8.58,1.83-9.85,1.49-10.59-1.23-2.66-4.25-4.34-6-5.29-1.35-.76-2.09-.92-4.46-2.27-1.91-1.09-2.5-1.6-3.72-2.27a20.41,20.41,0,0,0-6.7-2.27,17.5,17.5,0,0,0-2.82-.22,31.52,31.52,0,0,0-6.85,1" transform="translate(2.12)"/><g class="cls-40"><rect class="cls-2" x="193.94" y="15.92" width="60.55" height="66.83"/></g><path class="cls-2" d="M279.16,113.73c-.81.35-2.77,2-6.7,5.3-4.95,4.17-5.56,5.16-5.95,6-1.41,3.22-.63,6.48,0,9.08.87,3.6,1.77,3.54,4.46,9.84,1.65,3.84,1.78,4.94,3.72,9.07,2.3,4.88,3.21,5.67,3.73,6.06,2.36,1.78,5.08,1.67,8.92,1.51a34.78,34.78,0,0,0,10.42-2.27c2.89-1,4.34-1.47,5.21-2.27,1.41-1.3,2.15-3,3-12.1.6-6.68.15-5.13.74-12.87.28-3.62.47-5.16,0-7.56-.36-1.86-1.07-5.46-3.72-7.57-1.86-1.48-3.32-1.13-8.93-1.51-7.1-.48-9.83-1.38-12-1.38a7,7,0,0,0-2.87.62" transform="translate(2.12)"/><g class="cls-41"><rect class="cls-2" x="267.22" y="113.11" width="42.07" height="47.81"/></g><path class="cls-2" d="M320.09,72.12c-1,.77-1.1,1.35-3,5.3-2.61,5.49-2.5,4.7-3.72,7.56a72.47,72.47,0,0,0-3,8.33c-1.54,5.41-.77,5.38-2.23,10.59-1.34,4.76-2.34,6.07-1.49,7.56,1.27,2.23,5.18,2.26,6.7,2.27,2.79,0,3.14-.8,7.44-1.51,3.84-.63,4.18-.08,7.44-.76s2.9-1.22,6.7-2.27c5.51-1.52,7.77-.8,9.67-3a10.14,10.14,0,0,0,1.49-3,24,24,0,0,0,1.49-7.56c.21-2.94-.14-3.37,0-8.33.16-5.77.56-7.62-.75-9.83a9.92,9.92,0,0,0-4.46-3.78c-2.07-1-2.87-.69-7.44-1.52-4.82-.87-4.76-1.39-7.44-1.51-.62,0-1.26-.06-1.91-.06a8.43,8.43,0,0,0-5.53,1.57" transform="translate(2.12)"/><g class="cls-42"><rect class="cls-2" x="307.96" y="70.55" width="42.34" height="43.2"/></g><path class="cls-2" d="M374.41,120.54c-1.84.13-2.76.19-3.72.76s-1.52,1.35-3.72,6a30.38,30.38,0,0,0-2.24,5.3c-.34,2.24.34,2.62,0,6-.17,1.79-.42,2.34,0,3,.33.52.85.79,4.47,1.51a41.38,41.38,0,0,0,4.46.76c1.32.1,1.79,0,4.47,0,1.77,0,2.62,0,3.2,0s1,0,2,0c2-.09,1.63-.2,6.69-.76,2.9-.32,3.28-.31,3.72-.76,1.08-1.07.73-3,0-6.81a37.65,37.65,0,0,0-2.23-7.56c-1.2-2.93-1.81-4.39-3-5.3-.81-.62-1.24-.63-6.7-1.51a41.69,41.69,0,0,0-6.34-.8c-.36,0-.71,0-1.1,0" transform="translate(2.12)"/><g class="cls-43"><rect class="cls-2" x="366.44" y="120.5" width="30.52" height="23.6"/></g><path class="cls-2" d="M340.92,116c-2,.13-4.32.29-7.44.76-4.36.66-4.42,1.07-8.18,1.51a42.37,42.37,0,0,0-6,.76c-2.39.58-3.91,1-5.21,2.27s-1.66,2.82-2.23,5.3-.45,3.54-.74,7.56c-.29,3.82-.44,3.49-.75,7.57-.33,4.35-.48,6.56,0,8.32a11.18,11.18,0,0,0,3.72,6c1.15.87,1.45.63,6,2.27,3.89,1.42,3.58,1.57,6,2.27,1.08.32,1.17.3,5.95,1.51,3,.76,2.88.75,3,.76,3.34.26,6.12-2.19,9.67-5.3a42.38,42.38,0,0,0,4.47-4.54,33.66,33.66,0,0,0,4.46-6,34,34,0,0,0,3-7.56,36.52,36.52,0,0,0,1.49-6.81,35.63,35.63,0,0,0,0-7.57c-.32-3.76-.48-5.63-1.49-6.81-1.33-1.55-3.21-1.8-6.7-2.27a26.69,26.69,0,0,0-3.64-.24c-1.48,0-3.1.1-5.29.24" transform="translate(2.12)"/><g class="cls-44"><rect class="cls-2" x="312.05" y="115.76" width="48.47" height="47.41"/></g><path class="cls-2" d="M313.39,213.6a9.73,9.73,0,0,0-5.21,3,9.61,9.61,0,0,0-2.23,6.05c0,2.18.84,2.65,3,7.56,1.52,3.49,1.2,3.5,3,7.57a59.07,59.07,0,0,0,3,6.05c1.52,2.69,2.29,4,3,4.54,3.6,2.67,10-.07,13.4-1.51,3.65-1.56,4.29-2.64,8.18-3.78,1.63-.48,2.91-.7,5.21-1.52,2.9-1,4.39-1.48,5.21-2.27,1.48-1.42,1.75-3.49,2.23-7.56.55-4.57.82-6.85,0-8.33-1.2-2.17-4-3-9.67-4.53-4.2-1.16-4.8-.93-10.42-2.27-4.3-1-4.75-1.36-8.93-2.27a35.83,35.83,0,0,0-7.22-1.08,9,9,0,0,0-2.45.32" transform="translate(2.12)"/><g class="cls-45"><rect class="cls-2" x="308.05" y="213.28" width="46.97" height="37.79"/></g><path class="cls-2" d="M364,225a8.15,8.15,0,0,0-4.46,3.78c-1.15,2.12-.94,4.14-.75,6.05.21,2.06.36,3.58,1.49,4.54s1.89.54,5.21.76c1.38.09.3.08,5.95.76,3.17.37,3.76.4,6.7.75,3.82.45,3.76.51,5.95.76a53.7,53.7,0,0,0,7.3.42,31.73,31.73,0,0,1,5.35.34c3.4.45,4.66.93,5.95,0s1.69-2.67,2.24-5.3c.52-2.48.85-4.09,0-5.3s-2.47-1.31-4.47-1.51c-3.49-.34-6.93-1.11-10.42-1.51-4-.46-6.75-.78-10.41-1.52s-6.7-1.51-6.7-1.51c-4.16-1.07-5.92-1.75-7.42-1.75A4.8,4.8,0,0,0,364,225" transform="translate(2.12)"/><g class="cls-46"><rect class="cls-2" x="360.51" y="224.71" width="47.39" height="19.33"/></g><path class="cls-2" d="M376.64,150.05c-3.32.17-5.69.45-8.19.75-5.81.71-8.75,1.08-10.41,2.27s-2.67,3.12-4.47,6.81c-1.4,2.88-1.95,4.62-4.46,12.11-2.65,7.92-3,8.75-3.72,11.35-.4,1.34-1,3.67-2.24,8.32a38.61,38.61,0,0,0-1.48,6.81c-.27,2.93-.48,5.27.74,7.56.8,1.51,2.27,2.52,5.21,4.54a35.3,35.3,0,0,0,6.7,3.79c3,1.25,3.28.83,7.44,2.27,3.69,1.28,3.6,1.66,7.44,3a49.44,49.44,0,0,0,8.18,2.27,59.39,59.39,0,0,0,7.45.76c3.69.23,5.54.35,6.69,0,.91-.27,2.22-.84,6.7-6.05a68.24,68.24,0,0,0,7.44-9.84c1.47-2.42,1.11-2.22,3.72-6.81,3.12-5.47,3.45-5.42,3.72-6.81.59-2.95-.77-3.67-2.23-10.59-.92-4.38-.55-4.9-1.49-8.32a62.64,62.64,0,0,0-3-7.57c-3.9-9.08-4.91-10.34-5.95-11.35a18.13,18.13,0,0,0-5.95-3.78c-2.59-1.05-4.6-1.22-8.19-1.51-1.59-.13-3-.18-4.38-.18-1.8,0-3.49.08-5.29.18" transform="translate(2.12)"/><g class="cls-47"><rect class="cls-2" x="343.31" y="149.87" width="72.51" height="73.16"/></g><path class="cls-2" d="M306,162.15a36.19,36.19,0,0,0-6,.76,47.1,47.1,0,0,0-5.2,1.51c-3.59,1.19-5.39,1.78-6,2.27-2.56,2.23-2.4,6.35-2.23,10.59a21.93,21.93,0,0,0,2.23,9.84c1.57,3,2.45,2.63,6,7.57,2.36,3.32,2.17,3.78,4.46,6.8,2.51,3.32,3.77,5,5.95,6.06,1.89.93,4,.88,8.19.75a105.75,105.75,0,0,0,11.91-1.51c5.46-.85,6.7-1.13,8.18-2.27a11.81,11.81,0,0,0,3.72-5.3c.57-1.6.63-3.34.75-6.8,0-1.23,0-1.35,0-5.3,0-2,0-4,0-6.05,0-6.27.17-7.26-.75-8.32a16.57,16.57,0,0,0-3.72-2.27c-4.05-2.18-3.7-1.84-6-3-3.63-1.92-4.21-2.41-6-3a38.21,38.21,0,0,0-7.44-1.51,49.57,49.57,0,0,0-7.32-.77H306" transform="translate(2.12)"/><g class="cls-48"><rect class="cls-2" x="288.39" y="162.14" width="51.85" height="46.34"/></g><path class="cls-2" d="M406.4,218.9c-1.25,2.87-1.87,4.3-1.48,5.29s1.17.87,5.21,3a31.41,31.41,0,0,0,4.46,2.27c.69.25,3.44,1.27,3.72.75s-4.08-2.34-6.7-6.81c-2.44-4.15-1.87-8.25-3-8.32h0c-.56,0-1.11,1.27-2.21,3.79" transform="translate(2.12)"/><g class="cls-49"><rect class="cls-2" x="406.65" y="215.11" width="14.14" height="15.64"/></g><path class="cls-2" d="M340.18,57c-1.28,2.6-2.19,3.89-2.23,6a3.94,3.94,0,0,0,.74,3c.76.75,1.51.36,5.21.76,1.47.16,2.06.29,2.23,0,.29-.5-1.54-1.26-2.23-3-.8-2,.66-3.43.74-6a9.41,9.41,0,0,0-2.23-6A53.58,53.58,0,0,1,340.18,57" transform="translate(2.12)"/><g class="cls-50"><rect class="cls-2" x="340.02" y="51.7" width="8.52" height="15.43"/></g><path class="cls-2" d="M321.57,29c-.94,1.9-1.19,3.21-2.23,8.32-1.2,5.9-1.27,6.15-1.49,7.57-.53,3.51-.69,5.94-.74,6.81-.33,5.7.32,7.41.74,8.32a8.64,8.64,0,0,0,2.24,3,8.27,8.27,0,0,0,8.18,1.52c2.09-.84,3.14-2.49,4.47-4.54,1.74-2.71,1.25-3.45,3-6.81,2.22-4.34,4.13-5.24,3.72-6.81-.45-1.73-3.59-.75-6.69-3-1.77-1.29-2.55-2.85-3.72-5.29-3.49-7.22-2.87-12.66-4.47-12.86h-.09c-1,0-2,2.09-2.89,3.79" transform="translate(2.12)"/><g class="cls-51"><rect class="cls-2" x="318.9" y="25.21" width="23.06" height="40.47"/></g><path class="cls-2" d="M274.69,4.79a36,36,0,0,0-3,4.54c-1.61,2.86-1.5,3.52-3,6.05s-1.83,2.3-3.72,5.3c-1.74,2.76-2.62,4.14-3,6.05a12.89,12.89,0,0,0,.75,6.81c.4,1.15.93,2.22,3.72,6.05,2.25,3.1,2.83,3.68,5.21,6.81,3.46,4.56,3.85,5.48,5.95,7.57s3.22,3.16,5.21,3.78c1.07.33,2.08.43,6.7,0,3.33-.31,5-.44,6.69-.76,4.1-.76,6.73-1.24,9.68-3a18.08,18.08,0,0,0,6.7-6.81c.78-1.48.65-1.79,2.23-9.08,1.38-6.39,1.72-7.23,2.23-10.59.43-2.83.63-5.18.74-6.81C299.7,10.35,284.22,3.85,277.65,3.85a3.72,3.72,0,0,0-3,.94" transform="translate(2.12)"/><g class="cls-52"><rect class="cls-2" x="263.6" y="3.85" width="56.37" height="54.33"/></g><path class="cls-2" d="M256.09.25c-3.51.32-3,.91-9.67,2.27-6.28,1.28-9,1.23-9.68,3-.53,1.37.47,2.92,1.49,4.53a18,18,0,0,0,8.93,6.81c3.46,1.4,6.37,2.58,9.68,1.52,2.75-.89,4.24-2.84,6.69-6.06C266.39,8.6,269.16,5,268,2.52c-1-2-4.35-2.52-7.43-2.52-1.76,0-3.41.15-4.48.25" transform="translate(2.12)"/><g class="cls-53"><rect class="cls-2" x="238.34" width="32.95" height="19.47"/></g><path class="cls-2" d="M193.49,2.47c-2.26,6.74-1.58,12.78,1.58,15.18a9.49,9.49,0,0,0,5.21,1.51c4.18.22,7.28-1.66,9.68-3,10.4-5.9,16.69-7.15,16.37-8.32-.14-.48-1.21-.39-3.16-.31a45,45,0,0,1-9.49-.45,52.69,52.69,0,0,1-8.93-2.27,64,64,0,0,1-8.42-3.49,2,2,0,0,0-.91-.22,2,2,0,0,0-1.93,1.39" transform="translate(2.12)"/><g class="cls-54"><rect class="cls-2" x="193.36" y="1.08" width="35.42" height="18.3"/></g><path class="cls-2" d="M55.92,114.49A10.74,10.74,0,0,0,51.46,119c-1.26,2.07-1.65,3.94-2.24,6.81-.16.81-.35,2.55-.74,6-.49,4.48-.51,5.22,0,6.05,1,1.65,3.12,2,4.47,2.27,2.79.51,3.37-.53,8.18-.75.81,0,2.28,0,5.21,0,3.26,0,3.44.08,4.46,0a12.4,12.4,0,0,0,6-1.52,6.59,6.59,0,0,0,3-3c.24-.57.54-1.61-.74-6.06a41,41,0,0,0-3.72-9.07,10.41,10.41,0,0,0-1.49-2.27c-1.72-1.74-3.79-1.85-7.44-2.27-5.49-.64-7.48-1.15-8.77-1.15a3.51,3.51,0,0,0-1.65.39" transform="translate(2.12)"/><g class="cls-55"><rect class="cls-2" x="50.09" y="114.1" width="32.3" height="26.62"/></g><path class="cls-2" d="M100.57,89.52a10.92,10.92,0,0,0-5.21,3.79c-1.31,1.49-1.25,1.91-3,4.54a68.6,68.6,0,0,1-5.21,6.8c-.6.73-2.39,2.87-4.46,5.3a14.91,14.91,0,0,0-3,4.54,13.94,13.94,0,0,0-.74,3c-.4,3.42,1.1,5.44,2.23,9.08,1.81,5.83-.06,7.07,2.23,12.1,1.24,2.7,2.47,3.87,3.72,4.54a7.51,7.51,0,0,0,4.47.76c1.2-.18,2.12-.63,4.46-2.27,3-2.09,3.82-3,6-4.54,3.25-2.39,3.44-1.87,6-3.79a33.94,33.94,0,0,0,5.95-6.05c3.28-3.95,4.91-5.93,5.21-8.32s-.41-4.44-1.49-7.57c-.79-2.32-1.09-2.28-2.23-5.29-1.58-4.2-1.07-4.45-2.23-6.81-.23-.47-1.65-2.34-4.47-6-1.66-2.2-2.52-3.31-3.72-3.79a5.71,5.71,0,0,0-2.08-.38,8.81,8.81,0,0,0-2.38.38" transform="translate(2.12)"/><g class="cls-56"><rect class="cls-2" x="80.72" y="89.14" width="40.88" height="55.17"/></g><path class="cls-2" d="M122.15,58.5c-3.73,1.06-6.21,4.24-11.16,10.6-2.64,3.38-3.4,5-3.72,6.81-.39,2.23,0,4,.74,6.8.87,3.46,1.6,4.49,3.72,9.84,2.58,6.5,2.27,6.89,3.72,9.08s3.2,4.82,6.7,6.05a11.71,11.71,0,0,0,7.44,0c2.07-.71,2.17-1.47,5.21-3,2.67-1.36,3.45-1.21,5.95-2.26,2.09-.88,2.2-1.26,8.19-5.3,4.28-2.89,6.42-4.34,8.18-5.3,2.66-1.44,3.51-1.65,5.21-3a17.06,17.06,0,0,0,4.47-5.3,10,10,0,0,0,1.48-4.54,10.14,10.14,0,0,0-1.48-5.29,17.74,17.74,0,0,0-8.19-8.33c-.73-.33-.18,0-5.21-1.51-4.28-1.28-4.92-1.59-7.44-2.27-2.27-.61-3.87-.93-6.7-1.51a74.46,74.46,0,0,0-8.93-1.52c-2.27-.2-3.92-.35-5.27-.35a10.46,10.46,0,0,0-2.91.35" transform="translate(2.12)"/><g class="cls-57"><rect class="cls-2" x="109" y="58.15" width="61.49" height="50.8"/></g><path class="cls-2" d="M166.8,1.76c-4.41,2.69-8,4.72-10.42,6.06-4.22,2.32-6.39,3.36-8.19,6-1,1.49-1.42,3-2.23,6.05-1.56,5.82-.91,7-2.23,12.86-1,4.41-1.65,5-2.23,9.08-.72,5-.12,7,.74,8.32s2,2,3.72,3a29.36,29.36,0,0,0,8.19,3c6,1.56,9.06,2.34,10.41,2.26,1.16-.06,2.08-.25,8.93-3s10.22-4.16,11.17-5.3c.69-.84,1.3-1.86,3-12.86.86-5.66,1.3-8.49,1.49-11.35a112.23,112.23,0,0,0,0-12.86c-.11-3-.31-7.16-.74-12.1l-21.58.75" transform="translate(2.12)"/><g class="cls-58"><rect class="cls-2" x="142.91" y="1.01" width="48.63" height="57.58"/></g><path class="cls-2" d="M124.38,14.62c-4.41.51-5.11,1.93-13.39,5.3-1.5.61-4,1.67-8.93,3.78-2.17.93-4.63,2-6,4.54a7,7,0,0,0-.74,2.27c-.31,2.44,1.26,4.07,3,6.81,2.18,3.5,1.18,3.2,3.72,7.57,2.06,3.54,3.13,5.33,5.21,6.81a14.41,14.41,0,0,0,6,2.27,24.49,24.49,0,0,0,11.91-.76c2.67-.84,5.24-1.65,7.44-3.78,3-3,3.07-6.18,4.46-13.62,2.6-13.94,5.38-18.32,3-20.43-.69-.6-3.45-.66-8.93-.76-2.13,0-3.68-.06-4.78-.06-.91,0-1.52,0-1.92.06" transform="translate(2.12)"/><g class="cls-59"><rect class="cls-2" x="97.17" y="14.56" width="47.36" height="40.54"/></g><path class="cls-2" d="M84.34,56.73c-2,1.06-4.47,2.44-7.14,4.2-5.6,3.66-9,5.86-11.93,10-2.7,3.78-3.75,7.29-5.09,11.78-1.54,5.17-2.43,8.18-2,12.3.41,4.47,1.9,5.54,1.48,9.75-.39,3.94-1.92,5.34-1,6.91.61,1,2,1.7,9.07,1.56,6.28-.12,9.41-.18,11.13-.86,4-1.6,6.57-6,11.59-14.57,2.24-3.85,3.87-7.3,7.14-14.21,2.89-6.14,3.82-8.56,4.34-11.72a30.74,30.74,0,0,0,.35-6.51,5.2,5.2,0,0,0-3.21-4.54L88.66,56.54a5.11,5.11,0,0,0-2-.39,5.18,5.18,0,0,0-2.36.58" transform="translate(2.12)"/><g class="cls-60"><rect class="cls-2" x="59.81" y="56.15" width="44.67" height="57.25"/></g><path class="cls-2" d="M91.64,34.29c-1.21.08,1.49,11.35.74,15.14-.52,2.67,6,.79,6.7-.76.25-.57,0-1-3-6.05-2.13-3.66-2.47-4.27-3-5.3-1.14-2.37-1.2-3-1.48-3h0" transform="translate(2.12)"/><g class="cls-61"><rect class="cls-2" x="92.55" y="34.29" width="8.9" height="17.81"/></g><path class="cls-2" d="M399.71,138.7c-.86.47,1.31,9.27,5.21,9.84.84.12,1.94-.12,2.23-.76s-.49-1.69-4.47-6.05c-2.44-2.68-2.8-3-2.93-3h0" transform="translate(2.12)"/><g class="cls-62"><rect class="cls-2" x="400.98" y="138.69" width="8.61" height="9.97"/></g></g><ellipse class="cls-63" cx="214.88" cy="101.21" rx="49.53" ry="50.36"/><path class="cls-64" d="M212.76,157.72c-30.62,0-55.54-25.35-55.54-56.51s24.92-56.5,55.54-56.5,55.53,25.35,55.53,56.5S243.38,157.72,212.76,157.72Zm0-106.1c-26.93,0-48.83,22.25-48.83,49.59s21.9,49.6,48.83,49.6,48.82-22.25,48.82-49.6S239.68,51.62,212.76,51.62Z" transform="translate(2.12)"/><path class="cls-65" d="M212.76,47.75c28.94,0,52.48,24,52.48,53.46s-23.54,53.47-52.48,53.47-52.49-24-52.49-53.47,23.54-53.46,52.49-53.46m0,106.1c28.6,0,51.87-23.61,51.87-52.64s-23.27-52.63-51.87-52.63-51.87,23.61-51.87,52.63,23.27,52.64,51.87,52.64m0-112.19c-32.35,0-58.58,26.66-58.58,59.55s26.23,59.56,58.58,59.56,58.57-26.66,58.57-59.56-26.22-59.55-58.57-59.55Zm0,106.1c-25.29,0-45.79-20.84-45.79-46.55s20.5-46.54,45.79-46.54,45.78,20.84,45.78,46.54-20.5,46.55-45.78,46.55Z" transform="translate(2.12)"/><ellipse class="cls-66" cx="214.97" cy="48.17" rx="1.47" ry="1.5"/><ellipse class="cls-66" cx="201.46" cy="49.95" rx="1.47" ry="1.5"/><ellipse class="cls-66" cx="188.87" cy="55.23" rx="1.47" ry="1.5"/><ellipse class="cls-66" cx="178.05" cy="63.64" rx="1.47" ry="1.5"/><ellipse class="cls-66" cx="169.74" cy="74.62" rx="1.47" ry="1.5"/><ellipse class="cls-66" cx="164.51" cy="87.4" rx="1.47" ry="1.5"/><ellipse class="cls-66" cx="162.71" cy="101.13" rx="1.47" ry="1.5"/><ellipse class="cls-66" cx="164.46" cy="114.86" rx="1.47" ry="1.5"/><ellipse class="cls-66" cx="169.65" cy="127.66" rx="1.47" ry="1.5"/><ellipse class="cls-66" cx="177.93" cy="138.66" rx="1.47" ry="1.5"/><ellipse class="cls-66" cx="188.72" cy="147.11" rx="1.47" ry="1.5"/><ellipse class="cls-66" cx="201.29" cy="152.43" rx="1.47" ry="1.5"/><ellipse class="cls-66" cx="214.79" cy="154.26" rx="1.47" ry="1.5"/><ellipse class="cls-66" cx="228.3" cy="152.48" rx="1.47" ry="1.5"/><ellipse class="cls-66" cx="240.89" cy="147.2" rx="1.47" ry="1.5"/><ellipse class="cls-66" cx="251.71" cy="138.79" rx="1.47" ry="1.5"/><ellipse class="cls-66" cx="260.02" cy="127.81" rx="1.47" ry="1.5"/><ellipse class="cls-66" cx="265.25" cy="115.03" rx="1.47" ry="1.5"/><ellipse class="cls-66" cx="267.05" cy="101.3" rx="1.47" ry="1.5"/><ellipse class="cls-66" cx="265.3" cy="87.57" rx="1.47" ry="1.5"/><ellipse class="cls-66" cx="260.11" cy="74.77" rx="1.47" ry="1.5"/><ellipse class="cls-66" cx="251.83" cy="63.77" rx="1.47" ry="1.5"/><ellipse class="cls-66" cx="241.04" cy="55.32" rx="1.47" ry="1.5"/><ellipse class="cls-66" cx="228.47" cy="50" rx="1.47" ry="1.5"/><polygon class="cls-67" points="249.61 139.35 234.37 146.28 189.72 61.26 202.49 55.3 249.61 139.35"/><ellipse class="cls-68" cx="216.86" cy="172.76" rx="35.86" ry="63.84"/><ellipse class="cls-69" cx="216.86" cy="178.72" rx="22.62" ry="46.71"/><path class="cls-70" d="M216.8,216.13s6,0,3.55,3-4.79,0-4.79,0S213.6,215.7,216.8,216.13Z" transform="translate(2.12)"/><path class="cls-70" d="M221,214.59s2.07.25,1.84,1.44-1.64-.15-1.64-.15S219.94,214.84,221,214.59Z" transform="translate(2.12)"/><path class="cls-70" d="M214.54,221.67s1.56-1.4,2.28-.44-1.19,1.15-1.19,1.15S214,222.67,214.54,221.67Z" transform="translate(2.12)"/><path class="cls-70" d="M204.6,201.37s5.41-1.48,3.7,2.17a4.26,4.26,0,0,1-5.18,2.49S197.45,203.6,204.6,201.37Z" transform="translate(2.12)"/><path class="cls-70" d="M204.38,207.73s3.24-.77,2.27,1.15a1.58,1.58,0,0,1-2.56.61S202.61,207.91,204.38,207.73Z" transform="translate(2.12)"/><path class="cls-70" d="M197.8,201.32s1.9-2.78,2.45-.69a1.62,1.62,0,0,1-1.5,2.2S196.61,202.66,197.8,201.32Z" transform="translate(2.12)"/><path class="cls-70" d="M228.19,200.76s-.29-4.55,3-2.28.12,4.08.12,4.08S228.19,204.41,228.19,200.76Z" transform="translate(2.12)"/><path class="cls-70" d="M226.93,204.05s-1.78-1.31-1-2.29,1.45,1,1.45,1S228.07,204.37,226.93,204.05Z" transform="translate(2.12)"/><rect class="cls-71" x="221.92" y="148.68" width="10.24" height="5.39"/><polyline class="cls-72" points="226.02 147.03 227.04 148.06 228.06 147.03"/><rect class="cls-73" x="222.63" y="149.45" width="1.63" height="2.07"/><path class="cls-68" d="M220.37,151s0-1.66.89-1.67,1,1.67,1,1.67-.68.57-.94.57S220.37,151,220.37,151Z" transform="translate(2.12)"/><g class="cls-74"><path class="cls-75" d="M220.73,150.68a.32.32,0,0,0-.11.38c.11.38.67-.19.67-.19s.43.4.72.21-.2-.48-.2-.48h0A1,1,0,0,0,220.73,150.68Z" transform="translate(2.12)"/></g><path class="cls-76" d="M220.76,150.63a.3.3,0,0,0-.1.36c.1.36.62-.18.62-.18s.41.38.68.2-.18-.45-.18-.45h0A.93.93,0,0,0,220.76,150.63Z" transform="translate(2.12)"/><path class="cls-77" d="M220.8,150.6a.3.3,0,0,0-.1.34c.1.33.59-.17.59-.17s.38.35.63.19-.17-.42-.17-.42h0A.87.87,0,0,0,220.8,150.6Z" transform="translate(2.12)"/><circle class="cls-78" cx="222.92" cy="150.99" r="0.01"/><circle class="cls-78" cx="222.99" cy="151.01" r="0.01"/><circle class="cls-78" cx="222.96" cy="150.95" r="0.01"/><circle class="cls-78" cx="223.02" cy="150.95" r="0.01"/><circle class="cls-78" cx="223.06" cy="150.98" r="0.01"/><circle class="cls-78" cx="223.06" cy="150.9" r="0.01"/><circle class="cls-78" cx="223.12" cy="150.93" r="0.01"/><path class="cls-79" d="M221.75,150.72a.38.38,0,0,0,.37,0c0,.09-.38.1-.37,0Z" transform="translate(2.12)"/><path class="cls-79" d="M221.75,150.77c.14.06.34.09.4.24,0-.15-.36-.17-.4-.24Z" transform="translate(2.12)"/><path class="cls-79" d="M221.73,150.79c.08.1.24.22.28.34a1.5,1.5,0,0,0-.3-.32l0,0Z" transform="translate(2.12)"/><path class="cls-79" d="M221.69,150.82a1,1,0,0,1,.26.43c0-.16-.25-.33-.26-.43Z" transform="translate(2.12)"/><path class="cls-79" d="M220.89,150.75c-.16,0-.37,0-.49-.1.1.14.41,0,.49.1Z" transform="translate(2.12)"/><path class="cls-79" d="M220.89,150.78c-.14,0-.33,0-.43.11.1-.11.29-.1.43-.13v0Z" transform="translate(2.12)"/><path class="cls-79" d="M220.9,150.83c-.09,0-.28,0-.34.12s.11-.06.16-.09l.17-.05v0Z" transform="translate(2.12)"/><path class="cls-79" d="M220.92,150.87c-.13.07-.32.11-.38.25,0-.07.33-.29.38-.25Z" transform="translate(2.12)"/><path class="cls-76" d="M221,150.42a.5.5,0,0,1,.59,0,0,0,0,0,1,0,.06h0a.66.66,0,0,1-.58,0S220.94,150.46,221,150.42Z" transform="translate(2.12)"/><path class="cls-80" d="M220.91,150.22a1.3,1.3,0,0,1,.73,0A4,4,0,0,0,220.91,150.22Z" transform="translate(2.12)"/><ellipse class="cls-76" cx="223.12" cy="150.1" rx="0.08" ry="0.14"/><ellipse class="cls-81" cx="223.12" cy="150.05" rx="0.02" ry="0.04"/><ellipse class="cls-76" cx="223.68" cy="150.1" rx="0.08" ry="0.14"/><ellipse class="cls-81" cx="223.68" cy="150.05" rx="0.02" ry="0.04"/><g id="Glasses"><circle class="cls-82" cx="223.1" cy="150.09" r="0.19"/><polygon class="cls-81" points="223.11 149.88 222.88 150.12 222.91 150.1 223.15 149.86 223.11 149.88"/><polygon class="cls-81" points="223.16 149.91 222.9 150.16 222.9 150.17 223.2 149.89 223.16 149.91"/></g><g id="Glasses-2" data-name="Glasses"><circle class="cls-82" cx="223.71" cy="150.09" r="0.19"/><polygon class="cls-81" points="223.73 149.88 223.5 150.12 223.52 150.11 223.76 149.86 223.73 149.88"/><polygon class="cls-81" points="223.78 149.91 223.52 150.16 223.52 150.18 223.82 149.89 223.78 149.91"/></g><g id="Frame"><path class="cls-83" d="M221,149.85a.23.23,0,0,0-.23.24.23.23,0,0,0,.23.23.24.24,0,1,0,0-.47Zm0,.43a.2.2,0,0,1-.19-.19.2.2,0,0,1,.19-.2.19.19,0,0,1,.19.2A.19.19,0,0,1,221,150.28Z" transform="translate(2.12)"/><path class="cls-83" d="M221.18,150v0h.2v0A.46.46,0,0,0,221.18,150Z" transform="translate(2.12)"/><path class="cls-83" d="M221.59,149.85a.24.24,0,1,0,0,.47.23.23,0,0,0,.23-.23A.23.23,0,0,0,221.59,149.85Zm0,.43a.2.2,0,1,1,.19-.19A.2.2,0,0,1,221.59,150.28Z" transform="translate(2.12)"/></g><line class="cls-84" x1="225.42" y1="149.37" x2="232.14" y2="149.37"/><line class="cls-85" x1="225.42" y1="151.02" x2="232.14" y2="151.02"/><line class="cls-85" x1="225.42" y1="151.85" x2="232.14" y2="151.85"/><line class="cls-85" x1="221.96" y1="152.68" x2="232.14" y2="152.68"/><path class="cls-68" d="M222.4,231.87s36.48,24.5,28.21,26.93S227.14,242,227.14,242s-1-2.4-3.67-1,10.79,15.27,7.79,23.15-10-8.25-10-8.25-6.95-20.65-6.34-22.72S222.4,231.87,222.4,231.87Z" transform="translate(2.12)"/><path class="cls-86" d="M246.14,258.45s-4.45-1-4.13.88c0,0-3.52-.86-4.13,1.21,0,0-3.36.1-3.59,1.61,0,0-1.48-.23-3,2s-9.66-22.82-9.66-22.82,1.45-5.65,5.46-1.94S246.14,258.45,246.14,258.45Z" transform="translate(2.12)"/><polygon class="cls-68" points="244.01 259.44 230.21 242.64 244.27 259.21 244.01 259.44 244.01 259.44"/><polygon class="cls-68" points="239.86 260.63 228.18 242.02 240.14 260.45 239.86 260.63 239.86 260.63"/><polygon class="cls-68" points="236.27 262.22 226.61 241.31 236.57 262.08 236.27 262.22 236.27 262.22"/><path class="cls-68" d="M207.08,231.87s-36.48,24.5-28.21,26.93S202.34,242,202.34,242s1-2.4,3.67-1-10.79,15.27-7.79,23.15,10-8.25,10-8.25,7-20.65,6.34-22.72S207.08,231.87,207.08,231.87Z" transform="translate(2.12)"/><path class="cls-86" d="M183.34,258.45s4.45-1,4.13.88c0,0,3.52-.86,4.13,1.21,0,0,3.36.1,3.59,1.61,0,0,1.48-.23,3,2s9.66-22.82,9.66-22.82-1.45-5.65-5.46-1.94S183.34,258.45,183.34,258.45Z" transform="translate(2.12)"/><polygon class="cls-68" points="189.46 259.21 203.51 242.64 189.72 259.44 189.46 259.21 189.46 259.21"/><polygon class="cls-68" points="193.58 260.45 205.55 242.02 193.87 260.63 193.58 260.45 193.58 260.45"/><polygon class="cls-68" points="197.16 262.08 207.12 241.31 197.46 262.22 197.16 262.08 197.16 262.08"/><path class="cls-81" d="M190.57,188.92a6.42,6.42,0,0,1-5-2.45l-3.4-4.27a6.65,6.65,0,0,1-1.41-4.85,6.58,6.58,0,0,1,2.37-4.44l10.52-8.65a6.42,6.42,0,0,1,9.13,1l3.4,4.27a6.67,6.67,0,0,1-1,9.28l-10.52,8.66a6.42,6.42,0,0,1-4.08,1.47Z" transform="translate(2.12)"/><path class="cls-87" d="M197.68,163.22a6,6,0,0,1,4.72,2.29l3.4,4.27a6.24,6.24,0,0,1-.9,8.68l-10.52,8.65a5.93,5.93,0,0,1-3.81,1.37,6,6,0,0,1-4.72-2.28l-3.4-4.28a6.24,6.24,0,0,1,.9-8.67l10.52-8.65a5.94,5.94,0,0,1,3.81-1.38m0-.87a6.87,6.87,0,0,0-4.35,1.57l-10.52,8.66a7.1,7.1,0,0,0-1,9.89l3.4,4.27a6.85,6.85,0,0,0,9.73,1l10.52-8.66A7,7,0,0,0,208,174.4a7.09,7.09,0,0,0-1.5-5.16l-3.4-4.28a6.91,6.91,0,0,0-5.39-2.61Z" transform="translate(2.12)"/><path d="M204.25,176.69a.21.21,0,0,1-.17-.08l-8.61-10.82a.22.22,0,0,1,.34-.27l8.61,10.82a.21.21,0,0,1,0,.3A.17.17,0,0,1,204.25,176.69Z" transform="translate(2.12)"/><path d="M201.92,178.61a.21.21,0,0,1-.16-.08l-8.61-10.82a.22.22,0,0,1,0-.31.21.21,0,0,1,.3,0l8.61,10.81a.23.23,0,0,1,0,.31A.24.24,0,0,1,201.92,178.61Z" transform="translate(2.12)"/><path d="M199.59,180.52a.18.18,0,0,1-.16-.08l-8.61-10.82a.21.21,0,1,1,.33-.27l8.61,10.82a.21.21,0,0,1,0,.3A.19.19,0,0,1,199.59,180.52Z" transform="translate(2.12)"/><path d="M197.27,182.44a.23.23,0,0,1-.17-.08l-8.61-10.82a.23.23,0,0,1,0-.31.21.21,0,0,1,.3,0l8.61,10.81a.22.22,0,0,1,0,.31A.24.24,0,0,1,197.27,182.44Z" transform="translate(2.12)"/><path d="M194.94,184.35a.21.21,0,0,1-.17-.08l-8.61-10.82a.22.22,0,0,1,.34-.27L195.11,184a.21.21,0,0,1,0,.3A.15.15,0,0,1,194.94,184.35Z" transform="translate(2.12)"/><path d="M192.61,186.27a.21.21,0,0,1-.16-.08l-8.61-10.82a.22.22,0,0,1,0-.31.21.21,0,0,1,.3,0l8.61,10.81a.23.23,0,0,1,0,.31A.24.24,0,0,1,192.61,186.27Z" transform="translate(2.12)"/><polyline class="cls-88" points="204.72 165.76 204.54 165.9 203.16 165.87 207.3 171.07 207.56 169.66 207.72 169.53"/><path class="cls-89" d="M247.74,152.31s3.1,32.63-9.12,36.77,0-33.26,0-33.26" transform="translate(2.12)"/><path class="cls-89" d="M240.64,188.05c-.19-.42,2.26-3.74,2.26-8.71" transform="translate(2.12)"/><path class="cls-89" d="M238.62,189.08s1.83-6.84,1.42-9.32" transform="translate(2.12)"/><path class="cls-89" d="M236,189.27s1.64-5.37,1.23-9.1" transform="translate(2.12)"/><path class="cls-89" d="M182,152.31s-3.1,32.63,9.13,36.77,0-33.26,0-33.26" transform="translate(2.12)"/><path class="cls-89" d="M189.09,188.05c.18-.42-2.26-3.74-2.26-8.71" transform="translate(2.12)"/><path class="cls-89" d="M191.11,189.08s-1.84-6.84-1.43-9.32" transform="translate(2.12)"/><path class="cls-89" d="M193.77,189.27s-1.65-5.37-1.24-9.1" transform="translate(2.12)"/><path class="cls-68" d="M193.73,127s-.81-36.86,19.82-37.14S235.75,127,235.75,127s-15.19,12.83-21,12.83S193.73,127,193.73,127Z" transform="translate(2.12)"/><g class="cls-74"><path class="cls-75" d="M201.56,119.09a7.58,7.58,0,0,0-2.38,8.51c2.44,8.44,14.9-4.22,14.9-4.22s9.6,9,16,4.73-4.32-10.69-4.32-10.69h0C220.92,113.94,208.7,112.94,201.56,119.09Z" transform="translate(2.12)"/></g><path class="cls-76" d="M202.24,118a7.14,7.14,0,0,0-2.24,8c2.3,7.94,14-4,14-4s9,8.42,15.07,4.44S225,116.46,225,116.46h0C220.44,113.2,209,112.26,202.24,118Z" transform="translate(2.12)"/><path class="cls-77" d="M203.13,117.39a6.63,6.63,0,0,0-2.09,7.45c2.14,7.4,13.06-3.7,13.06-3.7s8.41,7.86,14.05,4.15-3.78-9.37-3.78-9.37h0C220.09,112.87,209.39,112,203.13,117.39Z" transform="translate(2.12)"/><path class="cls-79" d="M224.43,120.06c2.59.62,6,1.26,8.09-.93-1.43,1.79-4,1.84-6.05,1.69a16.15,16.15,0,0,1-2.16-.34l.12-.42Z" transform="translate(2.12)"/><path class="cls-79" d="M224.43,121.1c2.17.82,8.61,2.91,8.93,5.42a1.78,1.78,0,0,0-.62-1.16c-2.38-2-5.52-2.89-8.43-3.85l.12-.41Z" transform="translate(2.12)"/><path class="cls-79" d="M223.86,121.61a62.1,62.1,0,0,1,5.85,6.49c.19.33.56.71.45,1.12.08-.2-.06-.4-.15-.58a49.21,49.21,0,0,0-6.44-6.71l.29-.32Z" transform="translate(2.12)"/><path class="cls-79" d="M223,122.18a47.2,47.2,0,0,1,5.07,6.85,4.67,4.67,0,0,1,.84,2.68,4.69,4.69,0,0,0-.93-2.62,47.55,47.55,0,0,0-5.29-6.62l.31-.29Z" transform="translate(2.12)"/><path class="cls-79" d="M205.26,120.66c-2.47,0-9.69.37-10.86-2.13a2,2,0,0,0,1,1c3.09,1.21,6.57.87,9.82.72l0,.44Z" transform="translate(2.12)"/><path class="cls-79" d="M205.26,121.4c-1.76.2-9.1.59-9.57,2.36a.73.73,0,0,1,.31-.55,11.43,11.43,0,0,1,4.19-1.45c1.67-.34,3.35-.59,5-.79l0,.43Z" transform="translate(2.12)"/><path class="cls-79" d="M205.42,122.42c-2.46.63-5.06,1.06-7.33,2.24-.13.1-.31.22-.26.4-.06-.18.12-.32.24-.42,2.23-1.31,4.8-1.88,7.24-2.65l.11.43Z" transform="translate(2.12)"/><path class="cls-79" d="M205.87,123.33c-2.11,1-8,3.25-8.47,5.65a2,2,0,0,1,.54-1.19c2.14-2.24,5-3.52,7.77-4.86l.16.4Z" transform="translate(2.12)"/><path class="cls-76" d="M207.25,113.31s6.65-5.07,13.12-.22a1.12,1.12,0,0,1,.31,1.45v0c-.58.93-8.29,3.1-13,.49C207.67,115.05,206.39,114.18,207.25,113.31Z" transform="translate(2.12)"/><path class="cls-80" d="M205.75,109A27.64,27.64,0,0,1,222,109S212.46,107.92,205.75,109Z" transform="translate(2.12)"/><ellipse class="cls-76" cx="209.76" cy="106.13" rx="1.71" ry="3.05"/><ellipse class="cls-81" cx="209.76" cy="105.12" rx="0.51" ry="0.87"/><ellipse class="cls-76" cx="222.12" cy="106.13" rx="1.71" ry="3.05"/><ellipse class="cls-81" cx="222.12" cy="105.12" rx="0.51" ry="0.87"/><g id="Glasses-3" data-name="Glasses"><ellipse class="cls-82" cx="209.18" cy="105.9" rx="4.26" ry="4.33"/><polygon class="cls-81" points="209.54 101.35 204.35 106.55 204.96 106.31 210.33 100.87 209.54 101.35"/><polygon class="cls-81" points="210.7 101.95 204.82 107.43 204.82 107.87 211.49 101.46 210.7 101.95"/></g><g id="Glasses-4" data-name="Glasses"><ellipse class="cls-82" cx="222.84" cy="105.9" rx="4.26" ry="4.33"/><polygon class="cls-81" points="223.24 101.38 218.05 106.58 218.66 106.33 224.03 100.9 223.24 101.38"/><polygon class="cls-81" points="224.4 101.97 218.52 107.46 218.52 107.89 225.19 101.49 224.4 101.97"/></g><g id="Frame-2" data-name="Frame"><path class="cls-83" d="M207.05,100.6a5.3,5.3,0,1,0,5.22,5.3A5.26,5.26,0,0,0,207.05,100.6Zm0,9.63a4.34,4.34,0,1,1,4.27-4.33A4.3,4.3,0,0,1,207.05,110.23Z" transform="translate(2.12)"/><path class="cls-83" d="M211.63,104.78v.83a22.11,22.11,0,0,1,4.43-.12v-.79A16.16,16.16,0,0,0,211.63,104.78Z" transform="translate(2.12)"/><path class="cls-83" d="M220.71,100.6a5.3,5.3,0,1,0,5.21,5.3A5.26,5.26,0,0,0,220.71,100.6Zm0,9.63A4.34,4.34,0,1,1,225,105.9,4.3,4.3,0,0,1,220.71,110.23Z" transform="translate(2.12)"/></g><rect class="cls-90" x="93.18" y="182.66" width="254.9" height="8.87"/><rect class="cls-91" x="102.84" y="191.52" width="117.17" height="78.39"/><rect class="cls-91" x="221.25" y="191.52" width="117.17" height="78.39"/><polygon class="cls-92" points="102.84 191.52 338.42 191.52 338.42 223.28 102.84 191.52"/><rect class="cls-93" x="100.97" y="191.52" width="1.87" height="83.99"/><rect class="cls-93" x="219.7" y="191.52" width="1.87" height="83.99"/><rect class="cls-93" x="338.42" y="191.52" width="1.87" height="83.99"/></g></g></g></svg>