<svg width="512" height="445" viewBox="0 0 512 445" fill="none" xmlns="http://www.w3.org/2000/svg">
<path fill-rule="evenodd" clip-rule="evenodd" d="M472.72 416.67L435.77 308.21C434.16 303.47 431.45 299.02 426.59 299.02H405.91L419.77 270.87H426.59C438.17 270.87 446.91 275.79 453.51 283.36C457.8 288.27 460.56 293.83 462.39 299.19L512 444.83H0L44.38 299.96C46.41 293.47 49.84 286.71 55.07 281.48H55.18C61.65 275.04 69.92 270.87 80.4 270.87H94.14L109.23 299.02H80.4C75.53 299.02 72.63 303.59 71.22 308.21L37.98 416.67H472.72ZM173.98 121.99L255.79 63.9603L338.03 121.99H173.98ZM178.96 216.85V197.82H184.59L189.96 193.61V143.07H178.99V130.96H332.6V143.07H321.64V193.61L327 197.82H332.74V216.85H178.96ZM215.54 197.82H221.74L227.11 193.61V143.07H210.18V193.61L215.54 197.82ZM252.7 197.82H258.9L264.26 193.61V143.07H247.33V193.61L252.7 197.82ZM289.84 197.82H296.05L301.42 193.61V143.07H284.48V193.61L289.84 197.82ZM277.69 383.16C272.479 386.852 266.257 388.85 259.87 388.88C254.11 388.89 248.33 387.33 243.24 384.1L243.16 384.01C227.27 373.9 212.6 362.76 199.3 350.9C185.53 338.7 173.13 325.55 162.23 311.83C147.48 293.34 135.4 273.76 126.16 253.84C116.73 233.45 110.24 212.51 106.92 191.81C103.45 170.3 103.39 149.21 106.91 129.32C110.45 109.37 117.53 90.5303 128.32 73.5603C132.66 66.8203 137.67 60.2203 143.35 53.9303C148.74 47.8403 154.83 42.1003 161.5 36.8003C176.52 24.8403 192.72 15.6403 209.46 9.47029C226.42 3.21029 244.08 0.050286 261.78 0.170286C279.41 0.300286 296.82 3.67029 313.4 10.4203C329.44 17.0703 344.73 26.6503 358.67 39.3703C363.58 43.8203 368.27 48.8003 372.66 54.1603C377.13 59.5903 381.09 65.2003 384.57 70.9103C396.05 89.9003 403.12 111.21 406.07 133.69C409.08 156.47 407.9 180.57 402.92 204.68C395.41 241.16 379.71 276.38 357.97 307.17C336.57 337.48 309.11 363.81 277.69 383.16ZM264.15 361.02C261.69 362.82 258.35 363.06 255.62 361.31C226.1 342.52 201.27 319.95 181.8 295.46C154.91 261.72 137.96 224.31 132.17 188.28C126.27 151.75 131.78 116.62 149.96 88.0403C157.13 76.7403 166.28 66.4503 177.44 57.5803C203.1 37.1203 232.41 26.3403 261.57 26.5503C289.69 26.7503 317.43 37.2503 341.4 59.1203C349.83 66.7703 356.92 75.5503 362.71 85.0703C382.26 117.26 386.47 158.32 377.86 199.94C364.46 265.14 321.4 326.27 264.15 361.02Z" fill="#6C727F"/>
</svg>
