<svg id="Layer_7" data-name="Layer 7" xmlns="http://www.w3.org/2000/svg" viewBox="0 0 150 391.71"><defs><style>.cls-1{fill:#ffce00;}.cls-2{fill:#ffeb90;}.cls-3{fill:#e5b900;}</style></defs><polygon class="cls-1" points="91.36 0 108.57 12.81 106.12 30.08 94.43 45.79 63.83 23.02 75.53 7.3 91.36 0"/><polygon class="cls-2" points="91.36 0 108.57 12.81 106.09 29.3 76.28 7.12 91.36 0"/><path class="cls-3" d="M345,77.28a8.05,8.05,0,0,0,.07,3.77,8.29,8.29,0,0,0,1.63,3.16A8.63,8.63,0,0,0,349,86.13c3.7,2.28,6.83,5.39,10.45,7.78l15.3,11.39,8.12,6c2.86,2.23,6,4.16,8.74,6.5a8.28,8.28,0,0,0,1.6,1.09,8.89,8.89,0,0,0,3.12.95,8,8,0,0,0,7.39-3.53,8,8,0,0,0,1.37-4.17,8.29,8.29,0,0,0-1.05-4.29,8.73,8.73,0,0,0-2.94-3c-4.3-2.81-8-6.46-12.38-9.21t-13.1-9.76l-5.1-3.79-6.18-4.6c-1.17-.87-2.38-1.7-3.51-2.61a21,21,0,0,0-3.71-2.72,9,9,0,0,0-2.43-1,8.11,8.11,0,0,0-4.12.17,7.79,7.79,0,0,0-2.69,1.43,8.18,8.18,0,0,0-2.17,2.72A8,8,0,0,0,345,77.28Z" transform="translate(-300 -54.15)"/><path class="cls-3" d="M382.82,111.34l7.37,5.48,1,.72c.69.53,1,.79,1.5,1.1s.73.4.82.44a2.23,2.23,0,0,0,.34.15l-.74,1.82c-4.95,12.27-3.56,9.74-4.43,11.55a17.18,17.18,0,0,0-1.32,4.28,5.14,5.14,0,0,0,1.37,4.62,8.55,8.55,0,0,0,3,2.07,21.85,21.85,0,0,0,5.07,1.65c.49.1,2.48.53,5.58.87a68.43,68.43,0,0,0,7.75.41c2.18,0,2.45-.11,4.46-.06a39,39,0,0,1,5.11.39,35.69,35.69,0,0,1,27.35,21,36.26,36.26,0,0,1,2.63,9.47,43,43,0,0,1,.31,6.24c0,8.1,0,12.15,0,16V434.85a8.37,8.37,0,0,1-.06,1,11.21,11.21,0,0,1-.62,2.68,11.74,11.74,0,0,1-1.09,2.19,11.38,11.38,0,0,1-3.93,3.68,10.63,10.63,0,0,1-2.35,1,11.69,11.69,0,0,1-1.94.38,14.65,14.65,0,0,1-2.34.05c-2.3-.07-4.62,0-6.92,0h-1l.13-.77c0-.31.07-.82.1-1.45.09-2,0-3.48,0-3.77V232.49c.2-13.14-.53-26.28,0-39.41a40.38,40.38,0,0,0-.11-5,37.33,37.33,0,0,0-1.26-7.2,32.81,32.81,0,0,0-10.68-16.41,37.53,37.53,0,0,0-6.82-4.5,40.35,40.35,0,0,0-9.93-3.59c-1.35-.3-3.51-.57-7.83-1.12-5.16-.65-5.1-.52-7.06-.89a34.27,34.27,0,0,1-8.7-2.68,14.93,14.93,0,0,1-4.49-3,9.49,9.49,0,0,1-2.49-10.19c1.14-4.3,4.46-12.36,9.57-22.37Z" transform="translate(-300 -54.15)"/><path class="cls-2" d="M342.59,91.44l1.16.86,2.46,1.84,23.16,17.2c-.55.94-1.09,1.91-1.63,2.89-3.08,5.62-3.27,6.88-7.51,16a65,65,0,0,0-3,8,11.16,11.16,0,0,0-.61,3.59,10.53,10.53,0,0,0,1.71,5.39c1.76,2.74,4.31,3.89,7,5.08,3.34,1.45,6.07,1.88,10.64,2.56,4.81.72,5.43.44,8.78,1A45.06,45.06,0,0,1,396,159.19a35.42,35.42,0,0,1,16.14,14.48,35,35,0,0,1,3.81,10.7c.48,2.39.47,4.17.44,12.92,0,5.86,0,8.78-.06,10-.24,10.83.06,27.78.19,38.35.13,10.95,0,10.5,0,66.37,0,33,0,49.51,0,52.36.23,23.46.73,43,0,73.21-.08,3.5-.17,6.38-.22,8.27H316.32a11.26,11.26,0,0,1-1.18-.06,11.13,11.13,0,0,1-9.56-8.13,11.63,11.63,0,0,1-.39-3.48c.08-3.64,0-7.29,0-10.93v-9.16c0-3.19,0-4.72,0-9.05V241.71c0-3.21,0-7.73,0-10.78,0-.28,0-.64.06-1.06a11,11,0,0,1,2.21-5.58,10.88,10.88,0,0,1,4.2-3.37,9.83,9.83,0,0,1,1.83-.66l.21-.06h72.87a5.18,5.18,0,0,0,.71,0,5.31,5.31,0,0,0,2.22-.94,8.69,8.69,0,0,0,2.76-3.44,7.56,7.56,0,0,0,.82-4.27,6.85,6.85,0,0,0-2.09-4.17,6.78,6.78,0,0,0-2.41-1.41,6.28,6.28,0,0,0-1.3-.27l-.41,0a18,18,0,0,0-2.32,0H344.34c-1,.08-20.23-.18-20.23-.18-.89-.59-2.11-1.42-3.51-2.46a65.85,65.85,0,0,1-9.82-8.86c-3.59-4-7.55-8.48-9.55-15.54a28.15,28.15,0,0,1-.83-12.84,27.57,27.57,0,0,1,3.15-8.72c2.22-4.1,9.46-18.65,12.79-23.76,5.63-8.64,12.47-19.54,21.52-34.58" transform="translate(-300 -54.15)"/><path class="cls-1" d="M356.36,91.44l27,19.9c-.55.94-1.09,1.91-1.64,2.89-3.1,5.62-3.29,6.88-7.56,16a63.23,63.23,0,0,0-3,8,10.9,10.9,0,0,0-.62,3.59,10.51,10.51,0,0,0,1.72,5.39c1.78,2.74,4.35,3.89,7.09,5.08,3.37,1.45,6.11,1.88,10.72,2.56,4.85.72,5.47.44,8.84,1a45.34,45.34,0,0,1,11.29,3.36,35.68,35.68,0,0,1,16.28,14.48,35,35,0,0,1,3.83,10.7c.48,2.39.47,4.17.44,12.92,0,5.86,0,8.78-.05,10-.25,10.83.05,27.78.18,38.35.14,10.95,0,10.5,0,66.37,0,33,0,49.51,0,52.36.23,23.46.74,43,0,73.21-.08,3.5-.16,6.38-.22,8.27H329.89a11.26,11.26,0,0,1-1.18-.06,11.59,11.59,0,0,1-3-.72,11.16,11.16,0,0,1-6.67-7.41,11.63,11.63,0,0,1-.39-3.48c.08-3.64,0-7.29,0-10.93v-9.16c0-3.19,0-4.72,0-9.05V241.71c0-3.21,0-7.73,0-10.78a8.86,8.86,0,0,1,.06-1.06,10.65,10.65,0,0,1,.6-2.61,10.79,10.79,0,0,1,1.63-3,11,11,0,0,1,2.18-2.16,10.74,10.74,0,0,1,2-1.21,10.42,10.42,0,0,1,1.85-.66l.21-.06h73.43a5.52,5.52,0,0,0,.72,0,5.43,5.43,0,0,0,2.23-.94,8.71,8.71,0,0,0,2.78-3.44,7.55,7.55,0,0,0,.83-4.27,6.6,6.6,0,0,0-4.54-5.58,6.35,6.35,0,0,0-1.31-.27l-.41,0a18.32,18.32,0,0,0-2.34,0H358.12c-1,.08-20.38-.18-20.38-.18-.9-.59-2.12-1.42-3.54-2.46a66.31,66.31,0,0,1-9.89-8.86c-3.62-4-7.61-8.48-9.63-15.54a28.3,28.3,0,0,1-.83-12.84A27.42,27.42,0,0,1,317,157c2.23-4.1,9.53-18.65,12.88-23.76,5.68-8.64,12.56-19.54,21.69-34.58" transform="translate(-300 -54.15)"/><polygon class="cls-2" points="42.59 37.3 51.63 44.02 56.04 37.3 47.16 30.54 42.59 37.3"/><path class="cls-3" d="M324.11,205.43l.63,14.83q31.15.28,62.57.32h13.61a6.29,6.29,0,0,0,2-.44,7.43,7.43,0,0,0,3.79-4.11,7.72,7.72,0,0,0,.47-6,7.34,7.34,0,0,0-4.19-4.1l-1.31-.29-21.08,0-54.67-.16Z" transform="translate(-300 -54.15)"/></svg>