<svg id="Layer_9" data-name="Layer 9" xmlns="http://www.w3.org/2000/svg" viewBox="0 0 500 716.52"><defs><style>.cls-1{fill:#e5b900;}.cls-2{fill:#ffce00;}.cls-3{fill:#ffeb90;}</style></defs><path class="cls-1" d="M1000,1309.11a96.85,96.85,0,0,1,15.74-2,100,100,0,0,1,23.79,1.89c15,2.88,25.86,7.61,36.11,11.94,37.14,15.68,38,15.82,47.72,19.14A318.45,318.45,0,0,0,1194,1356a372.31,372.31,0,0,0,40.29,2.27c17.39.16,30.27-.73,42.22-1.58,27.51-2,49.67-5.26,63.75-7.65,11.87-2,25-4.27,42.27-8.79a283,283,0,0,0,35.09-11.12,202.8,202.8,0,0,0,28.31-13.29c13.25-7.63,22.28-15,31-22.23A296.72,296.72,0,0,0,1500,1272.3c-.38-.4-.93-1-1.56-1.75a35.12,35.12,0,0,1-5.33-8.92,107.49,107.49,0,0,1-5.22-15.71c-3-12.69-3.94-20.49-3.94-20.49-4-32.71-6.82-72.21-6.82-72.21-2.23-31.21-3.49-45.78-5.21-61.87-1.31-12.24-2.21-19.08-3.06-24.84-2.21-15.16-4.3-29.44-9-46.87a249.07,249.07,0,0,0-10.08-30.23,239.42,239.42,0,0,0-23.61-43.58c-16.93-25.37-33.11-43.64-51.66-64.24-23-25.6-44.49-49-64-69.91a10.27,10.27,0,0,1-.85,1,11.4,11.4,0,0,1-5,2.92c-2.55.85-5,2.09-7.56,2.84-9.45,2.72-7.25,2.38-14.22,4.27-2.4.65-8.4,2.24-16.33,3.95-4.58,1-6.87,1.48-9.52,1.86a96.73,96.73,0,0,1-14.94.91,116.75,116.75,0,0,1-25.58-3.43,126,126,0,0,1-16.58-5.27l-.63-.32a12.88,12.88,0,0,1-3.82-3.15,13.52,13.52,0,0,1-1.37-2.08,12.89,12.89,0,0,1-1-2.52l-.48.29c-1.47.89-2.64,1.62-3.31,2-2.17,1.35-3.89,2.46-4.65,3-.35.23-1.68,1.09-3.19,2.09-4.51,3-8.24,5.65-8.91,6.14-4.11,2.93-7.21,5.3-8.57,6.34-3.37,2.6-6,4.71-7.24,5.77,0,0-1.51,1.25-3,2.5-7,6-13.35,12.13-13.35,12.13-6.23,6.09-10.76,11.15-12.76,13.43-.4.45-4.09,4.66-7.73,9.25a255.42,255.42,0,0,0-20.47,30.49,258.25,258.25,0,0,0-20.92,48.47,283.07,283.07,0,0,0-12.87,56c-1.25,10.52-2.88,21-4,31.52-.88,7.89-1.64,15.63-5.06,25.58a112.37,112.37,0,0,1-5.38,12.59c-6.53,13.63-12.1,23-15.44,28.81a313.55,313.55,0,0,0-18,36.41,225.32,225.32,0,0,0-11.65,38.91c-5.38,24.86-5.77,45-6,57.15-.11,6.85.11,6.38.16,26.07,0,15.3-.06,27.79-.15,36Z" transform="translate(-1000 -641.74)"/><path class="cls-1" d="M1013.89,1162.12c1.89,7.34,4.6,16.92,8.4,28a352,352,0,0,0,19.22,45.53,300,300,0,0,0,33.82,52,267.38,267.38,0,0,0,67.62,58.15c.92.27,2.22.63,3.77,1,2.44.67,9.86,2.65,19.51,4.61,1.78.36,12.61,2.53,25.44,4.11a423.42,423.42,0,0,0,55.91,2.71,554.06,554.06,0,0,0,70.49-5.57c17.25-2.29,31.72-4.87,42.38-7,.28-.28.69-.69,1.18-1.2,1.69-1.78,2.86-3.18,3.82-4.34,3.84-4.64,3.87-4.76,5.35-6.46s2.17-2.5,3.23-3.56c1.66-1.65,3.1-2.86,5.65-5,1.37-1.14,1.1-.88,3.25-2.65,2.73-2.25,4.7-3.93,5.3-4.45.88-.75,2.15-1.83,3.8-3.3.91-.8,2.36-2.08,4.18-3.77.88-.81,2.39-2.21,4.22-4,1.52-1.49,3.87-3.81,6.73-7,2.64-3,4.48-5.29,4.95-5.89,1.64-2.08,3-3.92,4-5.34.4-.59,2-2.92,4-6.17s3.35-5.82,4.38-7.74c1.11-2.09,1.91-3.69,2.69-5.26,1.48-3,2.58-5.32,3.43-7.15,2.06-4.42,3.48-7.55,5.63-12.3,4.75-10.49,4.75-10.46,5.65-12.51.5-1.15,3-6.81,4.79-11.5a211.7,211.7,0,0,0,8.27-26.84c1-4,2.86-11.6,5-23.28,3.89-21.1,5.53-37.72,6.67-49.45,1.22-12.68,1.91-23.51,2.69-35.79.5-7.82.82-14.45.86-15.35.19-3.85.32-7.1.41-9.49-.26-1.8-.63-4.37-1.1-7.44-.73-4.67-2.46-15.82-4.88-26.81a244.65,244.65,0,0,0-9.28-32.55,247.6,247.6,0,0,0-11.65-26.52,287.71,287.71,0,0,0-25.72-41c-7.25-10-13.8-17.89-17.21-22-9.91-11.95-9.08-9.76-15.75-18.23a83.53,83.53,0,0,0-11.35-12.63c-2.13-1.87-3.54-2.88-8.29-6.37-14.07-10.33-12.38-9.27-15.51-11.46-8.58-6-15.33-9.8-26.48-16.09-4-2.24-9.17-5.16-16.24-8.78-9.66-4.94-18.09-8.75-24.48-11.49l-1.69-.72,1.36,2.16c.65,1,1.58,2.52,2.71,4.35.86,1.38,2.11,3.39,3.71,6,0,0,1,1.55,1.79,3,2.87,4.78,6.31,10.8,7.51,12.91l1.59,1.79c.62.7,4.42,5,7.88,9.21,2.23,2.7,6.27,7.58,11.09,14.35,4.49,6.3,7.54,11.25,8.33,12.54,3.62,5.92,6.26,10.92,7.92,14.2.46.9,2.82,5.58,5.32,11.38a244,244,0,0,1,10.66,30.62c3.57,13,8.73,31.74,9.35,56.8a181.23,181.23,0,0,1-6.75,57.19c-3.28,11.35-10.25,34.57-29.62,58.21a151.7,151.7,0,0,1-37.8,33l8.84-2.36,47.42-12.66,33-8.82c.2.43.48,1.05.79,1.8a56.08,56.08,0,0,1,3.67,14.27,57.63,57.63,0,0,1-1.39,19.43c-2.48,10.56-7.8,21.56-17.32,33.33-2.9,3.58-16.38,19.85-43.55,35.11-28.59,16-54.18,20.77-69.07,23.4a245.89,245.89,0,0,1-52.6,3.56,234,234,0,0,1-137.91-51.16,244.38,244.38,0,0,1-35.52-34.55l-3.94-4.81Z" transform="translate(-1000 -641.74)"/><path class="cls-2" d="M1191.22,815a260.17,260.17,0,0,0-40.13,29.73,238.93,238.93,0,0,0-68.25,102.45,294.72,294.72,0,0,0-10.21,34.43,373.66,373.66,0,0,0-6.68,39.64c-1.46,12.49-1.52,18.19-4,30.31a136.16,136.16,0,0,1-5.24,20.35c-2.9,8.2-5.58,12.78-14.23,28.26s-12.91,23.11-14.45,26.17a219,219,0,0,0-14.19,35.81c1.09,1.45,2.64,3.48,4.53,5.86a255,255,0,0,0,22.68,24.76,251.81,251.81,0,0,0,46.14,34.59,234.64,234.64,0,0,0,37.19,17.3,238.1,238.1,0,0,0,39.59,10.43,244.25,244.25,0,0,0,128.37-12.24c19.87-7.63,32.35-15.55,35.88-17.85a133.69,133.69,0,0,0,27.9-23c5.44-6,12.46-13.82,17.82-26.17,2.24-5.14,5.62-13.13,6-23.87a56.34,56.34,0,0,0-2.8-19.6,49.81,49.81,0,0,0-1.9-4.72l-89.3,23.84a127.38,127.38,0,0,0,11.61-7.53,138.54,138.54,0,0,0,23.18-21.81,162.28,162.28,0,0,0,24.52-38.87A176.41,176.41,0,0,0,1358,1039.6a199.59,199.59,0,0,0,2.25-31,223.5,223.5,0,0,0-3.13-35.47,248.47,248.47,0,0,0-30.24-83.09c-8.24-13.87-14.26-24-25.88-34.47a107.79,107.79,0,0,0-31.66-19.72l-70.22-8.48Z" transform="translate(-1000 -641.74)"/><path class="cls-3" d="M1153.86,886.91a52.91,52.91,0,0,1,8.34-8.51c3.24-2.56,5.67-4.44,9.46-5.31a15.72,15.72,0,0,1,9.76.49c5.4,2.26,7.64,7.46,8.91,10.4,2.26,5.26,2.33,9.94,2.25,14.17-.33,16.78-2.44,25.8-2.44,25.8-8,34-16.2,56.24-16.2,56.24-4.85,13.09-10.8,28.95-21.41,48.82a350.52,350.52,0,0,1-19.37,32,63.21,63.21,0,0,1-6.52,7.52c-3.34,3.39-4.9,4.34-6.69,4.83a11,11,0,0,1-6.48-.25c-3.71-1.33-5.57-4.38-6.94-6.72a28.66,28.66,0,0,1-3.54-11.72,108.48,108.48,0,0,1-.7-19.2,223.06,223.06,0,0,1,2.66-23.51,359.67,359.67,0,0,1,8.82-38.22,375.78,375.78,0,0,1,14.9-42.14A294.39,294.39,0,0,1,1145.25,899,106.19,106.19,0,0,1,1153.86,886.91Z" transform="translate(-1000 -641.74)"/><path class="cls-3" d="M1107.1,1107.38a26.2,26.2,0,0,1,3.93.91,18.59,18.59,0,0,1,7.42,5,17.87,17.87,0,0,1,3.74,8.93c.88,4.66.26,8.31-.42,12.08a58,58,0,0,1-4,12.53,58.93,58.93,0,0,1-9.1,14.72c-4.37,5.11-7.2,6.51-8.86,7.15a12,12,0,0,1-7.12.94c-4.14-.92-6.45-4.4-8-6.76-2.83-4.28-3.52-8.27-4.27-12.85a53.61,53.61,0,0,1-.26-15.39c.52-4,1.12-8.63,3.88-14,1.75-3.4,3.93-7.63,8.84-10.55a23.59,23.59,0,0,1,11-3A27.08,27.08,0,0,1,1107.1,1107.38Z" transform="translate(-1000 -641.74)"/><path class="cls-3" d="M1280.91,823.77c3.86,5.9,9,14,14.58,24,6.24,11.08,10.89,19.32,15.65,31a169.08,169.08,0,0,1,10.25,34.61,96.06,96.06,0,0,1,.73,27.77,36.62,36.62,0,0,1-3.69,12.06c-1.41,2.75-3.34,6.39-7.45,9-1.56,1-4.6,2.89-8.35,2.23a9.71,9.71,0,0,1-3.66-1.47c.22-2.41.48-5.58.65-9.31a204.73,204.73,0,0,0-.14-21.75,209.05,209.05,0,0,0-3.57-27.85,213.44,213.44,0,0,0-12.4-40.58c-3.91-9.26-7.85-16.56-9.11-18.85-1.93-3.52-6.45-10.93-5.06-8.71,1.67,2.67,2.5,6.59,3.21,9.35.59,2.31.5,1.53,1.41,4.85.44,1.62,1.78,6.63,2.91,12.78a157.6,157.6,0,0,1,1.81,44.65c-.77,7.7-1.35,13.1-3.74,20-1.72,5-3.19,9.1-6.92,13.36-2,2.33-6.36,7.25-13.72,8.69a22.58,22.58,0,0,1-12.64-1.3c.69-1.46,1.67-3.59,2.77-6.18a151.67,151.67,0,0,0,7.81-23.57,136.9,136.9,0,0,0,2.84-17.08,147.42,147.42,0,0,0,.57-20.94,222.24,222.24,0,0,0-2.17-23.64c-.94-7.19-2-13.2-2.75-17.59a21.8,21.8,0,0,1-2.28,5.74,23.26,23.26,0,0,1-7.1,7.49,26,26,0,0,1-11.88,4.06,35.54,35.54,0,0,1-17.26-2.38c-3.59-1.3-7-2.58-10-5.9a21.77,21.77,0,0,1-3.59-5.85c-1.4-3-2-5.92-3.26-11.64-1.13-5.36-1.25-7-2.43-10.89-.64-2.1-1.27-3.79-1.71-4.93,1-.67,2.12-1.34,3.21-2l.48-.29c.07.23.16.55.3.92a13.42,13.42,0,0,0,1.13,2.33,13.79,13.79,0,0,0,3.48,3.7,11.41,11.41,0,0,0,2.42,1.43,10.63,10.63,0,0,0,2,.64c.75.3,1.78.69,3,1.12,1.91.67,3.38,1.1,4.24,1.35,6.41,1.88,11.86,3,11.86,3a110,110,0,0,0,15.84,2.13A111.27,111.27,0,0,0,1261,828.2a119.13,119.13,0,0,0,16.72-3.66Z" transform="translate(-1000 -641.74)"/><path class="cls-3" d="M1303.74,788.32a13.39,13.39,0,0,1,5.66,2.22,14,14,0,0,1,2.78,2.52,14.74,14.74,0,0,1,2.54,4.41,14.53,14.53,0,0,1,.86,3.88,14.37,14.37,0,0,1-.64,5.56,14.56,14.56,0,0,1-2.65,4.77,11.59,11.59,0,0,1-2,2.09,11.17,11.17,0,0,1-3.76,1.85c-6.16,1.79,5.92-.46-19.09,6.37-6.54,1.79-9.81,2.68-11.83,3.15-9.25,2.17-20.47,4.81-34.85,4.21,0,0-11.58-.48-29.52-5.29-2.39-.64-4.58-1.44-5.58-1.81-2.95-1.07-4.45-1.63-5.82-2.65a13.69,13.69,0,0,1-4.14-5,12.79,12.79,0,0,1,3.62-15.46,12.89,12.89,0,0,1,9.92-2.6,23,23,0,0,1,3.71,1.14c1.74.59,2.6.89,4.16,1.44a71,71,0,0,0,7.7,2.14c4.67,1.11,8.28,1.63,9,1.74a80.16,80.16,0,0,0,12.43.91,75.29,75.29,0,0,0,18-2.66,131.26,131.26,0,0,0,16.28-5.22c6.52-2.43,12-4.86,16.39-6.91a7.89,7.89,0,0,1,.71-.35,8.9,8.9,0,0,1,1.47-.44,11.28,11.28,0,0,1,2.57-.2A14.27,14.27,0,0,1,1303.74,788.32Z" transform="translate(-1000 -641.74)"/><path class="cls-1" d="M1297.64,788.82c.64-.64,1.52-1.52,2.61-2.53a68.44,68.44,0,0,1,9-7,56.52,56.52,0,0,1,16-6.77,74.77,74.77,0,0,1,16.12-2.33c2.56-.13,11.71-.47,25.84,2a174.33,174.33,0,0,1,33.9,9.73,217.83,217.83,0,0,1,22.7,10.2l-16.77-50-39.57,6.33-4.23-33.33c.23-.52.55-1.26.87-2.17a27.06,27.06,0,0,0,1.57-8.67,22.34,22.34,0,0,0-1.65-9,23.76,23.76,0,0,0-8.54-10.21,34.62,34.62,0,0,0-6.21-3.47,49.12,49.12,0,0,0-7.61-2.73,126.13,126.13,0,0,0-16.28-3.4,133.39,133.39,0,0,0-19.42-1.12,161,161,0,0,0-16.35.94,195.05,195.05,0,0,0-21.27,3.41c-8.37,1.81-12.56,2.72-15.7,4.08a25.11,25.11,0,0,1-5,1.59,23.51,23.51,0,0,1-5.07.49c-1.77,0-5.7-.57-12.2-6.15-3.41-2.93-5.32-5.34-9.82-11.15-2.55-3.28-6.63-8.85-10.24-13.25-.36-.44-1.41-1.71-2.9-3.29a42.93,42.93,0,0,0-4.11-4,25.23,25.23,0,0,0-4.24-3,16.86,16.86,0,0,0-5.68-2.12,14.27,14.27,0,0,0-5.41.09,9.11,9.11,0,0,0-4,1.7,9.59,9.59,0,0,0-2.62,3.61,19.66,19.66,0,0,0-1.5,4.56,43.4,43.4,0,0,0-1,6.84,102.69,102.69,0,0,0-.17,10.27c.17,5,.52,9.45,1,14.09.77,7.54,1.66,13.24,2.4,18,.23,1.44,1,6.52,2.47,14.26.71,3.85,2.13,11.28,4.55,22.38.67,3.11,3.54,16.19,8.07,34.16,1.68,6.7,3.88,15.19,6.58,25a12.49,12.49,0,0,1,2.1-.4,13,13,0,0,1,4.48.36,59.33,59.33,0,0,1,7.14,2.43,63.14,63.14,0,0,0,6.29,1.77,100.69,100.69,0,0,0,11.41,2.17,83.07,83.07,0,0,0,11.06.72c7.1-.07,12.35-1.3,18-2.66a147.31,147.31,0,0,0,23.53-8.08c2.82-1.17,5.15-2.21,6.8-3Z" transform="translate(-1000 -641.74)"/><path class="cls-2" d="M1288.48,792.94c.8-3,1.93-6.93,3.42-11.53a242.56,242.56,0,0,1,10.68-27.17c3.26-7,6.34-12.74,8.71-16.92,4.84-8.55,9.33-15.25,12.41-19.63,3.28-4.66,7.29-10,12.11-15.76-1.11.34-2.69.81-4.6,1.34-6,1.7-10.94,2.85-13.1,3.32a111,111,0,0,1-24.46,3.18c-5.72,0-12.07,0-19.87-2.36a44.83,44.83,0,0,1-12.4-5.8,41,41,0,0,1-7.22-6.35c-.12,1.08-.29,2.62-.48,4.46-.79,7.69-1.83,19-2.59,32.65-1.15,20.67-1.18,37.81-1,48.82.12,9.13.41,16.84.67,22.55,1-.07,2.52-.2,4.29-.44a76.43,76.43,0,0,0,13.46-3.18c4.49-1.4,10.33-3.36,17.2-6Z" transform="translate(-1000 -641.74)"/><path class="cls-2" d="M1227,708.24l12.3-7.3c-1.5,5.93-2.9,12.24-4.11,18.92a293.94,293.94,0,0,0-3.84,30c-.38,5.1-.55,9.28-.61,11-.11,3-.23,7.5-.18,12.88,0,.92.07,3.22.18,7.83a67.54,67.54,0,0,0,.46,8.48,38.27,38.27,0,0,0,1.26,5.94,34.29,34.29,0,0,0,2.17,5.4c.39.76.74,1.39,1,1.85-1-.13-2.38-.32-4-.59a88.25,88.25,0,0,1-10.1-2.23,87,87,0,0,1-8.6-2.75,14.83,14.83,0,0,0-5.07-1.28,13.06,13.06,0,0,0-4.08.46c-4-14.16-7-26.34-9.32-35.83-4.93-20.41-7.85-35.2-8.6-39-3-15.21-4.47-23-5.6-34a264,264,0,0,1-1.38-29.3c.54,2.08,1.32,4.85,2.43,8.07a86.35,86.35,0,0,0,5.28,12.63,57.08,57.08,0,0,0,9.84,14.26,46.73,46.73,0,0,0,12.93,9.73,45.22,45.22,0,0,0,14.56,4.45Z" transform="translate(-1000 -641.74)"/></svg>