<svg id="Camada_1" data-name="Camada 1" xmlns="http://www.w3.org/2000/svg" viewBox="0 0 456.01 427.4"><defs><style>.cls-1{fill:#ffce00;}.cls-2{fill:#e5b900;}.cls-3{fill:#ffeb90;}</style></defs><path class="cls-1" d="M71.7,135.58l15.64-5.35L354.65,476.87,358,476,92.06,129.13,107.25,124l269,346.71,4-1.77L110.7,122.74,127,118.53,398.19,462.45l2.17-1.28L130.74,117.38l16-4.47,272.17,342,3.06-1.66L151.29,111.64l15.83-4.6L440.7,447.77l3.06-1.66L170.06,105.89,185.89,101,462.14,440.87l3.07-1-275.49-340,15.73-4.46L482.83,434.49l3.82-1.28L209.55,94.45l15-4.22L503.25,425.81l2.81-1.28L229.8,89l15.83-5.1,280,336L337.22,483.8,71.51,136.21A.41.41,0,0,1,71.7,135.58Z" transform="translate(-69.63 -83.94)"/><polygon class="cls-2" points="17.89 46.21 285.48 393.8 288.89 392.64 22.28 45.19 17.89 46.21"/><polygon class="cls-2" points="37.62 40.09 306.59 386.79 310.55 385.02 41.06 38.81 37.62 40.09"/><polygon class="cls-2" points="57.4 34.6 328.48 379.23 332.71 377.8 61.11 33.45 57.4 34.6"/><polygon class="cls-2" points="96.98 23.11 371.45 364.64 375.2 363.4 100.68 21.96 96.98 23.11"/><polygon class="cls-2" points="116.38 17.11 392.68 357.49 395.9 356.39 120.08 15.96 116.38 17.11"/><polygon class="cls-2" points="135.87 11.53 413.19 350.55 417.02 349.28 139.91 10.51 135.87 11.53"/><polygon class="cls-2" points="154.94 6.3 434.47 343.4 438.3 342.13 160.17 5.11 154.94 6.3"/><polygon class="cls-2" points="77.06 28.98 349.84 372 353.51 370.75 81.66 27.7 77.06 28.98"/><polygon class="cls-1" points="266.89 410.3 267.58 399.86 1.53 51.83 0 58.64 266.89 410.3"/><polygon class="cls-2" points="267.92 411.25 278.3 407.81 279.42 412.44 264.51 419.06 1.53 76.25 1.53 68.43 5.59 66.01 267.92 411.25"/><path class="cls-1" d="M334.14,503l6.81,8.34L525,448.5l.23-9.77c-11.41,3.07-11.84,3.48-11.84,3.48l-.45-6.57,12.75-3.77V420L337.22,483.8l-.67,10.08,1,1.31,10.38-3.45,1.12,4.57Z" transform="translate(-69.63 -83.94)"/><polygon class="cls-3" points="288.25 399.32 321.79 387.75 321.79 403.66 289.24 415.23 288.25 399.32"/><polygon class="cls-2" points="288.25 399.32 321.79 387.75 321.79 403.66 288.25 399.32 288.25 399.32"/><polygon class="cls-3" points="327.92 385.53 358.89 375.22 358.98 391.57 328.43 401.11 327.92 385.53"/><polygon class="cls-2" points="327.92 385.53 358.89 375.22 358.98 391.57 327.92 385.53 327.92 385.53"/><polygon class="cls-3" points="365.84 372 395.9 362.91 396.34 378.55 366.38 388.51 365.84 372"/><polygon class="cls-2" points="365.84 372 395.9 362.91 396.34 378.55 365.84 372 365.84 372"/><polygon class="cls-3" points="403.37 359.2 435.95 349.36 435.95 362.71 402.99 376.06 403.37 359.2"/><polygon class="cls-2" points="403.37 359.2 435.95 349.36 435.95 362.71 403.37 359.2 403.37 359.2"/><polygon class="cls-2" points="443.25 351.7 456.01 347.94 455.54 354.8 443.7 358.28 443.25 351.7"/></svg>