<svg id="Layer_6" data-name="Layer 6" xmlns="http://www.w3.org/2000/svg" viewBox="0 0 500 665.21"><defs><style>.cls-1{fill:#ffce00;}.cls-2{fill:#e5b900;}.cls-3{fill:#ffeb90;}</style></defs><path class="cls-1" d="M1128.88,856.8l32,16.53,2.41-18.09c1.6-13,2.93-24.47,4.15-34.77a153.72,153.72,0,0,0,.8-19,49.29,49.29,0,0,0-1.22-11,29.83,29.83,0,0,0-9.75-17.07,67.67,67.67,0,0,0-13.42-9.76c-5.87-3.36-13.64-7.59-23.16-12.19l-32.27-17.81-28.36-17-5.3-3.2c-.74-.37-1.52-.74-2.35-1.09a34.62,34.62,0,0,0-26.83.12,35,35,0,0,0-4.88,2.44,32.68,32.68,0,0,0-4.88,3.66c-16.5,14.88-34.34,28.21-51.21,42.68l-8.53,7.31,32.33,16.93,50-41.8,97.09,56.14Z" transform="translate(-750 -667.4)"/><rect class="cls-2" x="10.97" y="643.78" width="485.29" height="21.43"/><path class="cls-1" d="M761,1312.42v-567c3.71-.07,10.95-.22,20-.33,36.64-.44,56,.22,104.33.33,5.26,0,14.26,0,25.6,0,2,1,5.13,2.43,8.93,4.29,18.92,9.24,32.64,16.91,36.19,18.88,10.28,5.71,12.88,6.67,74.38,37.8,82.45,41.74,75.62,38.92,84.13,42.68,21.05,9.3,30.29,14.33,48.77,24.38,11.05,6,16.22,9.18,22,13.42a148.43,148.43,0,0,1,30.49,30.48,132.67,132.67,0,0,1,19.5,35.36,138.41,138.41,0,0,1,4.88,17.07c2.57,11.09,3.42,19.53,4.88,37.8,1.12,14,1.67,21,2.44,32.92,1.35,21.12,2.16,34,2.44,51.21.11,7.1.07,12.86,0,24.39-.08,11.16-.26,25.72-1.22,62.19-.83,31.42-.78,24.86-1.22,42.67-1,39.28-1.21,66.34-1.22,87.8v3.65l-481.69.58-3.61-.15Z" transform="translate(-750 -667.4)"/><rect class="cls-2" x="10.97" y="292.64" width="104.86" height="24.39"/><rect class="cls-2" x="10.97" y="384.09" width="104.86" height="24.39"/><rect class="cls-2" x="10.97" y="475.54" width="104.86" height="24.39"/><rect class="cls-2" x="10.97" y="566.99" width="104.86" height="24.39"/><polygon class="cls-3" points="170.91 224.05 170.91 591.42 400.52 591.42 400.52 335.79 170.91 224.05"/><rect class="cls-2" width="171.93" height="78.04" rx="5.3"/><rect class="cls-3" x="18.29" y="17.07" width="7.32" height="47.55" rx="0.88"/><rect class="cls-3" x="49.99" y="17.07" width="7.32" height="47.55" rx="0.88"/><rect class="cls-3" x="81.7" y="17.07" width="7.32" height="47.55" rx="0.88"/><rect class="cls-3" x="114.62" y="17.07" width="7.32" height="47.55" rx="0.88"/><rect class="cls-3" x="146.32" y="17.07" width="7.32" height="47.55" rx="0.88"/><path class="cls-2" d="M1035.68,1027.48a247.8,247.8,0,0,1,22,30.48c18,29.59,23.29,52.34,24.38,57.31,3.42,15.56,2.76,23.83,2.44,26.82-.62,5.89-2.2,19.26-12.19,31.71-3,3.69-8.53,10.46-18.29,14.63-18,7.68-35.17,0-37.8-1.22-17.9-8.36-24.33-25.18-26.83-31.7-5.06-13.26-4.3-24.71-3.66-32.93,1.3-16.65,6.7-28.48,12.2-40.23a194.8,194.8,0,0,1,30.48-46.34Z" transform="translate(-750 -667.4)"/></svg>