<svg width="179" height="179" viewBox="0 0 179 179" fill="none" xmlns="http://www.w3.org/2000/svg">
<g id="Frame" clip-path="url(#clip0_631_1569)">
<path id="Vector" d="M89.5 60.502C73.4616 60.502 60.502 73.4974 60.502 89.5C60.502 105.538 73.4974 118.498 89.5 118.498C105.503 118.498 118.498 105.503 118.498 89.5C118.498 73.4616 105.538 60.502 89.5 60.502ZM89.5 107.794C79.4044 107.794 71.2062 99.5956 71.2062 89.5C71.2062 79.4044 79.4044 71.2062 89.5 71.2062C99.5956 71.2062 107.794 79.4044 107.794 89.5C107.794 99.5956 99.5956 107.794 89.5 107.794Z" fill="#FFEB90"/>
<path id="Vector_2" d="M89.5 0C40.0602 0 0 40.0602 0 89.5C0 138.94 40.0602 179 89.5 179C138.94 179 179 138.94 179 89.5C179 40.0602 138.94 0 89.5 0ZM89.5 118.498C73.4616 118.498 60.502 105.503 60.502 89.5C60.502 73.4974 73.4974 60.502 89.5 60.502C105.503 60.502 118.498 73.4974 118.498 89.5C118.498 105.503 105.538 118.498 89.5 118.498Z" fill="#FFCE00"/>
<path id="Vector_3" opacity="0.2" d="M167.186 133.999C166.47 135.217 165.54 136.828 164.322 138.653C163.141 140.443 160.993 143.594 157.878 147.281C156.554 148.856 154.871 150.718 152.795 152.794L102.46 102.46C102.675 102.245 102.854 102.066 103.069 101.815C104.035 100.741 104.823 99.6315 105.396 98.5933L167.186 133.999Z" fill="white"/>
<path id="Vector_4" opacity="0.2" d="M152.795 26.2056C155.122 28.5326 158.022 31.6472 160.993 35.621C163.034 38.306 167.902 45.108 171.876 54.4518C177.747 68.199 178.893 81.0154 179 89.142L107.83 89.3926C107.83 89.2852 107.83 89.1062 107.83 88.8914C107.687 84.7386 106.147 81.6598 105.61 80.6932C105.002 79.5834 104.035 78.0798 102.46 76.5046L152.795 26.2056Z" fill="white"/>
</g>
<defs>
<clipPath id="clip0_631_1569">
<rect width="179" height="179" fill="white"/>
</clipPath>
</defs>
</svg>
