<svg width="213" height="228" viewBox="0 0 213 228" fill="none" xmlns="http://www.w3.org/2000/svg">
<g id="Group 30">
<g id="Group">
<path id="Vector" d="M212.19 50.6585L203.327 49.5425L201.752 62.0499L210.614 63.1659L212.19 50.6585Z" fill="#FFEB90"/>
<path id="Vector_2" d="M203.426 48.7561L201.698 62.4785C201.555 62.4605 201.412 62.4425 201.126 62.4065C198.392 62.2074 196.069 62.2053 194.095 62.3196C193.219 62.3546 192.263 62.452 190.94 62.5759C189.832 62.7267 188.501 62.9221 186.847 63.3673C186.016 63.6257 185.194 63.8125 184.193 64.2673C183.344 64.6686 182.334 65.1948 181.341 66.1589C180.509 66.998 180.053 67.7392 179.758 68.3554C179.48 68.8287 178.907 69.9183 178.566 71.4726C178.53 71.7585 178.261 72.7411 178.251 73.9741C178.179 75.1266 178.276 76.0828 178.276 76.0828C178.294 76.5206 178.32 76.8869 178.338 77.3248C178.329 77.3962 178.355 77.7626 178.301 78.1914C178.265 78.4773 178.247 78.6202 178.158 78.7542C178.149 78.8256 178.05 79.0311 177.809 79.2185C177.478 79.5398 176.978 79.4768 176.826 79.5303C175.807 79.5472 174.779 79.6356 173.761 79.6526C172.528 79.6425 172.814 79.6785 171.223 79.6234C170.786 79.6409 170.062 79.6224 169.052 79.5678C167.462 79.5128 166.238 79.4312 163.995 79.3667C161.905 79.2486 162.405 79.3116 161.395 79.2571C159.591 79.175 159.224 79.2015 158.438 79.1025C157.366 78.9674 156.794 78.8954 155.588 78.671C155.588 78.671 154.668 78.4825 153.57 77.9811C153.364 77.8827 153.025 77.6947 152.846 77.3818C152.73 77.1494 152.614 76.917 152.632 76.7741L152.65 76.6311C152.65 76.6311 152.65 76.6311 152.659 76.5597C152.677 76.4167 152.686 76.3452 152.695 76.2738C152.713 76.1308 152.731 75.9879 152.749 75.8449C152.776 75.6305 152.794 75.4876 152.812 75.3446C152.848 75.0588 152.866 74.9158 152.893 74.7014C152.911 74.5585 152.92 74.487 152.938 74.3441C152.956 74.2011 152.974 74.0582 153.001 73.8438C153.019 73.7008 153.046 73.4864 153.082 73.2005C153.1 73.0576 153.136 72.7717 153.172 72.4858C153.19 72.3429 153.226 72.057 153.262 71.7711C153.28 71.6282 153.316 71.3423 153.352 71.0564C153.397 70.699 153.362 70.4042 153.371 70.3327C153.389 70.1897 153.416 69.9753 153.39 69.609C153.363 69.2426 153.399 68.9567 153.408 68.8853C153.382 68.5189 153.418 68.233 153.355 68.1526C153.543 67.8132 153.49 67.6613 153.499 67.5898C153.463 67.2949 153.419 67.0715 153.419 67.0715C153.365 66.9196 153.33 66.6247 153.232 66.2493C153.187 66.0259 153.08 65.722 152.92 65.2662C152.804 65.0338 152.635 64.6494 152.403 64.1846C152.278 64.0237 152.162 63.7912 151.832 63.5318C151.635 63.3619 151.376 63.1115 150.974 62.8431C150.439 62.4852 150.01 62.4312 149.456 62.2162C149.385 62.2072 148.831 61.9923 147.661 61.4819C145.723 60.7296 143.972 59.638 143.838 59.5485C142.686 58.8952 141.543 58.1704 140.32 56.9273C139.41 56.0866 138.508 55.1744 137.759 53.628C137.01 52.0816 136.958 50.7681 137.012 50.3393C136.968 49.5351 137.004 48.6685 137.479 47.7843C138.042 46.7663 138.972 46.3025 139.741 45.9637C142.753 44.5279 145.854 44.1198 147.337 43.871C150.438 43.4628 152.065 43.232 153.61 43.0636C154.495 42.9572 157.944 42.6655 162.671 42.6073C164.779 42.5824 168.559 42.5501 173.312 42.8583C177.431 43.0139 180.647 43.419 181.648 43.545C185.436 44.022 188.205 44.5159 188.839 44.6684C190.331 44.9289 192.529 45.3508 195.476 46.1577C198.076 46.848 199.889 47.4394 200.586 47.6723C201.426 47.9233 202.113 48.2277 202.596 48.4337L203.426 48.7561Z" fill="#E5B900"/>
<path id="Vector_3" d="M211.173 58.7342L202.311 57.6182L201.753 62.0494L210.615 63.1654L211.173 58.7342Z" fill="#FFCE00"/>
<path id="Vector_4" d="M188.492 62.9941C189.681 62.7808 190.717 62.6209 191.602 62.5145C193.076 62.3371 194.247 62.2667 195.042 62.2942C195.703 62.2323 196.284 62.2328 196.713 62.2868C196.677 62.5727 196.632 62.9301 196.506 63.3499C196.434 63.9217 196.21 65.1277 196.03 66.5571C195.931 67.3433 195.85 67.9865 195.814 68.2724C195.796 68.4153 195.787 68.4868 195.778 68.5583C195.474 68.6652 195.17 68.7722 194.795 68.8701C192.828 69.4937 190.934 70.1264 189.101 70.8395C189.066 70.5446 189.039 70.1783 188.941 69.8029C188.826 68.9897 188.773 68.257 188.711 67.5958C188.587 66.2733 188.508 65.1742 188.499 64.6649C188.473 64.2986 188.446 63.9322 188.473 63.7178L188.492 62.9941Z" fill="#FFCE00"/>
<path id="Vector_5" d="M189.19 70.7049C190.871 70.0453 192.614 69.4661 194.428 68.8959C194.884 68.7355 195.411 68.5841 195.858 68.4952C195.831 68.7096 195.795 68.9954 195.75 69.3528C195.551 72.0867 195.567 74.2668 195.584 75.2854C195.661 78.1268 195.901 80.2624 195.9 80.8432C196.157 83.4167 196.575 85.2845 196.727 85.8118C197.225 88.1978 197.795 90.0121 198.009 90.6199C198.276 91.3796 198.49 91.9874 198.713 92.5237L195.344 93.3337C195.112 92.8688 194.835 92.1806 194.506 91.3404C192.687 86.7552 191.699 83.0731 191.12 80.7495C190.434 78.122 190.008 75.7449 189.617 73.6627C189.501 72.8496 189.377 72.1079 189.288 71.661L189.19 70.7049Z" fill="#FFEB90"/>
<path id="Vector_6" d="M161.841 79.1681C162.851 79.2226 164.218 79.3222 165.808 79.3772C167.613 79.4593 168.48 79.4958 169.275 79.5234C173.403 79.6075 173.376 79.2412 174.269 79.6441C176.752 80.6828 177.795 83.3553 178.018 83.8916C178.794 85.8044 178.658 87.4572 178.55 88.3148C178.193 88.2698 177.693 88.2068 177.121 88.1348C172.332 87.5318 169.473 87.1718 166.195 86.6863C165.98 86.6593 163.193 86.3083 157.475 85.5883C157.332 85.5703 156.904 85.5163 156.394 85.5247C155.813 85.5242 155.376 85.5417 155.143 85.6576C154.33 85.773 153.722 85.9869 153.266 86.1473C152.882 86.3167 152.417 86.5486 151.792 86.9054C151.076 87.3962 150.584 87.8425 150.173 88.2263C149.583 88.878 149.216 89.4853 148.947 89.8871C148.679 90.2889 148.554 90.7087 148.437 91.0571L148.25 90.8157C148.295 90.4583 148.331 90.1724 148.376 89.8151C148.691 87.3136 148.844 86.0986 148.844 86.0986C148.934 85.3839 148.97 85.098 149.042 84.5262C149.132 83.8115 149.177 83.4542 149.383 82.9719C149.499 82.6235 149.714 82.0698 150.09 81.3911C150.278 81.0517 150.555 80.5784 150.985 80.0516C151.164 79.7838 151.495 79.4624 151.977 79.0876C152.38 78.7752 152.943 78.3379 153.721 77.9276C153.792 77.9366 153.855 78.0171 153.989 78.1066C154.533 78.393 155.025 78.5275 155.659 78.6799C157.499 79.0569 159.295 79.2104 159.295 79.2104C159.795 79.2734 160.447 79.283 161.171 79.3015L161.841 79.1681Z" fill="#FFEB90"/>
<path id="Vector_7" d="M178.551 88.3149C176.859 110.972 175.726 128.618 174.982 140.867C173.313 167.956 173.687 159.799 172.537 176.425C172.067 183.046 171.316 193.043 169.749 206.06C169.218 210.277 168.768 213.85 168.462 216.28C168.444 216.423 168.417 216.637 168.328 216.771C168.175 217.406 167.96 217.959 167.692 218.361C167.263 218.307 166.763 218.244 166.334 218.19C147.894 215.868 129.455 213.546 110.944 211.215C107.871 210.828 104.869 210.45 101.796 210.063C101.581 210.036 101.367 210.009 101.224 209.991C101.224 209.991 101.233 209.919 101.171 209.839C101.117 209.687 101.135 209.544 101.073 209.464C101.055 209.026 101.055 209.026 101.011 208.802C101.029 208.659 100.993 208.365 100.967 207.998C100.949 207.56 100.985 207.275 101.003 207.132C101.273 204.987 101.408 203.915 101.444 203.629C101.804 201.351 101.859 199.761 102.425 195.839C102.749 193.847 103.154 190.631 104.185 186.477C104.777 184.083 105.306 182.189 105.664 181.073C105.897 180.376 106.516 178.348 107.456 175.49C107.806 174.445 109.275 170.274 111.558 164.826C111.961 163.932 113.215 160.896 115.095 156.921C115.408 156.162 116.384 154.18 117.646 151.652C118.908 149.125 121.406 144.284 125.065 138.283C129.101 131.604 131.124 128.228 134.272 124.559C134.961 123.702 137 121.345 139.988 117.8C142.036 115.372 142.913 114.176 143.959 112.783C146.231 109.729 147.359 107.693 147.914 106.746C149.14 104.505 149.677 103.12 149.892 102.567C150.358 101.173 150.887 99.8603 150.978 97.984C151.023 97.0459 151.087 95.9648 150.677 94.6063C150.116 92.7206 149.036 91.4955 148.384 90.9052C148.393 90.8337 148.483 90.6998 148.501 90.5568C149.002 89.4583 149.601 88.7351 149.87 88.3333C150.299 87.8065 150.961 87.1638 151.899 86.6286C152.293 86.3877 153.303 85.8615 154.724 85.5322C156.511 85.1764 157.994 85.5084 158.566 85.5804C163.095 86.5138 167.795 86.67 172.36 87.3174C173.503 87.4615 175.29 87.6865 177.506 87.9655L178.578 88.1005L178.551 88.3149Z" fill="#FFCE00"/>
<path id="Vector_8" d="M101.215 210.062C106.289 210.701 111.435 211.349 116.51 211.988C133.591 214.139 150.601 216.281 167.683 218.432C167.674 218.504 167.593 218.566 167.584 218.638C167.495 218.772 167.289 219.254 166.779 219.843C166.09 220.7 165.366 221.263 165.366 221.263C165.044 221.512 163.515 222.699 161.29 223.073C161.147 223.055 160.772 223.153 160.262 223.161C159.244 223.178 158.529 223.088 158.038 222.953C157.046 222.756 156.037 222.701 155.108 222.584C153.187 222.27 151.177 222.089 149.247 221.846C143.887 221.171 138.526 220.496 133.166 219.821C129.521 219.362 125.805 218.894 122.159 218.435C116.799 217.76 114.083 217.418 114.083 217.418C114.012 217.409 112.154 217.175 108.437 216.707C108.223 216.68 107.794 216.626 107.16 216.474C106.32 216.223 105.704 215.927 105.293 215.73C104.954 215.543 104.418 215.185 103.829 214.675C103.239 214.165 102.731 213.593 102.427 213.119C102.124 212.645 101.696 212.01 101.375 211.099C101.268 210.795 101.223 210.571 101.17 210.419L101.215 210.062Z" fill="#E5B900"/>
<path id="Vector_9" d="M202.517 55.9748C202.823 53.5448 203.129 51.1148 203.435 48.6848C203.301 48.5953 203.024 48.4878 202.747 48.3804C202.747 48.3804 200.666 47.6101 198.362 46.8842C193.315 45.45 187.204 44.3901 187.204 44.3901C183.157 43.6627 180.075 43.3471 178.136 43.1756C176.77 43.0761 173.401 42.7245 168.988 42.6043C164.574 42.4841 161.143 42.6329 159.758 42.6763C159.758 42.6763 152.753 42.9558 146.89 43.9601C145.997 44.138 145.478 44.2179 144.88 44.3603C144.88 44.3603 142.19 44.9654 140.206 45.732C140.125 45.7945 139.821 45.9014 139.437 46.0708C138.811 46.4276 138.418 46.6685 138.337 46.731C137.935 47.0433 137.765 47.2398 137.684 47.3022C137.515 47.4986 137.416 47.7041 137.398 47.847C137.898 47.91 138.327 47.964 138.827 48.027C141.543 48.369 144.331 48.72 147.047 49.062C164.771 51.2941 182.496 53.5262 200.221 55.7583C200.578 55.8033 201.007 55.8573 201.364 55.9023L202.508 56.0463L202.517 55.9748Z" fill="#FFCE00"/>
</g>
<g id="Group_2">
<path id="Vector_10" d="M17.1934 86.7799C17.3701 87.5636 17.5645 88.4257 17.7412 89.2093C17.7412 89.2093 17.7412 89.2093 17.8195 89.1917C17.9763 89.1563 18.0546 89.1387 18.0546 89.1387C18.2897 89.0856 18.5248 89.0326 18.7599 88.9796C18.7599 88.9796 21.3461 88.3965 26.5183 87.2304C40.311 84.1206 54.1036 81.0107 67.9747 77.8833C78.7894 75.4449 95.3249 71.7166 106.923 69.1016L106.376 66.6722C106.376 66.6722 106.376 66.6722 106.297 66.6899C106.001 66.8389 105.749 66.8135 105.749 66.8135C105.104 66.8765 18.4473 86.4972 17.9771 86.6033C17.9771 86.6033 17.742 86.6563 17.5069 86.7093C17.4285 86.7269 17.3501 86.7446 17.3501 86.7446L17.1934 86.7799Z" fill="#E5B900"/>
<path id="Vector_11" d="M20.0733 99.5534C20.2676 100.415 20.4797 101.356 20.674 102.218C20.674 102.218 20.674 102.218 20.7524 102.2C20.9091 102.165 20.9875 102.147 20.9875 102.147C21.2226 102.094 21.4577 102.041 21.6928 101.988C21.6928 101.988 24.2789 101.405 29.4512 100.239C43.2439 97.1291 57.0365 94.0193 70.9075 90.8918C81.7222 88.4534 98.2578 84.7252 109.856 82.1101L109.255 79.4456C109.255 79.4456 109.255 79.4456 109.177 79.4633C108.881 79.6123 108.628 79.587 108.628 79.587C107.984 79.65 21.3272 99.2707 20.857 99.3767C20.857 99.3767 20.6219 99.4297 20.3868 99.4827C20.3084 99.5004 20.23 99.518 20.23 99.518L20.0733 99.5534Z" fill="#E5B900"/>
<path id="Vector_12" d="M45.9907 77.8987L45.834 77.9341C45.993 78.6394 46.1344 79.2663 46.2934 79.9716" fill="#E5B900"/>
<path id="Vector_13" d="M40.1644 45.1189C49.2197 42.9125 58.1966 40.7238 67.2695 38.5957L64.4601 26.1353L37.2666 32.2666L40.1644 45.1189Z" fill="#E5B900"/>
<path id="Vector_14" d="M37.2485 32.1884C46.3391 30.1387 55.3514 28.1067 64.442 26.0571C64.4243 25.9787 64.389 25.822 64.336 25.5869C64.3006 25.4301 64.0026 24.8385 63.3303 24.4137C62.7541 24.0495 62.0918 24.0341 61.9351 24.0694C61.6823 24.0441 38.9557 29.1682 38.8167 29.2819C38.7383 29.2996 38.5816 29.3349 38.3641 29.4663C38.0076 29.7114 37.8079 29.9211 37.7472 30.0171C37.6258 30.2092 37.4437 30.4973 37.2969 30.9422C37.2539 31.1166 37.2109 31.291 37.2032 31.6221C37.1778 31.8749 37.2132 32.0316 37.2485 32.1884Z" fill="#FFEB90"/>
<path id="Vector_15" d="M36.7285 15.9995C37.7003 20.3097 38.6898 24.6983 39.6616 29.0085C41.8559 28.5138 44.1286 28.0013 46.3229 27.5066C51.1816 26.4111 55.9621 25.3333 60.8208 24.2378C60.3791 22.2786 59.9374 20.3194 59.4956 18.3602C58.9655 16.0092 58.4178 13.5798 57.8877 11.2288L36.7285 15.9995Z" fill="#E5B900"/>
<path id="Vector_16" d="M36.7291 16.0001C36.6938 15.8434 36.6584 15.6866 36.6054 15.4515C36.5524 15.2164 36.5171 15.0597 36.5424 14.8069C36.5071 14.6502 36.5931 14.3014 36.8183 13.8389C36.8613 13.6645 37.1217 13.3587 37.4606 13.0352C37.8778 12.6941 38.2696 12.6058 38.487 12.4744C39.8016 12.0956 41.465 11.8029 41.7785 11.7323C43.816 11.2729 45.8536 10.8135 47.8911 10.3541C50.2422 9.82398 52.5932 9.29389 54.8658 8.78148C54.8658 8.78148 54.9442 8.76381 55.0226 8.74614C55.336 8.67547 55.5888 8.70083 55.6848 8.76152C55.8593 8.80455 56.0337 8.84758 56.3041 8.95131C56.4001 9.01201 56.5922 9.1334 56.7843 9.2548C57.0724 9.43689 57.2038 9.65433 57.3175 9.79339C57.5449 10.0715 57.5979 10.3066 57.6156 10.385C57.6509 10.5417 57.6686 10.6201 57.7392 10.9336C57.7746 11.0903 57.8099 11.247 57.8276 11.3254L36.7468 16.0785L36.7291 16.0001Z" fill="#FFEB90"/>
<path id="Vector_17" d="M67.1857 39.6849L64.6657 39.1002L41.8708 44.6515C41.3145 45.1063 40.4018 45.8062 39.3499 46.6198C36.4903 48.9116 33.2741 51.4485 29.6584 54.4049C29.6584 54.4049 22.5054 60.2999 17.9538 64.9496C17.2155 65.6925 16.5731 66.4962 16.1913 66.994C15.7311 67.5095 15.4276 67.9897 15.1418 68.5483C15.0204 68.7403 14.7952 69.2029 14.5271 69.8398C14.3803 70.2846 14.2766 70.5551 14.0868 71.1743C13.9401 71.6192 13.8286 72.2207 13.5782 72.936C13.4921 73.2848 13.363 73.808 13.2693 74.488C13.2716 75.2286 13.2208 75.7342 13.1601 75.8302C13.1094 76.3358 13.1194 76.7453 13.1371 76.8236C13.094 76.998 13.1471 77.2331 13.1394 77.5643C13.157 77.6427 13.1747 77.721 13.1317 77.8954C13.167 78.0522 13.1847 78.1305 13.2024 78.2089C13.2631 78.1129 13.2277 77.9561 13.3668 77.8424C13.4098 77.668 13.5489 77.5543 13.6703 77.3622C13.8524 77.0741 14.1482 76.9251 14.2089 76.829C14.4263 76.6977 14.5654 76.584 14.7221 76.5486C14.8005 76.531 14.8788 76.5133 14.9572 76.4956L15.1139 76.4603C16.6029 76.1246 18.0135 75.8065 19.5025 75.4708C35.4111 71.8839 51.3197 68.297 67.1499 64.7278C78.1997 62.2364 89.3279 59.7274 100.378 57.236C100.613 57.183 100.848 57.13 101.083 57.077C101.475 56.9886 101.867 56.9003 102.337 56.7943C102.65 56.7236 102.885 56.6706 103.199 56.5999C103.512 56.5292 103.512 56.5292 103.512 56.5292C103.747 56.4762 104.139 56.3879 104.566 56.4562C104.645 56.4386 105.246 56.55 105.744 56.9318C106.032 57.1139 106.164 57.3314 106.277 57.4704C106.409 57.6879 106.523 57.8269 106.558 57.9837C106.576 58.062 106.593 58.1404 106.611 58.2188C106.47 57.5918 106.101 56.6868 105.618 55.6426C104.093 52.5279 102.03 50.687 101.55 50.3835C100.537 49.5414 99.5942 49.0128 98.9396 48.6663C96.67 47.3663 94.6732 46.9106 93.8796 46.6778C86.6153 44.7746 90.4775 45.4684 82.4549 43.4891C78.9669 42.6285 75.0693 41.7779 67.5092 40.0238C66.6372 39.8086 65.5124 39.5681 64.6404 39.353C56.9957 41.2413 49.4117 43.0336 41.7671 44.9219" fill="#FFEB90"/>
<path id="Vector_18" d="M13.6705 77.3625C13.7488 77.3448 13.7312 77.2665 13.7919 77.1704C13.9309 77.0567 13.9916 76.9607 14.0523 76.8647C14.2698 76.7333 14.4088 76.6196 14.5479 76.5059C14.7653 76.3745 14.9221 76.3392 15.0004 76.3215C15.7057 76.1625 16.2543 76.0388 16.9596 75.8797C17.038 75.8621 17.1164 75.8444 17.1947 75.8267C17.4298 75.7737 17.6649 75.7207 17.9784 75.65C18.2919 75.5794 18.4486 75.544 18.7621 75.4734C18.9972 75.4203 19.3106 75.3497 19.5457 75.2967C19.7808 75.2436 20.016 75.1906 20.1727 75.1553C20.3294 75.12 20.5645 75.067 20.7213 75.0316C23.229 74.4662 25.7368 73.9008 28.2445 73.3354C30.2037 72.8936 32.1629 72.4519 34.0437 72.0278C43.2127 69.9605 52.3033 67.9109 61.4723 65.8435C72.3654 63.3875 83.2585 60.9314 94.2299 58.4577C96.5809 57.9277 98.9319 57.3976 101.283 56.8675L101.753 56.7615C101.91 56.7261 102.302 56.6378 102.302 56.6378C102.537 56.5848 102.772 56.5318 103.085 56.4611C103.085 56.4611 103.321 56.4081 103.556 56.3551C103.634 56.3374 103.712 56.3197 103.712 56.3197C103.791 56.3021 103.947 56.2667 104.026 56.2491C104.104 56.2314 104.183 56.2137 104.357 56.2567C104.435 56.2391 104.531 56.2998 104.688 56.2644C104.766 56.2468 104.862 56.3075 105.037 56.3505C105.133 56.4112 105.211 56.3935 105.403 56.5149C105.595 56.6363 105.691 56.697 105.788 56.7577C105.884 56.8184 105.98 56.8791 105.997 56.9575C106.111 57.0965 106.225 57.2356 106.321 57.2963C106.338 57.3747 106.434 57.4354 106.47 57.5921C106.487 57.6705 106.583 57.7312 106.619 57.8879C106.672 58.123 106.707 58.2797 106.725 58.3581C106.858 59.3162 107.149 60.2389 107.343 61.101C107.732 62.8251 107.944 63.7655 107.962 63.8438C107.962 63.8438 107.997 64.0006 108.032 64.1573C108.085 64.3924 108.042 64.5668 108.042 64.5668C108.06 64.6452 108.017 64.8196 107.992 65.0724C107.863 65.5956 107.541 65.9974 107.481 66.0934C107.359 66.2855 107.16 66.4952 106.785 66.6619C106.568 66.7933 106.411 66.8287 106.254 66.864C106.019 66.917 105.941 66.9347 105.549 67.023C105.314 67.076 105.079 67.129 104.922 67.1644C104.53 67.2527 104.139 67.3411 103.747 67.4294C103.12 67.5708 102.414 67.7298 101.788 67.8712C99.8283 68.3129 97.8691 68.7546 95.9099 69.1964C94.6561 69.4791 93.4022 69.7618 92.07 70.0622C88.1516 70.9456 84.2332 71.8291 80.2365 72.7302C72.7916 74.4088 65.3467 76.0874 57.9018 77.766C56.256 78.1371 54.6103 78.5081 52.9646 78.8792C52.1026 79.0735 51.1622 79.2856 50.3001 79.4799C43.6389 80.9818 37.056 82.4661 30.3948 83.968C26.5548 84.8338 22.7578 85.5252 18.9532 86.5477C18.8748 86.5654 18.4046 86.6714 17.3074 86.9187C17.3074 86.9187 17.1507 86.9541 17.0723 86.9718C17.0723 86.9718 16.994 86.9894 16.9156 87.0071C16.8726 87.1815 16.6198 87.1561 16.6198 87.1561C16.271 87.0701 16.0005 86.9664 15.9045 86.9057C15.6164 86.7236 15.4067 86.5238 15.3106 86.4631C15.1969 86.324 14.9695 86.0459 14.8205 85.7501C14.7068 85.611 14.593 85.472 14.5754 85.3936C14.5047 85.0801 14.4517 84.845 14.434 84.7667C14.3103 84.2181 14.1867 83.6695 14.063 83.121C13.8686 82.2589 13.6566 81.3185 13.4622 80.4565C13.4445 80.3781 13.3739 80.0646 13.3739 80.0646C13.3209 79.8295 13.3209 79.8295 13.2855 79.6728C13.2325 79.4377 13.1972 79.281 13.1795 79.2026C13.1265 78.9675 13.1518 78.7147 13.1518 78.7147C13.1165 78.558 13.1595 78.3836 13.2456 78.0348C13.3063 77.9387 13.3317 77.686 13.5314 77.4762C13.6098 77.4585 13.6705 77.3625 13.6705 77.3625Z" fill="#FFCE00"/>
<path id="Vector_19" d="M17.7414 89.2089C17.8198 89.1913 17.8198 89.1913 17.7414 89.2089C17.8982 89.1736 18.0549 89.1383 18.0549 89.1383C18.29 89.0853 18.5251 89.0322 18.7602 88.9792C18.7602 88.9792 18.7602 88.9792 19.1521 88.8909C19.5439 88.8025 20.0141 88.6965 20.4059 88.6082C20.7978 88.5198 21.1896 88.4315 21.5814 88.3431C21.9733 88.2548 22.3651 88.1664 22.757 88.0781C22.9921 88.0251 23.3055 87.9544 23.5406 87.9014C24.3243 87.7247 25.108 87.548 25.8917 87.3713C26.7537 87.177 27.6157 86.9826 28.4778 86.7882C30.3586 86.3642 32.2394 85.9401 34.0419 85.5337C35.2957 85.251 36.5496 84.9683 37.8035 84.6856C39.1357 84.3852 40.468 84.0848 41.8002 83.7844C42.8974 83.5371 43.9945 83.2897 45.17 83.0247C46.2672 82.7773 47.3643 82.5299 48.5398 82.2649C49.7153 81.9998 50.7341 81.7701 51.9096 81.5051C53.2419 81.2047 54.5741 80.9043 55.9064 80.604C56.7684 80.4096 57.7088 80.1976 58.5709 80.0032C59.9031 79.7028 61.2354 79.4024 62.5676 79.1021C63.8998 78.8017 65.2321 78.5013 66.5643 78.2009C67.8966 77.9005 69.2288 77.6002 70.5611 77.2998C71.4231 77.1054 72.2852 76.9111 73.0688 76.7344C74.4011 76.434 75.7333 76.1336 77.0656 75.8332C77.9276 75.6389 78.868 75.4268 79.7301 75.2325C80.2003 75.1264 80.6705 75.0204 81.219 74.8967C82.708 74.561 84.197 74.2253 85.686 73.8896C86.7831 73.6422 87.8803 73.3948 89.0558 73.1298C89.7611 72.9708 90.5448 72.7941 91.2501 72.6351C92.5823 72.3347 93.8362 72.052 95.1684 71.7516C95.2468 71.7339 98.5382 70.9918 98.5382 70.9918C100.106 70.6384 101.691 70.3634 103.24 69.9316C103.24 69.9316 104.79 69.4999 106.767 69.1365C106.845 69.1189 106.845 69.1189 106.845 69.1189C106.845 69.1189 106.924 69.1012 107.002 69.0835C107.159 69.0482 107.333 69.0912 107.333 69.0912C107.411 69.0735 107.507 69.1342 107.664 69.0989C107.743 69.0812 107.839 69.1419 107.935 69.2026C108.013 69.185 108.109 69.2456 108.205 69.3063C108.301 69.367 108.397 69.4277 108.572 69.4708C108.781 69.6705 108.973 69.7919 109.069 69.8526C109.183 69.9917 109.297 70.1308 109.314 70.2091C109.428 70.3482 109.464 70.5049 109.499 70.6617C109.534 70.8184 109.552 70.8968 109.605 71.1319C109.623 71.2102 109.623 71.2102 109.693 71.5237C109.693 71.5237 109.729 71.6804 109.782 71.9155C109.817 72.0723 109.852 72.229 109.888 72.3857C109.905 72.4641 109.923 72.5425 109.941 72.6208C109.994 72.8559 110.047 73.0911 110.1 73.3262C110.153 73.5613 110.188 73.718 110.241 73.9531C110.312 74.2666 110.541 75.2853 110.541 75.2853C110.647 75.7555 110.736 76.1474 110.842 76.6176C110.842 76.6176 110.877 76.7743 110.912 76.9311C110.93 77.0094 110.965 77.1662 111.001 77.3229C111.018 77.4013 110.993 77.654 110.968 77.9068C110.925 78.0812 110.882 78.2556 110.778 78.5261C110.657 78.7181 110.535 78.9102 110.474 79.0062C110.275 79.216 110.075 79.4257 109.936 79.5394C109.936 79.5394 109.658 79.7668 109.266 79.8552C109.188 79.8729 109.109 79.8905 109.109 79.8905C108.952 79.9259 108.796 79.9612 108.717 79.9789C108.561 80.0142 108.404 80.0495 108.247 80.0849C108.247 80.0849 108.247 80.0849 107.228 80.3146C106.915 80.3853 106.523 80.4736 106.21 80.5443C102.213 81.4454 98.2161 82.3466 94.2193 83.2477C91.4765 83.8661 88.6553 84.5022 85.9124 85.1207C85.834 85.1383 60.2863 90.8986 60.2863 90.8986C43.7507 94.6268 21.2593 99.6979 20.2405 99.9276C20.2405 99.9276 20.1621 99.9453 20.0054 99.9806C19.8487 100.016 19.7526 99.9553 19.7526 99.9553C19.4999 99.9299 19.3255 99.8869 19.2471 99.9045C18.9943 99.8792 18.8023 99.7578 18.6102 99.6364C18.4181 99.515 18.226 99.3936 18.0163 99.1938C17.8242 99.0724 17.7712 98.8373 17.6752 98.7766C17.6752 98.7766 17.5438 98.5592 17.3948 98.2634C17.3771 98.185 17.3594 98.1067 17.3594 98.1067C17.4201 98.0106 17.4024 97.9323 17.4024 97.9323C17.3671 97.7755 17.3494 97.6972 17.3141 97.5404C17.1551 96.8351 16.996 96.1298 16.837 95.4245C16.678 94.7192 16.5013 93.9355 16.3423 93.2302C16.3246 93.1518 16.3069 93.0735 16.2893 92.9951C16.2539 92.8384 16.2009 92.6033 16.1656 92.4465C16.1656 92.4465 16.1479 92.3682 16.1302 92.2898C16.1126 92.2114 16.1126 92.2114 16.0949 92.1331C16.0772 92.0547 16.0596 91.9763 16.0419 91.898C16.0242 91.8196 16.0066 91.7412 16.0673 91.6452C16.1103 91.4708 16.0749 91.3141 16.1356 91.218C16.1963 91.122 16.161 90.9653 16.2824 90.7732C16.3861 90.5027 16.5075 90.3107 16.6466 90.197C16.7073 90.1009 16.9071 89.8912 17.1068 89.6814C17.2459 89.5677 17.3242 89.5501 17.4026 89.5324C17.481 89.5147 17.5417 89.4187 17.6984 89.3833C17.6631 89.2266 17.7414 89.2089 17.7414 89.2089Z" fill="#FFCE00"/>
<path id="Vector_20" d="M20.551 101.67C20.6294 101.652 20.6294 101.652 20.551 101.67C20.7078 101.635 20.8645 101.599 20.8645 101.599C21.0996 101.546 21.3347 101.493 21.5698 101.44C21.5698 101.44 21.5698 101.44 21.9616 101.352C22.3535 101.263 22.8237 101.157 23.2155 101.069C23.6073 100.981 23.9992 100.892 24.391 100.804C24.7829 100.716 25.1747 100.627 25.5665 100.539C25.8016 100.486 26.1151 100.415 26.3502 100.362C27.1339 100.186 27.9176 100.009 28.7012 99.8323C29.5633 99.6379 30.4253 99.4435 31.2873 99.2492C33.1682 98.8251 35.049 98.401 36.8514 97.9946C38.1053 97.7119 39.3592 97.4292 40.6131 97.1465C41.9453 96.8461 43.2776 96.5458 44.6098 96.2454C45.7069 95.998 46.8041 95.7506 47.9796 95.4856C49.0767 95.2382 50.1739 94.9909 51.3494 94.7258C52.5249 94.4608 53.5437 94.2311 54.7192 93.966C56.0514 93.6656 57.3837 93.3653 58.7159 93.0649C59.578 92.8705 60.5184 92.6585 61.3804 92.4641C62.7127 92.1638 64.0449 91.8634 65.3772 91.563C66.7094 91.2626 68.0417 90.9622 69.3739 90.6619C70.7062 90.3615 72.0384 90.0611 73.3706 89.7607C74.2327 89.5664 75.0947 89.372 75.8784 89.1953C77.2106 88.8949 78.5429 88.5945 79.8751 88.2942C80.7372 88.0998 81.6776 87.8878 82.5396 87.6934C83.0098 87.5874 83.48 87.4814 84.0286 87.3577C85.5176 87.022 87.0066 86.6862 88.4955 86.3505C89.5927 86.1032 90.6898 85.8558 91.8654 85.5907C92.5707 85.4317 93.3543 85.255 94.0596 85.096C95.3919 84.7956 96.6458 84.5129 97.978 84.2125C98.0564 84.1949 101.348 83.4527 101.348 83.4527C102.915 83.0994 104.5 82.8243 106.05 82.3926C106.05 82.3926 107.6 81.9608 109.576 81.5975C109.655 81.5798 109.655 81.5798 109.655 81.5798C109.655 81.5798 109.733 81.5621 109.811 81.5445C109.968 81.5091 110.143 81.5521 110.143 81.5521C110.221 81.5345 110.317 81.5952 110.474 81.5598C110.552 81.5422 110.648 81.6029 110.744 81.6636C110.823 81.6459 110.919 81.7066 111.015 81.7673C111.111 81.828 111.207 81.8887 111.381 81.9317C111.591 82.1315 111.783 82.2529 111.879 82.3136C111.993 82.4526 112.106 82.5917 112.124 82.6701C112.238 82.8091 112.273 82.9659 112.308 83.1226C112.344 83.2793 112.361 83.3577 112.414 83.5928C112.432 83.6712 112.432 83.6712 112.503 83.9846C112.503 83.9846 112.538 84.1414 112.591 84.3765C112.626 84.5332 112.662 84.6899 112.697 84.8467C112.715 84.925 112.733 85.0034 112.75 85.0818C112.803 85.3169 112.856 85.552 112.909 85.7871C112.962 86.0222 112.998 86.1789 113.051 86.414C113.121 86.7275 113.351 87.7463 113.351 87.7463C113.457 88.2165 113.545 88.6083 113.651 89.0785C113.651 89.0785 113.687 89.2353 113.722 89.392C113.74 89.4704 113.775 89.6271 113.81 89.7838C113.828 89.8622 113.803 90.115 113.777 90.3677C113.734 90.5421 113.691 90.7166 113.587 90.987C113.466 91.1791 113.345 91.3711 113.284 91.4672C113.084 91.6769 112.884 91.8867 112.745 92.0004C112.745 92.0004 112.467 92.2278 112.075 92.3161C111.997 92.3338 111.919 92.3515 111.919 92.3515C111.762 92.3868 111.605 92.4221 111.527 92.4398C111.37 92.4751 111.213 92.5105 111.057 92.5458C111.057 92.5458 111.057 92.5458 110.038 92.7755C109.724 92.8462 109.333 92.9346 109.019 93.0052C105.022 93.9064 101.026 94.8075 97.0289 95.7086C94.2861 96.3271 91.4648 96.9632 88.722 97.5816C88.6436 97.5993 63.0958 103.359 63.0958 103.359C46.5603 107.088 24.0689 112.159 23.0501 112.389C23.0501 112.389 22.9717 112.406 22.815 112.442C22.6583 112.477 22.5622 112.416 22.5622 112.416C22.3094 112.391 22.135 112.348 22.0567 112.365C21.8039 112.34 21.6118 112.219 21.4198 112.097C21.2277 111.976 21.0356 111.855 20.8259 111.655C20.6338 111.533 20.5808 111.298 20.4847 111.238C20.4847 111.238 20.3534 111.02 20.2043 110.724C20.1867 110.646 20.169 110.568 20.169 110.568C20.1513 110.489 20.1336 110.411 20.1336 110.411C20.0983 110.254 20.0806 110.176 20.0453 110.019C19.8863 109.314 19.7272 108.608 19.5682 107.903C19.4092 107.198 19.2325 106.414 19.0735 105.709C19.0558 105.63 19.0381 105.552 19.0205 105.474C18.9851 105.317 18.9321 105.082 18.8968 104.925C18.8968 104.925 18.8791 104.847 18.8614 104.768C18.8438 104.69 18.8438 104.69 18.8261 104.612C18.8084 104.533 18.7908 104.455 18.7731 104.377C18.7554 104.298 18.7378 104.22 18.7985 104.124C18.8415 103.949 18.8062 103.793 18.8669 103.697C18.9275 103.601 18.8922 103.444 19.0136 103.252C19.1173 102.981 19.2387 102.789 19.3778 102.676C19.4385 102.58 19.6383 102.37 19.838 102.16C19.9771 102.046 20.0555 102.029 20.1338 102.011C20.2122 101.993 20.2729 101.897 20.4296 101.862C20.4726 101.688 20.551 101.67 20.551 101.67Z" fill="#FFCE00"/>
<path id="Vector_21" d="M43.4874 212.531C43.5051 212.609 43.5051 212.609 43.6011 212.67C43.7148 212.809 43.7325 212.888 43.8462 213.027C43.9422 213.087 43.9776 213.244 43.9776 213.244C43.9952 213.322 44.205 213.522 44.4324 213.8C44.6598 214.078 44.9479 214.26 45.0439 214.321C45.2537 214.521 45.4458 214.642 45.5418 214.703C45.7339 214.824 46.1357 215.146 46.7549 215.335C47.5663 215.647 48.2462 215.74 48.5773 215.748C49.1613 215.781 49.6491 215.753 49.8059 215.718C49.9626 215.683 50.1193 215.647 50.4328 215.577C50.9814 215.453 51.4516 215.347 51.4516 215.347C55.5874 214.332 59.7585 213.474 63.912 212.538C69.7896 211.212 75.5887 209.905 81.4663 208.58C88.9896 206.883 96.4345 205.205 103.958 203.509C110.776 201.971 117.594 200.434 124.412 198.897C126.919 198.331 129.349 197.784 131.857 197.218C131.935 197.201 132.013 197.183 132.092 197.165C132.248 197.13 132.405 197.095 132.562 197.059C132.936 196.892 133.171 196.839 133.545 196.673C134.354 196.243 134.893 195.71 135.014 195.518C135.275 195.212 135.674 194.793 136.021 194.138C136.307 193.58 136.514 193.039 136.582 192.612C136.729 192.167 136.719 191.757 136.727 191.426C136.492 191.479 136.335 191.514 136.1 191.567C133.122 192.239 130.066 192.928 127.088 193.599C100.051 199.695 72.9359 205.809 45.8991 211.905C44.9764 212.195 44.1927 212.372 43.4874 212.531Z" fill="#E5B900"/>
<path id="Vector_22" d="M110.014 96.3215C114.307 115.365 118.619 134.486 122.912 153.53L122.834 153.547C122.581 153.522 122.424 153.557 122.346 153.575C121.954 153.663 121.484 153.769 121.092 153.858C103.75 158.756 85.9836 161.774 68.4293 165.732C68.1158 165.802 66.4701 166.173 66.0782 166.262L66.0683 165.852C66.1466 165.834 66.225 165.817 66.3034 165.799C66.4601 165.764 67.2084 165.43 67.9821 164.844C69.2337 163.821 69.8307 162.451 69.8561 162.198C70.0028 161.753 70.357 160.768 70.2487 159.557C70.1957 159.322 70.1427 159.087 70.0974 158.52C69.8854 157.58 69.7263 156.875 69.638 156.483C69.638 156.483 69.4083 155.464 68.9666 153.505C68.7545 152.564 68.5248 151.546 68.3128 150.605C68.1538 149.9 68.0124 149.273 67.8534 148.568C67.659 147.706 67.447 146.765 67.2526 145.903C66.5989 143.004 65.9451 140.104 65.2913 137.204C65.2207 136.891 63.4891 129.211 63.4891 129.211C62.1639 123.333 61.7044 121.296 61.5278 120.512C60.98 118.083 60.2026 114.635 59.2307 110.324C59.2131 110.246 59.1954 110.168 59.1777 110.089C58.9757 109.558 58.809 109.184 58.5639 108.828C58.4325 108.61 58.3011 108.393 58.0737 108.115C58.2304 108.079 58.3872 108.044 58.5439 108.009C59.7194 107.744 60.9733 107.461 62.1488 107.196C64.0296 106.772 65.9105 106.348 67.7129 105.941C81.2705 102.885 94.828 99.8278 108.386 96.771L110.031 96.3999L110.014 96.3215Z" fill="#FFCE00"/>
<path id="Vector_23" d="M109.253 92.952C109.501 94.0491 109.766 95.2246 110.013 96.3218L105.546 97.3289L59.5443 107.701L57.8986 108.072C58.0123 108.211 58.126 108.35 58.2397 108.489C58.5025 108.924 58.7475 109.28 58.8005 109.516C58.9319 109.733 59.0026 110.046 59.0909 110.438C59.144 110.673 59.25 111.144 59.3913 111.771C59.8861 113.965 60.2748 115.689 60.3808 116.159C60.3808 116.159 60.3808 116.159 63.0136 127.836C63.7733 131.206 64.5331 134.575 65.2929 137.945C65.664 139.591 66.0527 141.315 66.4237 142.961C66.6358 143.901 67.4486 147.506 67.4486 147.506C68.7561 153.305 68.7031 153.07 68.7738 153.384C69.0918 154.794 69.3922 156.127 69.7102 157.537C69.7279 157.615 69.8693 158.242 69.9676 159.044C70.0383 159.357 70.0129 159.61 70.0052 159.941C70.0075 160.682 69.8961 161.283 69.7747 161.475C69.4128 162.792 68.6921 163.614 68.51 163.902C68.1889 164.304 67.4328 164.968 66.3887 165.451C66.1713 165.582 65.9362 165.635 65.7794 165.67C65.6227 165.706 65.3092 165.776 64.9958 165.847C63.7419 166.13 62.9582 166.306 61.7827 166.571C61.2341 166.695 60.4505 166.872 59.51 167.084C59.5884 167.066 59.6668 167.049 59.7451 167.031C60.1977 166.846 60.5718 166.68 60.8676 166.531C61.1634 166.382 61.4416 166.154 61.8764 165.891C62.1546 165.664 62.6325 165.227 63.075 164.633C63.2571 164.345 63.4392 164.057 63.5606 163.865C63.7427 163.577 63.8288 163.228 63.8718 163.053C63.8541 162.975 64.0616 162.434 64.1553 161.754C64.2137 160.918 64.1154 160.116 63.921 159.254C63.6207 157.922 63.391 156.903 63.3026 156.511C63.3026 156.511 63.3026 156.511 62.5782 153.298C62.3661 152.358 62.1541 151.417 61.9421 150.477C61.6594 149.223 61.3943 148.048 61.1116 146.794C60.8642 145.697 60.5992 144.521 60.3518 143.424C59.9984 141.857 59.6274 140.211 59.274 138.644C58.7969 136.528 58.3022 134.333 57.8251 132.217C57.5777 131.12 57.3304 130.023 57.0653 128.848C56.7649 127.515 56.4646 126.183 56.1642 124.851C55.7048 122.813 55.263 120.854 54.8036 118.817C53.9025 114.82 53.4431 112.782 53.4431 112.782C53.4431 112.782 53.3547 112.39 53.2487 111.92C53.1781 111.607 53.125 111.372 52.9937 111.154C52.9583 110.998 52.8093 110.702 52.6602 110.406C52.5289 110.188 52.2838 109.832 52.021 109.397C51.7936 109.119 51.4702 108.78 50.9723 108.398C50.2824 107.895 49.6278 107.549 49.2006 107.48C48.1365 107.144 47.1431 107.121 46.4985 107.184C46.3418 107.219 46.0283 107.29 45.7148 107.36C45.2446 107.466 44.9312 107.537 44.7744 107.572C44.0691 107.731 42.6585 108.049 41.4046 108.332C41.0128 108.42 40.2291 108.597 39.2103 108.827C38.9752 108.88 38.8185 108.915 38.6618 108.95C37.8958 109.206 37.3218 109.582 36.9653 109.827C36.6872 110.054 36.0526 110.527 35.567 111.295C35.1244 111.889 34.917 112.43 34.8916 112.683C34.8486 112.857 34.7272 113.049 34.7625 113.206L33.587 113.471L26.6123 115.044L25.8525 111.674L51.7922 105.825L78.8289 99.7293L109.253 92.952Z" fill="#E5B900"/>
<path id="Vector_24" d="M26.6299 115.122C29.2944 114.521 32.0372 113.903 34.7017 113.302C34.7017 113.302 34.641 113.398 34.6587 113.477C34.6157 113.651 34.3829 114.445 34.5342 115.481C34.5695 115.638 34.6049 115.794 34.6225 115.873C34.6932 116.186 34.7639 116.5 34.8169 116.735C34.8876 117.048 34.9583 117.362 35.0113 117.597C35.0113 117.597 35.0113 117.597 35.8947 121.515C36.2481 123.083 36.6015 124.65 36.9549 126.217C37.2023 127.315 37.4496 128.412 37.7147 129.587C37.9621 130.684 38.2094 131.781 38.4745 132.957C38.6688 133.819 38.8809 134.759 39.0752 135.621C39.3226 136.719 39.57 137.816 39.835 138.991C40.2944 141.029 40.7361 142.988 41.1955 145.026C41.5489 146.593 41.9023 148.16 42.2557 149.728C42.8035 152.157 43.3689 154.665 43.9166 157.094C44.323 158.897 44.7294 160.699 45.1181 162.423C45.2595 163.05 45.3832 163.599 45.5245 164.226L45.6129 164.617L45.8326 165.227L46.0347 165.758L46.1837 166.053L46.4288 166.41L46.7699 166.827L47.2071 167.305L47.7049 167.687L48.1851 167.99L48.6653 168.294L49.3022 168.562C49.3982 168.623 49.4766 168.605 49.651 168.648C49.9215 168.752 50.4447 168.881 51.1246 168.975C51.1246 168.975 51.7085 169.008 52.2748 168.962C53.2328 168.829 58.6402 167.609 66.0674 165.852L66.0774 166.262C65.8423 166.315 64.1182 166.704 63.8831 166.757C54.0872 168.965 51.8929 169.46 48.0529 170.326C46.0937 170.768 43.1158 171.439 39.6069 172.313L37.3099 162.125L32.9986 143.003L29.5177 127.565L26.6299 115.122Z" fill="#FFCE00"/>
<path id="Vector_25" d="M35.6901 179.043C35.6547 178.886 35.6194 178.729 35.6448 178.476C35.6271 178.398 35.5994 177.91 35.7109 177.309C35.83 176.376 36.1588 175.643 36.2802 175.451C36.7911 174.43 37.4688 173.783 37.7293 173.477C38.4246 172.909 39.0769 172.514 39.5294 172.33L42.429 171.676L47.0527 170.634L58.4943 168.054L78.339 163.662L104.68 158.135L120.657 154.121C121.11 153.936 121.815 153.777 122.695 153.661C123.104 153.651 123.906 153.553 124.778 153.768C126.426 154.138 127.475 155.136 127.78 155.397C128.751 156.413 129.137 157.397 129.278 158.024L114.389 161.381L51.3029 175.605L35.6901 179.043Z" fill="#FFEB90"/>
<path id="Vector_26" d="M129.349 158.337C132.441 172.051 135.728 186.627 135.728 186.627C135.781 186.863 136.152 188.508 136.222 188.822C136.222 188.822 136.311 189.214 136.452 189.84C136.558 190.311 136.611 190.546 136.603 190.877C136.578 191.13 136.631 191.365 136.588 191.539L130.867 192.829L124.755 194.207L52.2648 210.551L43.4876 212.53C43.4699 212.452 43.3739 212.391 43.3562 212.313C43.1895 211.939 43.0228 211.565 42.9875 211.408C42.8461 210.781 42.7048 210.154 42.6517 209.919C42.5281 209.37 42.422 208.9 42.2984 208.352C42.2984 208.352 42.2984 208.352 41.892 206.549C41.5916 205.217 41.2912 203.885 40.9908 202.552C40.6374 200.985 40.2841 199.418 39.9307 197.85C39.8777 197.615 39.8246 197.38 39.7893 197.223C39.5419 196.126 39.2946 195.029 39.0295 193.854C38.8352 192.992 38.6231 192.051 38.4288 191.189C38.1284 189.857 37.828 188.525 37.5276 187.192C37.3333 186.33 37.1212 185.39 36.9269 184.528C36.9092 184.45 36.6265 183.196 36.6265 183.196C36.4321 182.334 36.0534 181.019 35.743 179.277L35.7077 179.121L36.3346 178.979L125.595 158.854L129.2 158.041L129.218 158.119L129.235 158.198C129.218 158.119 129.314 158.18 129.349 158.337Z" fill="#FFCE00"/>
</g>
</g>
</svg>
