<svg width="101" height="182" viewBox="0 0 101 182" fill="none" xmlns="http://www.w3.org/2000/svg">
<g id="Group">
<path id="Vector" d="M2.75977 61.61C2.75977 62.3378 2.75977 63.1384 2.75977 63.8663C2.75977 63.8663 2.75977 63.8663 2.84341 63.8663C3.01069 63.8663 3.09433 63.8663 3.09433 63.8663C3.34525 63.8663 3.59618 63.8663 3.8471 63.8663C3.8471 63.8663 6.60725 63.8663 12.1276 63.8663C26.8484 63.8663 41.5692 63.8663 56.3737 63.8663C67.9161 63.8663 85.5644 63.8663 97.9433 63.8663V61.61C97.9433 61.61 97.9433 61.61 97.8596 61.61C97.5251 61.6828 97.2742 61.61 97.2742 61.61C96.605 61.5372 4.09802 61.61 3.59618 61.61C3.59618 61.61 3.34525 61.61 3.09433 61.61C3.01069 61.61 2.92705 61.61 2.92705 61.61H2.75977Z" fill="#6795D6"/>
<path id="Vector_2" d="M2.75977 73.4009C2.75977 74.2015 2.75977 75.0749 2.75977 75.8755C2.75977 75.8755 2.75977 75.8755 2.84341 75.8755C3.01069 75.8755 3.09433 75.8755 3.09433 75.8755C3.34525 75.8755 3.59618 75.8755 3.8471 75.8755C3.8471 75.8755 6.60725 75.8755 12.1276 75.8755C26.8484 75.8755 41.5692 75.8755 56.3737 75.8755C67.9161 75.8755 85.5644 75.8755 97.9433 75.8755V73.4009C97.9433 73.4009 97.9433 73.4009 97.8596 73.4009C97.5251 73.4737 97.2742 73.4009 97.2742 73.4009C96.605 73.3281 4.09802 73.4009 3.59618 73.4009C3.59618 73.4009 3.34525 73.4009 3.09433 73.4009C3.01069 73.4009 2.92705 73.4009 2.92705 73.4009H2.75977Z" fill="#6795D6"/>
<path id="Vector_3" d="M34.0403 59.4263H33.873C33.873 60.0813 33.873 60.6636 33.873 61.3186" fill="#6795D6"/>
<path id="Vector_4" d="M35.6299 29.2943C45.3322 29.1487 54.951 29.0031 64.6533 28.9304V17.3578H35.6299V29.2943Z" fill="#A9C4FF"/>
<path id="Vector_5" d="M35.6299 17.285C45.3322 17.285 54.951 17.285 64.6533 17.285C64.6533 17.2122 64.6533 17.0666 64.6533 16.8483C64.6533 16.7027 64.486 16.1205 63.9006 15.611C63.3987 15.1743 62.7296 15.0287 62.5623 15.0287C62.3114 14.9559 38.0555 14.9559 37.8882 15.0287C37.8046 15.0287 37.6373 15.0287 37.3863 15.1015C36.9681 15.2471 36.7172 15.3926 36.6336 15.4654C36.4663 15.611 36.2154 15.8293 35.9644 16.1932C35.8808 16.3388 35.7972 16.4844 35.7135 16.7755C35.6299 16.9939 35.6299 17.1394 35.6299 17.285Z" fill="#A9C4FF"/>
<path id="Vector_6" d="M38.8081 2.94666C38.8081 6.94974 38.8081 11.0256 38.8081 15.0287C41.1501 15.0287 43.5756 15.0287 45.9176 15.0287C51.1033 15.0287 56.2054 15.0287 61.3912 15.0287C61.3912 13.2091 61.3912 11.3895 61.3912 9.56995C61.3912 7.38645 61.3912 5.13016 61.3912 2.94666H38.8081Z" fill="#6795D6"/>
<path id="Vector_7" d="M38.8081 2.94653C38.8081 2.80096 38.8081 2.65539 38.8081 2.43704C38.8081 2.21869 38.8081 2.07313 38.8917 1.85478C38.8917 1.70921 39.059 1.41807 39.3936 1.05416C39.4772 0.908591 39.8118 0.69024 40.23 0.47189C40.7318 0.25354 41.1501 0.25354 41.401 0.25354C42.8229 0.180756 44.5793 0.25354 44.9139 0.25354C47.0886 0.25354 49.2632 0.25354 51.4379 0.25354C53.9471 0.25354 56.4564 0.25354 58.882 0.25354C58.882 0.25354 58.9656 0.25354 59.0492 0.25354C59.3838 0.25354 59.6347 0.326323 59.7184 0.399106C59.8857 0.47189 60.0529 0.544673 60.3039 0.69024C60.3875 0.763024 60.5548 0.908591 60.7221 1.05416C60.973 1.27251 61.0566 1.49086 61.1403 1.63643C61.3075 1.92756 61.3076 2.14591 61.3076 2.21869C61.3076 2.36426 61.3076 2.43704 61.3076 2.72818C61.3076 2.87374 61.3076 3.01931 61.3076 3.09209H38.8081V2.94653Z" fill="#6795D6"/>
<path id="Vector_8" d="M64.3186 29.949L61.893 28.9301L37.3862 29.294C36.7171 29.5851 35.6297 30.0218 34.3751 30.5313C30.9458 31.987 27.0983 33.5882 22.749 35.4806C22.749 35.4806 14.134 39.2653 8.44639 42.4678C7.52634 42.9773 6.68993 43.5595 6.18808 43.9234C5.60259 44.2874 5.18439 44.6513 4.76618 45.088C4.5989 45.2335 4.26434 45.5975 3.84613 46.1069C3.59521 46.4709 3.42793 46.6892 3.09336 47.1987C2.84244 47.5626 2.59151 48.0721 2.17331 48.6544C2.00603 48.9455 1.7551 49.3822 1.50418 49.9645C1.25326 50.5467 1.08598 51.0562 1.00233 51.129C0.835052 51.5657 0.751411 51.9296 0.751411 52.0024C0.66777 52.148 0.66777 52.3663 0.584129 52.6575C0.584129 52.7302 0.584129 52.803 0.500488 52.9486C0.500488 53.0942 0.500488 53.1669 0.500488 53.2397C0.584129 53.1669 0.584129 53.0214 0.751411 52.9486C0.835053 52.803 1.00233 52.7302 1.16962 52.5847C1.42054 52.3663 1.7551 52.2935 1.83875 52.2208C2.08967 52.148 2.25695 52.0752 2.42423 52.0752C2.50787 52.0752 2.59151 52.0752 2.67516 52.0752H2.84244C4.43162 52.0752 5.93716 52.0752 7.52634 52.0752C24.5055 52.0752 41.4846 52.0752 58.3801 52.0752C70.1735 52.0752 82.0505 52.0752 93.8439 52.0752C94.0948 52.0752 94.3458 52.0752 94.5967 52.0752C95.0149 52.0752 95.4331 52.0752 95.9349 52.0752C96.2695 52.0752 96.5204 52.0752 96.855 52.0752C97.1896 52.0752 97.1896 52.0752 97.1896 52.0752C97.4405 52.0752 97.8587 52.0752 98.2769 52.2208C98.3605 52.2208 98.946 52.4391 99.3642 52.8758C99.6151 53.0942 99.6988 53.3125 99.7824 53.4581C99.8661 53.6764 99.9497 53.822 99.9497 53.9676C99.9497 54.0403 99.9497 54.1131 99.9497 54.1859C99.9497 53.6036 99.7824 52.7302 99.5315 51.7113C98.6951 48.6544 97.0223 46.6164 96.6041 46.2525C95.7677 45.3063 94.9312 44.6513 94.3458 44.2146C92.3384 42.6133 90.4146 41.8127 89.6619 41.4488C82.7197 38.3191 86.4835 39.702 78.7885 36.354C75.4429 34.8983 71.679 33.3698 64.4023 30.3129C63.5658 29.949 62.4785 29.5123 61.6421 29.1484C53.4453 29.294 45.3321 29.3668 37.1353 29.5123" fill="#6795D6"/>
<path id="Vector_9" d="M1.3369 52.512C1.42054 52.512 1.42054 52.4392 1.50418 52.3664C1.67146 52.2936 1.7551 52.2208 1.83875 52.148C2.08967 52.0753 2.34059 52.0025 2.42423 52.0025C2.67516 51.9297 2.84244 51.9297 2.92608 51.9297C3.67885 51.9297 4.26434 51.9297 5.01711 51.9297C5.10075 51.9297 5.18439 51.9297 5.26803 51.9297C5.51895 51.9297 5.76988 51.9297 6.10444 51.9297C6.439 51.9297 6.60629 51.9297 6.94085 51.9297C7.19177 51.9297 7.52634 51.9297 7.77726 51.9297C8.02818 51.9297 8.27911 51.9297 8.44639 51.9297C8.61367 51.9297 8.86459 51.9297 9.03188 51.9297C11.7084 51.9297 14.3849 51.9297 17.0614 51.9297C19.1524 51.9297 21.2435 51.9297 23.2509 51.9297C33.0369 51.9297 42.7392 51.9297 52.5252 51.9297C64.1513 51.9297 75.7774 51.9297 87.4872 51.9297C89.9964 51.9297 92.5057 51.9297 95.0149 51.9297H95.5167C95.684 51.9297 96.1022 51.9297 96.1022 51.9297C96.3531 51.9297 96.6041 51.9297 96.9386 51.9297C96.9386 51.9297 97.1896 51.9297 97.4405 51.9297C97.5241 51.9297 97.6078 51.9297 97.6078 51.9297C97.6914 51.9297 97.8587 51.9297 97.9423 51.9297C98.026 51.9297 98.1096 51.9297 98.2769 52.0025C98.3605 52.0025 98.4442 52.0753 98.6115 52.0753C98.6951 52.0753 98.7787 52.148 98.946 52.2208C99.0297 52.2936 99.1133 52.2936 99.2806 52.4392C99.4479 52.5847 99.5315 52.6575 99.6151 52.7303C99.6988 52.8031 99.7824 52.8759 99.7824 52.9487C99.8661 53.0942 99.9497 53.2398 100.033 53.3126C100.033 53.3854 100.117 53.4581 100.117 53.6037C100.117 53.6765 100.201 53.7493 100.201 53.8948C100.201 54.1132 100.201 54.2588 100.201 54.3315C100.117 55.2049 100.201 56.0783 100.201 56.879C100.201 58.4802 100.201 59.3536 100.201 59.4264C100.201 59.4264 100.201 59.5719 100.201 59.7175C100.201 59.9359 100.117 60.0814 100.117 60.0814C100.117 60.1542 100.033 60.2998 99.9497 60.5181C99.6988 60.9548 99.2806 61.246 99.1969 61.3187C99.0297 61.4643 98.7787 61.6099 98.3605 61.6827C98.1096 61.7554 97.9423 61.7555 97.775 61.7555C97.5241 61.7555 97.4405 61.7555 97.0223 61.7555C96.7713 61.7555 96.5204 61.7555 96.3531 61.7555C95.9349 61.7555 95.5167 61.7555 95.0985 61.7555C94.4294 61.7555 93.6766 61.7555 93.0075 61.7555C90.9165 61.7555 88.8254 61.7555 86.7344 61.7555C85.3962 61.7555 84.0579 61.7555 82.636 61.7555C78.454 61.7555 74.2719 61.7555 70.0062 61.7555C62.0603 61.7555 54.1144 61.7555 46.1685 61.7555C44.412 61.7555 42.6556 61.7555 40.8991 61.7555C39.9791 61.7555 38.9754 61.7555 38.0553 61.7555C30.9458 61.7555 23.92 61.7555 16.8105 61.7555C12.7121 61.7555 8.69731 61.6099 4.5989 61.7555C4.51526 61.7555 4.01341 61.7555 2.84244 61.7555C2.84244 61.7555 2.67516 61.7555 2.59151 61.7555C2.59151 61.7555 2.50787 61.7555 2.42423 61.7555C2.34059 61.901 2.08967 61.7555 2.08967 61.7555C1.7551 61.6099 1.50418 61.4643 1.42054 61.3915C1.16962 61.1732 1.00233 60.9548 0.918694 60.882C0.835053 60.7365 0.66777 60.4453 0.584129 60.1542C0.584129 60.0086 0.500488 59.8631 0.500488 59.7903C0.500488 59.4992 0.500488 59.2808 0.500488 59.208C0.500488 58.6985 0.500488 58.1891 0.500488 57.6796C0.500488 56.879 0.500488 56.0056 0.500488 55.2049C0.500488 55.1322 0.500488 54.841 0.500488 54.841C0.500488 54.6227 0.500488 54.6227 0.500488 54.4771C0.500488 54.2588 0.500488 54.1132 0.500488 54.0404C0.500488 53.8221 0.584129 53.6037 0.584129 53.6037C0.584129 53.4581 0.66777 53.3126 0.835053 53.0214C0.918694 52.9487 1.00233 52.7303 1.25326 52.5847L1.3369 52.512Z" fill="#A9C4FF"/>
<path id="Vector_10" d="M2.75909 63.7933C2.84273 63.7933 2.84273 63.7933 2.75909 63.7933C2.92637 63.7933 3.09365 63.7933 3.09365 63.7933C3.34457 63.7933 3.5955 63.7933 3.84642 63.7933C3.84642 63.7933 3.84642 63.7933 4.26463 63.7933C4.68283 63.7933 5.18468 63.7933 5.60288 63.7933C6.02109 63.7933 6.43929 63.7933 6.8575 63.7933C7.2757 63.7933 7.69391 63.7933 8.11211 63.7933C8.36304 63.7933 8.6976 63.7933 8.94852 63.7933C9.78493 63.7933 10.6213 63.7933 11.4578 63.7933C12.3778 63.7933 13.2979 63.7933 14.2179 63.7933C16.2253 63.7933 18.2327 63.7933 20.1564 63.7933C21.4947 63.7933 22.8329 63.7933 24.1712 63.7933C25.5931 63.7933 27.015 63.7933 28.4369 63.7933C29.6079 63.7933 30.7788 63.7933 32.0335 63.7933C33.2044 63.7933 34.3754 63.7933 35.63 63.7933C36.8846 63.7933 37.972 63.7933 39.2266 63.7933C40.6485 63.7933 42.0704 63.7933 43.4923 63.7933C44.4123 63.7933 45.416 63.7933 46.3361 63.7933C47.758 63.7933 49.1799 63.7933 50.6018 63.7933C52.0237 63.7933 53.4456 63.7933 54.8675 63.7933C56.2894 63.7933 57.7113 63.7933 59.1332 63.7933C60.0532 63.7933 60.9733 63.7933 61.8097 63.7933C63.2316 63.7933 64.6535 63.7933 66.0754 63.7933C66.9954 63.7933 67.9991 63.7933 68.9192 63.7933C69.421 63.7933 69.9229 63.7933 70.5083 63.7933C72.0975 63.7933 73.6867 63.7933 75.2759 63.7933C76.4469 63.7933 77.6178 63.7933 78.8724 63.7933C79.6252 63.7933 80.4616 63.7933 81.2144 63.7933C82.6363 63.7933 83.9745 63.7933 85.3964 63.7933C85.4801 63.7933 88.993 63.7933 88.993 63.7933C90.6658 63.7933 92.3387 63.8661 94.0115 63.7933C94.0115 63.7933 95.6843 63.7206 97.7753 63.7933C97.859 63.7933 97.859 63.7933 97.859 63.7933C97.859 63.7933 97.9426 63.7933 98.0262 63.7933C98.1935 63.7933 98.3608 63.8661 98.3608 63.8661C98.4445 63.8661 98.5281 63.9389 98.6954 63.9389C98.779 63.9389 98.8627 64.0117 98.9463 64.0845C99.0299 64.0845 99.1136 64.1573 99.1972 64.23C99.2809 64.3028 99.3645 64.3756 99.5318 64.4484C99.6991 64.6667 99.8663 64.8123 99.95 64.8851C100.034 65.0307 100.117 65.1762 100.117 65.249C100.201 65.3946 100.201 65.5401 100.201 65.6857C100.201 65.8313 100.201 65.9041 100.201 66.1224C100.201 66.1952 100.201 66.1952 100.201 66.4863C100.201 66.4863 100.201 66.6319 100.201 66.8502C100.201 66.9958 100.201 67.1414 100.201 67.2869C100.201 67.3597 100.201 67.4325 100.201 67.5053C100.201 67.7236 100.201 67.942 100.201 68.1603C100.201 68.3787 100.201 68.5243 100.201 68.7426C100.201 69.0337 100.201 69.9799 100.201 69.9799C100.201 70.4166 100.201 70.7805 100.201 71.2172C100.201 71.2172 100.201 71.3628 100.201 71.5084C100.201 71.5812 100.201 71.7267 100.201 71.8723C100.201 71.9451 100.117 72.1634 100.034 72.3818C99.95 72.5273 99.8663 72.6729 99.6991 72.8913C99.5318 73.0368 99.3645 73.1824 99.2809 73.2552C99.0299 73.4007 98.779 73.5463 98.6117 73.6191C98.6117 73.6191 98.2772 73.7647 97.859 73.7647C97.7753 73.7647 97.6917 73.7647 97.6917 73.7647C97.5244 73.7647 97.3571 73.7647 97.2735 73.7647C97.1062 73.7647 96.9389 73.7647 96.7716 73.7647C96.7716 73.7647 96.7716 73.7647 95.6843 73.7647C95.3497 73.7647 94.9315 73.7647 94.597 73.7647C90.3313 73.7647 86.0656 73.7647 81.7999 73.7647C78.8724 73.7647 75.8614 73.7647 72.9339 73.7647C72.8503 73.7647 45.5833 73.7647 45.5833 73.7647C27.935 73.7647 3.93006 73.7647 2.84273 73.7647C2.84273 73.7647 2.75909 73.7647 2.5918 73.7647C2.42452 73.7647 2.34088 73.6919 2.34088 73.6919C2.08996 73.6191 1.92268 73.5463 1.83904 73.5463C1.58811 73.4735 1.42083 73.328 1.25355 73.1824C1.08627 73.0368 0.918983 72.8913 0.751701 72.6729C0.584419 72.5273 0.584419 72.309 0.500778 72.2362C0.500778 72.2362 0.417137 72.0179 0.333496 71.7267C0.333496 71.6539 0.333496 71.5812 0.333496 71.5812C0.333496 71.5084 0.333496 71.4356 0.333496 71.4356C0.333496 71.29 0.333496 71.2172 0.333496 71.0717C0.333496 70.4166 0.333496 69.7616 0.333496 69.1065C0.333496 68.4515 0.333496 67.7236 0.333496 67.0686C0.333496 66.9958 0.333496 66.923 0.333496 66.8502C0.333496 66.7047 0.333496 66.4863 0.333496 66.3408C0.333496 66.3408 0.333496 66.268 0.333496 66.1952C0.333496 66.1224 0.333496 66.1224 0.333496 66.0496C0.333496 65.9768 0.333496 65.9041 0.333496 65.8313C0.333496 65.7585 0.333496 65.6857 0.417137 65.6129C0.500778 65.4674 0.500778 65.3218 0.584419 65.249C0.66806 65.1762 0.66806 65.0307 0.835342 64.8851C1.08627 64.594 1.25355 64.4484 1.33719 64.3756C1.42083 64.3028 1.67175 64.1573 1.92268 64.0117C2.08996 63.9389 2.1736 63.9389 2.25724 63.9389C2.34088 63.9389 2.42452 63.8661 2.5918 63.8661C2.67545 63.8661 2.75909 63.8661 2.75909 63.7933Z" fill="#A9C4FF"/>
<path id="Vector_11" d="M2.75909 75.3662C2.84273 75.3662 2.84273 75.3662 2.75909 75.3662C2.92637 75.3662 3.09365 75.3662 3.09365 75.3662C3.34457 75.3662 3.5955 75.3662 3.84642 75.3662C3.84642 75.3662 3.84642 75.3662 4.26463 75.3662C4.68283 75.3662 5.18468 75.3662 5.60288 75.3662C6.02109 75.3662 6.43929 75.3662 6.8575 75.3662C7.2757 75.3662 7.69391 75.3662 8.11211 75.3662C8.36304 75.3662 8.6976 75.3662 8.94852 75.3662C9.78493 75.3662 10.6213 75.3662 11.4578 75.3662C12.3778 75.3662 13.2979 75.3662 14.2179 75.3662C16.2253 75.3662 18.2327 75.3662 20.1564 75.3662C21.4947 75.3662 22.8329 75.3662 24.1712 75.3662C25.5931 75.3662 27.015 75.3662 28.4369 75.3662C29.6079 75.3662 30.7788 75.3662 32.0335 75.3662C33.2044 75.3662 34.3754 75.3662 35.63 75.3662C36.8846 75.3662 37.972 75.3662 39.2266 75.3662C40.6485 75.3662 42.0704 75.3662 43.4923 75.3662C44.4123 75.3662 45.416 75.3662 46.3361 75.3662C47.758 75.3662 49.1799 75.3662 50.6018 75.3662C52.0237 75.3662 53.4456 75.3662 54.8675 75.3662C56.2894 75.3662 57.7113 75.3662 59.1332 75.3662C60.0532 75.3662 60.9733 75.3662 61.8097 75.3662C63.2316 75.3662 64.6535 75.3662 66.0754 75.3662C66.9954 75.3662 67.9991 75.3662 68.9192 75.3662C69.421 75.3662 69.9229 75.3662 70.5083 75.3662C72.0975 75.3662 73.6867 75.3662 75.2759 75.3662C76.4469 75.3662 77.6178 75.3662 78.8724 75.3662C79.6252 75.3662 80.4616 75.3662 81.2144 75.3662C82.6363 75.3662 83.9745 75.3662 85.3964 75.3662C85.4801 75.3662 88.993 75.3662 88.993 75.3662C90.6658 75.3662 92.3387 75.439 94.0115 75.3662C94.0115 75.3662 95.6843 75.2934 97.7753 75.3662C97.859 75.3662 97.859 75.3662 97.859 75.3662C97.859 75.3662 97.9426 75.3662 98.0262 75.3662C98.1935 75.3662 98.3608 75.439 98.3608 75.439C98.4445 75.439 98.5281 75.5118 98.6954 75.5118C98.779 75.5118 98.8627 75.5846 98.9463 75.6573C99.0299 75.6573 99.1136 75.7301 99.1972 75.8029C99.2809 75.8757 99.3645 75.9485 99.5318 76.0213C99.6991 76.2396 99.8663 76.3852 99.95 76.458C100.034 76.6035 100.117 76.7491 100.117 76.8219C100.201 76.9674 100.201 77.113 100.201 77.2586C100.201 77.4041 100.201 77.4769 100.201 77.6953C100.201 77.7681 100.201 77.7681 100.201 78.0592C100.201 78.0592 100.201 78.2048 100.201 78.4231C100.201 78.5687 100.201 78.7143 100.201 78.8598C100.201 78.9326 100.201 79.0054 100.201 79.0782C100.201 79.2965 100.201 79.5149 100.201 79.7332C100.201 79.9516 100.201 80.0971 100.201 80.3155C100.201 80.6066 100.201 81.5528 100.201 81.5528C100.201 81.9895 100.201 82.3534 100.201 82.7901C100.201 82.7901 100.201 82.9357 100.201 83.0813C100.201 83.154 100.201 83.2996 100.201 83.4452C100.201 83.518 100.117 83.7363 100.034 83.9547C99.95 84.1002 99.8663 84.2458 99.6991 84.4641C99.5318 84.6097 99.3645 84.7553 99.2809 84.8281C99.0299 84.9736 98.779 85.1192 98.6117 85.192C98.6117 85.192 98.2772 85.3375 97.859 85.3375C97.7753 85.3375 97.6917 85.3375 97.6917 85.3375C97.5244 85.3375 97.3571 85.3375 97.2735 85.3375C97.1062 85.3375 96.9389 85.3375 96.7716 85.3375C96.7716 85.3375 96.7716 85.3375 95.6843 85.3375C95.3497 85.3375 94.9315 85.3375 94.597 85.3375C90.3313 85.3375 86.0656 85.3375 81.7999 85.3375C78.8724 85.3375 75.8614 85.3375 72.9339 85.3375C72.8503 85.3375 45.5833 85.3375 45.5833 85.3375C27.935 85.3375 3.93006 85.3375 2.84273 85.3375C2.84273 85.3375 2.75909 85.3375 2.5918 85.3375C2.42452 85.3375 2.34088 85.2648 2.34088 85.2648C2.08996 85.192 1.92268 85.1192 1.83904 85.1192C1.58811 85.0464 1.42083 84.9008 1.25355 84.7553C1.08627 84.6097 0.918983 84.4641 0.751701 84.2458C0.584419 84.1002 0.584419 83.8819 0.500778 83.8091C0.500778 83.8091 0.417137 83.5907 0.333496 83.2996C0.333496 83.2268 0.333496 83.154 0.333496 83.154C0.333496 83.0813 0.333496 83.0085 0.333496 83.0085C0.333496 82.8629 0.333496 82.7901 0.333496 82.6446C0.333496 81.9895 0.333496 81.3345 0.333496 80.6794C0.333496 80.0244 0.333496 79.2965 0.333496 78.6415C0.333496 78.5687 0.333496 78.4959 0.333496 78.4231C0.333496 78.2775 0.333496 78.0592 0.333496 77.9136C0.333496 77.9136 0.333496 77.8408 0.333496 77.7681C0.333496 77.6953 0.333496 77.6953 0.333496 77.6225C0.333496 77.5497 0.333496 77.4769 0.333496 77.4041C0.333496 77.3314 0.333496 77.2586 0.417137 77.1858C0.500778 77.0402 0.500778 76.8947 0.584419 76.8219C0.66806 76.7491 0.66806 76.6035 0.835342 76.458C1.00262 76.2396 1.16991 76.094 1.33719 76.0213C1.42083 75.9485 1.67175 75.8029 1.92268 75.6573C2.08996 75.5846 2.1736 75.5846 2.25724 75.5846C2.34088 75.5846 2.42452 75.5118 2.5918 75.5118C2.67545 75.3662 2.75909 75.3662 2.75909 75.3662Z" fill="#A9C4FF"/>
<path id="Vector_12" d="M0.668945 177.918C0.668945 177.991 0.668945 177.991 0.752586 178.063C0.836227 178.209 0.836227 178.282 0.919868 178.427C1.00351 178.5 1.00351 178.646 1.00351 178.646C1.00351 178.718 1.17079 178.937 1.33807 179.228C1.50536 179.519 1.75628 179.737 1.83992 179.81C2.0072 180.028 2.17448 180.174 2.25813 180.247C2.42541 180.392 2.75997 180.756 3.34546 181.047C4.09823 181.484 4.76736 181.702 5.10192 181.775C5.68741 181.921 6.18925 181.994 6.35654 181.994C6.52382 181.994 6.6911 181.994 7.02567 181.994C7.61115 181.994 8.113 181.994 8.113 181.994C12.546 181.921 16.979 181.994 21.4119 181.994C27.685 181.994 33.8744 181.994 40.1475 181.994C48.1771 181.994 56.123 181.994 64.1525 181.994C71.4293 181.994 78.706 181.994 85.9828 181.994C88.6593 181.994 91.2522 181.994 93.9287 181.994C94.0124 181.994 94.096 181.994 94.1796 181.994C94.3469 181.994 94.5142 181.994 94.6815 181.994C95.0997 181.921 95.3506 181.921 95.7688 181.848C96.6889 181.63 97.358 181.266 97.5253 181.12C97.8598 180.902 98.3617 180.611 98.8635 180.101C99.2817 179.665 99.6163 179.228 99.7836 178.864C100.035 178.5 100.118 178.136 100.202 177.845C99.9509 177.845 99.7836 177.845 99.5327 177.845C96.3543 177.845 93.0923 177.845 89.9139 177.845C61.0578 177.845 32.118 177.845 3.26182 177.845C2.25813 177.918 1.42171 177.918 0.668945 177.918Z" fill="#6795D6"/>
<path id="Vector_13" d="M94.8478 88.4672C94.8478 106.154 94.8478 123.913 94.8478 141.599H94.7641C94.5132 141.526 94.3459 141.526 94.2623 141.526C93.8441 141.526 93.3422 141.526 92.924 141.526C74.1884 142.4 55.4528 141.526 36.7172 141.526C36.3827 141.526 34.6262 141.526 34.208 141.526L34.2916 141.162C34.3753 141.162 34.4589 141.162 34.5426 141.162C34.7099 141.162 35.5463 141.017 36.4663 140.653C37.9719 139.998 38.8919 138.906 38.9755 138.688C39.2265 138.324 39.812 137.523 39.9792 136.431C39.9792 136.213 39.9792 135.995 40.0629 135.485C40.0629 134.612 40.0629 133.957 40.0629 133.593C40.0629 133.593 40.0629 132.647 40.0629 130.827C40.0629 129.954 40.0629 129.008 40.0629 128.134C40.0629 127.479 40.0629 126.897 40.0629 126.242C40.0629 125.441 40.0629 124.568 40.0629 123.767C40.0629 121.074 40.0629 118.381 40.0629 115.688C40.0629 115.397 40.0629 108.264 40.0629 108.264C40.0629 102.806 40.0629 100.913 40.0629 100.185C40.0629 97.929 40.0629 94.7265 40.0629 90.7234C40.0629 90.6507 40.0629 90.5779 40.0629 90.5051C39.9792 89.9956 39.8956 89.6317 39.7283 89.2678C39.6447 89.0494 39.561 88.8311 39.3938 88.5399C39.561 88.5399 39.7283 88.5399 39.8956 88.5399C41.1502 88.5399 42.4885 88.5399 43.7431 88.5399C45.7505 88.5399 47.7579 88.5399 49.6816 88.5399C64.1515 88.5399 78.6214 88.5399 93.0913 88.5399H94.8478V88.4672Z" fill="#A9C4FF"/>
<path id="Vector_14" d="M94.8476 85.3372C94.8476 86.3562 94.8476 87.4479 94.8476 88.4669H90.0801H40.9828H39.2263C39.3099 88.6124 39.3936 88.758 39.4772 88.9036C39.6445 89.3403 39.8118 89.7042 39.8118 89.9225C39.8954 90.1409 39.8954 90.432 39.8954 90.7959C39.8954 91.0143 39.8954 91.451 39.8954 92.0333C39.8954 94.0712 39.8954 95.6724 39.8954 96.1091C39.8954 96.1091 39.8954 96.1091 39.8954 106.954C39.8954 110.084 39.8954 113.213 39.8954 116.343C39.8954 117.871 39.8954 119.473 39.8954 121.001C39.8954 121.874 39.8954 125.223 39.8954 125.223C39.8954 130.608 39.8954 130.39 39.8954 130.681C39.8954 131.991 39.8954 133.229 39.8954 134.539C39.8954 134.612 39.8954 135.194 39.8118 135.922C39.8118 136.213 39.7281 136.431 39.6445 136.722C39.4772 137.377 39.2263 137.887 39.059 138.032C38.3899 139.124 37.4698 139.706 37.2189 139.925C36.8007 140.216 35.8807 140.653 34.7097 140.871C34.4588 140.944 34.2078 140.944 34.0406 140.944C33.8733 140.944 33.5387 140.944 33.2041 140.944C31.8659 140.944 31.0295 140.944 29.7749 140.944C29.1894 140.944 28.353 140.944 27.3493 140.944C27.4329 140.944 27.5165 140.944 27.6002 140.944C28.102 140.871 28.5202 140.798 28.8548 140.725C29.1894 140.653 29.5239 140.507 30.0258 140.361C30.3603 140.216 30.9458 139.925 31.5313 139.488C31.7822 139.27 32.0332 139.051 32.2004 138.906C32.4514 138.687 32.6187 138.396 32.7023 138.251C32.7023 138.178 33.0369 137.741 33.2878 137.159C33.5387 136.431 33.6223 135.703 33.6223 134.903C33.6223 133.665 33.6223 132.719 33.6223 132.355C33.6223 132.355 33.6223 132.355 33.6223 129.371C33.6223 128.498 33.6223 127.624 33.6223 126.751C33.6223 125.586 33.6223 124.495 33.6223 123.33C33.6223 122.311 33.6223 121.219 33.6223 120.2C33.6223 118.745 33.6223 117.216 33.6223 115.761C33.6223 113.796 33.6223 111.758 33.6223 109.792C33.6223 108.773 33.6223 107.754 33.6223 106.663C33.6223 105.425 33.6223 104.188 33.6223 102.951C33.6223 101.058 33.6223 99.2388 33.6223 97.3465C33.6223 93.6345 33.6223 91.7421 33.6223 91.7421C33.6223 91.7421 33.6223 91.3782 33.6223 90.9415C33.6223 90.6504 33.6223 90.432 33.5387 90.2137C33.5387 90.0681 33.4551 89.777 33.3714 89.4858C33.2878 89.2675 33.1205 88.9036 32.9532 88.4669C32.7859 88.1757 32.535 87.8118 32.1168 87.3751C31.5313 86.7929 30.9458 86.3562 30.5276 86.2106C29.5239 85.7011 28.5202 85.4828 27.8511 85.41C27.6838 85.41 27.3493 85.41 27.0147 85.41C26.5129 85.41 26.1783 85.41 26.011 85.41C25.2582 85.41 23.7527 85.41 22.4144 85.41C21.9962 85.41 21.1598 85.41 20.0725 85.41C19.8216 85.41 19.6543 85.41 19.487 85.41C18.6506 85.4828 17.9815 85.7011 17.5633 85.8467C17.2287 85.9922 16.4759 86.2834 15.8068 86.8656C15.2213 87.3023 14.8868 87.739 14.8031 87.9574C14.7195 88.103 14.5522 88.2485 14.5522 88.3941H13.2976H5.85352V85.2644H33.5387H62.3949L94.8476 85.3372Z" fill="#6795D6"/>
<path id="Vector_15" d="M5.85352 88.4672C8.69731 88.4672 11.6247 88.4672 14.4685 88.4672C14.4685 88.4672 14.3849 88.5399 14.3849 88.6127C14.3013 88.7583 13.8831 89.4133 13.7994 90.3595C13.7994 90.5051 13.7994 90.6507 13.7994 90.7234C13.7994 91.0146 13.7994 91.3057 13.7994 91.5241C13.7994 91.8152 13.7994 92.1063 13.7994 92.3247C13.7994 92.3247 13.7994 92.3247 13.7994 95.9639C13.7994 97.4195 13.7994 98.8752 13.7994 100.331C13.7994 101.35 13.7994 102.369 13.7994 103.461C13.7994 104.552 13.7994 105.498 13.7994 106.59C13.7994 107.391 13.7994 108.264 13.7994 109.065C13.7994 110.084 13.7994 111.103 13.7994 112.195C13.7994 114.087 13.7994 115.907 13.7994 117.799C13.7994 119.255 13.7994 120.71 13.7994 122.166C13.7994 124.422 13.7994 126.751 13.7994 129.008C13.7994 130.682 13.7994 132.356 13.7994 133.957C13.7994 134.539 13.7994 135.049 13.7994 135.631V135.995L13.8831 136.577L13.9667 137.087L14.0503 137.378L14.2176 137.742L14.4685 138.178L14.8031 138.688L15.2213 139.124L15.6395 139.488L16.0577 139.852L16.6432 140.216C16.7269 140.289 16.8105 140.289 16.9778 140.362C17.2287 140.507 17.7305 140.726 18.3997 140.944C18.3997 140.944 18.9852 141.09 19.5706 141.162C20.5743 141.235 26.3456 141.235 34.2915 141.162L34.2078 141.526C33.9569 141.526 32.1168 141.526 31.8659 141.526C21.4108 141.526 19.0688 141.526 14.9704 141.526C12.8794 141.526 9.701 141.526 5.93716 141.599V132.137V114.378V100.04L5.85352 88.4672Z" fill="#A9C4FF"/>
<path id="Vector_16" d="M0.416992 146.767C0.416992 146.621 0.416992 146.476 0.500633 146.257C0.500633 146.184 0.584274 145.748 0.835197 145.238C1.16976 144.438 1.67161 143.855 1.83889 143.71C2.59166 142.909 3.42807 142.472 3.76263 142.254C4.59904 141.89 5.35181 141.672 5.85366 141.599H8.94838H13.8832H26.0948H47.256L75.2757 141.963L92.4221 141.599C92.924 141.526 93.6768 141.526 94.5968 141.599C95.015 141.672 95.8514 141.745 96.6878 142.109C98.277 142.764 99.1134 143.855 99.3644 144.146C100.117 145.238 100.284 146.184 100.284 146.767H84.3926H17.0616H0.416992Z" fill="#6795D6"/>
<path id="Vector_17" d="M100.284 147.13C100.284 159.868 100.284 173.405 100.284 173.405C100.284 173.624 100.284 175.152 100.284 175.443C100.284 175.443 100.284 175.807 100.284 176.389C100.284 176.826 100.284 177.044 100.201 177.336C100.117 177.554 100.117 177.772 100.034 177.918H93.9277H87.4037H10.0358H0.66798C0.66798 177.845 0.584339 177.772 0.584339 177.7C0.500698 177.336 0.417057 177.044 0.417057 176.899C0.417057 176.317 0.417057 175.734 0.417057 175.516C0.417057 175.007 0.417057 174.57 0.417057 174.06C0.417057 174.06 0.417057 174.06 0.417057 172.386C0.417057 171.149 0.417057 169.912 0.417057 168.674C0.417057 167.219 0.417057 165.763 0.417057 164.307C0.417057 164.089 0.417057 163.871 0.417057 163.725C0.417057 162.706 0.417057 161.687 0.417057 160.595C0.417057 159.795 0.417057 158.921 0.417057 158.121C0.417057 156.883 0.417057 155.646 0.417057 154.409C0.417057 153.608 0.417057 152.735 0.417057 151.934C0.417057 151.861 0.417057 150.697 0.417057 150.697C0.417057 149.896 0.333416 148.659 0.417057 147.058V146.912H1.08619H96.3533H100.201V146.985V147.058C100.201 146.912 100.284 146.985 100.284 147.13Z" fill="#A9C4FF"/>
</g>
</svg>
