<svg width="167" height="174" viewBox="0 0 167 174" fill="none" xmlns="http://www.w3.org/2000/svg">
<g id="Group">
<path id="Vector" d="M2.24394 41.6066L9.60449 37.9744L16.0316 47.4892L8.67103 51.1214L2.24394 41.6066Z" fill="#6795D6"/>
<path id="Vector_2" d="M9.51503 36.4749L16.665 47.0649C16.7854 47.0055 16.9057 46.946 17.1465 46.8272C19.5081 45.8083 21.5831 45.078 23.3944 44.5514C24.1912 44.3052 25.0853 44.0843 26.3177 43.7701C27.3695 43.545 28.639 43.2859 30.2983 43.1285C31.1466 43.0774 31.9577 42.9712 33.038 43.0261C33.9608 43.0854 35.0784 43.1955 36.3592 43.6662C37.4452 44.0861 38.1558 44.5442 38.6715 44.9515C39.1128 45.2484 40.0697 45.9526 41.0094 47.1067C41.1583 47.3273 41.8 48.04 42.3127 49.0371C42.8484 49.9493 43.1519 50.7555 43.1519 50.7555C43.3152 51.1162 43.4412 51.4217 43.6044 51.7823C43.6417 51.8375 43.7677 52.143 43.9911 52.4739C44.1401 52.6946 44.2145 52.8049 44.3492 52.8855C44.3864 52.9406 44.5583 53.0764 44.8506 53.1527C45.2776 53.3096 45.6989 53.1016 45.8565 53.0973C46.7736 52.7916 47.728 52.5411 48.6451 52.2354C49.7428 51.8405 49.502 51.9594 50.9007 51.4159C51.299 51.2928 51.9382 51.0508 52.818 50.6899C54.2167 50.1465 55.2771 49.6965 57.2547 48.9408C59.0746 48.1893 58.6533 48.3973 59.5332 48.0365C61.1124 47.4039 61.4506 47.3105 62.1126 46.9836C63.0155 46.5378 63.497 46.3001 64.4829 45.7398C64.4829 45.7398 65.2282 45.2983 66.005 44.5471C66.1483 44.4028 66.3748 44.1439 66.4064 43.8341C66.415 43.6092 66.4237 43.3843 66.3492 43.274L66.2747 43.1637C66.2747 43.1637 66.2747 43.1637 66.2375 43.1085C66.163 42.9982 66.1258 42.9431 66.0885 42.8879C66.0141 42.7776 65.9396 42.6673 65.8651 42.557C65.7534 42.3915 65.6789 42.2812 65.6044 42.1709C65.4555 41.9503 65.381 41.84 65.2693 41.6745C65.1948 41.5642 65.1576 41.509 65.0831 41.3987C65.0086 41.2884 64.9341 41.1781 64.8224 41.0126C64.7479 40.9023 64.6362 40.7368 64.4872 40.5162C64.4128 40.4059 64.2638 40.1853 64.1149 39.9646C64.0404 39.8543 63.8914 39.6337 63.7425 39.4131C63.668 39.3028 63.519 39.0821 63.3701 38.8615C63.1839 38.5857 63.0951 38.3354 63.0579 38.2802C62.9834 38.1699 62.8717 38.0044 62.7457 37.6989C62.6197 37.3934 62.4707 37.1728 62.4335 37.1177C62.3074 36.8122 62.1585 36.5915 62.1814 36.5067C62.1299 36.3115 62.0182 36.146 62.0182 36.146C61.9294 35.8957 61.8779 35.7005 61.8779 35.7005C61.8636 35.5605 61.7748 35.3101 61.709 34.9749C61.6575 34.7797 61.6289 34.4997 61.586 34.0796C61.5947 33.8547 61.5891 33.4897 61.6064 33.0399C61.6523 32.8702 61.6609 32.6453 61.8502 32.3313C61.9563 32.1318 62.0853 31.8475 62.3347 31.5037C62.6673 31.0453 63.0284 30.8671 63.4354 30.519C63.4956 30.4893 63.9026 30.1413 64.7396 29.3603C66.1642 28.1422 67.2823 26.7077 67.3654 26.5931C68.1279 25.7018 68.8532 24.7554 69.4382 23.3635C69.9085 22.3959 70.3415 21.3731 70.3792 19.8837C70.4168 18.3943 69.9271 17.3123 69.7036 16.9814C69.4144 16.3152 69.0277 15.6236 68.2426 15.0552C67.3229 14.4061 66.3027 14.3215 65.4774 14.2877C62.1991 14.0677 59.2615 14.709 57.8343 14.9724C54.8968 15.6137 53.3492 15.9366 51.899 16.2848C51.0651 16.4759 47.8638 17.321 43.6164 18.7561C41.722 19.3973 38.3315 20.5564 34.2101 22.297C30.3983 23.6641 27.6898 25.0013 26.8472 25.4174C23.6572 26.9923 21.3843 28.2615 20.8798 28.5841C19.6531 29.2633 17.8617 30.2948 15.5573 31.8738C13.5165 33.2491 12.1378 34.2975 11.6104 34.7049C10.9626 35.1718 10.4724 35.6345 10.1256 35.9528L9.51503 36.4749Z" fill="#6795D6"/>
<path id="Vector_3" d="M6.24144 47.6929L13.7188 43.9988L16.0319 47.4271L8.55459 51.1212L6.24144 47.6929Z" fill="#A9C4FF"/>
<path id="Vector_4" d="M28.2368 43.6813C27.0998 43.8786 26.1187 44.0718 25.2936 44.2607C23.9184 44.5756 22.8551 44.882 22.1632 45.1505C21.5536 45.3059 21.0403 45.4863 20.683 45.6626C20.8304 45.8806 21.0146 46.1532 21.2952 46.451C21.59 46.8871 22.2759 47.7846 23.0128 48.875C23.418 49.4747 23.7496 49.9654 23.897 50.1835C23.9707 50.2925 24.0075 50.347 24.0444 50.4015C24.3563 50.3931 24.6681 50.3846 25.0396 50.3468C27.03 50.2374 28.9608 50.1573 30.869 50.1611C30.7811 49.9136 30.6565 49.6117 30.5914 49.2803C30.3647 48.5925 30.1154 47.9885 29.9029 47.4391C29.4779 46.3403 29.1039 45.4344 28.9055 45.0233C28.7809 44.7214 28.6562 44.4194 28.5457 44.2558L28.2368 43.6813Z" fill="#A9C4FF"/>
<path id="Vector_5" d="M30.3615 49.9924C28.6258 49.9844 26.8676 50.0597 25.0504 50.1641C24.587 50.1767 24.0645 50.2185 23.6376 50.2852C23.7471 50.4475 23.8931 50.664 24.0756 50.9346C25.3445 53.0493 26.2034 54.7894 26.5964 55.6053C27.6659 57.8908 28.3113 59.6643 28.5443 60.1264C29.3498 62.2537 29.7313 63.869 29.8098 64.3353C30.3289 66.3877 30.5559 68.0072 30.612 68.5568C30.682 69.2437 30.738 69.7933 30.7575 70.2887L34.0324 69.8967C34.0494 69.4554 34.0159 68.8225 33.9684 68.0523C33.7252 63.8432 33.1166 60.6084 32.6931 58.5809C32.2415 56.2787 31.6635 54.2554 31.1725 52.4777C30.948 51.795 30.76 51.1664 30.659 50.7834L30.3615 49.9924Z" fill="#6795D6"/>
<path id="Vector_6" d="M58.4768 47.4275C57.5952 47.7894 56.4119 48.3003 55.0104 48.8452C53.428 49.4796 52.6669 49.7819 51.9662 50.0543C48.3045 51.421 48.1783 51.1146 47.5435 51.7233C45.7454 53.3491 45.9055 55.8512 45.9255 56.3575C46.014 58.1575 46.8119 59.4594 47.2597 60.1231C47.5613 59.9741 47.9835 59.7656 48.466 59.5272C52.5069 57.5307 54.9193 56.3387 57.6564 54.9126C57.8373 54.8233 60.1895 53.6611 65.0144 51.2772C65.135 51.2176 65.4969 51.0388 65.9564 50.8855C66.4762 50.7025 66.8754 50.579 67.131 50.6002C67.9064 50.4383 68.5381 50.4212 69.0119 50.4083C69.4254 50.4253 69.9366 50.4677 70.643 50.5612C71.4843 50.7355 72.1074 50.9439 72.6328 51.1267C73.4282 51.4712 74.0052 51.8498 74.4101 52.0923C74.8149 52.3348 75.0991 52.6368 75.346 52.8836L75.415 52.6283C75.2284 52.3517 75.0792 52.1305 74.8926 51.8539C73.5865 49.9181 72.9522 48.9778 72.9522 48.9778C72.579 48.4247 72.4297 48.2034 72.1312 47.761C71.7581 47.2078 71.5715 46.9313 71.1897 46.6037C70.9428 46.357 70.5236 45.9741 69.9092 45.5402C69.602 45.3232 69.1599 45.0254 68.5598 44.732C68.2899 44.5703 67.8621 44.4129 67.2763 44.2599C66.7882 44.1323 66.1048 43.9537 65.2404 43.8646C65.1801 43.8944 65.1571 43.9795 65.0738 44.0944C64.7033 44.4987 64.3184 44.7626 63.8129 45.0861C62.3194 45.9715 60.7743 46.6611 60.7743 46.6611C60.3521 46.8697 59.772 47.0826 59.1316 47.3253L58.4768 47.4275Z" fill="#6795D6"/>
<path id="Vector_7" d="M46.8585 58.9202C57.4214 76.4451 65.4861 90.1501 71.0471 99.677C83.3661 120.739 79.7694 114.357 87.4407 127.245C90.5065 132.373 95.1711 140.105 101.761 149.99C103.916 153.185 105.743 155.892 106.985 157.733C107.058 157.842 107.168 158.004 107.3 158.083C107.688 158.542 108.098 158.916 108.494 159.154C108.849 158.979 109.262 158.775 109.616 158.6C124.85 151.072 140.084 143.545 155.377 135.989C157.916 134.734 160.396 133.509 162.935 132.254C163.112 132.167 163.289 132.079 163.407 132.021C163.407 132.021 163.37 131.967 163.393 131.884C163.379 131.746 163.306 131.638 163.328 131.554C163.168 131.2 163.168 131.2 163.118 131.009C163.045 130.9 162.957 130.655 162.834 130.355C162.674 130.001 162.528 129.784 162.455 129.676C161.359 128.051 160.811 127.239 160.664 127.022C159.436 125.319 158.751 124.069 156.682 121.12C155.601 119.632 153.957 117.196 151.388 114.205C149.91 112.48 148.687 111.135 147.925 110.356C147.442 109.873 146.087 108.448 144.117 106.461C143.392 105.737 140.432 102.867 136.247 99.2305C135.536 98.6433 133.22 96.6106 129.98 94.0241C129.401 93.516 127.751 92.2373 125.631 90.6129C123.512 88.9885 119.383 85.9022 113.77 82.2497C107.555 78.1722 104.43 76.1065 100.199 74.1534C99.2518 73.6828 96.5195 72.4335 92.4802 70.5304C89.7114 69.2269 88.4634 68.5439 86.9877 67.7568C83.772 66.0244 81.9675 64.7499 81.1017 64.1668C79.1286 62.759 78.1027 61.8218 77.6923 61.447C76.7255 60.4806 75.7362 59.5976 74.9044 58.1313C74.4886 57.3981 73.9996 56.5566 73.8144 55.3485C73.5506 53.6738 74.0064 52.3655 74.3411 51.6947C74.3046 51.6405 74.1725 51.5614 74.0994 51.4531C73.2197 50.7325 72.4045 50.3411 72.0082 50.1037C71.4207 49.8163 70.583 49.5082 69.5457 49.3709C69.1043 49.3002 68.0079 49.1921 66.6303 49.3673C64.921 49.6343 63.7541 50.3553 63.2817 50.5887C59.6854 52.7267 55.6283 54.2981 51.8859 56.2195C50.9411 56.6863 49.465 57.4157 47.6346 58.3201L46.7489 58.7577L46.8585 58.9202Z" fill="#A9C4FF"/>
<path id="Vector_8" d="M163.232 130.57C158.897 132.735 154.5 134.931 150.165 137.096C135.571 144.386 121.038 151.645 106.444 158.934C106.482 158.991 106.581 159.017 106.619 159.073C106.755 159.156 107.142 159.491 107.848 159.818C108.828 160.31 109.718 160.545 109.718 160.545C110.113 160.649 111.991 161.145 114.163 160.74C114.285 160.679 114.666 160.639 115.131 160.483C116.061 160.169 116.672 159.864 117.062 159.594C117.879 159.11 118.772 158.74 119.565 158.343C121.176 157.463 122.924 156.666 124.572 155.842C129.152 153.555 133.732 151.267 138.312 148.98C141.426 147.425 144.601 145.839 147.715 144.283C152.295 141.996 154.615 140.837 154.615 140.837C154.676 140.806 156.264 140.013 159.439 138.427C159.622 138.336 159.989 138.153 160.5 137.822C161.158 137.342 161.594 136.898 161.885 136.602C162.114 136.336 162.452 135.866 162.775 135.252C163.098 134.637 163.322 133.997 163.4 133.505C163.479 133.013 163.604 132.346 163.517 131.484C163.488 131.197 163.436 130.996 163.421 130.853L163.232 130.57Z" fill="#6795D6"/>
<path id="Vector_9" d="M13.3406 42.7726C12.0591 40.8582 10.7775 38.9438 9.49594 37.0294C9.58009 36.9125 9.78609 36.7348 9.99208 36.5572C9.99208 36.5572 11.5559 35.253 13.3401 33.9141C17.2133 31.0847 22.3018 28.2507 22.3018 28.2507C25.6613 26.3527 28.3186 25.1046 30.0012 24.3419C31.1964 23.8218 34.0974 22.4524 38.0398 20.9398C41.9822 19.4272 45.1471 18.4519 46.4177 18.0445C46.4177 18.0445 52.8693 16.0333 58.5867 14.9881C59.4686 14.8493 59.9704 14.7496 60.5709 14.6758C60.5709 14.6758 63.2541 14.3158 65.3657 14.3153C65.4644 14.3413 65.7834 14.3326 66.2011 14.3498C66.9147 14.445 67.37 14.5185 67.4686 14.5445C67.9617 14.6743 68.1966 14.7826 68.2953 14.8086C68.5302 14.9168 68.7042 15.0554 68.7796 15.168C68.3531 15.3803 67.9876 15.5624 67.5611 15.7747C65.2461 16.9274 62.8701 18.1105 60.5551 19.2632C45.4465 26.7862 30.3379 34.3092 15.2292 41.8322C14.9246 41.9839 14.5591 42.1659 14.2545 42.3175L13.3406 42.7726Z" fill="#A9C4FF"/>
</g>
</svg>
