<svg width="190" height="188" viewBox="0 0 190 188" fill="none" xmlns="http://www.w3.org/2000/svg">
<g id="Group">
<path id="Vector" d="M155.601 92.4425C155.449 92.5808 155.369 92.7007 155.369 92.7007C155.342 92.7407 155.217 92.8391 155.163 92.919C154.984 93.0974 154.86 93.1957 154.806 93.2757C154.449 93.6323 154.189 93.9306 154.064 94.029C153.859 94.2473 153.68 94.4256 153.626 94.5055C153.475 94.6439 153.394 94.7638 153.296 94.8222C152.939 95.1789 152.706 95.4371 152.625 95.5571C152.339 95.8953 152.063 96.132 151.955 96.2919C151.749 96.5102 151.543 96.7285 151.462 96.8484C151.435 96.8884 151.311 96.9868 151.23 97.1067C150.792 97.5832 150.451 98.0014 150.327 98.0998C150.04 98.438 149.78 98.7362 149.629 98.8746C149.629 98.8746 149.288 99.2928 148.975 99.6709C147.569 101.322 146.223 103.056 146.223 103.056C145.64 103.834 144.321 105.528 142.739 107.785C142.28 108.465 141.022 110.242 139.543 112.603C138.804 113.784 138.848 113.806 137.532 115.927C136.846 117.028 136.134 118.169 135.152 119.709C134.17 121.25 133.306 122.529 132.631 123.528C131.957 124.527 131.444 125.287 131.174 125.687C129.878 127.605 128.809 129.103 128.279 129.801C127.264 131.218 126.492 132.276 126.151 132.694C124.714 134.65 123.584 136.064 123.163 136.602C121.585 138.594 120.358 140.067 120.017 140.485C118.082 142.834 116.508 144.562 116.194 144.941C113.144 148.338 110.724 150.715 110.08 151.41C109.009 152.479 108.224 153.211 108.045 153.39C107.109 154.26 105.512 155.763 103.313 157.556C102.164 158.481 100.534 159.861 98.1434 161.506C97.0593 162.25 95.5307 163.308 93.4809 164.534C91.7508 165.546 88.9034 167.178 84.8636 168.595C81.3015 169.821 79.1163 170.128 78.5617 170.174C78.192 170.205 76.8709 170.352 75.1302 170.346C73.3189 170.358 71.9853 170.179 70.9238 170.028C68.5723 169.72 66.8563 169.246 65.6743 168.929C63.6426 168.406 62.2092 167.858 61.212 167.526C60.6615 167.308 58.4491 166.535 55.5863 165.175C54.9319 164.852 53.247 164.074 51.1903 162.899C49.2207 161.767 46.067 159.89 42.5661 157.15C38.8305 154.24 36.2935 151.708 35.1943 150.58C32.0444 147.319 30.0827 144.539 29.557 143.853C28.439 142.235 26.4337 139.433 24.6669 135.417C23.8355 133.461 22.3057 130.041 21.5898 125.157C20.8739 120.274 21.2446 116.193 21.6448 113.619C22.3457 109.222 23.6181 105.959 24.0105 105.034C25.0152 102.598 27.1969 97.3861 32.3927 92.2762C34.9096 89.8411 37.2731 88.2363 39.3436 86.8068C41.5119 85.3188 43.622 84.1753 47.728 81.8851C52.6046 79.2291 53.099 79.1 57.232 76.7699C60.0254 75.2175 62.4554 73.8587 65.5894 71.8881C70.1709 68.9799 73.2591 66.5603 74.1043 65.9117C75.5726 64.771 77.7719 62.9786 80.3491 60.6266C82.3199 58.828 84.6146 56.5498 87.065 53.8687C89.8019 50.8494 91.5794 48.4757 92.0279 47.8976C94.1729 45.0658 95.5702 42.8243 95.9751 42.2247C97.6798 39.442 98.8216 37.2342 99.1392 36.5916C100.302 34.1808 101.043 32.3082 101.29 31.684C102.197 29.307 102.71 27.4282 102.869 26.7609C103.494 24.4577 103.751 22.6126 103.84 21.9638C104.182 19.7343 104.244 18.0061 104.236 17.4156C104.312 15.3214 104.195 13.7715 104.143 13.1595C104.022 11.8741 103.887 10.9546 103.814 10.5455C103.702 9.85052 103.539 8.97098 103.213 7.90382C103.036 7.39022 102.92 6.95967 102.793 6.6306L103.011 6.73827L103.273 6.86748C108.407 9.77459 113.503 12.8231 118.583 15.8102L118.844 15.9394C118.705 16.4037 118.431 17.0679 118.164 17.8951C117.611 19.4879 117.232 20.7395 116.981 21.6281C116.841 22.0925 116.509 23.1011 116.146 24.4141C115.793 25.6257 115.505 26.6558 115.308 27.4645C114.87 29.0605 114.605 30.3151 114.472 30.9424C114.057 32.7629 113.771 34.2205 113.648 34.7463C113.287 36.4868 113.082 37.8245 113.003 38.3718C113.003 38.3718 112.85 39.2021 112.767 40.0139C112.01 45.1832 111.837 49.5746 111.837 49.5746C111.736 52.1362 111.633 55.3897 112.209 59.6182C112.598 62.3153 113 65.3383 114.596 69.0042C115.257 70.6096 116.116 72.5256 117.911 74.691C120.172 77.4591 122.53 79.0494 124.167 80.0707C128.102 82.5994 131.682 83.6733 133.065 84.0365C134.291 84.375 135.718 84.7597 137.72 84.8954C141.47 85.2006 144.338 84.4847 145.001 84.2787C147.331 83.6703 148.98 82.7788 149.973 82.2563C153.928 80.1044 156.264 77.4202 158.054 75.3725C159.665 73.5031 160.674 71.9227 161.467 70.662C162.908 68.442 163.78 66.6339 164.432 65.4101C164.841 64.5461 165.74 62.6981 166.701 60.2412C167.361 58.4885 167.886 56.9356 168.293 55.6441C168.518 55.9147 168.742 56.1854 168.966 56.4561C170.433 58.2461 171.9 60.0362 173.367 61.8263C173.428 61.9093 177.424 66.7597 177.467 66.7812L177.795 67.1565C177.569 67.5777 177.272 68.0174 176.965 68.5586C176.776 68.8384 176.496 69.3396 176.118 69.8992C175.335 71.0584 174.687 72.0177 174.293 72.5159C173.888 73.1154 173.072 74.1516 172.067 75.4676C171.932 75.6675 171.413 76.2639 170.758 77.0603C170.499 77.3585 169.531 78.5331 168.092 80.0611C167.421 80.796 166.886 81.331 166.474 81.7676C165.966 82.2626 165.349 82.9175 164.402 83.889C164.018 84.2857 163.384 84.879 161.626 86.6223C160.224 88.009 158.957 89.1957 157.912 90.2257C157.912 90.2257 157.225 90.899 156.538 91.5724C156.066 91.9259 155.78 92.2641 155.601 92.4425Z" fill="#A9C4FF"/>
<path id="Vector_2" d="M122.052 80.0501C122.21 80.0747 122.368 80.0994 122.499 80.164C122.701 80.2102 122.902 80.2563 123.017 80.2594C123.017 80.2594 123.289 80.2872 123.534 80.3549C123.736 80.4011 124.77 80.592 125.789 80.7214C128.141 81.0295 130.225 81.0453 130.225 81.0453C130.867 81.0423 131.896 81.0702 133.261 80.9444C134.996 80.7878 136.257 80.5574 136.61 80.4652C137.898 80.1948 138.844 79.915 139.197 79.8228C140.734 79.3556 141.885 78.8575 142.585 78.5101C142.949 78.3164 143.693 77.9905 144.599 77.4247C144.892 77.2494 145.797 76.6836 146.936 75.8595C147.185 75.6627 148.128 74.9554 149.298 73.8268C150.744 72.4613 151.685 71.3265 152.295 70.5084C153.344 69.2136 154.019 68.2141 154.667 67.2545C155.666 65.7752 156.335 64.6126 157.085 63.3301C157.419 62.7488 158.277 61.3064 159.415 59.3626C159.415 59.3626 159.911 58.5414 160.738 57.4035C160.738 57.4035 161.727 56.0256 162.757 55.3614C162.98 55.2046 163.218 55.1093 163.457 55.014C163.457 55.014 163.908 54.8634 164.436 54.8573C165.334 54.8206 165.978 55.2452 166.431 55.5221C166.709 55.7129 166.944 55.8821 167.092 56.0083C167.387 56.2606 167.595 56.4698 167.786 56.6174C167.95 56.8051 168.141 56.9528 168.245 57.0574C168.198 57.3004 168.069 57.6633 167.94 58.0263C167.699 58.8137 167.479 59.398 167.367 59.8225C167.164 60.4684 166.954 60.9513 166.852 61.2743C166.751 61.5972 166.568 62.0401 166.331 62.563C166.057 63.2273 165.847 63.7102 165.837 63.8117C165.6 64.3346 165.417 64.7775 165.353 64.9589C165.143 65.4418 164.944 65.8232 164.853 66.0447C164.68 66.386 164.417 66.9489 164.072 67.6317C164.072 67.6317 163.727 68.3145 163.393 68.8958C163.22 69.2372 162.325 70.8211 161.019 72.8417C160.533 73.5614 160.047 74.2811 159.328 75.2591C158.906 75.7973 158.566 76.2156 158.404 76.4555C157.517 77.5103 156.819 78.2853 156.64 78.4637C156.077 79.0388 155.531 79.6754 154.648 80.4657C154.095 80.9393 153.668 81.3145 153.543 81.4129C152.795 82.0033 152.155 82.4339 151.835 82.6491C151.613 82.8059 151.098 83.138 150.371 83.5255C149.812 83.836 148.889 84.3403 147.668 84.8568C146.473 85.3333 145.528 85.6131 145.316 85.6684C145.033 85.7421 144.044 86.0003 142.766 86.1692C140.211 86.5071 138.05 86.3467 136.917 86.2142C134.924 85.977 133.48 85.5307 132.21 85.1705C131.633 84.992 130.592 84.638 129.316 84.1149C128.852 83.9395 127.734 83.4409 126.277 82.6686C126.277 82.6686 124.995 81.9824 123.428 80.9424C123.106 80.7301 122.828 80.5393 122.828 80.5393C122.697 80.4747 122.593 80.3701 122.549 80.3485C122.445 80.2439 122.314 80.1793 122.227 80.1362L122.052 80.0501Z" fill="#6795D6"/>
<path id="Vector_3" d="M100.542 6.5843C100.591 6.76718 100.7 7.03236 100.825 7.35851C101.032 7.98945 101.229 8.72096 101.454 9.83651C101.846 11.9853 101.964 13.9451 101.976 14.2681C101.995 14.7527 102.077 16.1669 101.952 18.0596C101.895 19.5104 101.658 21.4 101.278 23.5882C101.225 23.6674 101.171 23.7467 101.075 23.8046C101.022 23.8838 100.942 24.0026 100.792 24.1398C100.713 24.2586 100.536 24.4354 100.35 24.7127C100.297 24.7919 100.137 25.0296 99.9342 25.2459C99.8809 25.3252 99.7478 25.5233 99.5184 25.7792C99.4652 25.8585 99.3587 26.0169 99.2255 26.215C99.1457 26.3339 98.9859 26.5716 98.7995 26.8489C98.7197 26.9677 98.5599 27.2054 98.3469 27.5223C98.2937 27.6016 98.1872 27.76 98.0274 27.9977C97.9475 28.1166 97.7878 28.3543 97.6014 28.6316C97.5482 28.7108 97.4417 28.8693 97.3352 29.0278C97.3085 29.0674 97.1488 29.3051 96.9788 29.6433C96.5959 30.2986 96.2395 30.9141 96.1597 31.033C96.0532 31.1915 95.7501 31.7278 95.3835 32.444C95.277 32.6024 95.1337 32.9011 94.9104 33.3186C94.8306 33.4374 94.7405 33.6569 94.6238 33.9159C94.5173 34.0744 94.3739 34.373 94.1671 34.8515C94.0872 34.9703 93.9603 35.33 93.7637 35.7078C93.6736 35.9273 93.4238 36.3844 93.1801 37.0031C92.9835 37.3809 92.5965 38.2983 92.1092 39.5356C91.9925 39.7946 91.6854 40.5931 91.2882 41.611C91.1715 41.87 90.8644 42.6685 90.5102 43.7077C90.4467 43.8875 89.9492 45.2254 89.4313 46.7644C89.1774 47.4837 88.9768 48.1237 88.9133 48.3035C88.8396 48.5839 88.7762 48.7637 88.7127 48.9435C88.6062 49.1019 88.43 49.2787 88.2437 49.556C88.0409 49.7724 87.4387 50.583 86.4945 51.6464C85.3638 52.9873 84.3766 54.0294 83.971 54.4621C83.2828 55.23 82.0927 56.4885 80.5872 57.9603C79.4339 59.0786 78.5101 59.941 77.9652 60.4102C76.9185 61.3701 76.0479 62.1532 75.5829 62.5036C75.0647 62.9332 74.4666 63.4817 73.7291 64.0668C72.7192 64.8864 71.9121 65.4897 71.6397 65.7243C70.7793 66.4069 70.1218 66.8731 69.3413 67.4367C68.2453 68.2137 67.6574 68.6616 67.4648 68.7774C66.9998 69.1278 66.5881 69.399 66.2992 69.5726C66.5983 69.2984 66.881 68.9632 67.2865 68.5305C67.5426 68.2349 68.0977 67.6651 68.7428 66.8758C68.9723 66.6199 69.4843 66.0287 70.0598 65.2577C70.3159 64.9621 70.8648 64.2308 71.5304 63.2404C71.7168 62.963 72.2657 62.2317 72.8616 61.2595C73.0214 61.0218 73.4474 60.388 73.8938 59.553C74.0536 59.3153 74.4632 58.6205 74.9628 57.7062C75.0796 57.4472 75.4892 56.7524 75.9724 55.7772C76.1158 55.4785 76.5622 54.6435 77.0823 53.5281C77.199 53.269 77.6024 52.4127 78.0529 51.3156C78.143 51.0962 78.403 50.5385 78.6569 49.8192C78.7736 49.5602 79.0275 48.8409 79.3879 47.9632C79.5046 47.7042 79.7584 46.985 80.086 45.9854C80.1761 45.7659 80.4135 44.9857 80.7411 43.9861C80.8312 43.7667 81.1055 42.8463 81.4699 41.7065C81.56 41.4871 81.8076 40.6063 82.1556 39.4055C82.2191 39.2257 82.4299 38.4852 82.6714 37.4429C82.7185 37.2021 82.9191 36.5621 83.1135 35.7605C83.5556 34.0782 83.9178 32.5148 84.1491 31.5731C84.4377 30.29 84.716 29.1075 85.2562 26.6815C85.8866 24.0362 85.8702 23.9752 86.1219 22.8323C86.5311 21.0281 86.8259 19.9066 87.2045 18.4041C87.5361 17.1423 87.7674 16.2006 88.185 14.9816C88.5228 13.8814 88.8237 12.9214 89.354 11.7054C90.2447 9.61175 90.98 8.60307 91.4757 7.95094C92.1967 7.30495 92.6453 6.89358 93.2066 6.48529C93.5221 6.272 94.153 5.84544 95.1712 5.61096C95.8678 5.42823 96.4047 5.4832 96.8124 5.47414C97.5316 5.51391 98.0582 5.66946 98.4987 5.78231C98.9823 5.91652 99.3532 6.04765 99.638 6.13609L100.542 6.5843Z" fill="#6795D6"/>
</g>
</svg>
