<svg width="121" height="113" viewBox="0 0 121 113" fill="none" xmlns="http://www.w3.org/2000/svg">
<g id="Group">
<path id="Vector" d="M74.8703 27.3581C74.9209 27.463 74.9774 27.53 74.9774 27.53C74.9962 27.5523 75.0279 27.6348 75.0655 27.6795C75.1349 27.8067 75.1666 27.8893 75.2043 27.9339C75.343 28.1883 75.4689 28.3825 75.5006 28.465C75.5888 28.6146 75.6582 28.7418 75.6958 28.7864C75.7464 28.8913 75.8029 28.9583 75.8158 29.0185C75.9545 29.2729 76.0615 29.4448 76.118 29.5117C76.2627 29.7282 76.345 29.9157 76.4202 30.0049C76.5084 30.1545 76.5966 30.304 76.6531 30.3709C76.6719 30.3933 76.7037 30.4758 76.7601 30.5428C76.9554 30.8642 77.1377 31.1253 77.1694 31.2079C77.3141 31.4243 77.4399 31.6185 77.4905 31.7234C77.4905 31.7234 77.6728 31.9845 77.8363 32.2233C78.5408 33.2834 79.3136 34.3347 79.3136 34.3347C79.6654 34.7967 80.4194 35.8256 81.4676 37.1134C81.7876 37.4929 82.6099 38.5129 83.7512 39.7763C84.3218 40.408 84.3465 40.3923 85.3749 41.5218C85.9078 42.1088 86.4597 42.7182 87.1997 43.5508C87.9397 44.3833 88.5421 45.0976 89.0127 45.6556C89.4833 46.2136 89.8409 46.6377 90.0292 46.8609C90.9327 47.9323 91.6233 48.796 91.9374 49.2134C92.5903 50.0325 93.0738 50.6508 93.2561 50.9119C94.1478 52.0591 94.77 52.9318 95.0088 53.2599C95.8887 54.483 96.5238 55.4159 96.7061 55.677C97.7247 57.1545 98.4362 58.3127 98.5997 58.5516C100.01 60.8079 100.925 62.5218 101.208 62.9927C101.624 63.7559 101.896 64.3027 101.965 64.4299C102.287 65.0815 102.849 66.1973 103.445 67.6679C103.75 68.4333 104.224 69.5356 104.678 71.0619C104.882 71.7536 105.176 72.731 105.447 73.9961C105.66 75.0582 105.991 76.7986 105.884 79.0541C105.775 81.0374 105.423 82.1482 105.313 82.4226C105.24 82.6055 105.003 83.268 104.562 84.0932C104.115 84.9564 103.666 85.5474 103.302 86.0157C102.515 87.0594 101.781 87.7618 101.281 88.2479C100.436 89.0885 99.7251 89.6392 99.262 90.0338C98.9839 90.2434 97.9338 91.1107 96.3443 92.1473C95.9731 92.3813 95.0517 92.9966 93.7827 93.6942C92.5633 94.3606 90.5698 95.4126 87.9356 96.4241C85.1342 97.5069 82.8761 98.1103 81.8773 98.3641C78.9984 99.0854 76.7253 99.3563 76.1541 99.443C74.8373 99.5896 72.5395 99.8761 69.5236 99.7608C68.0621 99.6908 65.4878 99.6046 62.1805 98.7841C58.8731 97.9635 56.3527 96.8177 54.8047 96.0159C52.1644 94.638 50.3944 93.2582 49.9001 92.8519C48.5926 91.796 45.8023 89.521 43.834 85.8388C42.9063 84.0647 42.4719 82.5607 42.0761 81.2375C41.6675 79.8541 41.4648 78.58 41.0288 76.0855C40.552 73.1381 40.5935 72.8726 40.1387 70.3558C39.8457 68.6601 39.5855 67.183 39.1102 65.2261C38.3978 62.3589 37.6234 60.3171 37.4202 59.7615C37.0583 58.793 36.4625 57.3224 35.6031 55.5394C34.9459 54.1759 34.0629 52.5445 32.9609 50.7435C31.7143 48.726 30.6403 47.3177 30.3827 46.9673C29.1076 45.2755 28.0228 44.079 27.7404 43.7442C26.3862 42.2733 25.2589 41.2062 24.927 40.9027C23.6749 39.7775 22.6616 38.9805 22.3239 38.7149C21.0293 37.7191 19.9547 37.0292 19.5674 36.7947C18.2491 35.9507 17.132 35.3901 16.7388 35.1935C15.3969 34.5012 14.3056 34.0611 13.9253 33.9248C12.6032 33.3909 11.5813 33.078 11.1763 32.9573C10.3227 32.7092 9.69982 32.5549 9.41959 32.4923C8.94627 32.3805 8.34224 32.2486 7.57684 32.15C7.20355 32.1119 6.89857 32.0648 6.65599 32.0469L6.77971 31.9688L6.92818 31.8752C10.0787 30.1278 13.3105 28.4317 16.4987 26.7289L16.6472 26.6353C16.9097 26.8117 17.2662 27.0997 17.7288 27.4234C18.6103 28.0642 19.3165 28.542 19.8226 28.8725C20.0851 29.0489 20.6477 29.4463 21.3974 29.9308C22.0848 30.3863 22.6721 30.7682 23.1406 31.054C24.0528 31.6412 24.7897 32.0655 25.1581 32.2777C26.2198 32.9074 27.0815 33.3897 27.3875 33.5728C28.4116 34.1579 29.2167 34.5733 29.5475 34.7408C29.5475 34.7408 30.0407 35.011 30.5399 35.2433C33.6605 36.8313 36.4294 37.9572 36.4294 37.9572C38.0446 38.614 40.1025 39.4361 42.9553 40.1671C44.7803 40.6233 46.8172 41.1509 49.5658 41.2639C50.7599 41.3315 52.2025 41.3791 54.04 41.041C56.3803 40.625 57.9908 39.8829 59.0559 39.3481C61.6631 38.08 63.2495 36.6352 63.8294 36.0643C64.3539 35.5626 64.9585 34.9762 65.5481 34.0573C66.6849 32.349 66.9464 30.8164 66.9809 30.4528C67.1763 29.2013 67.0193 28.2062 66.9338 27.6104C66.5484 25.2208 65.4158 23.4733 64.5537 22.1365C63.761 20.9268 63.0021 20.0719 62.3938 19.3956C61.3338 18.1836 60.3947 17.3398 59.7746 16.7393C59.3239 16.3397 58.366 15.4736 57.0338 14.4332C56.077 13.7031 55.2143 13.0847 54.4892 12.5845C54.7189 12.5423 54.9486 12.5 55.1783 12.4577C56.693 12.1864 58.2077 11.915 59.7224 11.6436C59.7907 11.6347 63.9002 10.8895 63.925 10.8739L64.2477 10.8072C64.4607 11.0148 64.6677 11.2603 64.9372 11.5349C65.069 11.6911 65.3196 11.9433 65.5831 12.2558C66.129 12.9031 66.5808 13.4388 66.8007 13.7446C67.0831 14.0794 67.5418 14.7132 68.1324 15.5033C68.2265 15.6149 68.4782 16.0033 68.824 16.5032C68.9498 16.6974 69.4591 17.4361 70.0765 18.4828C70.3788 18.976 70.5869 19.3576 70.7633 19.6567C70.9526 20.016 71.2172 20.4645 71.6017 21.1452C71.7593 21.4219 71.9803 21.8638 72.6552 23.1135C73.1914 24.1089 73.6334 24.9926 74.0309 25.7335C74.0309 25.7335 74.2895 26.22 74.5482 26.7065C74.6563 27.0144 74.801 27.2309 74.8703 27.3581Z" fill="#6795D6"/>
<path id="Vector_2" d="M58.344 40.0122C58.3994 39.9431 58.4548 39.8739 58.5291 39.8271C58.6093 39.7424 58.6894 39.6576 58.7201 39.6041C58.7201 39.6041 58.8062 39.4814 58.9111 39.381C58.9913 39.2963 59.3733 38.8502 59.7117 38.3974C60.4994 37.3535 61.0327 36.3676 61.0327 36.3676C61.1919 36.0619 61.468 35.5801 61.73 34.9019C62.0653 34.0408 62.2343 33.3871 62.2639 33.1974C62.4141 32.5214 62.4722 32.006 62.5018 31.8163C62.5885 30.9751 62.5585 30.3102 62.5117 29.8951C62.4789 29.6764 62.4569 29.2457 62.3219 28.6811C62.2832 28.5004 62.1482 27.9357 61.9062 27.1993C61.8427 27.0341 61.6265 26.4181 61.1973 25.5945C60.6858 24.5834 60.1952 23.8669 59.8246 23.3825C59.2587 22.5766 58.788 22.0185 58.3362 21.4828C57.6396 20.6568 57.0629 20.0629 56.4297 19.4021C56.1414 19.1052 55.433 18.355 54.4738 17.3526C54.4738 17.3526 54.0725 16.9217 53.5513 16.2587C53.5513 16.2587 52.9171 15.4618 52.7504 14.8146C52.7057 14.6718 52.7047 14.5357 52.7036 14.3995C52.7036 14.3995 52.7203 14.1496 52.8489 13.8976C53.0507 13.4625 53.4843 13.2575 53.7754 13.1081C53.9675 13.0212 54.1348 12.9499 54.2526 12.9098C54.4883 12.8296 54.6744 12.7806 54.817 12.7249C54.9784 12.6915 55.121 12.6358 55.214 12.6113C55.3577 12.6917 55.5578 12.8391 55.7579 12.9865C56.2017 13.288 56.5207 13.5313 56.7644 13.6854C57.127 13.9356 57.3836 14.1499 57.5649 14.275C57.7462 14.4 57.9839 14.592 58.2593 14.8287C58.616 15.1168 58.8726 15.3311 58.935 15.3601C59.2104 15.5968 59.4482 15.7889 59.5483 15.8625C59.8049 16.0769 59.9991 16.2622 60.1179 16.3582C60.2933 16.5212 60.5876 16.7802 60.9383 17.1062C60.9383 17.1062 61.289 17.4321 61.5774 17.7291C61.7527 17.8921 62.5424 18.6935 63.5085 19.7941C63.8474 20.196 64.1863 20.5978 64.6322 21.1715C64.8711 21.4996 65.0534 21.7608 65.1664 21.8948C65.6193 22.5666 65.9404 23.0823 66.0098 23.2095C66.2368 23.6135 66.5074 24.0242 66.7919 24.6313C66.9565 25.0063 67.0893 25.2987 67.1211 25.3812C67.3115 25.8767 67.4266 26.2829 67.4841 26.486C67.5287 26.6288 67.6121 26.9524 67.6777 27.3898C67.7363 27.729 67.8277 28.2869 67.8518 28.9898C67.8571 29.6704 67.799 30.1858 67.7812 30.2996C67.7575 30.4513 67.6746 30.9823 67.4621 31.6293C67.0369 32.9233 66.3918 33.9114 66.0227 34.4178C65.3706 35.3077 64.7222 35.8876 64.1729 36.4049C63.9136 36.6369 63.4256 37.0472 62.7703 37.5288C62.5416 37.7072 61.9417 38.1197 61.0814 38.628C61.0814 38.628 60.3201 39.0739 59.2608 39.5709C59.044 39.6734 58.8519 39.7603 58.8519 39.7603C58.7776 39.8072 58.6846 39.8316 58.6598 39.8473C58.5667 39.8717 58.4925 39.9186 58.443 39.9498L58.344 40.0122Z" fill="#6795D6"/>
<path id="Vector_3" d="M6.62226 32.7307C6.75192 32.7507 6.94935 32.7619 7.19 32.7797C7.64675 32.831 8.16539 32.9111 8.93748 33.0689C10.4139 33.3934 11.6998 33.8042 11.91 33.8753C12.2254 33.9819 13.1527 34.2795 14.3346 34.79C15.2502 35.163 16.4016 35.7268 17.7083 36.4303C17.7457 36.4746 17.783 36.519 17.7958 36.5789C17.8332 36.6232 17.8892 36.6898 17.9393 36.794C17.9954 36.8605 18.0642 36.987 18.1949 37.1422C18.2322 37.1866 18.3443 37.3197 18.4318 37.4683C18.4691 37.5126 18.5625 37.6235 18.6687 37.7943C18.706 37.8387 18.7807 37.9274 18.8741 38.0383C18.9301 38.1048 19.0421 38.2379 19.1728 38.3932C19.2289 38.4597 19.3409 38.5928 19.4903 38.7703C19.5276 38.8146 19.6023 38.9033 19.7144 39.0364C19.7704 39.103 19.8824 39.2361 20.0131 39.3913C20.0505 39.4357 20.1252 39.5244 20.1999 39.6131C20.2186 39.6353 20.3306 39.7684 20.5045 39.9303C20.8279 40.2697 21.1325 40.5869 21.1885 40.6535C21.2632 40.7422 21.5305 41.015 21.8971 41.3611C21.9718 41.4498 22.127 41.5896 22.3383 41.7959C22.3943 41.8624 22.5122 41.9578 22.6488 42.0754C22.7235 42.1641 22.8788 42.3039 23.1333 42.5169C23.1893 42.5834 23.3878 42.7298 23.5804 42.914C23.6983 43.0094 23.9283 43.2378 24.2633 43.5019C24.4559 43.686 24.9463 44.0897 25.6164 44.6178C25.753 44.7354 26.1873 45.0726 26.7395 45.5052C26.8761 45.6228 27.3104 45.96 27.8872 46.3771C27.9864 46.4504 28.7185 47.0072 29.5743 47.6218C29.9713 47.9147 30.3309 48.1632 30.4301 48.2364C30.5912 48.3385 30.6905 48.4117 30.7897 48.4849C30.8644 48.5736 30.9332 48.7001 31.064 48.8553C31.1515 49.0039 31.519 49.4852 31.9624 50.1905C32.5365 51.051 32.9553 51.7718 33.1302 52.069C33.4487 52.5813 33.955 53.4507 34.5184 54.5218C34.9441 55.3402 35.2637 55.9877 35.4269 56.3603C35.778 57.0899 36.0602 57.6931 36.1674 57.9991C36.312 58.3495 36.5125 58.7664 36.7014 59.2587C36.9718 59.9373 37.1548 60.4672 37.2364 60.6535C37.4568 61.2279 37.5896 61.6536 37.7539 62.1614C37.9752 62.871 38.1139 63.2591 38.1395 63.3788C38.2468 63.6848 38.3166 63.9465 38.355 64.1261C38.2547 63.9176 38.1112 63.7025 37.9362 63.4053C37.8114 63.2123 37.5863 62.8109 37.2432 62.3141C37.137 62.1433 36.8874 61.7574 36.5384 61.2983C36.4136 61.1054 36.0833 60.6684 35.6165 60.1139C35.4858 59.9586 35.1555 59.5217 34.6828 59.0049C34.5708 58.8718 34.272 58.5169 33.8495 58.1043C33.7374 57.9712 33.3954 57.6096 32.9355 57.1527C32.7989 57.0351 32.4569 56.6735 31.9538 56.2099C31.7985 56.0701 31.376 55.6575 30.7923 55.1428C30.6557 55.0252 30.2086 54.6282 29.619 54.1512C29.5011 54.0558 29.2092 53.7984 28.8123 53.5056C28.6757 53.388 28.2787 53.0951 27.8071 52.7135C27.6705 52.5959 27.2735 52.3031 26.7154 51.9081C26.5975 51.8127 26.1573 51.5132 25.5992 51.1183C25.4813 51.0229 24.9606 50.6723 24.3219 50.2263C24.204 50.1309 23.7019 49.8025 23.02 49.3499C22.9208 49.2766 22.4993 48.9993 21.8921 48.6353C21.7496 48.5555 21.39 48.3069 20.9253 48.0229C19.9585 47.4105 19.0477 46.8646 18.5024 46.5295C17.7527 46.0857 17.065 45.6707 15.6462 44.8341C14.1096 43.9021 14.0664 43.8955 13.3973 43.5027C12.344 42.8769 11.6995 42.4686 10.8319 41.9294C10.1068 41.4701 9.56151 41.135 8.8855 40.6446C8.26551 40.2209 7.72609 39.8481 7.08049 39.3046C5.96324 38.3794 5.50228 37.7872 5.20938 37.3947C4.97731 36.8957 4.82687 36.583 4.70685 36.2171C4.64978 36.0153 4.53563 35.6118 4.6424 35.0686C4.70113 34.6918 4.87191 34.448 4.96904 34.2507C5.17611 33.916 5.40878 33.7011 5.59235 33.5172C5.80047 33.3178 5.97817 33.1715 6.10678 33.0563L6.62226 32.7307Z" fill="#6795D6"/>
</g>
</svg>
