<svg width="211" height="219" viewBox="0 0 211 219" fill="none" xmlns="http://www.w3.org/2000/svg">
<g id="Group">
<path id="Vector" d="M187.351 89.6257C187.219 89.836 187.174 90.003 187.174 90.003C187.159 90.0586 187.042 90.2133 187.012 90.3246C186.865 90.5907 186.748 90.7454 186.718 90.8567C186.424 91.3887 186.231 91.8217 186.115 91.9764C185.953 92.2981 185.806 92.5641 185.775 92.6754C185.644 92.8858 185.598 93.0527 185.497 93.1518C185.203 93.6838 185.025 94.0612 184.98 94.2281C184.772 94.7167 184.524 95.0818 184.463 95.3044C184.301 95.6261 184.139 95.9477 184.094 96.1147C184.079 96.1703 183.962 96.3251 183.916 96.492C183.577 97.191 183.339 97.7909 183.223 97.9456C183.015 98.4342 182.823 98.8672 182.691 99.0776C182.691 99.0776 182.453 99.6775 182.23 100.222C181.208 102.609 180.313 105.077 180.313 105.077C179.939 106.177 179.06 108.589 178.126 111.749C177.868 112.695 177.116 115.187 176.381 118.439C176.014 120.065 176.085 120.077 175.441 122.995C175.104 124.51 174.752 126.08 174.248 128.207C173.744 130.334 173.26 132.115 172.882 133.506C172.503 134.897 172.216 135.955 172.065 136.511C171.338 139.182 170.692 141.285 170.348 142.274C169.732 144.265 169.253 145.756 169.015 146.355C168.116 149.113 167.342 151.136 167.059 151.903C165.986 154.747 165.111 156.869 164.873 157.469C163.507 160.846 162.297 163.376 162.074 163.92C159.755 168.881 157.742 172.438 157.241 173.459C156.359 175.055 155.685 176.162 155.538 176.428C154.731 177.746 153.368 180.017 151.338 182.814C150.272 184.262 148.796 186.397 146.425 189.078C145.348 190.291 143.835 192.012 141.702 194.093C139.888 195.82 136.886 198.626 132.137 201.539C127.938 204.081 125.119 205.113 124.386 205.337C123.898 205.486 122.173 206.064 119.791 206.588C117.323 207.155 115.403 207.35 113.871 207.495C110.49 207.848 107.888 207.81 106.1 207.795C103.04 207.795 100.783 207.583 99.2397 207.493C98.3686 207.402 94.9254 207.161 90.2739 206.423C89.204 206.239 86.4784 205.831 83.0287 205.065C79.7217 204.324 74.3915 203.061 68.1168 200.879C61.4292 198.569 56.5854 196.341 54.4693 195.338C48.3913 192.433 44.1981 189.734 43.1065 189.081C40.6987 187.504 36.4341 184.793 31.8346 180.569C29.6342 178.503 25.6831 174.914 22.0476 169.341C18.412 163.768 16.698 158.815 15.8443 155.64C14.4091 150.211 14.3724 145.953 14.4049 144.735C14.4525 141.54 14.5973 134.693 18.916 127.046C21.03 123.389 23.386 120.765 25.4373 118.437C27.5901 116.01 29.8511 114.01 34.2151 110.04C39.4329 105.401 40.0382 105.097 44.4173 101.072C47.3894 98.3775 49.9702 96.0241 53.18 92.7302C57.8575 87.8822 60.7604 84.0698 61.5623 83.0424C62.9478 81.2413 64.9775 78.4441 67.219 74.8677C68.933 72.1329 70.8287 68.7303 72.7179 64.8024C74.8145 60.3859 75.9515 57.028 76.2498 56.2055C77.6397 52.1921 78.3292 49.107 78.5562 48.2722C79.3711 44.4515 79.7299 41.4845 79.8142 40.6253C80.0909 37.4112 80.0845 34.964 80.0823 34.1483C80.0283 31.0523 79.7063 28.6675 79.5615 27.8273C79.1616 24.905 78.5089 22.6383 78.2776 21.8415C77.5319 19.093 76.676 17.0244 76.3432 16.3267C75.3078 13.8197 74.3049 12.0171 73.9008 11.3073C73.0362 9.81959 72.351 8.77035 72.029 8.30749C71.4972 7.51751 70.7969 6.52392 69.7702 5.35793C69.2493 4.80276 68.856 4.32768 68.5036 3.97611L68.8603 4.03722L69.2883 4.11054C77.8844 5.99098 86.5065 8.05059 95.0724 10.0423L95.5003 10.1156C95.563 10.7088 95.55 11.5802 95.6343 12.6429C95.7467 14.7006 95.9088 16.3009 96.0493 17.4315C96.1119 18.0247 96.207 19.3223 96.4253 20.9904C96.6025 22.535 96.769 23.8448 96.9397 24.8642C97.2099 26.8906 97.5298 28.4597 97.6897 29.2442C98.1133 31.5299 98.5153 33.346 98.6342 34.007C99.0881 36.1815 99.5355 37.8306 99.7257 38.5038C99.7257 38.5038 99.9678 39.5354 100.296 40.5235C102.075 46.8853 104.228 52.1464 104.228 52.1464C105.484 55.2153 107.113 59.1054 110.202 63.9444C112.201 67.0243 114.395 70.4869 118.571 74.3473C120.348 76.0495 122.563 78.0598 126.195 80.0797C130.79 82.6725 134.877 83.8386 137.67 84.5501C144.422 86.3476 149.897 86.5285 151.985 86.5368C153.844 86.564 156.003 86.5845 158.813 86.1341C164.102 85.3513 167.632 83.6264 168.425 83.1799C171.278 81.7468 173.047 80.186 174.119 79.2631C178.351 75.5037 180.082 71.607 181.414 68.6319C182.598 65.9228 183.117 63.7403 183.515 62.003C184.276 58.9301 184.483 56.5196 184.708 54.8691C184.797 53.7195 185.019 51.2533 184.996 48.046C184.944 45.7657 184.816 43.7637 184.669 42.1078C185.123 42.3603 185.577 42.6128 186.031 42.8653C189.009 44.5404 191.988 46.2155 194.966 47.8906C195.094 47.9707 203.193 52.5032 203.264 52.5155L203.917 52.8603C203.837 53.429 203.671 54.0411 203.545 54.7768C203.439 55.1663 203.329 55.8463 203.117 56.6254C202.678 58.2392 202.315 59.5747 202.047 60.2859C201.82 61.1206 201.269 62.5987 200.612 64.4663C200.536 64.7445 200.152 65.6105 199.691 66.7546C199.499 67.1876 198.816 68.876 197.681 71.1277C197.164 72.204 196.723 73.0021 196.399 73.6454C195.973 74.3878 195.487 75.3529 194.722 76.7943C194.413 77.3819 193.87 78.2791 192.416 80.8836C191.255 82.9562 190.17 84.7504 189.303 86.2909C189.303 86.2909 188.73 87.2993 188.157 88.3078C187.706 88.871 187.498 89.3596 187.351 89.6257Z" fill="#FFCE00"/>
<path id="Vector_2" d="M134.137 83.5371C134.366 83.5181 134.595 83.4991 134.809 83.5358C135.11 83.529 135.41 83.5223 135.568 83.4911C135.568 83.4911 135.955 83.4409 136.327 83.4463C136.627 83.4396 138.145 83.3501 139.606 83.1927C142.986 82.8401 145.842 82.2227 145.842 82.2227C146.717 82.0232 148.137 81.7424 149.933 81.1765C152.218 80.4614 153.815 79.8032 154.248 79.586C155.86 78.8722 156.999 78.252 157.431 78.0349C159.277 77.0116 160.579 76.0697 161.346 75.444C161.737 75.1034 162.576 74.4899 163.505 73.5426C163.81 73.2454 164.739 72.298 165.846 70.9734C166.08 70.6639 166.983 69.5374 167.967 67.8422C169.199 65.782 169.867 64.1492 170.256 62.9928C170.984 61.1374 171.362 59.7462 171.725 58.4106C172.285 56.3517 172.566 54.7691 172.893 53.0195C173.033 52.2282 173.42 50.2561 173.917 47.604C173.917 47.604 174.149 46.4788 174.659 44.8772C174.659 44.8772 175.26 42.9417 176.306 41.8397C176.524 41.5859 176.799 41.4 177.073 41.214C177.073 41.214 177.607 40.8978 178.325 40.7296C179.531 40.412 180.642 40.7188 181.411 40.9089C181.895 41.0501 182.308 41.1791 182.578 41.2836C183.119 41.4927 183.516 41.6773 183.858 41.794C184.184 41.9664 184.526 42.0832 184.725 42.1755C184.792 42.4782 184.813 42.9478 184.835 43.4174C184.934 44.4246 184.952 45.1847 185.029 45.7222C185.103 46.5501 185.079 47.1867 185.116 47.6007C185.153 48.0146 185.144 48.5956 185.105 49.2878C185.092 50.1592 185.068 50.7957 185.109 50.9193C185.07 51.6115 185.062 52.1924 185.073 52.4272C185.049 53.0638 184.984 53.5768 184.98 53.8673C184.93 54.3247 184.876 55.0726 184.776 55.9874C184.776 55.9874 184.677 56.9022 184.536 57.6935C184.487 58.1509 184.126 60.3022 183.441 63.0968C183.168 64.0985 182.896 65.1002 182.446 66.4791C182.163 67.246 181.925 67.8459 181.835 68.1798C181.197 69.7013 180.665 70.8332 180.518 71.0993C180.062 71.953 179.662 72.8746 178.886 74.0811C178.389 74.8113 178.009 75.3868 177.892 75.5415C177.192 76.4699 176.552 77.1756 176.232 77.5285C176.014 77.7823 175.491 78.3333 174.708 79.0146C174.114 79.5534 173.128 80.4329 171.74 81.4182C170.368 82.3479 169.229 82.9681 168.969 83.0984C168.623 83.2721 167.413 83.8801 165.76 84.4704C162.452 85.651 159.413 86.1204 157.794 86.309C154.944 86.6359 152.728 86.5475 150.798 86.508C149.912 86.4727 148.297 86.3708 146.27 86.1399C145.541 86.0733 143.743 85.8235 141.333 85.3523C141.333 85.3523 139.208 84.9301 136.502 84.1752C135.946 84.0218 135.462 83.8806 135.462 83.8806C135.248 83.8439 135.049 83.7516 134.978 83.7394C134.779 83.6471 134.565 83.6104 134.423 83.586L134.137 83.5371Z" fill="#FFEB90"/>
<path id="Vector_3" d="M68.5487 3.80896C68.7173 4.01257 69.0134 4.29626 69.3658 4.64783C69.9991 5.33874 70.6734 6.15316 71.5985 7.41823C73.3212 9.86827 74.5597 12.1771 74.7542 12.5599C75.046 13.134 75.9365 14.8009 76.8032 17.1043C77.5208 18.8579 78.2298 21.1925 78.9041 23.9289C78.8739 24.0402 78.8436 24.1515 78.742 24.2506C78.7117 24.3619 78.6664 24.5288 78.5345 24.7392C78.4891 24.9061 78.3421 25.1722 78.2362 25.5617C78.2059 25.673 78.1152 26.0069 77.953 26.3285C77.9228 26.4398 77.8471 26.7181 77.6699 27.0954C77.6396 27.2067 77.5791 27.4293 77.5034 27.7075C77.4581 27.8745 77.3673 28.2084 77.2614 28.5979C77.216 28.7648 77.1252 29.0987 77.0041 29.5439C76.9739 29.6552 76.9133 29.8778 76.8226 30.2117C76.7772 30.3786 76.6864 30.7125 76.5805 31.1021C76.5502 31.2134 76.4897 31.436 76.4292 31.6586C76.414 31.7142 76.3232 32.0481 76.2735 32.5055C76.1028 33.4081 75.9471 34.255 75.9017 34.422C75.8412 34.6446 75.7158 35.3802 75.6013 36.3507C75.5407 36.5733 75.5062 36.975 75.4262 37.5437C75.3808 37.7107 75.3765 38.0011 75.357 38.3472C75.2965 38.5698 75.2619 38.9716 75.2381 39.6082C75.1927 39.7751 75.2143 40.2447 75.1495 40.7578C75.1451 41.0483 75.05 41.6726 75.0522 42.4883C74.9873 43.0014 74.9549 44.2189 74.9592 45.8504C74.9397 46.1965 74.9527 47.247 74.9613 48.588C74.9419 48.9341 74.9548 49.9847 75.0348 51.3379C75.0456 51.5727 75.091 53.3277 75.2185 55.3298C75.2617 56.269 75.3352 57.097 75.346 57.3318C75.3979 57.6901 75.4087 57.9249 75.4195 58.1597C75.3589 58.3823 75.212 58.6484 75.106 59.0379C74.9439 59.3596 74.5549 60.516 73.8307 62.0809C73.0007 64.0353 72.2053 65.588 71.8811 66.2314C71.3493 67.3633 70.3918 69.2377 69.1143 71.4649C68.1308 73.1601 67.3246 74.478 66.8274 75.2082C65.9045 76.6808 65.1285 77.8874 64.6767 78.4506C64.1947 79.1252 63.6673 79.9667 62.967 80.895C62.0181 82.1884 61.2313 83.1602 60.9827 83.5253C60.1657 84.6084 59.5108 85.3698 58.7391 86.2859C57.6475 87.5549 57.0791 88.2729 56.8759 88.471C56.4241 89.0343 56.0026 89.4862 55.6979 89.7835C55.9616 89.3627 56.1691 88.8741 56.4933 88.2308C56.6857 87.7978 57.1418 86.9441 57.6022 85.7999C57.7794 85.4226 58.1642 84.5567 58.5381 83.4559C58.7305 83.023 59.0893 81.9779 59.4676 80.5867C59.5735 80.1971 59.9323 79.152 60.2241 77.8043C60.3149 77.4704 60.557 76.58 60.717 75.4426C60.8077 75.1087 60.9936 74.1505 61.1839 72.9018C61.2033 72.5556 61.3892 71.5974 61.5232 70.2808C61.5578 69.8791 61.7178 68.7417 61.8259 67.2459C61.8453 66.8998 61.934 65.7502 61.9556 64.2979C61.9599 64.0074 62.014 63.2596 61.9708 62.3203C61.9902 61.9742 61.947 61.0349 61.9643 59.8731C61.9838 59.527 61.9405 58.5877 61.8454 57.2902C61.8498 56.9997 61.7504 55.9926 61.6553 54.695C61.6596 54.4045 61.5342 53.2182 61.4132 51.7415C61.4175 51.451 61.2771 50.3204 61.0998 48.7758C61.089 48.541 60.9745 47.5895 60.7367 46.2674C60.6697 45.9648 60.5962 45.1368 60.4255 44.1175C60.1143 41.9675 59.7577 39.9844 59.561 38.7859C59.2562 37.1612 58.9925 35.66 58.409 32.5898C57.8297 29.2291 57.7735 29.1612 57.4947 27.7157C57.0711 25.43 56.8636 23.9966 56.5632 22.0815C56.3298 20.469 56.1331 19.2705 56.0423 17.6824C55.9062 16.2613 55.7959 15.0194 55.863 13.4001C55.9473 10.619 56.412 9.1844 56.7406 8.2506C57.3847 7.25439 57.7803 6.62327 58.3336 5.96094C58.6535 5.60807 59.2933 4.90232 60.5751 4.30655C61.4397 3.87227 62.2135 3.77188 62.7733 3.63484C63.7913 3.45981 64.6062 3.48294 65.2784 3.48163C66.022 3.49254 66.6077 3.53466 67.0508 3.55233L68.5487 3.80896Z" fill="#FFEB90"/>
</g>
</svg>
