<svg width="225" height="234" viewBox="0 0 225 234" fill="none" xmlns="http://www.w3.org/2000/svg">
<path d="M150.972 112.339C151.843 107.797 138.583 90.0111 118.754 86.2088C98.9363 82.3497 80.0839 94.037 79.2131 98.5784L62.1662 187.476C60.4354 196.503 65.0584 205.57 73.3618 209.575C78.9768 212.241 85.9988 214.941 93.8395 216.445C101.68 217.948 109.203 218.037 115.406 217.637C124.602 216.988 132.24 210.33 133.982 201.248L150.972 112.339Z" fill="#DAE4FE"/>
<path d="M97.3642 197.757C78.9558 194.227 60.9406 187.418 62.1162 181.287L64.3889 181.723C64.2147 182.631 65.8682 185.067 73.0873 188.276C79.4977 191.094 88.2545 193.656 97.7428 195.476C107.231 197.295 116.314 198.154 123.313 197.907C131.263 197.607 133.633 196.002 133.818 195.036L136.091 195.472C135.029 201.625 115.773 201.287 97.3642 197.757Z" fill="#C6D5FE"/>
<path d="M100.444 181.692C82.0358 178.162 64.0206 171.353 65.1963 165.222L67.4689 165.657C67.2948 166.566 68.9483 169.002 76.1673 172.21C82.5777 175.029 91.3346 177.591 100.823 179.41C110.311 181.23 119.395 182.089 126.393 181.842C134.344 181.542 136.713 179.936 136.898 178.971L139.171 179.407C138.109 185.56 118.853 185.222 100.444 181.692Z" fill="#C6D5FE"/>
<path d="M103.525 165.627C85.1169 162.097 67.1017 155.288 68.2773 149.157L70.55 149.593C70.3758 150.501 72.0293 152.937 79.2484 156.145C85.6588 158.964 94.4156 161.526 103.904 163.345C113.392 165.165 122.476 166.024 129.474 165.777C137.425 165.477 139.794 163.871 139.979 162.906L142.252 163.342C141.19 169.495 121.934 169.157 103.525 165.627Z" fill="#C6D5FE"/>
<path d="M106.605 149.561C88.197 146.031 70.1818 139.222 71.3574 133.091L73.6301 133.527C73.4559 134.435 75.1094 136.871 82.3285 140.08C88.7389 142.898 97.4957 145.46 106.984 147.28C116.472 149.099 125.556 149.958 132.554 149.711C140.505 149.411 142.874 147.806 143.059 146.841L145.332 147.276C144.27 153.429 125.014 153.091 106.605 149.561Z" fill="#C6D5FE"/>
<path d="M109.686 133.496C91.278 129.967 73.2628 123.157 74.4385 117.026L76.7111 117.462C76.537 118.37 78.1904 120.806 85.4095 124.015C91.8199 126.833 100.577 129.395 110.065 131.215C119.553 133.034 128.637 133.893 135.635 133.646C143.586 133.346 145.955 131.741 146.14 130.776L148.413 131.212C147.351 137.364 128.095 137.026 109.686 133.496Z" fill="#C6D5FE"/>
<path d="M113.028 116.069C94.6198 112.539 76.6046 105.73 77.7803 99.5986L80.0529 100.034C79.8787 100.943 81.5322 103.379 88.7513 106.587C95.1617 109.406 103.919 111.968 113.407 113.787C122.895 115.607 131.979 116.466 138.977 116.218C146.928 115.919 149.297 114.313 149.482 113.348L151.755 113.784C150.693 119.936 131.437 119.599 113.028 116.069Z" fill="#C6D5FE"/>
<path d="M155.134 53.4579C152.669 48.8064 151.577 49.8918 143.601 38.6512C135.854 27.749 147.527 26.1618 130.88 22.9696C114.233 19.7774 124.588 26.2948 114.793 32.8328C104.321 39.8295 102.198 38.3043 97.0575 42.38C85.0512 51.8488 80.7219 79.0336 85.9624 90.1027C89.4481 97.4217 98.142 100.619 115.357 103.92C132.573 107.221 141.878 107.534 147.778 101.956C156.753 93.5542 162.358 67.085 155.134 53.4579Z" fill="#DAE4FE"/>
<path d="M118.831 85.8116C100.025 82.2054 81.6576 75.3875 82.8115 69.3701L85.0842 69.8059C84.5399 72.6443 97.5624 79.379 119.266 83.5409C140.97 87.7027 155.56 86.2629 156.104 83.4245L158.377 83.8603C157.269 89.9454 137.637 89.4178 118.831 85.8116Z" fill="#C6D5FE"/>
<path d="M121.595 71.3924C107.619 68.7123 87.1917 62.4999 88.3564 56.4258L90.6291 56.8616C90.2263 58.962 100.668 65.0252 121.974 69.1108C143.28 73.1964 155.224 71.4257 155.627 69.3253L157.899 69.7611C156.848 75.8571 135.629 74.0835 121.595 71.3924Z" fill="#C6D5FE"/>
<path d="M124.273 57.4278C108.819 54.4643 93.7392 48.6299 94.7842 43.1802L97.0568 43.616C96.5887 46.057 107.096 51.7796 124.652 55.1462C142.208 58.5127 154.087 57.0826 154.555 54.6416L156.827 55.0774C155.896 60.5489 139.727 60.3912 124.273 57.4278Z" fill="#C6D5FE"/>
<path d="M115.225 104.307C102.101 101.79 89.1757 97.3106 83.6964 91.7869L85.3624 90.1642C95.794 100.581 136.297 107.465 147.819 102.67L148.699 104.84C142.491 107.416 128.747 106.9 115.225 104.307Z" fill="#C6D5FE"/>
<path d="M140.608 29.0723C140.575 29.2426 140.599 29.4238 140.601 29.7186C140.604 30.0133 140.595 30.3648 140.633 30.784C140.622 30.8407 140.638 31.3734 140.71 31.917C140.855 33.0042 141.168 33.8293 141.227 34.135C141.831 35.8988 142.704 37.1844 143.463 38.4482C143.774 38.9786 144.152 39.4631 144.909 40.4322C146.263 42.2809 147.192 43.5773 148.543 45.1313C149.07 45.762 149.838 46.6743 151.384 48.4422C152.116 49.23 152.711 49.8149 153.468 50.784C153.697 51.1223 154.26 51.8775 154.835 52.8706C155.756 54.5186 156.255 55.9091 156.557 56.791C157.08 58.3627 157.374 59.5962 157.563 60.4563C157.859 61.9844 157.993 63.1284 158.135 63.9208C158.438 66.3332 158.431 68.2151 158.416 69.2128C158.43 69.4508 158.423 70.097 158.374 70.9703C158.333 71.4921 158.32 72.7846 158.175 74.4635C158.091 75.2124 157.956 76.8346 157.632 78.8324C157.469 79.6839 157.243 81.1707 156.837 82.9764C156.794 83.2035 156.75 83.4305 156.739 83.4873C156.367 85.1227 155.935 86.4524 155.715 87.293C155.373 88.4634 155.028 89.339 154.985 89.566C154.119 91.9308 153.395 93.5575 153.194 93.9899C152.915 94.5249 152.581 95.3437 151.987 96.2893C151.551 97.0295 151.003 98.0427 150.128 99.2286C149.656 99.8444 149.095 100.62 148.228 101.454C147.575 102.094 146.944 102.62 146.46 102.998C146.46 102.998 146.516 103.009 146.505 103.066C147.319 104.046 147.87 104.858 148.054 105.128C148.238 105.399 148.524 105.748 148.835 106.279C149.145 106.809 149.605 107.486 150.077 108.4C150.539 109.372 150.771 110.005 150.911 110.502C151.132 111.192 151.124 111.544 151.115 111.895C151.083 112.065 151.028 112.349 151.02 112.701C150.943 113.098 150.878 113.439 150.867 113.496C150.595 114.915 150.334 116.277 150.062 117.696C150.062 117.696 149.55 120.364 149.409 121.102C149.3 121.67 148.015 128.369 148.004 128.425C147.983 128.539 147.525 130.923 147.514 130.98C147.482 131.15 146.752 134.954 146.687 135.294C146.687 135.294 145.294 142.561 145.163 143.242C144.924 144.491 144.673 145.796 144.434 147.045C144.107 148.748 143.781 150.451 143.454 152.154C143.334 152.779 141.952 159.988 141.941 160.045C141.919 160.159 141.375 162.997 141.364 163.054C141.353 163.11 140.798 166.006 140.776 166.119C140.765 166.176 139.742 171.512 139.666 171.909C139.633 172.08 138.294 179.062 138.283 179.119C138.098 180.084 137.924 180.992 137.739 181.957C137.271 184.398 136.792 186.896 136.324 189.337C136.324 189.337 135.192 195.241 135.181 195.298C134.615 198.25 134.332 199.726 134.332 199.726C134.234 200.237 134.18 200.52 134.082 201.031C133.951 201.712 133.897 201.996 133.796 202.212C133.753 202.44 133.62 202.826 133.543 203.223C133.389 203.723 133.245 204.167 133.123 204.496C133.011 204.769 132.868 205.213 132.667 205.645C132.566 205.861 132.466 206.077 132.377 206.237C132.265 206.51 132.086 206.828 131.829 207.25C131.46 207.944 131.124 208.468 130.821 208.822C130.574 209.187 130.26 209.597 129.877 210.054C129.642 210.362 129.349 210.659 129.035 211.069C128.675 211.412 128.292 211.869 127.729 212.349C127.301 212.738 126.805 213.173 126.253 213.596C125.497 214.158 124.763 214.606 124.165 214.962C123.51 215.307 122.787 215.698 121.893 216.056C121.893 216.056 120.865 216.506 119.801 216.832C116.236 217.914 109.711 217.84 109.711 217.84C106.591 217.83 103.948 217.794 100.314 217.392C95.9872 216.915 92.5891 216.205 90.8955 215.821C86.6669 214.834 83.6291 213.78 81.0459 212.814C79.999 212.437 77.1885 211.427 73.9077 209.797C72.3472 209.027 71.2762 208.469 70.2028 207.616C68.5939 206.483 67.529 205.278 66.8424 204.558C65.5829 203.14 64.732 201.74 64.1325 200.566C63.1873 198.737 62.6749 197.108 62.4272 195.943C61.9802 193.974 61.8764 192.365 61.8474 191.594C61.8559 191.242 61.8307 189.531 62.2008 187.601C62.2117 187.544 62.3532 186.806 62.6362 185.33C62.6689 185.16 62.8757 184.081 62.8975 183.968C62.8975 183.968 63.801 179.256 63.9207 178.631C64.5848 175.169 65.2488 171.706 65.9128 168.243C66.6966 164.156 67.4803 160.068 68.2641 155.981C68.8193 153.086 69.3635 150.248 69.9187 147.352C70.5283 144.173 71.1488 140.938 71.7584 137.759C72.3353 134.75 72.9123 131.741 73.4783 128.789C73.9899 126.121 74.5015 123.453 75.0132 120.785C75.6445 117.493 76.6678 112.157 76.6678 112.157C77.5386 107.615 77.9305 105.571 78.649 101.825C78.932 100.349 79.1497 99.2135 79.3021 98.4188L79.313 98.362C79.3348 98.2485 79.4242 98.0891 79.5246 97.8729C79.793 97.3947 80.1182 96.9273 80.1182 96.9273C80.2754 96.7221 80.5003 96.4709 80.8038 96.1171C81.1072 95.7633 81.9173 94.9181 83.7561 93.6228C84.5685 93.0723 85.6517 92.3383 86.9054 91.6371C86.8595 91.5694 86.7676 91.4341 86.6758 91.2988C86.6758 91.2988 86.3192 90.7007 86.0303 90.0567C85.5336 88.961 85.2315 88.0791 85.0454 87.5137C84.7541 86.575 84.6007 85.8393 84.5282 85.2957C84.3264 84.1976 84.1947 83.3484 84.1331 82.7481C83.9749 81.4229 83.9327 80.4143 83.882 79.7571C83.8687 79.5192 83.8024 78.3294 83.8581 76.8098C83.8557 76.5151 83.8595 75.5741 83.9635 74.417C84.0071 74.1899 84.0023 73.6004 84.0979 72.7948C84.0979 72.7948 84.2516 70.7643 84.5758 68.7666C85.4044 63.2165 87.0683 58.5329 87.0683 58.5329C88.0321 55.6573 89.1857 52.406 91.6739 48.6456C93.2542 46.2413 94.566 44.3152 97.0359 42.4935C99.8552 40.3857 103.813 38.7904 104.005 38.7096C104.322 38.5938 105.148 38.2812 106.244 37.7852C106.629 37.6235 107.918 37.0467 109.567 36.1269C111.34 35.1722 112.548 34.4033 113.485 33.8178C114.952 32.9222 115.64 32.4067 116.407 31.7885C117.116 31.1595 117.894 30.4846 118.588 29.3229C119.203 28.2638 119.559 27.3314 119.724 26.7746C119.89 26.2179 120.045 25.7178 120.121 25.3205C120.121 25.3205 120.178 25.3314 120.235 25.3423C121.373 25.8549 122.307 26.2104 122.807 26.3652C125.458 27.2856 128.515 27.9307 128.515 27.9307C129.14 28.0505 130.266 28.3252 131.697 28.5408C133.356 28.8 134.57 28.9152 134.798 28.9588C135.661 29.0654 136.592 29.1262 137.817 29.1847C138.884 29.1538 139.836 29.101 140.608 29.0723Z" fill="#FFCE00"/>
<path d="M124.385 57.1545C124.101 57.1001 123.817 57.0456 123.589 57.002C120.635 56.4355 117.543 55.6659 114.905 54.9836C112.722 54.3884 110.504 53.6687 108.683 53.0254C107.853 52.7484 106.692 52.3493 105.223 51.7146C102.605 50.6239 101.055 49.7971 99.4597 48.9025C98.7647 48.5338 96.8257 47.2792 95.7125 45.7121C95.391 45.2384 95.2399 44.7975 95.2508 44.7407C95.0998 44.2998 95.0732 43.8238 95.1035 43.3588L96.8297 43.5721C96.7862 43.7992 96.7995 44.0371 96.8804 44.2292C96.8804 44.2292 96.9505 44.4781 97.1451 44.692C98.2124 46.1915 100.23 47.3434 100.276 47.4111C101.928 48.3165 103.364 49.1216 105.869 50.1904C107.349 50.7684 108.452 51.1566 109.215 51.4795C110.979 52.1119 113.151 52.7639 115.334 53.3591C117.961 54.0982 121.007 54.8001 123.905 55.3557C126.007 55.7589 128.053 56.1511 130.063 56.4189C131.096 56.5582 133.039 56.8719 135.65 57.0783C137.036 57.2262 139.125 57.3914 141.757 57.4843C144.515 57.5422 146.182 57.4499 148.212 57.3094C151.137 57.1053 152.179 56.8931 153.184 56.2618C153.918 55.814 154.56 55.2308 155.064 54.4447L156.467 55.42C155.817 56.3547 155.018 57.1431 154.081 57.7286C152.67 58.6351 151.219 58.8278 148.294 59.0319C146.264 59.1724 144.472 59.2997 141.715 59.2418C138.979 59.0703 136.89 58.9052 135.505 58.7572C132.848 58.4831 130.894 58.2262 129.861 58.0869C128.032 57.795 126.203 57.5032 124.385 57.1545Z" fill="#FFEB90"/>
<path d="M121.65 71.1088C120.116 70.8146 118.525 70.5096 117.058 70.1695C115.365 69.7859 113.558 69.3805 111.989 68.9619C109.408 68.2904 107.463 67.682 106.451 67.4292C105.677 67.1631 104.335 66.7881 102.629 66.1665C101.798 65.8896 100.535 65.4119 98.8957 64.7444C98.2356 64.5002 97.2565 64.077 96.0719 63.4967C95.5364 63.2174 94.7736 62.8946 93.873 62.3688L93.5539 62.1899C91.7419 61.195 90.7277 60.6474 89.936 59.5539C89.328 58.7311 88.9123 57.8274 88.6887 56.8428L90.3534 56.4558C90.5528 57.2591 90.8875 57.9707 91.3009 58.5797C91.863 59.3349 92.7176 59.793 94.37 60.6985L94.6892 60.8774C95.5438 61.3355 96.2389 61.7042 96.7852 61.9267C97.9699 62.507 98.8463 62.8516 99.5063 63.0959C101.089 63.7524 102.363 64.1733 103.136 64.4394C104.843 65.061 106.128 65.4251 106.902 65.6912C107.846 65.9899 109.802 66.5415 112.326 67.2021C113.224 67.4332 115.021 67.8954 117.339 68.3988C119.544 68.8805 121.76 69.3054 124.033 69.7412C126.078 70.1334 128.202 70.423 130.145 70.7366C131.178 70.876 132.961 71.1002 135.323 71.3766C136.765 71.5354 138.911 71.7115 141.715 71.837C143.758 71.9345 145.765 71.9076 147.784 71.8239C148.794 71.782 150.12 71.6243 152.669 71.2304C153.519 71.0991 154.369 70.9678 155.136 70.3496C155.485 70.0635 155.799 69.6529 156.057 69.2315L157.618 70.0016C157.26 70.6392 156.856 71.2092 156.292 71.6897C155.166 72.6507 153.896 72.8193 152.99 72.9397C150.326 73.3119 148.989 73.5263 147.866 73.5464C145.848 73.6301 143.783 73.6462 141.683 73.5378C138.812 73.4581 136.62 73.2144 135.167 73.1123C132.794 72.8927 131.011 72.6685 129.921 72.5182C127.967 72.2613 125.854 71.915 123.741 71.5686C123.07 71.3811 122.331 71.2395 121.65 71.1088Z" fill="#FFEB90"/>
<path d="M117.465 85.2553C116.726 85.1137 110.349 83.6555 110.122 83.6119C109.895 83.5684 104.414 82.0465 103.8 81.8699L98.8062 80.2649L90.8835 77.0389L88.5251 75.8215L86.5294 74.556C86.3698 74.4666 86.1643 74.3095 86.0157 74.1632L84.8963 73.2423C84.6908 73.0852 84.5422 72.939 84.3476 72.7251C83.9124 72.2297 83.6018 71.6993 83.4266 71.0771L83.0761 69.8328L84.7625 69.3322L85.113 70.5765C85.2181 70.9498 85.391 71.2773 85.6883 71.5697C85.7802 71.705 85.8829 71.7836 85.9857 71.8621L87.105 72.783C87.2078 72.8616 87.3105 72.9402 87.4132 73.0187L89.5685 74.3737L91.8242 75.5125L99.5305 78.6382L104.194 80.121C106.605 80.7598 110.3 81.7627 110.46 81.8521C110.63 81.8848 114.926 82.8264 117.745 83.4847L125.04 84.7657L133.376 85.8345L139.302 86.2646L144.351 86.35L149.003 86.3592C149.241 86.346 149.536 86.3437 149.785 86.2738L154.076 85.0954C154.381 85.0364 154.652 84.8529 154.912 84.7262L155.454 84.3592C155.86 84.0839 156.231 83.6843 156.443 83.1951L158.003 83.9652C157.624 84.7164 157.095 85.3214 156.418 85.7801L155.877 86.1471C155.47 86.4223 155.018 86.6299 154.52 86.7698L150.23 87.9481C149.856 88.0531 149.437 88.0903 149.017 88.1276L144.298 88.1643L138.964 88.0244L132.982 87.5834L124.873 86.5581L117.465 85.2553Z" fill="#FFEB90"/>
<path d="M115.223 104.012C115.052 103.979 114.882 103.947 114.711 103.914C113.291 103.642 111.938 103.323 110.518 103.051C109.165 102.733 108.04 102.458 107.312 102.26C105.913 101.874 104.788 101.599 104.231 101.433C102.332 100.893 100.887 100.439 100.227 100.195C99.2261 99.8852 98.1793 99.5079 97.3029 99.1633C96.3696 98.8078 95.3796 98.4414 94.5709 98.0509C94.1841 97.9178 93.4781 97.6059 92.6126 97.2045C92.0771 96.9253 91.1548 96.513 89.981 95.8759C89.3887 95.5858 88.6936 95.2171 87.804 94.6345C87.2225 94.2876 86.3329 93.705 85.3163 92.8626C84.8025 92.4698 84.3565 92.0312 83.9105 91.5925L85.1485 90.3586C85.5377 90.7863 85.9946 91.1682 86.4515 91.5501C87.4222 92.3248 88.2091 92.8288 88.7906 93.1757C89.6343 93.6906 90.3294 94.0594 90.854 94.3954C91.9709 95.0215 92.8364 95.4229 93.3828 95.6454C94.2483 96.0468 94.9543 96.3587 95.2843 96.4809C96.1039 96.8146 97.0371 97.1701 97.9703 97.5256C98.8467 97.8703 99.8476 98.1799 100.838 98.5463C101.498 98.7906 102.942 99.2441 104.785 99.774C105.342 99.9397 106.4 100.26 107.809 100.589C108.48 100.777 109.605 101.052 110.958 101.37C112.311 101.688 113.674 101.95 115.095 102.222C116.345 102.462 117.595 102.701 118.856 102.884C120.344 103.111 121.889 103.348 123.32 103.564C124.524 103.736 125.796 103.862 126.897 103.955C127.885 104.027 129.668 104.251 131.949 104.336C133.469 104.392 135.569 104.5 138.235 104.423C140.367 104.361 141.853 104.293 143.869 103.914C145.274 103.654 146.644 103.269 147.968 102.817L148.537 104.456C147.145 104.954 145.662 105.317 144.19 105.623C142.049 106.037 140.506 106.094 138.317 106.145C135.527 106.258 133.427 106.149 131.86 106.025C129.522 105.93 127.682 105.695 126.695 105.623C125.537 105.519 124.276 105.336 123.061 105.221C121.562 105.051 120.074 104.825 118.54 104.53C117.439 104.437 116.359 104.23 115.223 104.012Z" fill="#FFEB90"/>
<path d="M113.083 115.785C111.549 115.491 110.072 115.207 108.605 114.867C104.82 114.024 101.853 113.219 100.397 112.823C99.3395 112.502 97.4972 111.972 95.1086 111.22C93.6749 110.71 91.673 110.09 89.1115 109.011C88.1892 108.598 86.2877 107.763 84.043 106.567C83.9862 106.556 82.5501 105.751 80.587 104.316C79.8678 103.766 79.2054 103.227 78.676 102.301C78.2844 101.579 78.0282 100.764 78.021 99.8802L79.7449 99.7987C79.7497 100.388 79.9358 100.954 80.2005 101.416C80.5111 101.947 80.9112 102.318 81.6304 102.868C83.4339 104.214 84.8241 104.951 84.8241 104.951C87.012 106.136 88.8676 106.904 89.7331 107.305C92.2378 108.374 94.1719 109.039 95.6165 109.493C97.9374 110.291 99.7229 110.81 100.791 111.074C102.19 111.46 105.158 112.264 108.886 113.097C111.261 113.611 113.704 114.08 116.204 114.559C118.886 115.014 121.123 115.326 122.498 115.53C124.224 115.744 127.154 116.129 131.002 116.337C132.046 116.42 133.738 116.509 136.097 116.49C139.807 116.495 142.79 116.302 144.749 115.913C144.998 115.843 145.293 115.841 145.542 115.771C146.335 115.628 147.061 115.532 147.851 115.095C148.71 114.612 149.43 113.927 150.002 113.095L151.462 114.081C150.723 115.175 149.799 115.998 148.737 116.619C147.676 117.239 146.712 117.349 145.852 117.537C145.603 117.607 145.365 117.62 145.115 117.69C143.031 118.114 139.925 118.342 136.101 118.315C133.752 118.277 131.947 118.166 130.892 118.141C126.987 117.921 124.057 117.536 122.274 117.312C120.899 117.107 118.662 116.796 115.924 116.33C115.026 116.099 114.049 115.97 113.083 115.785Z" fill="#FFEB90"/>
<path d="M109.855 133.234C108.036 132.886 106.229 132.48 104.479 132.086C102.728 131.691 101.319 131.362 100.648 131.175C98.6812 130.68 97.123 130.204 96.3384 129.995C94.883 129.598 93.4384 129.145 92.1643 128.724C91.6638 128.569 90.8334 128.292 89.7865 127.915C88.4097 127.415 86.2591 126.65 83.7762 125.467C82.7512 124.977 81.6693 124.475 80.7119 123.938C76.8715 121.848 76.0689 120.811 75.5854 119.953C75.1479 119.163 74.8458 118.281 74.725 117.375L76.4706 117.18C76.5673 117.905 76.7425 118.527 77.099 119.125C77.3178 119.521 77.8472 120.446 81.528 122.447C82.4395 122.916 83.4537 123.463 84.4787 123.954C86.9157 125.069 89.0094 125.824 90.3295 126.312C91.3763 126.689 92.15 126.955 92.6504 127.11C93.8677 127.52 95.3691 127.985 96.7677 128.371C97.4955 128.569 99.0536 129.044 101.02 129.539C101.691 129.727 103.101 130.056 104.794 130.439C107.613 131.098 110.682 131.686 113.533 132.174C118.043 132.921 121.621 133.313 122.949 133.45C126.185 133.776 128.58 133.882 129.454 133.932C131.906 134.049 134.141 134.066 136.284 133.947C136.874 133.943 138.541 133.85 140.785 133.515C142.122 133.301 143.039 133.124 143.548 132.927C144.758 132.453 145.796 131.651 146.717 130.533L148.099 131.622C147.009 133.002 145.701 133.987 144.231 134.588C143.982 134.658 143.27 134.992 141.094 135.281C138.794 135.605 137.013 135.676 136.412 135.737C134.212 135.845 131.92 135.818 129.468 135.701C128.594 135.651 126.143 135.534 122.85 135.197C121.521 135.059 117.887 134.657 113.32 133.899C112.138 133.613 110.991 133.452 109.855 133.234Z" fill="#FFEB90"/>
<path d="M106.661 149.278C106.49 149.245 106.377 149.223 106.32 149.212C105.638 149.081 105.07 148.972 104.615 148.885C103.706 148.711 102.968 148.569 102.581 148.436C101.615 148.251 100.83 148.042 100.433 147.966C99.7049 147.767 99.0799 147.647 98.7958 147.593C97.2727 147.242 96.0445 146.889 95.4304 146.712C93.5881 146.182 92.1327 145.785 91.4159 145.53C90.4149 145.221 89.3572 144.9 88.4699 144.612C87.1958 144.191 86.149 143.814 85.6594 143.602C84.783 143.258 84.1798 143.024 83.9634 142.924C83.5198 142.78 82.8138 142.468 81.9483 142.067C81.356 141.777 80.3659 141.41 79.1922 140.773C78.4403 140.394 77.472 139.914 76.2632 139.152C74.9976 138.38 74.392 137.852 74.1865 137.695C73.5241 137.156 73.0672 136.774 72.6647 136.108C72.1136 135.296 71.8114 134.414 71.7692 133.405L73.504 133.267C73.5438 133.981 73.7758 134.614 74.1433 135.155C74.4189 135.561 74.7162 135.854 75.3895 136.336C75.595 136.493 76.1547 136.954 77.3066 137.704C78.4586 138.455 79.4269 138.935 80.1328 139.247C81.2607 139.816 82.183 140.228 82.7862 140.462C83.6517 140.863 84.3686 141.118 84.7554 141.251C84.9718 141.352 85.6318 141.596 86.4514 141.93C86.9518 142.085 87.9419 142.451 89.2051 142.929C90.0924 143.217 91.0933 143.526 92.0942 143.836C92.8219 144.034 94.2665 144.488 96.052 145.007C96.666 145.183 97.9051 145.48 99.3606 145.877C99.7015 145.942 100.259 146.108 100.997 146.249C101.395 146.326 102.18 146.535 103.145 146.72C103.543 146.796 104.282 146.938 105.18 147.169C105.578 147.245 106.146 147.354 106.828 147.485C107.112 147.54 107.85 147.681 108.759 147.855C110.691 148.226 112.293 148.474 112.872 148.526C114.19 148.72 115.564 148.925 116.768 149.097C118.949 149.397 120.686 149.554 121.56 149.604C123.411 149.782 124.807 149.873 125.511 149.891C126.214 149.908 127.372 150.012 128.904 150.012C129.664 150.04 130.72 150.065 132.148 149.986C132.977 149.969 134.043 149.938 135.426 149.791C136.208 149.705 137.285 149.618 138.633 149.346C139.675 149.134 140.422 148.924 141.237 148.669C142.13 148.31 142.401 148.127 142.469 148.081C142.943 147.76 143.336 147.247 143.569 146.644L145.141 147.357C144.739 148.222 144.189 148.94 143.501 149.456C143.23 149.639 142.824 149.915 141.806 150.308C140.924 150.61 140.052 150.854 138.953 151.056C137.492 151.305 136.347 151.439 135.565 151.524C134.125 151.66 133.002 151.68 132.174 151.698C130.699 151.709 129.633 151.74 128.815 151.701C127.227 151.691 126.001 151.633 125.365 151.569C124.662 151.552 123.209 151.45 121.358 151.272C120.495 151.165 118.758 151.009 116.509 150.754C115.248 150.571 113.863 150.423 112.556 150.173C111.931 150.053 110.33 149.804 108.387 149.491C107.626 149.463 107.058 149.354 106.661 149.278Z" fill="#FFEB90"/>
<path d="M103.58 165.343C103.409 165.31 103.239 165.278 103.068 165.245C101.875 165.016 100.909 164.831 100.295 164.654C99.0451 164.415 98.0902 164.173 97.6356 164.086C96.3966 163.789 95.4984 163.558 95.0439 163.471C93.9184 163.196 93.0771 162.976 92.7471 162.854C91.5757 162.511 90.2798 162.204 89.2221 161.884C87.7207 161.419 86.6061 161.088 86.2761 160.966C85.2752 160.656 84.5584 160.401 84.2852 160.29C83.2383 159.912 82.4647 159.646 82.3051 159.557C81.1555 159.101 80.2223 158.745 79.8923 158.623C79.5055 158.49 78.9131 158.2 78.1504 157.877C77.7176 157.676 77.0685 157.375 76.203 156.974C75.827 156.784 75.3483 156.516 74.5965 156.136C74.2773 155.957 73.8555 155.7 73.274 155.353C72.8522 155.096 72.3843 154.77 71.757 154.356C71.2433 153.963 70.7295 153.57 70.1348 152.985C69.5969 152.411 69.2077 151.984 68.8729 151.272C68.63 150.696 68.5225 150.028 68.5395 149.325L70.2875 149.425C70.2681 149.833 70.3055 150.252 70.4784 150.579C70.6403 150.964 70.8918 151.188 71.3728 151.751C71.8648 152.258 72.2758 152.572 72.7436 152.897C73.3141 153.301 73.7819 153.626 74.1579 153.816C74.6825 154.152 75.0584 154.342 75.3776 154.52C76.0158 154.878 76.5513 155.157 76.8704 155.336C77.7359 155.738 78.3283 156.028 78.761 156.229C79.5238 156.551 80.1161 156.842 80.5029 156.975C80.833 157.097 81.7094 157.441 82.8589 157.897C83.0185 157.987 83.7922 158.253 84.7822 158.619C84.9986 158.72 85.7154 158.975 86.7163 159.284C87.0463 159.406 88.1609 159.738 89.6623 160.202C90.72 160.523 91.9482 160.876 93.1304 161.162C93.4713 161.227 94.3018 161.504 95.4272 161.779C95.8818 161.866 96.7799 162.097 98.019 162.393C98.4735 162.481 99.4285 162.723 100.678 162.962C101.247 163.071 102.202 163.313 103.395 163.542C104.304 163.716 105.099 163.869 105.611 163.967C107.088 164.25 108.235 164.411 108.803 164.52C110.178 164.725 111.552 164.93 112.813 165.113C114.187 165.317 115.289 165.411 115.686 165.487C116.958 165.613 117.935 165.742 118.287 165.75C119.797 165.863 120.898 165.957 121.25 165.965C122.703 166.067 123.758 166.093 123.996 166.08C125.46 166.125 126.515 166.151 126.867 166.16C127.276 166.179 127.866 166.175 128.694 166.157C129.17 166.13 130.112 166.134 131.189 166.047C132.085 165.983 133.219 165.906 134.623 165.646C135.779 165.455 136.764 165.232 137.704 164.942C139.141 164.511 139.501 164.168 139.783 163.928C140.076 163.631 140.255 163.312 140.388 162.926L142.038 163.536C141.804 164.139 141.468 164.663 141.018 165.165C140.501 165.714 139.892 166.126 138.194 166.684C137.187 167.02 136.145 167.232 134.865 167.458C133.347 167.696 132.156 167.762 131.26 167.826C130.126 167.903 129.184 167.899 128.651 167.914C127.823 167.932 127.177 167.926 126.768 167.906C126.473 167.908 125.35 167.929 123.84 167.816C123.602 167.829 122.49 167.792 121.037 167.69C120.685 167.681 119.584 167.588 118.074 167.475C117.722 167.466 116.745 167.338 115.473 167.212C115.065 167.192 113.974 167.042 112.532 166.883C111.271 166.7 109.84 166.485 108.466 166.28C107.898 166.171 106.75 166.01 105.216 165.716C104.886 165.594 104.318 165.485 103.58 165.343Z" fill="#FFEB90"/>
<path d="M100.556 181.419C99.9878 181.31 99.4765 181.212 99.022 181.125C97.5447 180.842 96.3625 180.556 95.7375 180.436C94.2144 180.085 93.0321 179.8 92.464 179.691C91.1681 179.383 90.1563 179.131 89.7694 178.998C88.7008 178.734 87.8703 178.457 87.5295 178.391C86.1876 178.016 85.1299 177.696 84.5726 177.53C83.1849 177.088 82.184 176.778 81.854 176.656C80.9667 176.368 80.3066 176.124 80.0903 176.023C79.2139 175.679 78.497 175.423 78.3266 175.391C77.8829 175.247 77.177 174.935 76.2547 174.523C75.7651 174.311 74.8887 173.966 73.7609 173.397C73.2713 173.185 72.5762 172.817 71.7216 172.359C71.1861 172.079 70.5478 171.722 69.7609 171.218C69.1904 170.814 68.5521 170.456 67.8438 169.849C66.9867 169.096 66.4271 168.636 65.9895 167.846C65.5979 167.123 65.4445 166.388 65.4264 165.56L67.1394 165.536C67.1551 166.068 67.2844 166.623 67.4923 167.075C67.7461 167.594 68.1571 167.908 68.9113 168.583C69.5737 169.122 70.0984 169.458 70.6689 169.861C71.399 170.355 71.9913 170.645 72.5268 170.924C73.3815 171.382 74.0306 171.683 74.5093 171.951C75.5912 172.453 76.4108 172.787 76.9003 172.999C77.8227 173.411 78.5395 173.666 78.9832 173.81C79.1427 173.899 79.8027 174.144 80.69 174.431C80.9064 174.532 81.5205 174.708 82.3969 175.053C82.7269 175.175 83.7278 175.485 85.0588 175.917C85.5592 176.071 86.617 176.392 87.9588 176.767C88.2997 176.832 89.0733 177.098 90.1419 177.362C90.5288 177.495 91.5406 177.748 92.7796 178.045C93.291 178.143 94.4623 178.485 95.9964 178.779C96.5645 178.888 97.7468 179.174 99.224 179.457C99.9058 179.588 100.701 179.74 101.667 179.925C103.088 180.198 104.178 180.348 104.86 180.479C105.882 180.675 106.632 180.76 107.03 180.836C108.461 181.052 109.551 181.202 110.073 181.243C111.334 181.426 112.265 181.487 112.663 181.563C113.878 181.678 114.798 181.796 115.15 181.804C116.137 181.876 116.887 181.961 117.125 181.948C117.874 182.033 118.986 182.069 120.212 182.128C120.678 182.158 121.495 182.197 122.55 182.223C123.14 182.218 124.139 182.233 125.375 182.235C126.26 182.228 127.621 182.195 129.31 181.989C130.626 181.888 131.486 181.7 131.792 181.641C133.016 181.405 133.763 181.195 134.136 181.09C135.076 180.799 135.46 180.638 135.923 180.373C136.465 180.006 136.914 179.504 137.226 178.799L138.787 179.569C138.318 180.479 137.7 181.244 136.898 181.737C136.221 182.196 135.656 182.382 134.659 182.662C134.286 182.767 133.414 183.012 132.134 183.237C131.828 183.296 130.854 183.462 129.482 183.552C127.679 183.736 126.318 183.77 125.376 183.766C124.072 183.81 123.073 183.795 122.427 183.788C121.371 183.763 120.554 183.724 120.089 183.693C118.806 183.624 117.694 183.587 116.945 183.502C116.717 183.459 115.957 183.431 114.912 183.348C114.561 183.339 113.641 183.222 112.369 183.096C111.96 183.076 111.04 182.959 109.78 182.776C109.257 182.735 108.11 182.573 106.679 182.358C106.281 182.282 105.475 182.186 104.452 181.99C103.77 181.859 102.623 181.698 101.26 181.436C101.124 181.528 100.84 181.474 100.556 181.419Z" fill="#FFEB90"/>
<path d="M97.4747 197.484C96.6225 197.321 95.9407 197.19 95.4293 197.092C94.0089 196.82 92.9403 196.556 92.3722 196.447C91.0195 196.129 89.9509 195.865 89.4963 195.778C88.1436 195.459 87.1427 195.15 86.6882 195.063C85.5059 194.777 84.6754 194.5 84.2777 194.424C83.2768 194.114 82.5491 193.916 82.2759 193.804C81.1045 193.462 80.2173 193.174 79.9441 193.063C78.8404 192.675 78.0099 192.398 77.7935 192.298C76.5762 191.888 75.6998 191.543 75.4835 191.443C75.0398 191.299 74.2771 190.976 73.3547 190.564C72.8083 190.341 72.216 190.051 71.3396 189.706C70.9069 189.506 70.2577 189.205 69.4031 188.746C68.9703 188.546 68.2293 188.109 67.3288 187.584C66.7473 187.237 66.3823 186.99 66.2795 186.912C66.0172 186.743 65.6062 186.429 65.1493 186.047C64.8411 185.812 64.4869 185.508 64.0977 185.081C63.8003 184.788 63.503 184.496 63.1815 184.022C62.9518 183.684 62.6762 183.278 62.5578 182.667C62.4636 182.236 62.4262 181.817 62.5024 181.42L64.2286 181.633C64.1851 181.86 64.2092 182.042 64.2793 182.29C64.3385 182.596 64.4763 182.799 64.66 183.07C64.8897 183.408 65.0843 183.622 65.3248 183.903C65.6681 184.263 65.9764 184.499 66.2278 184.724C66.6388 185.038 67.0038 185.285 67.2552 185.51C67.4148 185.599 67.723 185.835 68.2477 186.171C69.0914 186.686 69.7865 187.054 70.2192 187.255C71.017 187.702 71.6662 188.003 72.0989 188.204C72.9076 188.594 73.5108 188.828 74.0572 189.05C74.9796 189.463 75.6964 189.718 76.14 189.862C76.3564 189.962 77.176 190.296 78.3933 190.706C78.6097 190.806 79.4402 191.083 80.4979 191.404C80.7711 191.515 81.6584 191.803 82.8297 192.145C83.1029 192.256 83.8307 192.455 84.7748 192.753C85.1048 192.876 86.0029 193.107 87.1284 193.381C87.572 193.525 88.5838 193.778 89.9365 194.096C90.3911 194.184 91.4597 194.447 92.8124 194.766C93.3805 194.875 94.4491 195.138 95.8127 195.4C96.4377 195.52 97.29 195.683 98.3126 195.879C99.6762 196.141 100.756 196.348 101.448 196.422C102.698 196.661 103.732 196.801 104.197 196.831C105.288 196.981 106.151 197.088 106.605 197.175C107.469 197.282 108.161 197.356 108.502 197.421C109.536 197.56 110.342 197.656 110.694 197.665C111.738 197.747 112.601 197.854 112.896 197.852C113.646 197.937 114.747 198.03 115.916 198.078C117.312 198.169 118.368 198.195 118.606 198.181C119.071 198.212 119.956 198.205 121.068 198.242C121.896 198.224 123.133 198.226 124.743 198.122C125.458 198.083 126.41 198.03 127.68 197.861C129.436 197.61 130.421 197.387 130.738 197.271C131.293 197.142 131.916 196.967 132.639 196.576C133.486 196.15 133.711 195.899 133.846 195.807C134.071 195.556 134.239 195.294 134.305 194.953L135.976 195.45C135.811 196.007 135.542 196.485 135.16 196.942C134.868 197.239 134.44 197.628 133.4 198.134C132.553 198.56 131.805 198.77 131.194 198.888C130.209 199.112 129.166 199.324 127.897 199.492C126.571 199.65 125.618 199.703 124.836 199.788C123.169 199.88 121.876 199.868 121.048 199.886C119.868 199.895 118.994 199.845 118.517 199.871C118.279 199.884 117.224 199.859 115.771 199.757C114.545 199.698 113.444 199.605 112.751 199.531C112.399 199.522 111.593 199.426 110.492 199.333C110.14 199.324 109.334 199.228 108.243 199.078C107.959 199.024 107.21 198.939 106.347 198.832C105.949 198.756 105.029 198.638 103.938 198.488C103.427 198.39 102.394 198.251 101.133 198.068C100.508 197.948 99.3605 197.787 97.997 197.525C97.7588 197.539 97.5884 197.506 97.4747 197.484Z" fill="#FFEB90"/>
<path d="M119.64 7.86621C119.629 7.92298 119.629 7.92298 119.629 7.92298C119.629 7.92298 119.629 7.92298 119.618 7.97975L119.607 8.03651C119.607 8.03651 119.596 8.09328 119.585 8.15005C119.585 8.15005 119.574 8.20682 119.563 8.26358C119.553 8.32035 119.553 8.32035 119.542 8.37712L119.52 8.49066L119.498 8.60419L119.487 8.66096L119.476 8.71773C119.465 8.77449 119.455 8.83126 119.455 8.83126C119.455 8.83126 119.455 8.83126 119.444 8.88803L119.433 8.9448C119.433 8.9448 119.411 9.05833 119.4 9.1151L119.389 9.17187C119.357 9.34217 119.313 9.56924 119.28 9.73954C119.259 9.85308 119.226 10.0234 119.204 10.1369L119.139 10.4775C119.139 10.4775 118.997 11.2155 118.987 11.2723C118.965 11.3858 117.879 17.3573 117.868 17.4141C117.824 17.6411 116.986 22.0122 116.964 22.1258C116.932 22.2961 116.899 22.4664 116.866 22.6367C116.866 22.6367 116.866 22.6367 116.855 22.6935L116.844 22.7502C116.844 22.7502 116.844 22.7502 116.834 22.807C116.834 22.807 116.834 22.807 116.823 22.8638C116.823 22.8638 116.823 22.8638 116.812 22.9205C116.812 22.9205 116.812 22.9205 116.801 22.9773C116.801 22.9773 116.801 22.9773 116.79 23.0341L116.779 23.0908C116.779 23.0908 116.779 23.0908 116.768 23.1476C116.768 23.1476 116.757 23.2044 116.814 23.2153C116.814 23.2153 116.86 23.2829 116.906 23.3506C116.998 23.4859 117.09 23.6212 117.09 23.6212C117.238 23.7675 117.33 23.9028 117.433 23.9813C117.525 24.1167 117.628 24.1952 117.741 24.217C117.844 24.2956 117.947 24.3741 118.05 24.4527C118.106 24.4636 118.312 24.6207 118.574 24.7887C118.631 24.7996 118.791 24.889 118.996 25.0462C119.691 25.4149 120.567 25.7595 120.557 25.8163C121.16 26.0496 121.593 26.2503 121.923 26.3725C122.139 26.4728 122.526 26.6058 123.026 26.7607C123.527 26.9155 124.858 27.3473 126.768 27.8312C126.995 27.8748 127.723 28.0732 128.745 28.2693C129.086 28.3347 129.654 28.4436 130.393 28.5853C131.018 28.7051 131.472 28.7923 131.767 28.79C132.222 28.8771 132.574 28.8857 132.744 28.9184C133.085 28.9838 133.38 28.9815 133.494 29.0033C133.55 29.0142 133.721 29.0469 133.902 29.0228C134.652 29.1077 135.288 29.1707 135.344 29.1816C135.923 29.2338 136.389 29.2642 136.503 29.286C136.616 29.3078 136.968 29.3164 137.377 29.3359C137.899 29.3772 138.727 29.3594 139.793 29.3284C139.793 29.3284 140.746 29.2757 141.539 29.1335C141.539 29.1335 142.026 29.0503 142.456 28.9563C142.581 28.9213 142.705 28.8863 142.705 28.8863C142.83 28.8514 142.954 28.8164 143.09 28.7246C143.214 28.6897 143.282 28.6438 143.428 28.4953C143.496 28.4494 143.631 28.3577 143.778 28.2091C143.789 28.1524 143.856 28.1065 143.878 27.993C143.889 27.9362 143.9 27.8794 143.9 27.8794C143.911 27.8227 143.922 27.7659 143.932 27.7091C143.954 27.5956 143.987 27.4253 144.009 27.3117C144.009 27.3117 144.096 26.8576 144.107 26.8008L144.226 26.1764C144.292 25.8358 144.346 25.552 144.411 25.2113C144.466 24.9275 144.52 24.6437 144.575 24.3598L144.727 23.5651C144.782 23.2812 144.847 22.9406 144.901 22.6568L145.075 21.7485C145.348 20.3293 145.631 18.8534 145.903 17.4342C146.099 16.4124 146.295 15.3906 146.491 14.3687L146.567 13.9714L146.621 13.6875L146.686 13.3469C146.686 13.3469 146.686 13.3469 146.676 13.4037C146.665 13.4605 146.654 13.5172 146.654 13.5172C146.654 13.5172 146.643 13.574 146.575 13.6199C146.575 13.6199 146.564 13.6766 146.497 13.7225C146.429 13.7684 146.418 13.8251 146.418 13.8251C146.608 13.4496 146.54 13.4954 146.54 13.4954C146.472 13.5413 146.473 13.5413 146.405 13.5872C146.337 13.633 146.269 13.6789 146.269 13.6789L146.202 13.7248C146.202 13.7248 146.077 13.7598 146.009 13.8056C145.942 13.8515 145.885 13.8406 145.817 13.8865C145.75 13.9324 145.693 13.9215 145.625 13.9673C145.625 13.9673 145.501 14.0023 145.433 14.0482C145.433 14.0482 145.308 14.0832 145.251 14.0723C145.184 14.1182 145.002 14.1422 144.697 14.2013C144.572 14.2363 144.448 14.2713 144.391 14.2604C144.209 14.2844 144.085 14.3194 143.971 14.2976C143.914 14.2867 143.79 14.3217 143.552 14.3349C143.495 14.324 143.37 14.359 143.132 14.3722C143.132 14.3722 142.894 14.3854 142.656 14.3985C141.647 14.4404 140.478 14.3928 140.478 14.3928C139.66 14.3538 139.014 14.3475 138.616 14.2712C138.445 14.2386 137.515 14.1778 136.357 14.0734C136.072 14.0189 135.153 13.9014 133.949 13.7294C132.574 13.5246 131.505 13.2609 130.994 13.1628C130.369 13.043 129.3 12.7792 127.902 12.3933C126.333 11.9747 125.183 11.5188 124.956 11.4753C124.512 11.3313 123.795 11.0762 122.93 10.6748C122.816 10.653 122.167 10.352 121.426 9.91558C121.369 9.90469 121.061 9.66902 120.593 9.34389C120.593 9.34389 120.285 9.10822 120.045 8.82667C119.999 8.75901 119.953 8.69135 119.861 8.55602C119.815 8.48836 119.78 8.36393 119.78 8.36393C119.791 8.30716 119.745 8.2395 119.756 8.18273C119.629 7.92298 119.64 7.86621 119.64 7.86621Z" fill="#FFEB90"/>
<path d="M131.676 13.2935C132.016 13.3588 132.357 13.4242 132.641 13.4787C132.812 13.5114 133.039 13.555 133.323 13.6094C133.55 13.653 133.891 13.7184 134.289 13.7946C135.028 13.9363 135.607 13.9885 135.777 14.0211C136.811 14.1605 137.674 14.2671 137.855 14.2431C138.321 14.2734 139.013 14.3474 139.887 14.3973C141.294 14.4317 142.293 14.4466 142.531 14.4334C142.826 14.4311 143.302 14.4048 143.903 14.3434C143.903 14.3434 144.685 14.258 145.308 14.0831C145.376 14.0372 145.557 14.0131 145.749 13.9323C146.009 13.8056 146.145 13.7138 146.201 13.7247C146.394 13.6439 146.472 13.5412 146.472 13.5412C146.54 13.4953 146.608 13.4495 146.686 13.3468C146.754 13.301 146.765 13.2442 146.765 13.2442C146.776 13.1874 146.832 13.1983 146.843 13.1416C146.854 13.0848 146.854 13.0848 146.854 13.0848L146.865 13.028C146.865 13.028 146.865 13.028 146.876 12.9712L146.887 12.9145C146.898 12.8577 146.909 12.8009 146.909 12.8009C146.909 12.8009 146.92 12.7442 146.874 12.6765C146.874 12.6765 146.884 12.6197 146.839 12.5521C146.793 12.4844 146.747 12.4168 146.758 12.36C146.712 12.2923 146.666 12.2247 146.62 12.157C146.563 12.1461 146.574 12.0893 146.528 12.0217C146.379 11.8755 146.174 11.7183 146.185 11.6616C146.036 11.5154 145.876 11.4259 145.774 11.3473C145.568 11.1902 145.409 11.1008 145.249 11.0113C145.146 10.9328 145.044 10.8542 144.827 10.7539C144.462 10.5073 144.189 10.3961 143.87 10.2172C143.164 9.90521 142.617 9.68273 142.287 9.56059C142.231 9.5497 141.844 9.41667 141.354 9.20508C141.354 9.20508 141.081 9.09384 140.797 9.03936C139.306 8.51813 137.51 8.05596 137.51 8.05596C137.112 7.97969 135.771 7.60468 134.009 7.26694C133.327 7.1362 132.816 7.03814 132.532 6.98367C130.589 6.67001 129.09 6.50028 128.625 6.46989C127.581 6.38731 126.763 6.34832 126.525 6.36151C125.765 6.33341 125.232 6.34889 125.004 6.30531C124.415 6.3099 123.995 6.34717 123.825 6.31448C123.291 6.32997 122.986 6.38903 122.872 6.36724C122.691 6.39132 122.452 6.40451 122.203 6.47446C121.478 6.57079 121.037 6.7216 120.912 6.75658C120.788 6.79156 120.596 6.87241 120.393 7.01003C120.325 7.0559 120.065 7.18262 119.919 7.33113C119.851 7.37701 119.829 7.49054 119.761 7.53641C119.683 7.63906 119.672 7.69582 119.661 7.75259C119.661 7.75259 119.639 7.86613 119.618 7.97966C119.607 8.03643 119.642 8.16086 119.677 8.28529C119.804 8.54504 120.044 8.82659 120.044 8.82659C120.49 9.26525 120.912 9.52271 120.912 9.52271C121.38 9.84784 121.756 10.0376 122.018 10.2056C122.178 10.2951 122.827 10.5961 123.806 11.0193C124.352 11.2418 124.739 11.3748 125.069 11.497C125.229 11.5864 125.956 11.7848 126.957 12.0945C127.287 12.2166 128.345 12.5371 129.811 12.8772C130.596 13.0865 131.221 13.2063 131.676 13.2935Z" fill="#FFCE00"/>
<path d="M174.271 136.69C173.931 137.786 173.493 138.602 173.145 139.229C172.814 139.723 172.723 139.913 172.575 140.028C171.815 140.736 170.858 140.883 170.519 140.907C168.869 141.235 167.036 141.941 164.552 143.035C163.487 143.503 161.861 144.169 160.134 145.626C159.317 146.26 158.276 147.067 157.358 148.493C156.936 149.177 155.762 151.039 155.428 153.678C155.411 153.81 155.394 153.942 155.394 153.942L155.452 154.017L155.51 154.091L155.567 154.165L155.625 154.24C155.625 154.24 155.625 154.24 155.682 154.314C155.666 154.446 155.723 154.52 155.781 154.595C155.781 154.595 155.781 154.595 155.764 154.727C155.805 154.933 155.714 155.122 155.714 155.122C155.664 155.518 155.556 155.84 155.556 155.84C155.465 156.03 155.374 156.219 155.283 156.409C155.118 156.656 154.895 156.829 154.82 156.886C154.746 156.944 154.672 157.002 154.597 157.059C154.374 157.232 154.3 157.29 154.151 157.405C154.077 157.463 153.928 157.578 153.705 157.751C153.705 157.751 153.482 157.924 153.243 158.229C152.912 158.723 152.771 159.309 152.754 159.44C152.737 159.572 152.505 160.348 151.892 162.013C151.801 162.203 151.586 162.846 151.097 164.058C150.683 165.212 150.302 166.102 150.268 166.366C149.854 167.52 149.366 168.732 148.951 169.886C147.51 173.86 146.715 175.905 145.232 179.672C143.534 184.083 143.642 183.762 142.234 187.472C141.944 188.172 141.007 190.802 139.765 194.265C138.721 197.217 139.209 196.005 137.552 200.622C136.723 202.93 136.348 205.363 135.462 207.598C135.28 207.977 134.974 208.809 135.046 209.824C135.143 211.177 135.876 212.276 136.106 212.573C136.337 212.87 136.452 213.019 136.814 213.333C137.597 214.035 138.264 214.589 138.759 214.92C140.547 216.152 142.064 216.88 142.064 216.88C145.592 218.668 149.433 220.092 149.623 220.184C150.002 220.366 153.844 221.791 158.264 222.886C158.718 223.011 160.078 223.384 162.017 223.428C163.279 223.521 164.219 223.506 165.342 223.112C165.829 222.972 167.025 222.521 167.984 221.301C168.133 221.186 168.298 220.939 168.919 219.744C169.722 218.169 170.268 217.032 170.268 217.032C171.013 215.383 172.155 212.712 173.662 209.283L176.378 202.654L179.65 194.287L184.545 181.566C186.89 175.226 187.776 172.991 188.107 172.497C188.181 172.439 188.363 172.06 188.504 171.475C188.612 171.153 188.72 170.832 188.655 170.287C188.614 170.081 188.573 169.874 188.508 169.33C188.426 168.917 188.426 168.917 188.385 168.711C188.32 168.166 188.444 167.713 188.478 167.449C188.478 167.449 188.784 166.616 189.321 166.081C189.396 166.023 189.47 165.966 189.676 165.925C189.75 165.867 189.808 165.941 189.882 165.884C189.957 165.826 190.048 165.637 190.139 165.447C190.395 165.01 190.577 164.631 190.668 164.441C190.958 163.741 191.231 163.172 191.265 162.908C191.373 162.586 191.621 161.679 191.697 160.549C191.764 160.021 191.824 159.023 191.595 157.654C191.53 157.109 191.178 155.12 189.929 152.281C189.501 151.422 188.095 148.227 186.679 146.707C186.564 146.559 185.971 145.947 185.617 145.031C185.519 144.75 185.363 144.395 185.355 143.925C185.29 143.381 185.414 142.927 185.721 142.094C185.663 142.02 185.788 141.567 185.987 141.055L174.271 136.69Z" fill="#FFCE00"/>
<path d="M175.19 128.359L172.341 136.043L187.898 141.834L190.748 134.15C190.311 133.894 189.817 133.563 189.133 133.141C186.132 131.421 183.634 130.501 182.406 130.144C179.908 129.225 177.491 128.718 175.454 128.393L175.19 128.359Z" fill="#FFEB90"/>
<path d="M149.381 168.601C149.727 169.047 150.32 169.658 151.045 170.286C152.19 171.302 153.212 171.7 154.465 172.395C157.367 173.835 158.883 174.563 159.642 174.927C161.29 175.672 163.409 176.41 165.734 177.107L156.277 205.742C156.054 205.914 155.699 206.071 155.344 206.227C154.502 206.522 153.826 206.571 153.298 206.504C151.227 206.443 150.056 206.161 150.056 206.161C147.055 205.513 144.614 204.667 144.103 204.469C140.962 203.333 139.915 202.598 139.306 202.118C139.248 202.044 138.696 201.639 137.913 200.936C137.798 200.788 137.608 200.697 137.551 200.622L149.381 168.601Z" fill="#FFEB90"/>
<path d="M173.918 140.533C174.626 141.293 175.293 141.847 175.788 142.178C176.093 142.418 176.719 142.765 177.535 143.204C177.972 143.46 178.615 143.676 179.39 143.908C180.165 144.14 180.825 144.223 181.163 144.199C181.823 144.283 182.293 144.275 182.557 144.309C183.027 144.301 183.365 144.277 183.572 144.236C183.778 144.195 183.984 144.154 184.116 144.171" stroke="#FFEB90" stroke-miterlimit="10" stroke-linecap="round"/>
<path d="M188.437 166.17C188.231 166.211 188.099 166.195 187.761 166.219C187.761 166.219 187.29 166.226 186.688 166.217C185.352 166.182 183.941 166.205 183.941 166.205C181.813 166.069 179.908 165.761 179.38 165.694C178.192 165.544 176.304 165.104 173.979 164.407C172.429 163.943 170.631 163.313 168.735 162.402C166.708 161.475 165.076 160.598 164.087 159.937C162.529 159.002 161.425 158.192 160.683 157.696C159.637 156.96 158.854 156.258 158.376 155.795C157.767 155.316 157.231 154.779 156.811 154.39L156.638 154.167" stroke="#FFEB90" stroke-width="0.9628" stroke-miterlimit="10" stroke-linecap="round"/>
<path d="M155.388 157.16C155.734 157.606 156.269 158.143 156.994 158.771C158.312 160.011 159.416 160.821 160.594 161.573C163.314 163.392 165.457 164.468 166.083 164.816C167.031 165.271 168.358 165.908 170.024 166.521C173.355 167.747 176.224 168.379 178.072 168.613C179.392 168.78 181.222 169.145 183.235 169.132C183.573 169.108 184.646 169.11 186.246 169.178C186.848 169.187 187.45 169.196 187.789 169.172" stroke="#FFEB90" stroke-width="0.9628" stroke-miterlimit="10" stroke-linecap="round"/>
<path d="M39.3829 207.833C39.2174 208.731 38.9927 210.171 39.2953 211.871C39.4545 212.752 39.648 214.282 40.6462 215.871C41.9246 217.782 43.6617 218.655 44.8557 219.206C46.7939 220.093 48.6519 220.409 51.901 220.5C56.3415 220.617 59.7891 220.197 61.6904 219.909C67.5337 219.074 71.9056 217.892 74.9797 217.04C79.6448 215.717 82.7018 214.541 84.9554 213.57C87.9808 212.271 90.1871 211.115 92.4208 209.293C94.8702 207.285 95.6827 205.827 95.989 205.222C96.4333 204.384 97.3824 202.43 97.2295 199.77C96.9964 196.538 95.1908 194.366 94.5529 193.674C94.6752 193.379 94.8277 192.945 95.0261 192.434C95.1168 192.015 95.5111 190.466 95.2071 188.503C94.936 186.927 94.4047 185.878 93.4367 184.15C92.7962 182.931 92.1728 182.037 91.6902 181.436C91.7664 181.219 91.8269 180.94 91.9175 180.522C92.1449 179.608 92.4011 178.292 91.992 176.948C91.6605 175.651 90.7741 174.758 90.1837 174.25L89.4945 172.583C88.1039 166.882 86.6357 161.135 85.09 155.342C82.8023 146.644 82.4821 141.525 79.4293 134.471C77.801 130.674 76.0689 127.759 74.8524 125.831C74.8208 125.708 74.6959 125.476 74.6327 125.229C74.2394 123.947 74.3563 122.601 74.9202 120.942C75.7876 118.153 76.3149 118.414 76.4778 116.99C76.6984 114.761 75.5753 112.941 75.4661 112.772C74.7178 111.646 73.3659 110.477 72.3402 109.554C72.0917 109.355 71.6564 108.939 71.2197 108.261C71.0172 107.983 70.6739 107.413 70.5305 106.594C70.3713 105.713 70.4606 105.031 70.5513 104.613C71.0336 102.12 71.5095 101.406 71.7801 99.8887C72.1704 97.5508 71.6968 95.6968 71.5863 95.2642C71.4284 94.6462 71.0035 93.2407 69.7437 91.9167C68.4522 90.4692 66.9795 89.8579 66.251 89.5832C61.7091 87.7811 65.9682 88.7338 55.5037 84.3631C52.9145 83.2471 49.6126 81.9182 45.815 80.4525L42.4881 68.2021L24.6284 72.7644L27.7699 85.0622C27.5241 85.3884 27.0626 85.9012 26.4933 86.5075C20.1722 93.7179 20.7798 94.5501 16.3506 99.6314C15.4894 100.641 13.7974 102.522 12.713 105.235C12.3462 106.118 12.1188 107.032 12.0782 108.162C12.0245 109.755 12.4481 110.898 12.7927 111.732C13.0439 112.457 13.7963 114.372 15.5058 115.91C15.9253 116.264 16.5158 116.771 17.3403 117.68C17.9006 118.326 18.1807 118.65 18.4464 119.175C18.9935 120.286 18.8595 121.307 18.8622 121.833C18.7454 123.18 18.251 123.306 17.9027 124.777C17.3875 126.884 17.7835 128.692 17.9256 129.248C18.2729 130.608 18.8503 131.579 18.9595 131.749C19.6144 132.766 19.9708 132.873 21.5883 134.566C22.6614 135.675 23.144 136.275 23.4255 136.862C23.582 137.217 23.9266 138.05 23.9545 140.479C23.9811 142.645 23.7037 142.847 23.6816 144.565C23.6725 145.818 23.8489 147.023 24.2634 149.419C24.4397 150.625 24.7568 152.124 25.1686 153.993C25.5804 155.863 25.7685 156.342 26.7631 160.235C27.2209 162.027 27.6629 163.758 28.1207 165.55C28.6574 167.651 29.1942 169.752 29.7309 171.853C30.2993 174.078 30.8676 176.303 31.4517 178.589C31.9095 180.381 32.1201 182.237 32.8251 183.966C33.4354 185.324 34.1377 186.527 33.867 188.044C33.7619 188.664 33.5621 188.912 33.4583 189.794C33.3992 190.336 33.281 191.42 33.7046 192.562C34.0189 193.535 34.5792 194.182 34.7817 194.46C35.6378 195.492 36.102 195.505 36.3374 196.169C36.5887 196.895 36.1574 197.268 35.8538 198.399C35.5056 199.87 35.6977 201.138 35.8885 202.142C36.0162 202.9 36.2543 204.09 37.0658 205.462C37.5498 206.326 38.1718 206.957 38.6071 207.373L39.3829 207.833Z" fill="#FFEB90"/>
<path d="M22.5683 135.567C23.3414 135.501 24.5012 135.402 25.7845 135.272C26.3565 135.192 28.9231 134.931 32.2616 134.342C39.4644 133.16 46.5252 131.422 46.5252 131.422C49.1207 130.759 54.1882 129.464 60.3969 127.483C65.2 125.927 69.1064 124.469 71.669 123.419C72.8116 122.995 73.8148 122.542 74.4788 122.306C74.4341 122.647 74.3434 123.065 74.3619 123.653C74.3818 124.503 74.5712 125.245 74.8066 125.909C75.3867 127.407 76.1797 128.191 76.974 129.239C77.5974 130.133 78.067 131.198 78.96 133.406C80.6515 137.45 81.5974 140.895 81.7394 141.451C83.2049 146.673 83.9378 150.83 84.0497 151.526C84.8155 156.07 86.3049 162.931 89.529 173.233C89.1753 173.652 88.6679 174.243 87.9132 174.896C86.7273 175.924 85.6781 176.455 84.1818 177.298C81.4049 178.797 82.0071 178.578 79.9245 179.702C75.6816 181.905 72.1 183.347 71.081 183.739C64.7356 186.215 59.4656 187.232 57.5959 187.644C57.5959 187.644 49.9302 189.076 41.9935 188.931C40.6628 188.876 38.1566 188.858 34.9206 188.302C34.4406 188.227 34.0225 188.136 33.7437 188.076C33.7581 187.875 33.8186 187.596 33.7857 187.209C33.7514 186.56 33.5633 186.081 33.2963 185.294C32.9201 184.337 32.7176 184.059 32.5295 183.58C32.1691 182.685 32.0888 182.113 31.8349 180.861C31.7086 180.367 31.4862 179.239 30.9337 177.076C30.6811 176.087 30.7127 176.211 29.6234 171.947C29.6234 171.947 29.3392 170.834 28.7709 168.61C28.6446 168.115 28.0921 165.952 27.7921 164.778C26.8923 161.256 26.8607 161.132 26.5924 160.081C26.0398 157.918 26.0714 158.042 25.7872 156.93C25.5189 155.879 25.1242 154.334 24.7426 152.325C24.394 150.702 24.2492 149.62 24.0584 148.616C23.6913 146.405 23.6412 145.694 23.6227 145.106C23.6372 144.905 23.6069 145.045 23.7342 142.708C23.8353 141.3 23.8628 140.634 23.8272 139.722C23.7902 138.546 23.7257 138.036 23.5534 137.619C23.3337 137.017 23.0681 136.493 22.8655 136.215L22.5683 135.567Z" fill="#FFCE00"/>
<path d="M25.086 74.557L20.7601 75.6621L17.1923 61.6957L17.145 61.5103C17.1752 61.3709 17.1896 61.1697 17.1883 60.9067C17.2474 60.365 17.2 60.1796 17.2145 59.9784C17.2736 59.4367 17.5036 59.0488 17.7955 58.645C17.9953 58.3965 18.2714 57.931 18.888 57.5101C19.4586 57.1669 20.0148 57.0248 20.3238 56.9459L39.2958 52.0994C39.4194 52.0678 39.543 52.0362 39.7902 51.9731C40.7948 51.7823 41.5706 52.2424 41.9428 52.4107C42.5635 52.7788 42.9212 53.1482 43.0303 53.3178C43.4038 53.7491 43.5761 54.1659 43.7168 54.4591L47.3793 68.7962L25.0702 74.4952L25.086 74.557Z" fill="#FFCE00"/>
<path d="M42.7949 85.8979C42.8725 85.944 48.3914 88.2207 48.4072 88.2825C54.748 90.9417 54.748 90.9417 54.748 90.9417C56.2826 91.5371 57.3056 91.9341 59.3214 92.8674C60.2827 93.2802 61.1663 93.6469 62.0369 94.4778C62.3788 94.7855 63.0784 95.4626 63.6256 96.5736C64.4858 98.3946 64.2782 100.159 64.1429 100.918" stroke="#FFCE00" stroke-width="0.9628" stroke-miterlimit="10" stroke-linecap="round"/>
<path d="M65.0449 107.798C64.9385 108.154 64.8334 108.773 64.8834 109.485C64.9808 110.381 65.3859 110.936 65.5884 111.214C65.9317 111.784 66.3354 112.076 66.6615 112.322C67.1744 112.783 67.7017 113.044 68.0738 113.212" stroke="#FFCE00" stroke-width="0.9628" stroke-miterlimit="10" stroke-linecap="round"/>
<path d="M69.1279 131.771C69.3923 132.032 69.6882 132.417 70.0774 132.91C70.2957 133.25 70.7784 133.85 71.2006 134.73C71.3255 134.961 71.5912 135.486 71.9543 136.907C72.2529 137.819 72.3016 138.267 72.6489 139.627C72.9173 140.677 73.1857 141.728 73.454 142.778C73.7066 143.767 73.9592 144.756 74.2276 145.806C74.6222 147.351 75.0169 148.896 75.4274 150.503C75.9641 152.604 76.5008 154.705 77.0376 156.806C77.306 157.857 77.5743 158.908 77.8427 159.958" stroke="#FFEB90" stroke-miterlimit="10"/>
<path d="M78.9805 164.67C79.2331 165.659 79.4699 166.586 79.7224 167.575C80.0855 168.996 80.4486 170.418 80.8117 171.839" stroke="#FFEB90" stroke-miterlimit="10"/>
</svg>
