<svg width="100" height="97" viewBox="0 0 100 97" fill="none" xmlns="http://www.w3.org/2000/svg">
<g id="Frame" clip-path="url(#clip0_680_2458)">
<g id="Group">
<path id="Vector" d="M54.6389 12.6763C54.3805 13.629 54.0287 14.3436 53.7494 14.8925C53.4804 15.3275 53.408 15.4932 53.2838 15.5968C52.6524 16.2286 51.8345 16.3843 51.5446 16.4155C50.1365 16.7474 48.5837 17.4108 46.4822 18.4264C45.5816 18.8616 44.2047 19.4835 42.766 20.7887C42.0829 21.3585 41.2134 22.0837 40.4684 23.3369C40.127 23.9376 39.1751 25.5739 38.969 27.852C38.9587 27.9659 38.9484 28.0798 38.9484 28.0798L39.0002 28.1419L39.052 28.204L39.1038 28.2661L39.1556 28.3282C39.1556 28.3282 39.1556 28.3282 39.2074 28.3903C39.1971 28.5042 39.2489 28.5663 39.3007 28.6284C39.3007 28.6284 39.3007 28.6284 39.2904 28.7423C39.3319 28.9183 39.2594 29.084 39.2594 29.084C39.2285 29.4257 39.1458 29.7053 39.1458 29.7053C39.0734 29.871 39.001 30.0367 38.9286 30.2024C38.7941 30.4199 38.6078 30.5753 38.5457 30.6271C38.4836 30.6789 38.4215 30.7307 38.3593 30.7825C38.173 30.9379 38.1109 30.9897 37.9867 31.0933C37.9246 31.1451 37.8004 31.2487 37.6141 31.4041C37.6141 31.4041 37.4278 31.5595 37.2312 31.8288C36.9622 32.2638 36.8588 32.7712 36.8485 32.8851C36.8382 32.999 36.6625 33.6721 36.1868 35.1219C36.1144 35.2876 35.949 35.8468 35.5663 36.9031C35.2457 37.9076 34.9458 38.6843 34.9252 38.9121C34.6046 39.9166 34.222 40.9729 33.9014 41.9774C32.7846 45.4362 32.1641 47.2174 31.0059 50.5002C29.6821 54.3422 29.7649 54.0626 28.6687 57.2936C28.4412 57.9046 27.7173 60.1932 26.7557 63.2067C25.9491 65.7749 26.3318 64.7186 25.0496 68.7366C24.4085 70.7456 24.1608 72.8477 23.4679 74.7946C23.3231 75.126 23.0853 75.8509 23.1788 76.7206C23.3036 77.8802 23.9667 78.8015 24.1738 79.0499C24.381 79.2983 24.4846 79.4225 24.8057 79.6812C25.4997 80.2608 26.0901 80.7161 26.5251 80.9851C28.0994 81.9888 29.425 82.5681 29.425 82.5681C32.5112 83.9957 35.8561 85.1022 36.0218 85.1746C36.3532 85.3194 39.6981 86.4259 43.5295 87.2319C43.923 87.3249 45.1035 87.604 46.7705 87.5825C47.8578 87.6235 48.6654 87.5817 49.6178 87.2086C50.0319 87.0738 51.0465 86.6488 51.8329 85.5716C51.9571 85.4681 52.0916 85.2506 52.5882 84.2046C53.2296 82.8272 53.664 81.833 53.664 81.833C54.2536 80.3935 55.1535 78.0634 56.3429 75.0705L58.4734 69.2919L61.0278 62.0014L64.8438 50.9207C66.6639 45.401 67.3568 43.4541 67.6258 43.0191C67.6879 42.9674 67.8327 42.636 67.936 42.1285C68.0187 41.8489 68.1015 41.5693 68.0288 41.1034C67.9873 40.9274 67.9458 40.7514 67.8731 40.2855C67.7901 39.9335 67.7901 39.9335 67.7486 39.7575C67.676 39.2916 67.769 38.8981 67.7896 38.6703C67.7896 38.6703 68.0274 37.9454 68.4725 37.4689C68.5346 37.4171 68.5967 37.3653 68.7727 37.3238C68.8348 37.272 68.8866 37.3341 68.9487 37.2823C69.0108 37.2305 69.0832 37.0648 69.1556 36.8991C69.3625 36.5159 69.5074 36.1845 69.5798 36.0188C69.8073 35.4078 70.0245 34.9107 70.0451 34.6829C70.1278 34.4033 70.3139 33.6163 70.3445 32.643C70.3858 32.1874 70.4061 31.328 70.1675 30.158C70.0948 29.6921 69.7317 27.9942 68.5709 25.5925C68.1772 24.8678 66.8714 22.1659 65.6076 20.9032C65.504 20.779 64.9757 20.2719 64.6441 19.4955C64.5508 19.2574 64.4057 18.9572 64.3848 18.5533C64.3121 18.0874 64.4052 17.6939 64.643 16.969C64.5912 16.9069 64.6842 16.5134 64.8393 16.0681L54.6389 12.6763Z" fill="#A9C4FF"/>
<path id="Vector_2" d="M55.1743 5.49006L52.9613 12.1799L66.5067 16.6782L68.7196 9.9884C68.3364 9.78148 67.9014 9.51245 67.3008 9.17101C64.6702 7.78466 62.4955 7.07114 61.4289 6.80239C59.2542 6.08887 57.1624 5.72736 55.4021 5.51067L55.1743 5.49006Z" fill="#6795D6"/>
<path id="Vector_3" d="M34.2322 40.859C34.543 41.2316 35.0713 41.7388 35.7135 42.2562C36.7285 43.0945 37.6191 43.4047 38.7169 43.9634C41.2542 45.1116 42.5798 45.6909 43.2426 45.9805C44.6821 46.5701 46.5254 47.1388 48.5447 47.666L41.297 72.5608C41.1107 72.7162 40.8105 72.8613 40.5103 73.0064C39.7959 73.2863 39.2161 73.3486 38.7605 73.3074C36.9796 73.3185 35.9648 73.1119 35.9648 73.1119C33.3656 72.647 31.2427 71.9956 30.7974 71.8405C28.0635 70.9615 27.1417 70.3614 26.6032 69.9682C26.5514 69.9061 26.0646 69.5749 25.3706 68.9954C25.267 68.8712 25.1013 68.7988 25.0495 68.7367L34.2322 40.859Z" fill="#6795D6"/>
<path id="Vector_4" d="M54.454 15.9895C55.0859 16.6209 55.6763 17.0762 56.1113 17.3453C56.3806 17.5419 56.9295 17.8212 57.6441 18.1729C58.0273 18.3799 58.5865 18.5453 59.2596 18.721C59.9327 18.8968 60.5022 18.9483 60.7921 18.9171C61.3616 18.9686 61.7654 18.9478 61.9932 18.9684C62.397 18.9475 62.6869 18.9163 62.8629 18.8748C63.0389 18.8333 63.2149 18.7918 63.3288 18.8021" stroke="#6795D6" stroke-miterlimit="10" stroke-linecap="round"/>
<path id="Vector_5" d="M67.7167 37.5727C67.5407 37.6142 67.4268 37.6039 67.1369 37.6351C67.1369 37.6351 66.7331 37.656 66.2154 37.6666C65.066 37.6774 63.8546 37.7401 63.8546 37.7401C62.0219 37.6891 60.3755 37.4827 59.9199 37.4415C58.8947 37.3487 57.2586 37.0284 55.2393 36.5012C53.8931 36.1497 52.3294 35.6638 50.6724 34.9397C48.9015 34.2053 47.4723 33.5018 46.6023 32.9637C45.2353 32.2085 44.2617 31.5462 43.6092 31.1427C42.6874 30.5425 41.9934 29.963 41.5687 29.58C41.0301 29.1868 40.5536 28.7418 40.1807 28.4209L40.0254 28.2346" stroke="#6795D6" stroke-width="0.9628" stroke-miterlimit="10" stroke-linecap="round"/>
<path id="Vector_6" d="M39.0427 30.8442C39.3535 31.2168 39.83 31.6619 40.4722 32.1793C41.6426 33.2039 42.6162 33.8661 43.6519 34.4766C46.0444 35.9562 47.9189 36.8148 48.4678 37.0942C49.2963 37.4562 50.4562 37.9631 51.906 38.4388C54.8056 39.3901 57.2908 39.8447 58.8854 39.9889C60.0244 40.092 61.6088 40.3502 63.3379 40.277C63.6278 40.2458 64.5493 40.2143 65.9264 40.2241C66.4442 40.2135 66.9619 40.2029 67.2518 40.1717" stroke="#6795D6" stroke-width="0.9628" stroke-miterlimit="10" stroke-linecap="round"/>
</g>
</g>
<defs>
<clipPath id="clip0_680_2458">
<rect width="59.52" height="78.5243" fill="white" transform="translate(60.95 0.672852) rotate(50.17)"/>
</clipPath>
</defs>
</svg>
