<svg width="90" height="140" viewBox="0 0 90 140" fill="none" xmlns="http://www.w3.org/2000/svg">
<g id="Frame" clip-path="url(#clip0_680_2517)">
<g id="Group">
<g id="Group_2">
<path id="Vector" d="M67.4087 73.9956C68.3875 71.3349 62.1309 59.2537 50.5073 54.9778C38.896 50.6687 26.3229 55.8609 25.3441 58.5216L6.1848 110.604C4.23951 115.892 6.13587 121.839 10.7633 125.089C13.8967 127.261 17.8784 129.594 22.4745 131.285C27.0706 132.976 31.6151 133.779 35.4092 134.155C41.0398 134.678 46.3252 131.412 48.2827 126.091L67.4087 73.9956Z" fill="#DAE4FE"/>
<g id="Group_3">
<path id="Vector_2" d="M26.4664 120.331C15.6754 116.361 5.44869 110.447 6.77002 106.855L8.10223 107.345C7.90648 107.877 8.66503 109.515 12.7154 112.176C16.315 114.52 21.3605 116.942 26.9224 118.988C32.4844 121.034 37.8969 122.459 42.1572 123.006C46.9994 123.617 48.5933 122.882 48.8013 122.316L50.1335 122.807C48.8788 126.423 37.2573 124.3 26.4664 120.331Z" fill="#C6D5FE"/>
</g>
<g id="Group_4">
<path id="Vector_3" d="M29.9288 110.918C19.1379 106.949 8.91109 101.035 10.2324 97.4426L11.5646 97.9327C11.3689 98.4648 12.1274 100.103 16.1778 102.764C19.7774 105.107 24.8229 107.53 30.3848 109.576C35.9468 111.622 41.3593 113.047 45.6196 113.594C50.4618 114.205 52.0557 113.47 52.2637 112.904L53.5959 113.394C52.3412 117.011 40.7197 114.888 29.9288 110.918Z" fill="#C6D5FE"/>
</g>
<g id="Group_5">
<path id="Vector_4" d="M33.3912 101.506C22.6003 97.5368 12.3735 91.6224 13.6948 88.0305L15.027 88.5206C14.8313 89.0527 15.5898 90.6911 19.6402 93.3516C23.2399 95.6953 28.2853 98.1177 33.8472 100.164C39.4092 102.21 44.8217 103.634 49.082 104.182C53.9242 104.793 55.5181 104.058 55.7261 103.492L57.0583 103.982C55.8036 107.599 44.1821 105.476 33.3912 101.506Z" fill="#C6D5FE"/>
</g>
<g id="Group_6">
<path id="Vector_5" d="M36.8536 92.0942C26.0627 88.1246 15.8359 82.2103 17.1572 78.6184L18.4894 79.1085C18.2937 79.6406 19.0522 81.279 23.1026 83.9395C26.7023 86.2832 31.7477 88.7056 37.3096 90.7516C42.8716 92.7977 48.2841 94.2223 52.5444 94.7701C57.3866 95.3808 58.9805 94.6456 59.1885 94.0802L60.5207 94.5702C59.266 98.1867 47.6445 96.0638 36.8536 92.0942Z" fill="#C6D5FE"/>
</g>
<g id="Group_7">
<path id="Vector_6" d="M40.316 82.6821C29.5251 78.7125 19.2983 72.7982 20.6196 69.2063L21.9518 69.6964C21.7561 70.2285 22.5146 71.8669 26.565 74.5274C30.1647 76.8711 35.2101 79.2935 40.7721 81.3395C46.334 83.3856 51.7465 84.8102 56.0068 85.358C60.849 85.9687 62.4429 85.2334 62.6509 84.668L63.9831 85.1581C62.7284 88.7745 51.1069 86.6517 40.316 82.6821Z" fill="#C6D5FE"/>
</g>
<g id="Group_8">
<path id="Vector_7" d="M44.0723 72.4717C33.2814 68.5021 23.0546 62.5878 24.376 58.9958L25.7082 59.4859C25.5124 60.0181 26.271 61.6564 30.3213 64.3169C33.921 66.6606 38.9664 69.083 44.5284 71.1291C50.0904 73.1751 55.5028 74.5998 59.7632 75.1475C64.6054 75.7582 66.1993 75.023 66.4073 74.4576L67.7395 74.9477C66.4847 78.5641 54.8632 76.4412 44.0723 72.4717Z" fill="#C6D5FE"/>
</g>
<path id="Vector_8" d="M75.7846 38.7888C74.7549 35.7291 73.9861 36.277 70.2763 28.6821C66.6719 21.3147 73.895 21.5175 64.1366 17.9277C54.3781 14.3379 59.9972 19.3124 53.4184 22.2919C46.3842 25.4814 45.2511 24.3472 41.7344 26.3008C33.5256 30.8329 28.2016 46.8477 30.2726 54.0664C31.6544 58.8415 36.5986 61.642 46.6901 65.3543C56.7816 69.0666 62.383 70.1832 66.5088 67.3964C72.7763 63.2074 78.8018 47.7526 75.7846 38.7888Z" fill="#DAE4FE"/>
<g id="Group_9">
<path id="Vector_9" d="M50.5933 54.7448C39.5692 50.6894 29.1304 44.7349 30.4272 41.2095L31.7595 41.6995C31.1477 43.3625 38.36 48.7343 51.0826 53.4144C63.8053 58.0946 72.7793 58.6772 73.3911 57.0143L74.7233 57.5043C73.4475 61.0753 61.6173 58.8001 50.5933 54.7448Z" fill="#C6D5FE"/>
</g>
<g id="Group_10">
<path id="Vector_10" d="M53.7007 46.2972C45.5076 43.2833 33.7617 37.4898 35.0708 33.9312L36.403 34.4212C35.9503 35.6518 41.6673 40.3602 54.1568 44.9546C66.6463 49.5491 74.0516 49.6678 74.5043 48.4373L75.8365 48.9273C74.594 52.5105 61.9271 49.3234 53.7007 46.2972Z" fill="#C6D5FE"/>
</g>
<g id="Group_11">
<path id="Vector_11" d="M56.7106 38.1156C47.6515 34.7831 39.1043 29.7509 40.2788 26.5581L41.611 27.0482C41.0849 28.4783 46.8753 32.9872 57.1666 36.773C67.458 40.5588 74.7899 40.8771 75.316 39.447L76.6482 39.9371C75.5403 43.1544 65.7696 41.4481 56.7106 38.1156Z" fill="#C6D5FE"/>
</g>
<g id="Group_12">
<path id="Vector_12" d="M46.5715 65.575C38.878 62.7448 31.5005 58.7471 28.7335 54.8595L29.9032 54.0438C35.1811 61.3848 59.0114 69.5847 66.4622 67.8323L66.779 69.2326C62.7654 70.1727 54.4982 68.4909 46.5715 65.575Z" fill="#C6D5FE"/>
</g>
</g>
<path id="Vector_13" d="M69.4175 22.5889C69.3808 22.6887 69.3774 22.8007 69.3496 22.9792C69.3217 23.1578 69.2816 23.3696 69.2626 23.6269C69.2503 23.6601 69.2068 23.984 69.1966 24.3201C69.1763 24.9922 69.2836 25.5226 69.2891 25.7134C69.4794 26.8407 69.8797 27.7054 70.2135 28.5455C70.3487 28.8974 70.5295 29.2282 70.8911 29.8898C71.5267 31.1431 71.9603 32.0201 72.6237 33.0948C72.8799 33.5289 73.2538 34.1573 74.0137 35.3808C74.3787 35.9304 74.6805 36.3435 75.0421 37.0052C75.1474 37.2327 75.4125 37.7456 75.662 38.4037C76.0555 39.4925 76.2193 40.3835 76.3145 40.9471C76.4749 41.9501 76.5299 42.7255 76.5585 43.2646C76.5857 44.2186 76.553 44.924 76.5605 45.4177C76.5041 46.9073 76.3124 48.0451 76.2044 48.6472C76.1887 48.7925 76.1208 49.1828 76.0039 49.7062C75.9271 50.0178 75.7911 50.7985 75.5362 51.7997C75.4105 52.2444 75.1678 53.2124 74.7729 54.3886C74.5894 54.8875 74.3046 55.7645 73.8798 56.8165C73.8309 56.9496 73.7819 57.0826 73.7697 57.1158C73.3816 58.0681 72.988 58.8295 72.7712 59.3162C72.4477 59.9901 72.152 60.4855 72.1031 60.6185C71.3438 61.9629 70.7437 62.8749 70.5792 63.1164C70.3569 63.4122 70.0735 63.8744 69.6201 64.3873C69.2823 64.7916 68.85 65.35 68.2023 65.9802C67.8556 66.3058 67.439 66.7189 66.8313 67.1373C66.3725 67.4594 65.9382 67.7149 65.6072 67.8953C65.6072 67.8953 65.6405 67.9075 65.6283 67.9408C66.0232 68.6147 66.276 69.1608 66.3603 69.3428C66.4446 69.5249 66.5832 69.7647 66.7185 70.1165C66.8538 70.4683 67.0645 70.9234 67.2595 71.5238C67.4424 72.1575 67.5199 72.5636 67.5552 72.8786C67.6205 73.318 67.5804 73.5298 67.5403 73.7416C67.5036 73.8414 67.4424 74.0077 67.4023 74.2195C67.3166 74.4523 67.2432 74.6518 67.231 74.6851C66.9251 75.5166 66.6315 76.3148 66.3256 77.1462C66.3256 77.1462 65.7506 78.7094 65.5916 79.1417C65.4692 79.4743 64.0255 83.3988 64.0133 83.4321C63.9888 83.4986 63.475 84.8954 63.4627 84.9287C63.426 85.0285 62.6063 87.2568 62.5329 87.4564C62.5329 87.4564 60.9669 91.7134 60.8201 92.1126C60.5509 92.8442 60.2695 93.6092 60.0004 94.3409C59.6333 95.3386 59.2663 96.3364 58.8992 97.3341C58.7647 97.7 57.2109 101.924 57.1986 101.957C57.1742 102.024 56.5624 103.687 56.5502 103.72C56.538 103.753 55.914 105.449 55.8895 105.516C55.8773 105.549 54.7273 108.675 54.6416 108.908C54.6049 109.008 53.1001 113.099 53.0878 113.132C52.8798 113.697 52.6841 114.229 52.4761 114.795C51.95 116.225 51.4117 117.688 50.8856 119.118C50.8856 119.118 49.6132 122.577 49.601 122.611C48.9648 124.34 48.6467 125.205 48.6467 125.205C48.5366 125.504 48.4754 125.67 48.3653 125.97C48.2185 126.369 48.1573 126.535 48.075 126.656C48.0261 126.789 47.9072 127.009 47.8215 127.242C47.6781 127.529 47.5469 127.783 47.4402 127.97C47.3457 128.125 47.2145 128.378 47.0501 128.62C46.9678 128.741 46.8856 128.861 46.8156 128.949C46.7211 129.103 46.5811 129.278 46.3833 129.507C46.091 129.891 45.8354 130.174 45.6166 130.358C45.431 130.554 45.1999 130.771 44.9233 131.009C44.75 131.172 44.5433 131.323 44.3122 131.54C44.0601 131.711 43.7834 131.949 43.3946 132.184C43.0969 132.376 42.7537 132.59 42.3771 132.791C41.864 133.056 41.3752 133.253 40.9776 133.409C40.5467 133.553 40.0702 133.717 39.4938 133.845C39.4938 133.845 38.8264 134.015 38.1501 134.106C35.8846 134.405 31.9431 133.711 31.9431 133.711C30.0555 133.394 28.4589 133.109 26.2995 132.503C23.7282 131.784 21.7421 131.015 20.7552 130.615C18.294 129.596 16.5601 128.656 15.0926 127.814C14.4965 127.482 12.8958 126.591 11.0722 125.278C10.2042 124.657 9.61152 124.212 9.04669 123.589C8.18551 122.743 7.66078 121.908 7.31685 121.404C6.6956 120.421 6.31973 119.489 6.07368 118.719C5.68353 117.518 5.53536 116.482 5.50137 115.752C5.4266 114.516 5.5238 113.533 5.58293 113.064C5.62303 112.852 5.77801 111.814 6.19398 110.683C6.20622 110.65 6.36527 110.217 6.68336 109.353C6.72007 109.253 6.95253 108.621 6.97699 108.554C6.97699 108.554 7.99246 105.794 8.12704 105.428C8.87335 103.399 9.61966 101.371 10.366 99.3419C11.2469 96.9472 12.1277 94.5526 13.0086 92.158C13.6326 90.4618 14.2443 88.7989 14.8683 87.1027C15.5534 85.2402 16.2508 83.3445 16.9359 81.482C17.5844 79.7193 18.2328 77.9566 18.869 76.2272C19.444 74.664 20.019 73.1009 20.5941 71.5377C21.3037 69.6088 22.4537 66.4825 22.4537 66.4825C23.4325 63.8218 23.8729 62.6245 24.6804 60.4294C24.9985 59.5647 25.2432 58.8995 25.4145 58.4339L25.4267 58.4006C25.4512 58.3341 25.5212 58.2466 25.6035 58.1258C25.8135 57.8632 26.0568 57.6129 26.0568 57.6129C26.1724 57.5044 26.3334 57.3749 26.5523 57.191C26.7712 57.0072 27.3455 56.5766 28.5873 55.9762C29.1338 55.7241 29.8624 55.388 30.691 55.0886C30.6699 55.0431 30.6278 54.9521 30.5856 54.8611C30.5856 54.8611 30.4293 54.4638 30.3185 54.0454C30.1268 53.333 30.0317 52.7694 29.9753 52.4088C29.8924 51.8119 29.8726 51.3515 29.8828 51.0154C29.8699 50.331 29.8747 49.8041 29.8971 49.4348C29.9331 48.6174 30.0079 48.0029 30.0426 47.6004C30.0582 47.4551 30.1364 46.7286 30.3212 45.8149C30.3491 45.6364 30.4449 45.0675 30.623 44.3778C30.672 44.2448 30.7277 43.8877 30.8657 43.4098C30.8657 43.4098 31.1607 42.1967 31.5556 41.0204C32.6091 37.7454 34.082 35.0777 34.082 35.0777C34.9513 33.434 35.9729 31.582 37.853 29.5549C39.0486 28.2578 40.0341 27.2233 41.7103 26.3673C43.6263 25.373 46.1807 24.8022 46.305 24.7725C46.5083 24.734 47.0391 24.6272 47.7521 24.4363C48.0009 24.3768 48.8383 24.1562 49.9278 23.7641C51.0962 23.3632 51.9037 23.0184 52.529 22.7575C53.5065 22.3619 53.9741 22.1186 54.4995 21.821C54.9916 21.5111 55.5292 21.1803 56.0648 20.5466C56.5427 19.9672 56.8506 19.4386 57.0062 19.1182C57.1619 18.7979 57.3053 18.5108 57.3909 18.278C57.3909 18.278 57.4242 18.2903 57.4575 18.3025C58.0958 18.7261 58.6253 19.0341 58.9128 19.1777C60.4258 19.9986 62.212 20.6934 62.212 20.6934C62.5784 20.8282 63.2323 21.1065 64.0771 21.3795C65.0552 21.7016 65.7791 21.8923 65.9123 21.9413C66.4241 22.0919 66.9815 22.2214 67.7176 22.3789C68.3661 22.4664 68.9479 22.5294 69.4175 22.5889Z" fill="#6795D6"/>
<g id="Group_13">
<path id="Vector_14" d="M56.8053 37.9615C56.6387 37.9003 56.4722 37.839 56.339 37.79C54.6071 37.1529 52.812 36.3793 51.2834 35.7037C50.0212 35.1261 48.7501 34.4697 47.7122 33.8991C47.2371 33.6488 46.5744 33.2918 45.7486 32.7614C44.2723 31.8408 43.4165 31.1861 42.5397 30.486C42.1557 30.1937 41.1069 29.2415 40.589 28.1825C40.4415 27.8639 40.3939 27.5821 40.4061 27.5488C40.3586 27.267 40.3898 26.9765 40.4544 26.6981L41.478 26.9992C41.4291 27.1322 41.4135 27.2775 41.4434 27.4018C41.4434 27.4018 41.461 27.5593 41.5576 27.7081C42.0544 28.7216 43.161 29.6195 43.182 29.665C44.0922 30.3774 44.8813 31.0075 46.291 31.9037C47.1291 32.4008 47.7585 32.7456 48.188 33.0169C49.1926 33.5752 50.4426 34.1861 51.7048 34.7637C53.2212 35.4726 54.9952 36.2007 56.6938 36.8255C57.9261 37.2788 59.1251 37.7199 60.3152 38.0822C60.927 38.2695 62.0716 38.6528 63.6315 39.0378C64.4553 39.2653 65.7032 39.5734 67.2876 39.8919C68.9508 40.2016 69.969 40.3119 71.2115 40.4291C73.0025 40.5971 73.6543 40.5726 74.3252 40.2907C74.8139 40.0929 75.2605 39.8041 75.6438 39.3787L76.3962 40.1086C75.9096 40.6093 75.3475 41.0066 74.7221 41.2675C73.778 41.6753 72.8808 41.6474 71.0898 41.4794C69.8473 41.3621 68.7503 41.2607 67.0871 40.9509C65.4483 40.5746 64.2004 40.2666 63.3766 40.0391C61.7956 39.6085 60.6388 39.2585 60.027 39.0712C58.949 38.7124 57.871 38.3536 56.8053 37.9615Z" fill="#A9C4FF"/>
</g>
<g id="Group_14">
<path id="Vector_15" d="M53.762 46.131C52.8627 45.8002 51.9302 45.4571 51.0765 45.1053C50.0895 44.7045 49.036 44.2792 48.1279 43.8696C46.6326 43.2063 45.5158 42.6444 44.9286 42.3906C44.4868 42.1526 43.7119 41.792 42.7406 41.2459C42.2655 40.9956 41.5484 40.5808 40.6227 40.0137C40.2475 39.8002 39.6969 39.4466 39.0376 38.9775C38.7413 38.7552 38.3117 38.4839 37.8189 38.0761L37.6436 37.936C36.6458 37.1536 36.0864 36.7213 35.7159 35.9809C35.4298 35.4225 35.268 34.8344 35.2306 34.2165L36.2767 34.1482C36.3175 34.6541 36.4493 35.1179 36.639 35.5275C36.904 36.0404 37.3758 36.4027 38.2859 37.1151L38.4612 37.2551C38.933 37.6174 39.317 37.9097 39.6256 38.0988C40.2849 38.5679 40.7811 38.8637 41.1563 39.0772C42.0487 39.6321 42.778 40.0136 43.2198 40.2517C44.1911 40.7978 44.9327 41.1461 45.3745 41.3841C45.9162 41.6589 47.0452 42.1875 48.5072 42.8386C49.0279 43.0679 50.0692 43.5265 51.4224 44.062C52.7091 44.5731 54.008 45.0509 55.3402 45.541C56.5392 45.9821 57.796 46.3689 58.9406 46.7522C59.5523 46.9395 60.6093 47.2527 62.0115 47.6553C62.8686 47.8951 64.1498 48.2153 65.8341 48.5706C67.061 48.8331 68.279 49.0169 69.5092 49.1674C70.1244 49.2426 70.9427 49.2794 72.5251 49.2951C73.0525 49.3003 73.58 49.3055 74.1054 49.0079C74.3453 48.8696 74.5764 48.6526 74.7742 48.4233L75.6422 49.0446C75.3621 49.3947 75.061 49.6993 74.6722 49.9339C73.8947 50.403 73.1096 50.3786 72.5489 50.3611C70.8999 50.3209 70.0693 50.3174 69.3876 50.2176C68.1573 50.0672 66.906 49.8711 65.6458 49.5964C63.916 49.2621 62.6137 48.8963 61.7444 48.6898C60.3299 48.3205 59.273 48.0072 58.6279 47.8077C57.4711 47.4576 56.2266 47.0376 54.982 46.6175C54.5946 46.4373 54.1616 46.278 53.762 46.131Z" fill="#A9C4FF"/>
</g>
<g id="Group_15">
<path id="Vector_16" d="M49.822 54.2723C49.389 54.113 45.6744 52.5956 45.5412 52.5466C45.408 52.4975 42.242 51.0308 41.8878 50.8628L39.0249 49.3943L34.5505 46.6533L33.2441 45.6818L32.162 44.7174C32.0743 44.6474 31.9656 44.5318 31.8901 44.4286L31.3042 43.7599C31.1955 43.6444 31.12 43.5411 31.0235 43.3924C30.8094 43.0493 30.6741 42.6974 30.63 42.3036L30.5416 41.5159L31.6121 41.3811L31.7005 42.1688C31.727 42.4051 31.7991 42.6204 31.9499 42.8269C31.9921 42.918 32.0465 42.9757 32.1008 43.0335L32.6867 43.7021C32.7411 43.7599 32.7955 43.8176 32.8499 43.8754L34.0196 44.9099L35.2716 45.8235L39.6251 48.4823L42.3004 49.844C43.6958 50.4706 45.8328 51.4455 45.9205 51.5155C46.0204 51.5523 48.5271 52.5499 50.1679 53.2291L54.4555 54.7308L59.3949 56.2079L62.9388 57.0585L65.9866 57.6133L68.8012 58.0823C68.9467 58.0981 69.1254 58.1261 69.2831 58.1086L71.9972 57.8231C72.1882 57.8179 72.3703 57.7339 72.5403 57.6831L72.9046 57.515C73.1778 57.389 73.4422 57.1842 73.6189 56.9094L74.4869 57.5307C74.1824 57.9473 73.8025 58.2607 73.3471 58.4707L72.9827 58.6388C72.7095 58.7648 72.4152 58.8454 72.0998 58.8804L69.3858 59.1658C69.1492 59.1921 68.8916 59.1728 68.634 59.1536L65.7738 58.7056L62.5596 58.0895L58.9823 57.2267L54.1761 55.7985L49.822 54.2723Z" fill="#A9C4FF"/>
</g>
<g id="Group_16">
<path id="Vector_17" d="M46.5992 65.3963C46.4993 65.3595 46.3994 65.3228 46.2994 65.286C45.4668 64.9797 44.6797 64.6524 43.8471 64.3461C43.06 64.0188 42.4061 63.7405 41.9854 63.548C41.1772 63.1752 40.5233 62.8969 40.2025 62.7411C39.1069 62.2248 38.2776 61.8065 37.9024 61.5929C37.3274 61.3059 36.7313 60.9733 36.2351 60.6775C35.7056 60.3695 35.1428 60.0492 34.6922 59.7324C34.4713 59.6133 34.075 59.3543 33.5911 59.0252C33.2947 58.8029 32.7775 58.4616 32.1304 57.9593C31.8008 57.7247 31.4167 57.4324 30.9362 56.9913C30.6188 56.7235 30.1382 56.2824 29.6067 55.6715C29.3348 55.3827 29.1085 55.0729 28.8821 54.7631L29.7542 54.1399C29.9472 54.4375 30.1858 54.714 30.4244 54.9906C30.9348 55.556 31.361 55.9393 31.6784 56.2071C32.1379 56.6027 32.5219 56.895 32.806 57.1505C33.4198 57.6406 33.9037 57.9697 34.2123 58.1587C34.6963 58.4878 35.0925 58.7468 35.2801 58.8536C35.743 59.1372 36.2725 59.4452 36.802 59.7533C37.2982 60.0491 37.8732 60.3361 38.436 60.6564C38.8112 60.87 39.6404 61.2883 40.7028 61.7924C41.0236 61.9482 41.6319 62.2475 42.4523 62.587C42.8398 62.7673 43.4936 63.0456 44.2807 63.3729C45.0678 63.7002 45.8671 63.9942 46.6998 64.3005C47.4325 64.5701 48.1652 64.8396 48.9102 65.0759C49.7883 65.3612 50.6998 65.6587 51.5447 65.9318C52.2563 66.1558 53.0135 66.3588 53.6708 66.5251C54.2614 66.6668 55.3184 66.9801 56.6907 67.2584C57.6056 67.4439 58.8657 67.7187 60.4868 67.9374C61.7837 68.1124 62.6897 68.2192 63.9478 68.1911C64.824 68.1736 65.6913 68.0773 66.5375 67.9355L66.719 68.9839C65.8272 69.1468 64.8933 69.2186 63.9716 69.2571C62.6347 69.2939 61.6953 69.1749 60.3651 68.9877C58.6652 68.7777 57.405 68.5029 56.4691 68.2719C55.0635 67.9814 53.9732 67.6558 53.3826 67.5141C52.692 67.3356 51.9471 67.0993 51.2232 66.9085C50.3328 66.6565 49.4546 66.3712 48.5554 66.0404C47.8981 65.8741 47.2653 65.6413 46.5992 65.3963Z" fill="#A9C4FF"/>
</g>
<g id="Group_17">
<path id="Vector_18" d="M44.1333 72.3052C43.2341 71.9744 42.3681 71.6559 41.5144 71.3041C39.3074 70.4167 37.5912 69.6343 36.7497 69.2493C36.1414 68.95 35.079 68.4459 33.7081 67.7528C32.8911 67.3012 31.741 66.7271 30.298 65.8187C29.7808 65.4773 28.713 64.7825 27.4732 63.8355C27.4399 63.8233 26.6507 63.1932 25.6054 62.1289C25.2247 61.7246 24.8774 61.3325 24.649 60.7199C24.4839 60.2438 24.4098 59.7256 24.4934 59.19L25.5449 59.3125C25.4891 59.6696 25.5456 60.0302 25.6597 60.3365C25.795 60.6883 26.0003 60.9526 26.3809 61.357C27.3386 62.3512 28.1067 62.9358 28.1067 62.9358C29.3131 63.8705 30.3599 64.5198 30.8438 64.8489C32.2535 65.7451 33.358 66.3402 34.1873 66.7585C35.5127 67.4726 36.5417 67.9645 37.1623 68.2305C37.9705 68.6033 39.6867 69.3857 41.8604 70.2608C43.247 70.8087 44.6791 71.3355 46.1445 71.8746C47.7221 72.4171 49.0455 72.8284 49.8571 73.0892C50.8807 73.3903 52.616 73.9153 54.9242 74.4246C55.5482 74.5786 56.563 74.8009 57.9931 75.0249C60.2381 75.3977 62.0624 75.5779 63.2872 75.5376C63.4449 75.5201 63.6237 75.5481 63.7814 75.5306C64.2755 75.5235 64.7241 75.5375 65.2461 75.352C65.8137 75.1454 66.318 74.8023 66.7469 74.3559L67.5327 75.0981C66.976 75.6862 66.335 76.0924 65.6309 76.362C64.9267 76.6315 64.3326 76.6018 63.7929 76.6298C63.6353 76.6473 63.4898 76.6316 63.3321 76.6491C62.0284 76.6982 60.1253 76.5267 57.8136 76.1294C56.3958 75.8722 55.3144 75.6254 54.6782 75.5046C52.3366 74.9831 50.6013 74.458 49.5444 74.1447C48.7328 73.884 47.4095 73.4727 45.7986 72.9178C45.2779 72.6885 44.6995 72.5135 44.1333 72.3052Z" fill="#A9C4FF"/>
</g>
<g id="Group_18">
<path id="Vector_19" d="M40.444 82.5401C39.3782 82.1481 38.3247 81.7228 37.3044 81.3097C36.2842 80.8966 35.4638 80.5571 35.0764 80.3768C33.9352 79.8815 33.0393 79.4387 32.5853 79.2339C31.7438 78.8488 30.9146 78.4305 30.1852 78.0489C29.8977 77.9054 29.4226 77.6551 28.8265 77.3225C28.0428 76.8832 26.8173 76.2058 25.4321 75.2432C24.8605 74.8441 24.2555 74.4328 23.7295 74.0127C21.6129 72.3656 21.2302 71.6584 21.0229 71.0913C20.8367 70.5697 20.7415 70.0061 20.7585 69.4459L21.8345 69.5019C21.8209 69.95 21.865 70.3439 22.0214 70.7412C22.1145 71.002 22.3429 71.6146 24.3718 73.1917C24.8768 73.5663 25.4362 73.9986 26.0078 74.3977C27.372 75.3149 28.5642 75.98 29.3145 76.4071C29.9106 76.7396 30.3525 76.9777 30.64 77.1212C31.336 77.4905 32.1985 77.9211 33.0067 78.2939C33.4274 78.4864 34.3233 78.9292 35.4645 79.4246C35.8519 79.6048 36.6723 79.9444 37.6592 80.3452C39.3 81.0243 41.0985 81.6859 42.776 82.2652C45.4316 83.1666 47.5577 83.7599 48.3482 83.9752C50.2745 84.495 51.7134 84.7978 52.2374 84.915C53.7097 85.2301 55.0609 85.4628 56.37 85.6046C56.7275 85.6606 57.7457 85.7708 59.1371 85.7918C59.9676 85.7952 60.5406 85.7795 60.8683 85.7112C61.6479 85.5449 62.3554 85.1632 63.0243 84.5786L63.7522 85.375C62.9556 86.1015 62.0659 86.5671 61.1163 86.7842C60.9587 86.8017 60.4944 86.933 59.1486 86.891C57.724 86.8578 56.6392 86.7231 56.2694 86.7003C54.927 86.5463 53.5424 86.3013 52.0702 85.9863C51.5462 85.8691 50.0739 85.554 48.1144 85.022C47.3239 84.8067 45.1645 84.2011 42.4756 83.2875C41.7884 82.997 41.1101 82.7852 40.444 82.5401Z" fill="#A9C4FF"/>
</g>
<g id="Group_19">
<path id="Vector_20" d="M36.9153 91.9279C36.8153 91.8911 36.7487 91.8666 36.7154 91.8543C36.3158 91.7073 35.9827 91.5848 35.7163 91.4868C35.1834 91.2908 34.7504 91.1315 34.5295 91.0125C33.9633 90.8042 33.5093 90.5994 33.2761 90.5136C32.8554 90.3211 32.489 90.1863 32.3225 90.1251C31.4355 89.761 30.7273 89.425 30.3731 89.2569C29.3108 88.7529 28.4693 88.3678 28.0608 88.142C27.4858 87.855 26.8774 87.5556 26.369 87.2931C25.6397 86.9115 25.0436 86.579 24.7683 86.4022C24.2722 86.1064 23.9303 85.9051 23.8093 85.8228C23.5551 85.6916 23.1588 85.4325 22.6749 85.1035C22.3452 84.8689 21.7824 84.5486 21.1353 84.0463C20.718 83.7417 20.1797 83.3549 19.5238 82.7737C18.8346 82.1804 18.5205 81.8006 18.4118 81.685C18.0645 81.2929 17.8259 81.0164 17.6485 80.5735C17.3956 80.0274 17.3005 79.4638 17.3752 78.8494L18.439 78.9386C18.3921 79.3745 18.4696 79.7806 18.6381 80.1446C18.7645 80.4177 18.9154 80.6242 19.275 80.9831C19.3838 81.0986 19.6767 81.4329 20.2993 82.0018C20.9219 82.5707 21.4602 82.9575 21.8565 83.2165C22.4825 83.6734 22.9998 84.0147 23.3416 84.216C23.8256 84.545 24.2341 84.7708 24.455 84.8898C24.576 84.9721 24.9512 85.1856 25.4141 85.4692C25.7016 85.6127 26.2644 85.933 26.9814 86.3479C27.4899 86.6104 28.0649 86.8974 28.6399 87.1845C29.0606 87.377 29.8899 87.7953 30.9189 88.2872C31.2731 88.4552 31.9935 88.758 32.835 89.1431C33.0348 89.2166 33.3557 89.3724 33.7886 89.5316C34.0218 89.6174 34.4758 89.8222 35.042 90.0305C35.2751 90.1162 35.7081 90.2755 36.2288 90.5048C36.4619 90.5905 36.7949 90.7131 37.1946 90.8601C37.3611 90.9213 37.7941 91.0806 38.327 91.2766C39.4594 91.6932 40.4042 92.003 40.7494 92.0923C41.5277 92.3408 42.3393 92.6016 43.0509 92.8256C44.341 93.2247 45.3768 93.4924 45.9009 93.6097C47.0034 93.902 47.8394 94.0962 48.2635 94.1767C48.6876 94.2572 49.3782 94.4358 50.3053 94.588C50.7628 94.6808 51.399 94.8015 52.2717 94.896C52.7747 94.9678 53.4231 95.0553 54.2748 95.1043C54.7567 95.1305 55.4174 95.1847 56.2602 95.1549C56.912 95.1304 57.3851 95.0779 57.9037 95.0043C58.4801 94.8765 58.6622 94.7925 58.7078 94.7715C59.0266 94.6245 59.3154 94.3531 59.5166 94.0118L60.3968 94.5999C60.0679 95.083 59.6634 95.4629 59.1958 95.7062C59.0137 95.7902 58.7404 95.9163 58.0852 96.0528C57.521 96.1474 56.9691 96.2087 56.284 96.2209C55.3745 96.2262 54.6683 96.193 54.1864 96.1668C53.3015 96.1055 52.6197 96.0058 52.1167 95.934C51.2229 95.794 50.5745 95.7065 50.0838 95.6015C49.1233 95.437 48.3872 95.2795 48.0086 95.178C47.5845 95.0975 46.7152 94.891 45.6127 94.5987C45.1009 94.4482 44.065 94.1804 42.7294 93.8023C41.9845 93.5661 41.1607 93.3385 40.3946 93.0568C40.0283 92.922 39.0835 92.6122 37.9389 92.2289C37.4814 92.1361 37.1484 92.0136 36.9153 91.9279Z" fill="#A9C4FF"/>
</g>
<g id="Group_20">
<path id="Vector_21" d="M33.4528 101.34C33.3528 101.303 33.2529 101.266 33.153 101.23C32.4536 100.972 31.8874 100.764 31.5333 100.596C30.8006 100.327 30.2466 100.085 29.9802 99.987C29.2597 99.6842 28.739 99.4549 28.4726 99.3569C27.8187 99.0786 27.3314 98.8615 27.1438 98.7548C26.4688 98.431 25.7151 98.1159 25.1067 97.8166C24.2442 97.386 23.6025 97.0745 23.4149 96.9677C22.8399 96.6807 22.4314 96.4549 22.2771 96.3604C21.681 96.0278 21.2392 95.7898 21.1515 95.7198C20.5011 95.3294 19.9716 95.0214 19.784 94.9146C19.5631 94.7956 19.2334 94.561 18.8039 94.2897C18.5619 94.1252 18.1989 93.8784 17.715 93.5494C17.5063 93.3971 17.2433 93.187 16.8259 92.8825C16.6506 92.7424 16.4208 92.5447 16.1034 92.2769C15.8737 92.0791 15.6229 91.8358 15.2844 91.5225C15.0125 91.2336 14.7406 90.9448 14.4388 90.5317C14.1703 90.1309 13.9773 89.8333 13.8454 89.3695C13.7557 88.9966 13.7571 88.5818 13.8373 88.1582L14.8854 88.3927C14.8331 88.6378 14.814 88.8951 14.8861 89.1104C14.9459 89.3589 15.0757 89.52 15.3109 89.9086C15.5583 90.2639 15.7758 90.4949 16.0266 90.7382C16.3318 91.0393 16.5826 91.2826 16.7913 91.4349C17.0754 91.6904 17.2841 91.8427 17.4594 91.9827C17.8101 92.2628 18.1065 92.4851 18.2818 92.6251C18.7658 92.9542 19.0955 93.1887 19.3374 93.3533C19.767 93.6246 20.0967 93.8591 20.3176 93.9781C20.5052 94.0849 21.0013 94.3807 21.6518 94.771C21.7395 94.841 22.1813 95.0791 22.7441 95.3994C22.8651 95.4816 23.2736 95.7074 23.8486 95.9945C24.0362 96.1013 24.6778 96.4128 25.5404 96.8434C26.1487 97.1427 26.8569 97.4787 27.5441 97.7693C27.744 97.8428 28.2191 98.0931 28.8729 98.3714C29.1394 98.4694 29.66 98.6987 30.3805 99.0015C30.647 99.0995 31.2009 99.341 31.9336 99.6106C32.2667 99.7331 32.8206 99.9746 33.52 100.232C34.0529 100.428 34.5192 100.599 34.8189 100.71C35.6849 101.028 36.3632 101.24 36.6963 101.363C37.5078 101.623 38.3194 101.884 39.0644 102.12C39.8759 102.381 40.5332 102.547 40.7663 102.633C41.5235 102.836 42.1019 103.011 42.314 103.052C43.2166 103.27 43.8739 103.437 44.086 103.477C44.9553 103.683 45.5915 103.804 45.737 103.82C46.6185 103.993 47.2547 104.114 47.4668 104.154C47.7122 104.207 48.0697 104.263 48.5727 104.334C48.8636 104.366 49.4332 104.462 50.0938 104.516C50.6424 104.567 51.3363 104.634 52.2125 104.616C52.9309 104.616 53.5494 104.579 54.1469 104.497C55.0597 104.38 55.3119 104.208 55.5063 104.091C55.7129 103.94 55.8529 103.765 55.9719 103.545L56.9099 104.079C56.7087 104.42 56.4531 104.703 56.1309 104.963C55.7632 105.243 55.3534 105.432 54.2706 105.6C53.6276 105.703 52.9758 105.728 52.1785 105.736C51.2357 105.729 50.5085 105.651 49.9599 105.6C49.266 105.533 48.6964 105.437 48.3722 105.393C47.8692 105.322 47.4784 105.253 47.233 105.201C47.0542 105.173 46.3725 105.073 45.4698 104.854C45.3244 104.839 44.6549 104.706 43.7856 104.499C43.5735 104.459 42.9162 104.293 42.0136 104.074C41.8015 104.034 41.2231 103.859 40.4659 103.655C40.2205 103.603 39.5755 103.403 38.7184 103.164C37.9734 102.927 37.1286 102.654 36.317 102.394C35.984 102.271 35.3056 102.059 34.4064 101.728C34.2188 101.622 33.8857 101.499 33.4528 101.34Z" fill="#A9C4FF"/>
</g>
<g id="Group_21">
<path id="Vector_22" d="M30.0236 110.764C29.6905 110.642 29.3908 110.532 29.1244 110.434C28.2584 110.115 27.5712 109.825 27.2049 109.69C26.3179 109.326 25.6307 109.035 25.2976 108.913C24.5439 108.598 23.9566 108.344 23.7357 108.225C23.1151 107.959 22.64 107.708 22.4402 107.635C21.6653 107.274 21.057 106.975 20.7362 106.819C19.9403 106.413 19.3652 106.126 19.1776 106.019C18.6692 105.757 18.294 105.543 18.173 105.461C17.6769 105.165 17.2684 104.939 17.1684 104.903C16.9142 104.771 16.518 104.512 16.0007 104.171C15.7254 103.994 15.2293 103.698 14.6032 103.242C14.328 103.065 13.9439 102.773 13.4722 102.41C13.1759 102.188 12.8252 101.908 12.399 101.525C12.0938 101.223 11.7431 100.943 11.3747 100.506C10.9308 99.965 10.6379 99.6306 10.4516 99.109C10.2865 98.6329 10.2668 98.1725 10.3381 97.6702L11.3774 97.8259C11.3339 98.1498 11.357 98.4981 11.4379 98.7922C11.5398 99.1317 11.7573 99.3628 12.1468 99.8459C12.4941 100.238 12.7783 100.494 13.0834 100.795C13.4763 101.166 13.806 101.4 14.1023 101.623C14.574 101.985 14.937 102.232 15.2 102.442C15.805 102.853 16.2678 103.137 16.5431 103.313C17.0604 103.655 17.4689 103.88 17.7231 104.012C17.8108 104.082 18.1859 104.295 18.6944 104.558C18.8153 104.64 19.1695 104.808 19.6657 105.104C19.8533 105.211 20.4283 105.498 21.1909 105.892C21.4784 106.035 22.0867 106.334 22.8616 106.695C23.0614 106.768 23.5032 107.006 24.1238 107.273C24.3447 107.392 24.932 107.645 25.6524 107.948C25.9522 108.058 26.6271 108.382 27.5264 108.713C27.8594 108.836 28.5466 109.126 29.4125 109.445C29.8122 109.592 30.2785 109.763 30.8447 109.971C31.6773 110.278 32.3223 110.477 32.722 110.624C33.3215 110.845 33.7667 110.971 33.9998 111.057C34.8447 111.33 35.4897 111.529 35.8017 111.606C36.5467 111.842 37.104 111.972 37.3372 112.058C38.061 112.248 38.6062 112.411 38.8182 112.452C39.4089 112.593 39.8541 112.719 39.9996 112.735C40.4448 112.861 41.1143 112.994 41.8504 113.152C42.129 113.216 42.6198 113.321 43.256 113.442C43.6135 113.498 44.2164 113.607 44.9648 113.731C45.501 113.815 46.3282 113.93 47.3709 113.974C48.177 114.044 48.7167 114.016 48.9077 114.011C49.6717 113.99 50.1448 113.937 50.3813 113.911C50.9787 113.829 51.2275 113.769 51.5341 113.655C51.8984 113.487 52.2206 113.228 52.4795 112.833L53.3475 113.454C52.973 113.958 52.523 114.359 51.9888 114.578C51.5334 114.788 51.1725 114.844 50.5417 114.914C50.3052 114.94 49.7532 115.001 48.956 115.01C48.765 115.016 48.1587 115.019 47.3192 114.937C46.21 114.869 45.3828 114.753 44.8132 114.657C44.0193 114.554 43.4164 114.445 43.0256 114.377C42.3894 114.256 41.8986 114.151 41.62 114.086C40.8505 113.917 40.181 113.784 39.7358 113.658C39.6026 113.608 39.1452 113.516 38.5212 113.362C38.3091 113.321 37.764 113.159 37.0068 112.956C36.7615 112.903 36.2163 112.74 35.4714 112.504C35.1594 112.427 34.4811 112.215 33.6362 111.942C33.4031 111.857 32.9246 111.718 32.3251 111.498C31.9254 111.351 31.2471 111.139 30.4477 110.845C30.3567 110.887 30.1901 110.826 30.0236 110.764Z" fill="#A9C4FF"/>
</g>
<g id="Group_22">
<path id="Vector_23" d="M26.561 120.177C26.0614 119.993 25.6618 119.846 25.362 119.736C24.5294 119.429 23.9088 119.163 23.5758 119.041C22.7887 118.713 22.1681 118.447 21.9017 118.349C21.1146 118.022 20.5396 117.735 20.2731 117.637C19.5859 117.346 19.1108 117.096 18.8777 117.01C18.3027 116.723 17.8819 116.531 17.7276 116.436C17.0527 116.112 16.5443 115.85 16.39 115.755C15.7606 115.411 15.2855 115.16 15.1645 115.078C14.4685 114.709 13.9723 114.413 13.8513 114.331C13.5971 114.199 13.1675 113.928 12.6503 113.587C12.3417 113.398 12.012 113.163 11.5159 112.867C11.2739 112.703 10.9109 112.456 10.4392 112.094C10.1972 111.929 9.79214 111.591 9.29936 111.184C8.98194 110.916 8.78551 110.73 8.73113 110.672C8.58908 110.545 8.37157 110.314 8.133 110.037C7.96987 109.864 7.78567 109.645 7.59264 109.347C7.44174 109.141 7.29085 108.934 7.14335 108.616C7.038 108.388 6.91158 108.115 6.9007 107.734C6.88643 107.464 6.90546 107.207 6.9911 106.974L8.01473 107.275C7.96579 107.408 7.96239 107.52 7.98006 107.677C7.9855 107.868 8.04871 108.005 8.133 108.187C8.23835 108.414 8.33487 108.563 8.45245 108.757C8.62442 109.01 8.78755 109.183 8.91737 109.344C9.13487 109.575 9.33131 109.76 9.46113 109.921C9.54881 109.992 9.71194 110.165 9.99605 110.42C10.4555 110.816 10.8396 111.108 11.0815 111.273C11.5199 111.623 11.8829 111.87 12.1249 112.034C12.5755 112.351 12.9174 112.552 13.226 112.741C13.7432 113.083 14.1517 113.308 14.4059 113.44C14.5269 113.522 14.9898 113.805 15.6858 114.175C15.8068 114.257 16.2819 114.507 16.8903 114.807C17.0445 114.901 17.553 115.164 18.2279 115.488C18.3822 115.582 18.8029 115.775 19.3446 116.049C19.5322 116.156 20.0529 116.385 20.7068 116.664C20.961 116.795 21.5482 117.049 22.3353 117.376C22.6018 117.474 23.2223 117.74 24.0094 118.067C24.3425 118.19 24.963 118.456 25.7624 118.75C26.1287 118.885 26.6283 119.069 27.2278 119.289C28.0271 119.583 28.6599 119.816 29.0718 119.93C29.8045 120.199 30.4163 120.387 30.695 120.451C31.34 120.651 31.8518 120.801 32.1182 120.899C32.6301 121.05 33.042 121.164 33.2418 121.237C33.8535 121.424 34.332 121.563 34.5441 121.603C35.1681 121.757 35.6799 121.907 35.8586 121.935C36.3038 122.061 36.9611 122.228 37.6639 122.373C38.4999 122.567 39.1361 122.688 39.2816 122.704C39.5603 122.769 40.0966 122.853 40.7661 122.986C41.269 123.057 42.0174 123.182 43.0023 123.28C43.4386 123.327 44.0205 123.39 44.8055 123.414C45.8937 123.437 46.5122 123.4 46.7155 123.362C47.0642 123.339 47.4584 123.295 47.9349 123.131C48.4902 122.957 48.6513 122.828 48.7423 122.786C48.9034 122.656 49.0312 122.514 49.1046 122.315L50.0671 122.782C49.9114 123.102 49.7014 123.365 49.4248 123.603C49.2181 123.754 48.9204 123.946 48.2407 124.149C47.6854 124.323 47.2123 124.375 46.8304 124.386C46.2118 124.422 45.56 124.447 44.7749 124.422C43.9566 124.386 43.3748 124.323 42.8928 124.297C41.8747 124.186 41.093 124.05 40.59 123.978C39.875 123.866 39.3509 123.749 39.06 123.717C38.9146 123.702 38.2784 123.581 37.409 123.374C36.6729 123.217 36.0156 123.05 35.6037 122.937C35.3917 122.896 34.9132 122.758 34.2559 122.592C34.0438 122.552 33.5653 122.413 32.9203 122.214C32.7538 122.153 32.3086 122.027 31.7967 121.876C31.5636 121.79 31.0185 121.628 30.3735 121.428C30.0737 121.318 29.462 121.13 28.717 120.894C28.3507 120.759 27.6723 120.548 26.873 120.254C26.7275 120.238 26.6276 120.201 26.561 120.177Z" fill="#A9C4FF"/>
</g>
<g id="Group_23">
<path id="Vector_24" d="M58.8354 7.67041C58.8232 7.70367 58.8232 7.70367 58.8232 7.70367C58.8232 7.70367 58.8232 7.70367 58.811 7.73693L58.7987 7.77019C58.7987 7.77019 58.7865 7.80344 58.7743 7.8367C58.7743 7.8367 58.762 7.86996 58.7498 7.90322C58.7376 7.93648 58.7376 7.93648 58.7253 7.96974L58.7009 8.03625L58.6764 8.10277L58.6642 8.13603L58.6519 8.16929C58.6397 8.20255 58.6275 8.2358 58.6275 8.2358C58.6275 8.2358 58.6275 8.2358 58.6152 8.26906L58.603 8.30232C58.603 8.30232 58.5785 8.36884 58.5663 8.4021L58.5541 8.43536C58.5174 8.53513 58.4684 8.66817 58.4317 8.76794C58.4072 8.83446 58.3705 8.93423 58.3461 9.00075L58.2727 9.2003C58.2727 9.2003 58.1136 9.63266 58.1014 9.66592C58.0769 9.73244 56.8256 13.2368 56.8133 13.2701C56.7644 13.4031 55.8223 15.964 55.7979 16.0305C55.7612 16.1303 55.7245 16.2301 55.6878 16.3299C55.6878 16.3299 55.6878 16.3299 55.6755 16.3631L55.6633 16.3964C55.6633 16.3964 55.6633 16.3964 55.6511 16.4296C55.6511 16.4296 55.6511 16.4296 55.6388 16.4629C55.6388 16.4629 55.6388 16.4629 55.6266 16.4962C55.6266 16.4962 55.6266 16.4962 55.6144 16.5294C55.6144 16.5294 55.6144 16.5294 55.6021 16.5627L55.5899 16.5959C55.5899 16.5959 55.5899 16.5959 55.5777 16.6292C55.5777 16.6292 55.5654 16.6625 55.5987 16.6747C55.5987 16.6747 55.6198 16.7202 55.6409 16.7657C55.683 16.8568 55.7251 16.9478 55.7251 16.9478C55.8006 17.051 55.8427 17.1421 55.8971 17.1998C55.9393 17.2908 55.9936 17.3486 56.0602 17.3731C56.1146 17.4309 56.169 17.4886 56.2234 17.5464C56.2567 17.5587 56.3654 17.6742 56.5075 17.802C56.5408 17.8142 56.6285 17.8842 56.7372 17.9997C57.1213 18.292 57.6174 18.5879 57.6052 18.6211C57.9471 18.8224 58.1891 18.9869 58.3767 19.0937C58.4976 19.176 58.7185 19.295 59.0061 19.4385C59.2936 19.582 60.0562 19.9759 61.1641 20.4589C61.2973 20.5079 61.7181 20.7005 62.3176 20.921C62.5174 20.9945 62.8504 21.117 63.2834 21.2763C63.6498 21.4111 63.9162 21.5091 64.095 21.5371C64.3614 21.6351 64.5735 21.6754 64.6734 21.7121C64.8732 21.7856 65.052 21.8136 65.1186 21.8381C65.1519 21.8504 65.2518 21.8871 65.364 21.8906C65.8092 22.0166 66.1878 22.1182 66.2211 22.1304C66.5664 22.2197 66.845 22.2844 66.9117 22.3089C66.9783 22.3334 67.1903 22.3737 67.4357 22.4262C67.7477 22.5032 68.2507 22.5749 68.8991 22.6624C68.8991 22.6624 69.4809 22.7254 69.9751 22.7184C69.9751 22.7184 70.2782 22.7167 70.548 22.7026C70.6269 22.6939 70.7057 22.6851 70.7057 22.6851C70.7846 22.6764 70.8634 22.6676 70.9545 22.6256C71.0333 22.6169 71.0789 22.5958 71.1822 22.5206C71.2277 22.4996 71.3188 22.4576 71.4221 22.3823C71.4344 22.349 71.4799 22.328 71.5044 22.2615C71.5166 22.2282 71.5288 22.195 71.5288 22.195C71.5411 22.1617 71.5533 22.1285 71.5656 22.0952C71.59 22.0287 71.6267 21.9289 71.6512 21.8624C71.6512 21.8624 71.7491 21.5963 71.7613 21.5631L71.8959 21.1972C71.9693 20.9977 72.0305 20.8314 72.1039 20.6318C72.165 20.4655 72.2262 20.2992 72.2874 20.133L72.4587 19.6673C72.5198 19.501 72.5933 19.3015 72.6544 19.1352L72.8502 18.6031C73.156 17.7716 73.4741 16.9069 73.78 16.0754C74.0002 15.4768 74.2205 14.8781 74.4407 14.2795L74.5263 14.0466L74.5875 13.8804L74.6609 13.6808C74.6609 13.6808 74.6609 13.6808 74.6487 13.7141C74.6364 13.7473 74.6242 13.7806 74.6242 13.7806C74.6242 13.7806 74.612 13.8138 74.5664 13.8348C74.5664 13.8348 74.5542 13.8681 74.5086 13.8891C74.4631 13.9101 74.4509 13.9434 74.4509 13.9434C74.6031 13.7351 74.5576 13.7561 74.5576 13.7561C74.512 13.7771 74.512 13.7771 74.4665 13.7981C74.421 13.8191 74.3754 13.8401 74.3754 13.8401L74.3299 13.8611C74.3299 13.8611 74.251 13.8699 74.2055 13.8909C74.16 13.9119 74.1267 13.8996 74.0811 13.9206C74.0356 13.9416 74.0023 13.9294 73.9567 13.9504C73.9567 13.9504 73.8779 13.9591 73.8323 13.9802C73.8323 13.9802 73.7535 13.9889 73.7202 13.9767C73.6747 13.9977 73.5625 13.9942 73.3715 13.9994C73.2927 14.0082 73.2138 14.0169 73.1805 14.0047C73.0684 14.0012 72.9895 14.0099 72.9229 13.9854C72.8896 13.9732 72.8108 13.9819 72.6653 13.9662C72.632 13.9539 72.5532 13.9627 72.4077 13.9469C72.4077 13.9469 72.2622 13.9312 72.1168 13.9155C71.5017 13.8402 70.7988 13.6949 70.7988 13.6949C70.3081 13.5899 69.9173 13.5217 69.6841 13.4359C69.5842 13.3992 69.0269 13.2697 68.3363 13.0911C68.1698 13.0299 67.6246 12.8671 66.913 12.6431C66.1014 12.3823 65.4809 12.1163 65.1811 12.006C64.8148 11.8712 64.1942 11.6052 63.386 11.2324C62.478 10.8228 61.8275 10.4325 61.6943 10.3835C61.4401 10.2522 61.0316 10.0264 60.5476 9.69734C60.481 9.67284 60.118 9.42604 59.7129 9.08822C59.6796 9.07597 59.5165 8.90268 59.2657 8.65938C59.2657 8.65938 59.1026 8.4861 58.985 8.29181C58.9639 8.2463 58.9428 8.20078 58.9007 8.10976C58.8796 8.06425 58.8708 7.98549 58.8708 7.98549C58.883 7.95223 58.862 7.90672 58.8742 7.87346C58.8232 7.70367 58.8354 7.67041 58.8354 7.67041Z" fill="#A9C4FF"/>
<path id="Vector_25" d="M65.5807 12.153C65.7805 12.2265 65.9803 12.3 66.1469 12.3613C66.2468 12.398 66.38 12.447 66.5465 12.5083C66.6798 12.5573 66.8796 12.6308 67.1127 12.7166C67.5457 12.8758 67.891 12.9651 67.9909 13.0019C68.6026 13.1891 69.1144 13.3397 69.2266 13.3431C69.5053 13.4079 69.9172 13.5217 70.4412 13.6389C71.2895 13.7999 71.8924 13.9084 72.0378 13.9242C72.2166 13.9522 72.5075 13.9837 72.8773 14.0064C72.8773 14.0064 73.3592 14.0327 73.7534 13.9889C73.7989 13.9679 73.9111 13.9714 74.0355 13.9416C74.2054 13.8909 74.2965 13.8488 74.3298 13.8611C74.4542 13.8313 74.5119 13.7771 74.5119 13.7771C74.5575 13.7561 74.603 13.7351 74.6608 13.6808C74.7063 13.6598 74.7186 13.6265 74.7186 13.6265C74.7308 13.5933 74.7641 13.6055 74.7763 13.5723C74.7886 13.539 74.7886 13.539 74.7886 13.539L74.8008 13.5057C74.8008 13.5057 74.8008 13.5057 74.813 13.4725L74.8253 13.4392C74.8375 13.406 74.8498 13.3727 74.8498 13.3727C74.8498 13.3727 74.862 13.3394 74.8409 13.2939C74.8409 13.2939 74.8531 13.2607 74.8321 13.2152C74.811 13.1697 74.7899 13.1241 74.8022 13.0909C74.7811 13.0454 74.76 12.9999 74.739 12.9544C74.7057 12.9421 74.7179 12.9088 74.6968 12.8633C74.6214 12.7601 74.5126 12.6445 74.5249 12.6113C74.4494 12.508 74.3617 12.438 74.3073 12.3802C74.1986 12.2647 74.1109 12.1947 74.0232 12.1247C73.9689 12.0669 73.9145 12.0092 73.7935 11.9269C73.5971 11.7414 73.4428 11.6468 73.2674 11.5068C72.8711 11.2478 72.5626 11.0587 72.375 10.952C72.3417 10.9397 72.1208 10.8207 71.8455 10.6439C71.8455 10.6439 71.6912 10.5494 71.5247 10.4881C70.6744 10.0243 69.6331 9.56572 69.6331 9.56572C69.3999 9.47995 68.6251 9.11939 67.5926 8.73959C67.1929 8.59257 66.8932 8.4823 66.7267 8.42104C65.582 8.03774 64.6916 7.78571 64.413 7.72096C63.789 7.56694 63.2983 7.46193 63.1528 7.44618C62.6954 7.35343 62.3711 7.30968 62.2379 7.26067C61.8804 7.20467 61.6228 7.18543 61.5229 7.14867C61.1987 7.10492 61.0077 7.11018 60.9411 7.08568C60.8289 7.08218 60.6834 7.06643 60.5258 7.08394C60.0772 7.06995 59.7951 7.11722 59.7162 7.12598C59.6374 7.13473 59.513 7.1645 59.3764 7.22752C59.3308 7.24852 59.1609 7.29929 59.0576 7.37456C59.0121 7.39557 58.9876 7.46209 58.9421 7.48309C58.8843 7.53736 58.872 7.57062 58.8598 7.60388C58.8598 7.60388 58.8353 7.67039 58.8109 7.73691C58.7986 7.77017 58.8075 7.84894 58.8163 7.92771C58.8673 8.0975 58.9849 8.29179 58.9849 8.29179C59.2112 8.60161 59.441 8.7994 59.441 8.7994C59.6918 9.0427 59.9004 9.19497 60.0425 9.32275C60.1302 9.39276 60.4931 9.63956 61.0437 9.99313C61.3523 10.1822 61.5732 10.3012 61.7608 10.408C61.8485 10.478 62.2692 10.6705 62.8442 10.9575C63.0318 11.0643 63.6401 11.3636 64.4938 11.7154C64.9479 11.9202 65.3142 12.055 65.5807 12.153Z" fill="#6795D6"/>
</g>
</g>
</g>
<defs>
<clipPath id="clip0_680_2517">
<rect width="47.2336" height="130.587" fill="white" transform="translate(45.3779 0.567627) rotate(20.1967)"/>
</clipPath>
</defs>
</svg>
