<svg width="113" height="177" viewBox="0 0 113 177" fill="none" xmlns="http://www.w3.org/2000/svg">
<g id="Group">
<g id="Group_2">
<path id="Vector" d="M47.836 157C47.7052 157.867 47.5381 159.258 47.9351 160.921C48.1434 161.783 48.4182 163.278 49.5379 164.859C50.9661 166.765 52.8254 167.679 54.101 168.259C56.1715 169.195 58.131 169.571 61.5358 169.782C66.1886 170.063 69.777 169.785 71.7532 169.576C77.8294 168.985 82.349 168 85.5262 167.289C90.3461 166.178 93.4899 165.151 95.8027 164.292C98.9076 163.143 101.162 162.103 103.414 160.417C105.882 158.557 106.664 157.17 106.956 156.594C107.381 155.797 108.282 153.933 107.997 151.342C107.6 148.193 105.608 146.014 104.907 145.316C105.021 145.035 105.16 144.619 105.344 144.129C105.419 143.726 105.759 142.236 105.348 140.316C104.99 138.774 104.384 137.734 103.289 136.019C102.561 134.81 101.867 133.918 101.333 133.315C101.403 133.107 101.453 132.839 101.528 132.436C101.723 131.556 101.929 130.287 101.437 128.965C101.029 127.692 100.059 126.791 99.4169 126.275L98.6168 124.629C96.8921 119.036 95.0841 113.395 93.1926 107.706C90.3874 99.1673 89.8105 94.1804 86.2823 87.2098C84.3987 83.4581 82.4482 80.56 81.0839 78.641C81.045 78.5196 80.9033 78.29 80.8256 78.0474C80.3534 76.7867 80.4121 75.4825 80.9239 73.8922C81.7 71.2143 82.2642 71.4872 82.3674 70.1093C82.493 67.9515 81.2315 66.1408 81.1092 65.9718C80.2729 64.8498 78.8028 63.6631 77.6857 62.7275C77.4161 62.5239 76.941 62.1037 76.4519 61.428C76.2269 61.1507 75.8406 60.5832 75.6518 59.7817C75.4436 58.9195 75.5049 58.2609 75.58 57.858C75.967 55.4532 76.4313 54.7771 76.6429 53.3126C76.9409 51.0551 76.3576 49.2355 76.2215 48.8109C76.0271 48.2044 75.516 46.8223 74.1349 45.4882C72.715 44.0328 71.1447 43.3833 70.3693 43.0889C65.5307 41.1664 70.0332 42.2527 58.8747 37.611C56.1122 36.4289 52.5937 35.013 48.5499 33.4456L44.4892 21.4145L26.013 25.176L29.8819 37.2462C29.64 37.5539 29.1813 38.0349 28.6142 38.6027C22.3392 45.3722 23.0144 46.204 18.6189 50.9756C17.7653 51.9247 16.0833 53.6886 15.0765 56.2842C14.7344 57.1292 14.5397 58.0088 14.5505 59.105C14.5696 60.6518 15.0668 61.7782 15.4669 62.6013C15.7641 63.3162 16.642 65.205 18.5038 66.7643C18.9596 67.1238 19.6015 67.6393 20.5074 68.5532C21.1243 69.203 21.4328 69.5279 21.7356 70.0477C22.3607 71.1481 22.2687 72.136 22.2964 72.6473C22.2377 73.9514 21.7263 74.0556 21.4313 75.4725C20.9917 77.5003 21.4915 79.2723 21.6665 79.8182C22.0942 81.1526 22.7444 82.1186 22.8666 82.2876C23.6002 83.3013 23.9782 83.4182 25.7511 85.1248C26.9265 86.2423 27.46 86.8445 27.7823 87.425C27.9629 87.7759 28.3629 88.599 28.5069 90.9603C28.637 93.0661 28.3562 93.2524 28.4142 94.9206C28.4639 96.1381 28.7055 97.3165 29.2524 99.6604C29.494 100.839 29.8966 102.308 30.416 104.14C30.9353 105.973 31.1547 106.445 32.3796 110.266C32.9434 112.025 33.4877 113.724 34.0516 115.483C34.7126 117.545 35.3736 119.607 36.0346 121.669C36.7345 123.853 37.4344 126.036 38.1537 128.281C38.7175 130.039 39.0256 131.851 39.8452 133.557C40.548 134.9 41.3399 136.096 41.1283 137.561C41.0476 138.159 40.8502 138.393 40.7832 139.246C40.747 139.77 40.6745 140.819 41.1717 141.945C41.5467 142.903 42.1636 143.553 42.3887 143.83C43.3334 144.865 43.8198 144.895 44.0976 145.549C44.3949 146.264 43.9612 146.611 43.6969 147.699C43.4019 149.116 43.6629 150.355 43.91 151.338C44.0794 152.079 44.3848 153.244 45.2989 154.609C45.8463 155.467 46.5271 156.104 47.0023 156.524L47.836 157Z" fill="#A9C4FF"/>
<path id="Vector_2" d="M25.2058 85.5379C26.0388 85.5024 27.2883 85.4491 28.67 85.3694C29.2847 85.3119 32.048 85.1524 35.63 84.6972C43.3627 83.8044 50.9147 82.3559 50.9147 82.3559C53.6896 81.7996 59.1072 80.7133 65.7256 78.9917C70.8446 77.6365 74.9984 76.3433 77.7188 75.4033C78.9339 75.0281 79.9968 74.6177 80.7035 74.4103C80.6718 74.7454 80.5942 75.1556 80.6429 75.7376C80.7058 76.5799 80.9469 77.3207 81.234 77.9865C81.9345 79.4901 82.8305 80.2969 83.7408 81.3638C84.4587 82.272 85.0185 83.3435 86.0922 85.5613C88.1192 89.6267 89.3104 93.0705 89.4912 93.6261C91.3311 98.8469 92.3268 102.987 92.4817 103.68C93.5319 108.204 95.4777 115.048 99.4678 125.361C99.1058 125.763 98.5857 126.327 97.8014 126.945C96.5689 127.915 95.4601 128.401 93.8829 129.177C90.9527 130.554 91.5933 130.36 89.3957 131.392C84.9142 133.409 81.1108 134.697 80.0278 135.046C73.2857 137.253 67.6355 138.057 65.6334 138.392C65.6334 138.392 57.4123 139.515 48.821 139.067C47.3791 138.962 44.6676 138.848 41.1404 138.174C40.6177 138.082 40.161 137.976 39.8565 137.905C39.8623 137.707 39.9141 137.434 39.8596 137.05C39.7908 136.406 39.564 135.925 39.2368 135.136C38.7832 134.175 38.5506 133.893 38.3238 133.412C37.8902 132.513 37.7755 131.944 37.4397 130.696C37.279 130.202 36.9834 129.078 36.2802 126.917C35.9587 125.929 35.9989 126.053 34.6126 121.793C34.6126 121.793 34.251 120.682 33.5277 118.46C33.3669 117.966 32.6637 115.805 32.282 114.632C31.1368 111.113 31.0966 110.99 30.755 109.941C30.0518 107.78 30.092 107.903 29.7304 106.792C29.3888 105.743 28.8865 104.199 28.3757 102.197C27.9194 100.579 27.71 99.5032 27.4546 98.5023C26.9496 96.3019 26.8607 95.5963 26.812 95.0142C26.8178 94.8158 26.7919 94.9525 26.8155 92.6462C26.8561 91.257 26.8533 90.6 26.7703 89.696C26.6729 88.5318 26.5782 88.0247 26.3715 87.6058C26.1045 87.0017 25.7916 86.4726 25.559 86.1905L25.2058 85.5379Z" fill="#6795D6"/>
<path id="Vector_3" d="M28.7629 28.4452L24.0855 29.3845L19.4931 15.2524L19.4322 15.0648C19.4584 14.9263 19.4642 14.7253 19.4498 14.4618C19.4877 13.9212 19.4267 13.7336 19.4326 13.5326C19.4705 12.9921 19.703 12.6124 20.0023 12.2192C20.2086 11.9779 20.4876 11.5222 21.1413 11.1245C21.7486 10.8027 22.35 10.682 22.6841 10.6149L43.1979 6.49533C43.3315 6.46849 43.4652 6.44166 43.7325 6.38798C44.8219 6.23582 45.6933 6.72695 46.1087 6.90998C46.8058 7.30288 47.2153 7.68693 47.3431 7.86111C47.773 8.30769 47.982 8.73199 48.1505 9.03123L52.8647 23.5386L28.7426 28.3827L28.7629 28.4452Z" fill="#6795D6"/>
</g>
<path id="Vector_4" d="M47.7737 38.8779C47.8597 38.9252 53.9433 41.3084 53.9626 41.3695C60.9536 44.1503 60.9536 44.1503 60.9536 44.1503C62.644 44.7761 63.7709 45.1933 65.9964 46.1636C67.0565 46.5946 68.0307 46.9783 69.0062 47.817C69.3887 48.1281 70.1729 48.8113 70.8057 49.916C71.8031 51.7256 71.6364 53.451 71.5146 54.1915" stroke="#6795D6" stroke-width="0.9628" stroke-miterlimit="10" stroke-linecap="round"/>
<path id="Vector_5" d="M72.4629 60.4154C72.3614 60.7581 72.2699 61.3558 72.3465 62.0468C72.4795 62.919 72.9284 63.4678 73.1529 63.7423C73.5366 64.3048 73.9755 64.5986 74.3304 64.8457C74.8909 65.307 75.4602 65.5735 75.8614 65.7467" stroke="#6795D6" stroke-width="0.9628" stroke-miterlimit="10" stroke-linecap="round"/>
<path id="Vector_6" d="M77.0327 83.594C77.308 83.8526 77.6191 84.2309 78.0279 84.7153C78.2591 85.0472 78.7656 85.6378 79.2197 86.4948C79.3532 86.7206 79.6381 87.2321 80.0493 88.6084C80.3795 89.4925 80.4427 89.9249 80.8361 91.2413C81.14 92.2586 81.444 93.2759 81.748 94.2931C82.0341 95.2505 82.3202 96.208 82.6241 97.2252C83.0711 98.7212 83.5182 100.217 83.9831 101.773C84.591 103.808 85.1989 105.842 85.8069 107.877C86.1108 108.894 86.4148 109.911 86.7188 110.928" stroke="#A9C4FF" stroke-miterlimit="10"/>
<path id="Vector_7" d="M87.98 115.445C88.2606 116.401 88.5237 117.297 88.8044 118.253C89.2078 119.627 89.6113 121.002 90.0147 122.376" stroke="#A9C4FF" stroke-miterlimit="10"/>
</g>
</svg>
