<svg width="129" height="155" viewBox="0 0 129 155" fill="none" xmlns="http://www.w3.org/2000/svg">
<g id="Polui&#195;&#131;&#194;&#167;&#195;&#131;&#194;&#163;o" clip-path="url(#clip0_465_2216)">
<g id="Copo">
<path id="Vector" d="M9.26125 32.7187C10.5479 41.1122 11.8345 49.5057 13.1211 57.8928C14.9237 69.6437 16.7199 81.3881 18.5224 93.139C19.8281 101.668 21.1339 110.19 22.4396 118.718C22.5797 119.632 25.7899 140.599 25.8154 140.754C26.5288 145.397 26.5288 145.378 26.5288 145.397C26.5415 145.565 26.6052 145.963 26.739 146.755C26.7581 146.877 26.7963 147.083 26.8918 147.333C26.93 147.43 27.0192 147.642 27.223 147.938C27.4969 148.337 27.7772 148.588 28.0065 148.793C28.3823 149.128 28.7262 149.353 29.0128 149.533C29.9173 150.099 30.688 150.434 30.8218 150.491C33.0956 151.463 35.5351 152.106 35.5351 152.106C36.5288 152.369 38.2358 152.794 40.739 153.244C41.2294 153.334 43.3249 153.707 46.4523 154.074C50.0192 154.498 52.739 154.653 54.4778 154.756C55.1912 154.794 58.1848 154.962 62.1211 154.994C63.1339 155 65.2167 155.013 67.8664 154.942C69.5861 154.897 70.9492 154.839 71.7071 154.807C74.8027 154.659 77.1721 154.466 78.1912 154.376C80.1848 154.203 81.6816 154.035 82.1721 153.984C84.223 153.752 85.7581 153.534 86.1339 153.476C87.0065 153.347 88.4651 153.141 90.3823 152.788C91.1275 152.652 92.1976 152.453 93.6116 152.144C94.395 151.971 95.5542 151.713 97.0638 151.302C98.3568 150.948 99.2421 150.665 99.446 150.601C100.675 150.202 101.491 149.887 101.701 149.803C102.057 149.662 102.459 149.501 102.994 149.263C103.503 149.031 104.153 148.736 104.943 148.253C105.612 147.848 105.981 147.552 106.134 147.436C106.599 147.063 106.841 146.787 106.898 146.722C107.14 146.452 107.395 146.156 107.58 145.7C107.682 145.442 107.726 145.23 107.771 144.992C107.841 144.638 107.841 144.439 107.879 144.015C107.911 143.661 107.956 143.314 107.994 142.96C108 142.889 110.344 121.285 110.376 120.957C111.529 110.306 112.682 99.6609 113.835 89.0098C115.28 75.6703 116.726 62.3307 118.172 48.9911C118.847 42.733 119.529 36.4813 120.204 30.2231C119.612 30.5576 118.764 31.0207 117.726 31.5352C115.484 32.6479 113.312 33.5355 110.72 34.436C105.771 36.1533 101.185 37.2467 99.1275 37.7162C93.1084 39.0926 88.4651 39.7293 85.4651 40.1281C84.0511 40.3146 78.3823 41.0607 70.8472 41.4595C68.3886 41.5881 64.5351 41.7489 59.7963 41.7296C55.0256 41.7103 51.3759 41.5238 50.0383 41.4466C44.1275 41.1186 39.7326 40.5848 38.7835 40.469C36.2421 40.1538 32.5988 39.6972 27.8472 38.7196C22.7772 37.6712 19.2613 36.6099 17.739 36.1275C15.0638 35.2785 12.981 34.4746 10.9555 33.542C10.2485 33.2139 9.6689 32.9245 9.25488 32.7187H9.26125Z" fill="#FFCE00"/>
<path id="Vector_2" d="M7.95569 32.0176C7.00028 31.4709 5.91111 30.847 4.63085 29.8244C3.82194 29.1812 3.00665 28.5187 2.13404 27.4382C1.61175 26.7886 1.0385 26.0746 0.592638 24.9684C0.420663 24.5439 0.0321283 23.5534 0.00665064 22.2542C-0.0379353 20.3182 0.770982 18.8839 1.28691 17.9834C2.1213 16.5299 3.21047 15.3786 5.10219 13.925C6.75824 12.6515 9.13404 11.0757 13.2678 9.22333C16.478 7.78904 18.9939 6.97863 21.1086 6.30972C25.2805 4.98477 28.5162 4.26441 30.9621 3.73057C36.0066 2.6243 39.8729 2.08403 42.3888 1.73028C43.6245 1.55662 49.0003 0.823398 56.2041 0.379603C58.8028 0.218808 63.4907 -0.0191683 69.3952 0.000127119C74.2933 0.0194225 77.9875 0.212377 79.013 0.270263C82.2996 0.450353 87.5226 0.746216 94.2742 1.76244C97.2805 2.21267 101.637 2.88801 107.249 4.37375C108.968 4.83041 112.567 5.83377 116.892 7.62181C116.892 7.62181 121.064 9.34554 124.414 11.899C124.924 12.2849 125.682 12.9088 126.491 13.8092C126.937 14.3045 127.491 14.9348 128.013 15.8995C128.249 16.3305 128.58 16.9608 128.803 17.8677C129.077 18.9997 129.013 19.9194 128.975 20.2925C128.86 21.3859 128.523 22.1641 128.293 22.6787C127.828 23.727 127.281 24.4152 126.822 24.9941C126.459 25.4508 125.847 26.1583 124.688 27.1423C124.325 27.4511 123.128 28.4544 121.045 29.7343C118.631 31.2201 116.593 32.1077 115.191 32.7123C114.026 33.214 113.109 33.5613 112.427 33.8185C110.414 34.5775 108.879 35.0534 107.567 35.4586C106.911 35.6645 104.841 36.2948 102.083 36.9958C101.51 37.1438 99.7455 37.5876 97.4016 38.0893C96.9493 38.1857 95.0831 38.5845 92.5226 39.0347C91.2805 39.2534 88.3506 39.7615 84.5226 40.2439C83.9812 40.3147 81.7137 40.5977 78.6882 40.8807C77.5035 40.99 75.2551 41.1894 72.4907 41.3566C66.4461 41.7232 61.4398 41.7361 58.5863 41.7104C53.6309 41.6589 49.8601 41.4338 48.5926 41.3566C42.013 40.9385 37.1977 40.2761 36.1468 40.1281C34.2933 39.8644 31.5098 39.4721 27.8602 38.7196C22.4079 37.594 18.7137 36.4363 17.7519 36.1276C16.2742 35.658 13.7901 34.8219 10.9684 33.542C10.0194 33.111 9.05124 32.6351 7.96206 32.0176H7.95569Z" fill="#FFEB90"/>
<path id="Vector_3" d="M23.535 8.07198C25.6879 7.47382 27.3694 7.08791 28.6178 6.81135C29.1401 6.69557 31.4522 6.1746 34.707 5.60217C35.363 5.4864 38.3121 4.97185 42.3248 4.45731C43.3057 4.32867 46.7388 3.89774 51.3312 3.5247C52.2356 3.45395 54.5286 3.27386 57.5286 3.11949C63.3375 2.8172 67.9618 2.81077 70.2165 2.8172C77.293 2.85579 82.6114 3.2224 83.8089 3.30601C86.1974 3.47967 89.7388 3.73695 94.4013 4.37369C96.8344 4.70815 100.064 5.15194 104.255 6.09098C107.86 6.89496 110.344 7.65391 112.07 8.23277C113.318 8.65084 116.076 9.60918 119.217 11.4873C120.815 12.4456 122.006 13.3332 122.771 14.8511C123.019 15.3463 123.554 16.4398 123.42 17.8033C123.28 19.2569 122.446 20.4017 121.159 21.6045C118.229 24.3509 114.924 25.5858 113.694 26.0296C108.815 27.7983 106.376 28.6795 101.694 29.7857C100.433 30.0816 95.9872 31.1107 89.5223 32.069C82.7197 33.0788 77.5095 33.439 74.3375 33.6513C70.4458 33.915 65.0191 34.1722 58.5223 34.1208C54.7579 34.0951 48.4904 34.0307 40.3184 33.2075C33.6114 32.5257 29.5159 31.7281 23.8216 30.6154C23.8216 30.6154 19.07 29.6893 11.6369 26.5184C10.8853 26.1968 9.42035 25.5472 7.97449 24.1515C6.98723 23.1996 6.08277 22.4342 5.71334 21.0835C5.27385 19.4884 5.79615 18.1056 5.98723 17.6232C6.38213 16.6198 7.13372 15.4878 9.86621 13.6869C10.4713 13.2882 12.9299 11.6995 17.5987 9.9565C20.0637 9.03675 22.07 8.47718 23.5605 8.06555L23.535 8.07198Z" fill="#FFCE00"/>
</g>
</g>
<defs>
<clipPath id="clip0_465_2216">
<rect width="129" height="155" fill="white"/>
</clipPath>
</defs>
</svg>
