<svg width="66" height="70" viewBox="0 0 66 70" fill="none" xmlns="http://www.w3.org/2000/svg">
<g id="Copo">
<path id="Vector" d="M5.13702 15.3516C5.78934 19.069 6.44167 22.7864 7.09399 26.501C8.00789 31.7054 8.91857 36.9069 9.83247 42.1113C10.4945 45.8885 11.1565 49.6629 11.8185 53.4401C11.8895 53.8446 13.5171 63.131 13.5301 63.1994C13.8917 65.2561 13.8917 65.2475 13.8917 65.2561C13.8982 65.3301 13.9305 65.5067 13.9983 65.8571C14.008 65.9112 14.0274 66.0024 14.0758 66.1135C14.0952 66.1562 14.1404 66.2502 14.2437 66.3812C14.3826 66.5579 14.5247 66.669 14.6409 66.7601C14.8315 66.9082 15.0059 67.0079 15.1512 67.0877C15.6097 67.3384 16.0005 67.4865 16.0683 67.5121C17.2212 67.9423 18.458 68.2271 18.458 68.2271C18.9618 68.3439 19.8272 68.5319 21.0964 68.7313C21.345 68.7712 22.4075 68.9364 23.9931 69.0988C25.8015 69.2868 27.1804 69.3552 28.062 69.4008C28.4237 69.4178 29.9415 69.4919 31.9372 69.5061C32.4507 69.509 33.5067 69.5147 34.8501 69.4834C35.722 69.4634 36.4131 69.4378 36.7974 69.4235C38.3668 69.358 39.5681 69.2726 40.0848 69.2327C41.0956 69.1558 41.8545 69.0817 42.1032 69.0589C43.143 68.9564 43.9213 68.8595 44.1118 68.8339C44.5542 68.7769 45.2937 68.6858 46.2658 68.5291C46.6436 68.4693 47.1861 68.381 47.903 68.2442C48.3003 68.1673 48.888 68.0534 49.6533 67.8711C50.3089 67.7144 50.7578 67.589 50.8611 67.5606C51.4844 67.3839 51.8977 67.2444 52.0043 67.2073C52.1851 67.1447 52.3886 67.0735 52.6599 66.9681C52.9182 66.8655 53.2476 66.7345 53.648 66.5208C53.9871 66.3414 54.1744 66.2103 54.2519 66.1591C54.4877 65.9938 54.6104 65.8713 54.6394 65.8429C54.7621 65.7232 54.8913 65.5922 54.985 65.3899C55.0366 65.276 55.0592 65.182 55.0819 65.0766C55.1174 64.9199 55.1174 64.8316 55.1367 64.6436C55.1529 64.4869 55.1755 64.3331 55.1949 64.1764C55.1981 64.1451 56.3865 54.5767 56.4026 54.4314C56.9872 49.7141 57.5717 44.9997 58.1562 40.2825C58.8892 34.3745 59.6223 28.4665 60.3554 22.5585C60.6977 19.7868 61.0432 17.018 61.3855 14.2463C61.0852 14.3945 60.6557 14.5996 60.1293 14.8274C58.9926 15.3203 57.8914 15.7134 56.577 16.1122C54.0678 16.8727 51.7427 17.357 50.6997 17.5649C47.6479 18.1745 45.2937 18.4566 43.7727 18.6332C43.0558 18.7158 40.1817 19.0462 36.3614 19.2228C35.1149 19.2798 33.1612 19.351 30.7585 19.3425C28.3398 19.3339 26.4894 19.2513 25.8112 19.2171C22.8144 19.0719 20.5861 18.8354 20.105 18.7841C18.8165 18.6446 16.9693 18.4423 14.5602 18.0093C11.9897 17.545 10.2071 17.075 9.43526 16.8613C8.07894 16.4853 7.02295 16.1293 5.99602 15.7162C5.63757 15.5709 5.3437 15.4427 5.13379 15.3516H5.13702Z" fill="#6795D6"/>
<path id="Vector_2" d="M4.47544 15.0411C3.99104 14.799 3.43882 14.5227 2.78973 14.0698C2.3796 13.7849 1.96625 13.4915 1.52383 13.0129C1.25902 12.7252 0.968384 12.409 0.742331 11.9191C0.655139 11.7311 0.45815 11.2924 0.445232 10.717C0.422627 9.85954 0.832752 9.2243 1.09433 8.8255C1.51737 8.18172 2.06959 7.67182 3.0287 7.02804C3.86832 6.46402 5.07286 5.76611 7.1687 4.94572C8.79628 4.31048 10.0719 3.95156 11.144 3.65531C13.2592 3.0685 14.8997 2.74946 16.1398 2.51302C18.6974 2.02307 20.6576 1.78378 21.9332 1.62711C22.5597 1.5502 25.2852 1.22546 28.9376 1.02891C30.2552 0.957692 32.632 0.852295 35.6256 0.86084C38.1089 0.869386 39.9819 0.954844 40.5019 0.980481C42.1682 1.06024 44.8162 1.19128 48.2393 1.64135C49.7636 1.84076 51.9724 2.13986 54.8175 2.79788C55.6894 3.00013 57.514 3.44451 59.7067 4.23642C59.7067 4.23642 61.8219 4.99984 63.5205 6.13073C63.7789 6.30165 64.1632 6.57796 64.5733 6.97677C64.7993 7.19611 65.0803 7.47527 65.3451 7.90256C65.4646 8.09341 65.6325 8.37257 65.7455 8.77423C65.8844 9.27558 65.8521 9.68293 65.8327 9.84814C65.7746 10.3324 65.6034 10.6771 65.4872 10.905C65.2514 11.3693 64.9737 11.6741 64.7412 11.9305C64.5571 12.1327 64.2471 12.4461 63.6594 12.8819C63.4753 13.0186 62.8682 13.463 61.8122 14.0299C60.5883 14.6879 59.5549 15.081 58.8445 15.3488C58.2535 15.571 57.7885 15.7248 57.4429 15.8387C56.4225 16.1749 55.6442 16.3857 54.979 16.5651C54.6463 16.6563 53.5968 16.9354 52.1985 17.2459C51.9079 17.3115 51.0133 17.508 49.8249 17.7302C49.5957 17.7729 48.6495 17.9495 47.3513 18.1489C46.7215 18.2458 45.2361 18.4708 43.2952 18.6845C43.0207 18.7158 41.8711 18.8411 40.3372 18.9665C39.7365 19.0149 38.5965 19.1032 37.195 19.1773C34.1304 19.3397 31.5921 19.3453 30.1454 19.334C27.633 19.3112 25.7212 19.2115 25.0786 19.1773C21.7427 18.9921 19.3013 18.6987 18.7685 18.6332C17.8287 18.5164 16.4175 18.3426 14.5671 18.0094C11.8028 17.5109 9.92978 16.9981 9.44215 16.8614C8.69294 16.6534 7.4335 16.2831 6.00291 15.7162C5.52174 15.5254 5.03088 15.3146 4.47867 15.0411H4.47544Z" fill="#A9C4FF"/>
<path id="Vector_3" d="M12.3745 4.43553C13.466 4.17061 14.3186 3.9997 14.9515 3.87721C15.2163 3.82593 16.3886 3.5952 18.0387 3.34167C18.3714 3.2904 19.8665 3.06251 21.901 2.83462C22.3983 2.77765 24.1389 2.5868 26.4673 2.42158C26.9259 2.39024 28.0884 2.31048 29.6094 2.24212C32.5546 2.10823 34.8991 2.10538 36.0423 2.10823C39.6301 2.12532 42.3265 2.28769 42.9337 2.32473C44.1447 2.40164 45.9402 2.51558 48.304 2.79759C49.5376 2.94572 51.1749 3.14227 53.2998 3.55817C55.1276 3.91424 56.3871 4.25037 57.2622 4.50675C57.8951 4.6919 59.2934 5.11634 60.8855 5.94813C61.6961 6.37257 62.3 6.76568 62.6875 7.43795C62.8134 7.65729 63.0847 8.14155 63.0169 8.74545C62.9458 9.38923 62.5228 9.89628 61.8705 10.429C60.385 11.6453 58.7089 12.1922 58.0857 12.3888C55.612 13.1722 54.3752 13.5624 52.0016 14.0524C51.3622 14.1834 49.1081 14.6392 45.8304 15.0636C42.3814 15.5109 39.7398 15.6704 38.1316 15.7644C36.1585 15.8812 33.4071 15.9951 30.1132 15.9723C28.2047 15.9609 25.027 15.9324 20.8838 15.5678C17.4833 15.2659 15.4068 14.9126 12.5198 14.4198C12.5198 14.4198 10.1107 14.0096 6.34211 12.6053C5.96105 12.4629 5.2183 12.1752 4.48524 11.557C3.9847 11.1354 3.52613 10.7964 3.33883 10.1982C3.116 9.49178 3.38081 8.87933 3.47769 8.66569C3.67791 8.22131 4.05897 7.71996 5.44435 6.92235C5.75114 6.74574 6.99766 6.04214 9.36476 5.27017C10.6145 4.86282 11.6318 4.61499 12.3874 4.43268L12.3745 4.43553Z" fill="#6795D6"/>
</g>
</svg>
