<svg width="176" height="162" viewBox="0 0 176 162" fill="none" xmlns="http://www.w3.org/2000/svg">
<g id="Copo">
<path id="Vector" d="M68.3334 27.2384C65.16 33.6016 61.9867 39.9647 58.8166 46.3233C54.375 55.2321 49.9316 64.134 45.49 73.0429C42.2644 79.5077 39.042 85.9681 35.8164 92.433C35.4712 93.1254 27.5411 109.019 27.4841 109.137C25.7296 112.658 25.7392 112.645 25.7296 112.658C25.6566 112.78 25.5078 113.083 25.2182 113.688C25.1723 113.781 25.0995 113.939 25.0481 114.152C25.0295 114.235 24.9923 114.418 25.001 114.705C25.0121 115.092 25.1012 115.378 25.1738 115.612C25.2942 115.994 25.4445 116.287 25.5735 116.526C25.9815 117.279 26.4024 117.818 26.4755 117.911C27.7249 119.49 29.2625 120.905 29.2625 120.905C29.8879 121.482 30.9764 122.454 32.6579 123.76C32.9865 124.017 34.3961 125.108 36.5938 126.602C39.0972 128.311 41.0898 129.496 42.3616 130.257C42.8852 130.567 45.0798 131.869 48.0583 133.451C48.8256 133.857 50.4036 134.691 52.4543 135.691C53.7848 136.341 54.8503 136.841 55.4428 137.119C57.8708 138.242 59.7688 139.046 60.5886 139.387C62.1911 140.056 63.4124 140.532 63.811 140.691C65.4857 141.342 66.7616 141.797 67.0761 141.906C67.8036 142.162 69.015 142.596 70.6484 143.109C71.2821 143.31 72.1948 143.595 73.4232 143.94C74.105 144.129 75.1142 144.409 76.4661 144.72C77.6247 144.985 78.4382 145.139 78.6251 145.175C79.7575 145.384 80.5336 145.487 80.7349 145.512C81.0762 145.554 81.461 145.601 81.9857 145.647C82.4879 145.688 83.1285 145.739 83.9679 145.715C84.6771 145.698 85.1045 145.638 85.2781 145.617C85.8163 145.542 86.1372 145.445 86.2127 145.422C86.5304 145.33 86.8706 145.224 87.237 144.979C87.4418 144.84 87.5807 144.71 87.7323 144.562C87.9606 144.343 88.0593 144.204 88.2983 143.923C88.4975 143.689 88.7033 143.464 88.9073 143.232C88.9472 143.186 101.417 129.048 101.604 128.832C107.75 121.861 113.892 114.894 120.038 107.923C127.737 99.1935 135.436 90.4637 143.134 81.7339C146.744 77.6371 150.355 73.5473 153.964 69.4506C153.348 69.4491 152.474 69.4365 151.43 69.384C149.174 69.2717 147.083 69.0302 144.665 68.6311C140.051 67.868 136.021 66.8137 134.224 66.3261C128.964 64.9014 125.117 63.5058 122.638 62.5954C121.47 62.1653 116.788 60.4398 110.859 57.7327C108.925 56.8484 105.914 55.4339 102.319 53.543C98.6991 51.6395 96.015 50.0636 95.0357 49.4798C90.7015 46.9094 87.6223 44.7959 86.9576 44.3392C85.1802 43.1126 82.6346 41.3508 79.5036 38.7865C76.1653 36.0468 74.0156 33.9138 73.0962 32.9743C71.4812 31.3224 70.2944 29.9366 69.215 28.4838C68.8394 27.9749 68.5416 27.5435 68.3285 27.2359L68.3334 27.2384Z" fill="#A9C4FF"/>
<path id="Vector_2" d="M65.6187 27.0253C65.1552 26.2508 64.627 25.3674 64.1516 24.1234C63.8497 23.3394 63.5526 22.5392 63.4213 21.4186C63.3441 20.7459 63.2599 20.0068 63.4713 19.0403C63.5517 18.6691 63.7492 17.808 64.3823 16.8741C65.3206 15.4798 66.6664 14.7868 67.5175 14.355C68.8926 13.6587 70.3127 13.2801 72.5048 13.0107C74.4243 12.7742 77.0519 12.6134 81.1768 12.966C84.3781 13.2429 86.7293 13.6828 88.6994 14.0613C92.5889 14.8043 95.4511 15.599 97.6092 16.2072C102.063 17.4581 105.322 18.6355 107.444 19.4001C108.486 19.7756 113.008 21.4255 118.798 24.0193C120.886 24.9546 124.628 26.6786 129.181 29.077C132.956 31.0688 135.714 32.698 136.477 33.1533C138.926 34.6087 142.813 36.9283 147.52 40.3775C149.617 41.9117 152.644 44.1513 156.233 47.4738C157.332 48.493 159.609 50.6597 162.052 53.6775C162.052 53.6775 164.41 56.5878 165.716 59.7561C165.916 60.2362 166.188 60.9859 166.36 61.9527C166.456 62.4848 166.568 63.1567 166.486 64.0535C166.452 64.4551 166.391 65.0369 166.108 65.7717C165.751 66.687 165.239 67.3152 165.022 67.5649C164.384 68.2959 163.732 68.7129 163.297 68.9861C162.411 69.5436 161.642 69.8116 160.996 70.0379C160.486 70.2159 159.658 70.4719 158.268 70.7034C157.832 70.7762 156.403 71.0059 154.15 71.0746C151.539 71.1559 149.518 70.9638 148.131 70.8277C146.978 70.7136 146.095 70.5901 145.439 70.4977C143.503 70.2244 142.077 69.9428 140.86 69.701C140.25 69.5823 138.333 69.1944 135.85 68.5789C135.333 68.4526 133.746 68.0555 131.683 67.4656C131.285 67.3515 129.643 66.8813 127.438 66.1673C126.368 65.8211 123.849 64.999 120.649 63.796C120.195 63.6276 118.301 62.913 115.821 61.8924C114.85 61.4916 113.013 60.7253 110.793 59.7278C105.938 57.5472 102.063 55.5345 99.8709 54.3638C96.0676 52.3259 93.2671 50.643 92.3265 50.0762C87.4525 47.1218 84.0645 44.7061 83.3268 44.1765C82.0271 43.2405 80.0734 41.8374 77.6314 39.8285C73.984 36.8263 71.7112 34.5113 71.1231 33.9034C70.2172 32.9728 68.7179 31.3752 67.1807 29.3257C66.6639 28.6361 66.155 27.9067 65.6236 27.0279L65.6187 27.0253Z" fill="#6795D6"/>
<path id="Vector_3" d="M89.5851 16.2957C91.5524 16.7412 93.0481 17.1471 94.1535 17.4555C94.6161 17.5845 96.6678 18.1495 99.475 19.0595C100.041 19.2427 102.583 20.0702 105.947 21.3285C106.771 21.6341 109.645 22.7172 113.387 24.3111C114.123 24.627 115.988 25.4273 118.388 26.5322C123.036 28.6692 126.619 30.5374 128.36 31.4551C133.818 34.3485 137.75 36.7638 138.635 37.3084C140.396 38.3995 143.007 40.0172 146.296 42.3593C148.01 43.5831 150.286 45.2073 153.058 47.5741C155.443 49.6073 156.984 51.1544 158.029 52.2661C158.784 53.0697 160.437 54.8699 161.922 57.4805C162.677 58.8111 163.152 59.9263 162.98 61.3179C162.923 61.7716 162.786 62.7677 161.997 63.6856C161.157 64.6651 159.935 65.1434 158.333 65.4797C154.683 66.251 151.503 65.7926 150.329 65.6111C145.662 64.8961 143.331 64.5363 139.15 63.4289C138.025 63.1291 134.066 62.0622 128.58 60.1272C122.807 58.0921 118.593 56.2388 116.031 55.1055C112.886 53.7173 108.557 51.703 103.554 49.0352C100.654 47.4923 95.835 44.9082 89.9244 41.0117C85.0765 37.8094 82.308 35.5822 78.4608 32.4828C78.4608 32.4828 75.2493 29.8982 71.0921 24.6274C70.6722 24.0937 69.8653 23.0373 69.4487 21.4568C69.1637 20.3784 68.8489 19.4664 69.2427 18.3539C69.7054 17.0388 70.8056 16.2645 71.1963 15.998C72.0069 15.4427 73.1584 14.9401 76.1797 14.7628C76.8487 14.7236 79.5512 14.5868 84.042 15.235C86.4128 15.5776 88.2473 15.9913 89.608 16.3014L89.5851 16.2957Z" fill="#A9C4FF"/>
</g>
</svg>
