<svg width="112" height="130" viewBox="0 0 112 130" fill="none" xmlns="http://www.w3.org/2000/svg">
<g id="Group 28">
<g id="Group">
<path id="Vector" d="M14.2522 101.276C14.2522 101.276 14.2522 101.276 14.2545 101.315C14.2568 101.353 14.2979 101.39 14.3002 101.429C14.3002 101.429 14.3025 101.468 14.3436 101.504C14.3459 101.543 14.387 101.579 14.3893 101.618C14.3917 101.657 14.4328 101.693 14.4374 101.771C14.4374 101.771 14.4854 101.924 14.5242 101.922C14.5676 101.997 14.611 102.072 14.6544 102.147L14.7412 102.298L14.8304 102.487L14.8761 102.601L14.9218 102.715C14.9652 102.791 15.0109 102.905 15.0109 102.905C15.0109 102.905 15.0132 102.944 15.0543 102.98L15.0566 103.019C15.0566 103.019 15.059 103.058 15.1001 103.094C15.1001 103.094 15.1869 103.245 15.2326 103.359L15.276 103.434C15.4132 103.776 15.5503 104.119 15.7239 104.42C15.8154 104.648 15.9068 104.876 16.037 105.102C16.037 105.102 16.3044 105.67 16.3067 105.709C16.309 105.748 16.8918 107.037 16.8941 107.075C16.908 107.308 21.5065 117.858 21.5522 117.972C21.7351 118.429 25.1542 126.168 25.2022 126.32C25.3371 126.624 25.4719 126.927 25.6068 127.231C25.6068 127.231 25.6091 127.27 25.6525 127.345C25.6548 127.384 25.6936 127.381 25.6959 127.42C25.6959 127.42 25.6982 127.459 25.7393 127.495C25.7416 127.534 25.7804 127.532 25.7827 127.571C25.7827 127.571 25.785 127.61 25.8238 127.607C25.8238 127.607 25.8649 127.644 25.8672 127.683C25.8672 127.683 25.9083 127.719 25.9106 127.758C25.9106 127.758 25.9517 127.794 25.9928 127.831C25.9928 127.831 26.0339 127.867 26.075 127.904C26.1161 127.94 26.1573 127.977 26.2372 128.011C26.2759 128.009 26.3582 128.082 26.4792 128.152C26.7212 128.294 27.0384 128.392 27.0384 128.392C27.4356 128.524 27.7483 128.544 27.9469 128.61C28.2619 128.669 28.4947 128.655 28.6909 128.683C28.9648 128.705 29.1976 128.691 29.3551 128.721C29.4715 128.714 29.9005 128.727 30.5601 128.688C30.6764 128.681 31.0256 128.661 31.4889 128.594C32.9585 128.429 34.6904 128.092 34.8068 128.085C36.0003 127.859 36.9198 127.609 37.5724 127.454C37.9558 127.353 38.7225 127.152 39.7173 126.859C40.6369 126.61 43.2769 125.83 46.7427 124.533C47.1625 124.392 48.5315 123.843 50.318 123.114C50.9637 122.842 51.9904 122.43 53.2795 121.848C54.3792 121.354 55.2119 120.954 55.7047 120.73C56.501 120.371 57.1056 120.063 57.4067 119.889C58.0113 119.581 58.4653 119.359 58.6912 119.229C58.7665 119.185 59.0676 119.012 59.4075 118.836C60.6532 118.178 61.7072 117.57 61.8577 117.483C62.8364 116.919 63.5528 116.526 63.7399 116.398C63.9269 116.27 64.5292 115.923 65.168 115.534C65.9938 115.018 67.3443 114.159 68.9479 112.974C68.9479 112.974 70.401 111.875 71.546 110.833C71.546 110.833 72.2097 110.21 72.7912 109.514C72.9736 109.308 73.0808 109.146 73.1173 109.105C73.2632 108.94 73.4046 108.698 73.5824 108.415C73.6873 108.214 73.8309 108.011 73.9311 107.733C73.9972 107.534 74.0974 107.256 74.1155 106.904C74.1085 106.788 74.1358 106.592 74.0855 106.4C74.0421 106.325 74.0351 106.208 73.9917 106.133C73.9437 105.98 73.9003 105.905 73.8592 105.868C73.7678 105.64 73.6763 105.412 73.5461 105.186C73.5461 105.186 73.1827 104.312 73.1439 104.315C73.1439 104.315 72.6913 103.251 72.6502 103.215C72.4216 102.644 72.1566 102.115 71.928 101.545C71.7017 101.013 71.4777 100.52 71.2514 99.9887L70.6617 98.5832C70.4355 98.0516 70.1681 97.4835 69.9418 96.9519L69.2219 95.3206C68.0974 92.779 66.9706 90.1985 65.8849 87.6546C65.0759 85.8339 64.3056 84.0109 63.4966 82.1903C63.4966 82.1903 63.1835 81.5081 63.1812 81.4693L62.9549 80.9377C62.9549 80.9377 62.7263 80.3673 62.6875 80.3696L62.6395 80.2167C62.6418 80.2555 62.6418 80.2555 62.6829 80.292C62.6829 80.292 62.6852 80.3308 62.6875 80.3696C62.6921 80.4472 62.7355 80.5225 62.7378 80.5613C62.7401 80.6001 62.7424 80.6389 62.7494 80.7552C62.7494 80.7552 62.7563 80.8716 62.7221 80.9515C62.729 81.0679 62.6948 81.1478 62.6971 81.1866C62.6653 81.3053 62.6699 81.3829 62.6334 81.424C62.6015 81.5427 62.5673 81.6226 62.5697 81.6614C62.499 81.7824 62.4671 81.9011 62.4306 81.9422C62.4306 81.9422 62.3964 82.0221 62.3258 82.1431C62.2893 82.1842 62.2209 82.344 62.0773 82.5472C61.9678 82.6705 61.8971 82.7915 61.8629 82.8714C61.7535 82.9947 61.6805 83.0769 61.6463 83.1568C61.6098 83.1979 61.5392 83.3189 61.3932 83.4833C61.3567 83.5244 61.286 83.6454 61.1378 83.7711C61.0648 83.8533 60.7729 84.1821 60.3669 84.5566C60.1845 84.7621 60.0362 84.8878 59.9244 84.9723C59.6667 85.2212 59.4432 85.3902 59.3337 85.5135C59.2972 85.5546 59.0372 85.7648 58.7041 86.0571C58.6289 86.1005 58.4076 86.3083 58.0723 86.5619C58.0723 86.5619 57.7005 86.8565 57.3287 87.1511C55.8003 88.2932 53.9252 89.4949 53.9252 89.4949C52.5746 90.3538 51.5595 90.9593 50.8796 91.3111C50.5397 91.4871 49.0728 92.353 47.0696 93.3676C46.5403 93.6326 44.9912 94.4255 42.8694 95.4083C40.4807 96.4847 38.5824 97.2984 37.5922 97.6687C36.4514 98.1259 34.512 98.9031 31.9542 99.756C28.9766 100.751 26.7906 101.309 26.2544 101.458C25.4489 101.661 23.9908 102.02 22.1789 102.323C21.9873 102.373 20.6363 102.57 19.0092 102.706C18.9316 102.711 18.1557 102.757 17.1401 102.7C17.1401 102.7 16.3984 102.667 15.7227 102.434C15.6428 102.4 15.3666 102.339 15.0835 102.161C14.9214 102.054 14.8004 101.983 14.7182 101.91C14.636 101.837 14.5561 101.803 14.4716 101.691C14.3413 101.465 14.291 101.274 14.2522 101.276Z" fill="#FFCE00"/>
<path id="Vector_2" d="M39.0315 96.9989C39.6384 96.7292 40.2088 96.5007 40.7792 96.2721C41.1214 96.1349 41.5001 95.9567 41.9542 95.735C42.3717 95.5544 42.9398 95.2871 43.6608 94.9717C44.9475 94.3501 45.9308 93.8633 46.2343 93.7285C48.048 92.803 49.4055 92.0605 49.7819 91.8434C50.5735 91.407 51.7028 90.7559 53.1697 89.89C55.4601 88.469 56.9519 87.368 57.3625 87.0711C57.8461 86.6919 58.5921 86.1414 59.4063 85.4311C59.4063 85.4311 60.5172 84.4696 61.3541 83.4854C61.4636 83.3621 61.6825 83.1155 61.9333 82.7502C62.1476 82.426 62.289 82.184 62.3231 82.1041C62.4987 81.7822 62.5647 81.5836 62.5989 81.5037C62.6331 81.4238 62.6968 81.1864 62.7218 80.9513C62.7537 80.8326 62.7467 80.7163 62.7467 80.7163C62.7398 80.5999 62.7375 80.5611 62.7352 80.5223C62.7306 80.4447 62.7283 80.4059 62.726 80.3671C62.7237 80.3283 62.7214 80.2895 62.6803 80.253C62.678 80.2142 62.678 80.2142 62.6368 80.1777L62.6345 80.1389C62.6322 80.1001 62.5911 80.0636 62.5911 80.0636C62.5911 80.0636 62.5911 80.0636 62.5888 80.0249C62.5454 79.9496 62.502 79.8743 62.502 79.8743C62.4997 79.8355 62.4586 79.799 62.3764 79.726C62.3353 79.6895 62.2919 79.6142 62.1709 79.5436C62.0088 79.4364 61.8878 79.3657 61.8079 79.3316C61.6458 79.2244 61.4883 79.1948 61.4084 79.1607C61.3285 79.1265 61.2486 79.0923 61.0911 79.0627C60.6551 78.9329 60.2237 78.8807 60.1073 78.8876C59.676 78.8354 59.3245 78.8174 59.0917 78.8312C58.5851 78.8224 58.2359 78.8432 57.9256 78.8616C57.7316 78.8732 57.3824 78.8939 56.9557 78.9193C56.2984 78.9973 55.68 79.073 55.0616 79.1487C53.5966 79.3916 52.483 79.6525 51.8281 79.7693C51.6752 79.8173 50.945 79.9775 49.9867 80.2292C49.9867 80.2292 49.4505 80.3779 48.9142 80.5266C45.9662 81.3637 42.6486 82.5343 42.6486 82.5343C41.9253 82.811 39.4474 83.698 36.2601 85.0945C35.0828 85.5928 34.1748 86.0361 33.682 86.2601C30.2734 87.8644 27.8209 89.1782 26.9928 89.6557C25.2224 90.6564 23.9814 91.3921 23.4932 91.6937C22.2933 92.4658 21.4309 93.0232 21.0568 93.2791C20.0827 93.921 19.4509 94.4257 19.2273 94.5948C18.4449 95.1864 17.9637 95.6043 17.8154 95.7299C17.5554 95.9401 17.2223 96.2324 16.8552 96.6046C15.8607 97.5592 15.3157 98.2146 15.1721 98.4178C14.9896 98.6233 14.7753 98.9475 14.5656 99.3493C14.4607 99.5502 14.251 99.952 14.1988 100.383C14.1305 100.543 14.1397 100.698 14.1489 100.854C14.1604 101.047 14.2473 101.198 14.2496 101.237C14.2519 101.276 14.3387 101.426 14.4666 101.613C14.5511 101.725 14.7155 101.871 14.8777 101.978C15.364 102.3 15.9939 102.418 15.9939 102.418C17.0964 102.625 18.0709 102.645 18.0709 102.645C19.1207 102.621 19.9719 102.532 20.5926 102.495C20.9395 102.435 22.3315 102.275 24.2551 101.888C25.3322 101.668 26.0989 101.467 26.788 101.27C27.1325 101.172 28.513 100.817 30.4251 100.236C31.0754 100.042 33.0993 99.3762 35.7643 98.3612C37.0944 97.8149 38.2352 97.3577 39.0315 96.9989Z" fill="#FFEB90"/>
</g>
<g id="Group_2">
<path id="Vector_3" d="M13.3587 54.6098C13.3587 54.6098 13.3587 54.6098 13.3848 54.6386C13.411 54.6674 13.4659 54.67 13.492 54.6988C13.492 54.6988 13.5181 54.7275 13.573 54.7302C13.5991 54.7589 13.654 54.7616 13.6802 54.7903C13.7063 54.8191 13.7612 54.8217 13.8135 54.8793C13.8135 54.8793 13.9468 54.9682 13.9755 54.9421C14.0566 54.9735 14.1376 55.0049 14.2186 55.0363L14.3807 55.0991L14.5689 55.1907L14.676 55.2508L14.7832 55.311C14.8642 55.3424 14.9714 55.4026 14.9714 55.4026C14.9714 55.4026 14.9975 55.4314 15.0524 55.434L15.0786 55.4628C15.0786 55.4628 15.1047 55.4915 15.1596 55.4942C15.1596 55.4942 15.3217 55.557 15.4288 55.6171L15.5098 55.6486C15.8313 55.8291 16.1528 56.0096 16.4769 56.1352C16.6913 56.2555 16.9056 56.3759 17.1487 56.4701C17.1487 56.4701 17.7133 56.7448 17.7394 56.7736C17.7655 56.8024 19.028 57.4408 19.0541 57.4695C19.2109 57.6421 29.4098 62.9741 29.5169 63.0343C29.9456 63.275 37.4628 67.1576 37.596 67.2466C37.8914 67.3983 38.1868 67.5501 38.4821 67.7018C38.4821 67.7018 38.5082 67.7306 38.5893 67.762C38.6154 67.7907 38.6442 67.7646 38.6703 67.7934C38.6703 67.7934 38.6964 67.8221 38.7513 67.8248C38.7775 67.8535 38.8062 67.8274 38.8324 67.8562C38.8324 67.8562 38.8585 67.885 38.8873 67.8588C38.8873 67.8588 38.9422 67.8615 38.9683 67.8902C38.9683 67.8902 39.0232 67.8929 39.0493 67.9216C39.0493 67.9216 39.1042 67.9243 39.1591 67.9269C39.1591 67.9269 39.214 67.9295 39.2689 67.9322C39.3238 67.9348 39.3787 67.9374 39.4624 67.914C39.4912 67.8878 39.601 67.8931 39.7395 67.8722C40.0167 67.8305 40.3252 67.7078 40.3252 67.7078C40.7174 67.5615 40.9737 67.3812 41.1698 67.3081C41.4522 67.1566 41.6248 66.9998 41.7947 66.8979C42.0223 66.7438 42.1949 66.587 42.3361 66.5112C42.4224 66.4328 42.7649 66.1741 43.254 65.7299C43.3403 65.6515 43.5992 65.4163 43.9183 65.074C44.9592 64.0235 46.097 62.6749 46.1833 62.5965C46.9705 61.6714 47.5303 60.9004 47.941 60.3699C48.1764 60.051 48.6472 59.4133 49.2384 58.5613C49.7981 57.7903 51.365 55.5269 53.2512 52.3435C53.4892 51.9697 54.2113 50.6838 55.1453 48.9953C55.4775 48.3784 56.0191 47.414 56.6575 46.1515C57.2043 45.0773 57.602 44.2435 57.8453 43.7599C58.2404 42.981 58.5178 42.3615 58.6434 42.0374C58.9207 41.4179 59.1353 40.9605 59.2295 40.7174C59.2609 40.6364 59.3865 40.3123 59.5409 39.962C60.0983 38.6682 60.5379 37.5337 60.6007 37.3717C61.009 36.3183 61.3204 35.5629 61.3858 35.3459C61.4513 35.129 61.7025 34.4807 61.9564 33.7776C62.2757 32.8575 62.7887 31.3414 63.294 29.4122C63.294 29.4122 63.7365 27.6451 63.9751 26.1159C63.9751 26.1159 64.1009 25.214 64.1169 24.3068C64.1301 24.0323 64.1119 23.8389 64.1145 23.784C64.1251 23.5644 64.0834 23.2872 64.0443 22.9552C63.9999 22.733 63.9844 22.4846 63.8877 22.2048C63.8146 22.0087 63.718 21.729 63.5116 21.4439C63.4332 21.3576 63.3313 21.1876 63.1719 21.0699C63.0908 21.0385 63.0124 20.9522 62.9314 20.9208C62.7981 20.8319 62.7171 20.8005 62.6622 20.7978C62.4479 20.6775 62.2335 20.5572 61.9904 20.4629C61.9904 20.4629 61.1593 20.0103 61.1305 20.0365C61.1305 20.0365 60.1111 19.4923 60.0563 19.4897C59.5204 19.1888 58.982 18.9428 58.4462 18.642C57.9365 18.3699 57.453 18.1266 56.9433 17.8545L55.6024 17.1298C55.0927 16.8577 54.5282 16.583 54.0185 16.3109L52.4346 15.492C49.9645 14.2178 47.4684 12.9149 45.0272 11.6146C43.255 10.7041 41.5117 9.76752 39.7395 8.85703C39.7395 8.85703 39.0678 8.52214 39.0417 8.49337L38.532 8.22128C38.532 8.22128 37.9962 7.92042 37.9674 7.94655L37.8341 7.85761C37.8603 7.88638 37.8603 7.88638 37.9152 7.88902C37.9152 7.88902 37.9413 7.91778 37.9674 7.94655C38.0197 8.00409 38.1007 8.03549 38.1268 8.06426C38.153 8.09303 38.1791 8.12179 38.2575 8.2081C38.2575 8.2081 38.3359 8.2944 38.3594 8.37807C38.4378 8.46437 38.4613 8.54804 38.4874 8.57681C38.537 8.68924 38.5893 8.74678 38.5867 8.80167C38.6363 8.91411 38.6598 8.99778 38.6859 9.02654C38.7068 9.16511 38.7564 9.27754 38.7538 9.33244C38.7538 9.33244 38.7773 9.41611 38.7981 9.55468C38.7955 9.60958 38.8425 9.77691 38.8581 10.0253C38.8502 10.19 38.871 10.3285 38.8945 10.4122C38.8866 10.5769 38.8813 10.6867 38.9048 10.7704C38.9022 10.8253 38.923 10.9638 38.9125 11.1834C38.9099 11.2383 38.9307 11.3769 38.894 11.5677C38.8888 11.6775 38.8677 12.1167 38.7864 12.6631C38.7732 12.9376 38.7366 13.1284 38.7025 13.2643C38.6579 13.6199 38.5899 13.8917 38.582 14.0564C38.5793 14.1113 38.5086 14.4381 38.4326 14.8746C38.4012 14.9557 38.3593 15.2563 38.2571 15.6641C38.2571 15.6641 38.1524 16.1268 38.0476 16.5895C37.5737 18.4376 36.867 20.5496 36.867 20.5496C36.354 22.0657 35.9431 23.174 35.6343 23.8745C35.4799 24.2248 34.8806 25.8193 33.957 27.8659C33.711 28.4044 33.0019 29.9936 31.9658 32.0898C30.7806 34.4265 29.8126 36.2509 29.2737 37.1605C28.6719 38.2321 27.649 40.0539 26.192 42.3225C24.4968 44.9649 23.1445 46.7708 22.8202 47.223C22.3206 47.8868 21.4103 49.0812 20.1889 50.4532C20.0712 50.6126 19.1427 51.6135 17.9606 52.7398C17.9031 52.7921 17.3277 53.3147 16.5014 53.9078C16.5014 53.9078 15.9025 54.3468 15.2305 54.5897C15.1469 54.6131 14.8932 54.7385 14.5612 54.7776C14.3677 54.7958 14.2292 54.8167 14.1194 54.8114C14.0096 54.8062 13.9259 54.8296 13.79 54.7956C13.5469 54.7014 13.3875 54.5837 13.3587 54.6098Z" fill="#FFEB90"/>
<path id="Vector_4" d="M29.9747 35.7357C30.2781 35.145 30.579 34.6092 30.8799 34.0734C31.0604 33.7519 31.2435 33.3755 31.4581 32.9181C31.67 32.5156 31.9447 31.951 32.3084 31.2531C32.9207 29.9619 33.3812 28.966 33.5329 28.6707C34.365 26.8122 34.9564 25.3825 35.1134 24.9773C35.4562 24.1409 35.9273 22.9254 36.5266 21.3309C37.4191 18.7876 37.8904 16.9943 38.0239 16.5055C38.1627 15.9069 38.3984 15.0103 38.587 13.9463C38.587 13.9463 38.849 12.5007 38.8835 11.2093C38.8914 11.0446 38.9072 10.7152 38.8734 10.2734C38.837 9.88644 38.7953 9.60931 38.7718 9.52564C38.7066 9.16484 38.6334 8.96874 38.6099 8.88507C38.5864 8.80141 38.4872 8.57654 38.3592 8.3778C38.3095 8.26537 38.2312 8.17906 38.2312 8.17906C38.1528 8.09276 38.1266 8.06399 38.1005 8.03522C38.0482 7.97769 38.0221 7.94892 37.996 7.92015C37.9698 7.89138 37.9437 7.86262 37.8888 7.85998C37.8627 7.83121 37.8627 7.83121 37.8078 7.82858L37.7816 7.79981C37.7555 7.77104 37.7006 7.7684 37.7006 7.7684C37.7006 7.7684 37.7006 7.7684 37.6745 7.73964C37.5935 7.70823 37.5124 7.67683 37.5124 7.67683C37.4863 7.64806 37.4314 7.64543 37.3216 7.64015C37.2667 7.63752 37.1857 7.60611 37.0471 7.62697C36.8536 7.6452 36.7151 7.66605 36.6314 7.68955C36.4379 7.70777 36.2967 7.78353 36.2131 7.80703C36.1294 7.83052 36.0457 7.85402 35.9045 7.92977C35.4836 8.10215 35.1148 8.33206 35.0285 8.41046C34.6598 8.64037 34.3748 8.84678 34.2022 9.00357C33.8021 9.31451 33.5432 9.5497 33.313 9.75875C33.1692 9.88941 32.9103 10.1246 32.5938 10.412C32.1309 10.885 31.6968 11.3319 31.2626 11.7788C30.274 12.8869 29.5704 13.7885 29.1336 14.2903C29.0446 14.4236 28.5764 15.0064 27.9879 15.8035C27.9879 15.8035 27.6635 16.2556 27.3392 16.7078C25.5683 19.209 23.7188 22.2016 23.7188 22.2016C23.329 22.8707 21.9556 25.1158 20.3492 28.2027C19.7448 29.3292 19.3157 30.244 19.0724 30.7276C17.424 34.1151 16.3381 36.6766 15.9926 37.568C15.2416 39.4578 14.7365 40.8092 14.5454 41.3503C14.0952 42.7043 13.7733 43.6793 13.6424 44.1133C13.2864 45.2242 13.1109 46.0136 13.0429 46.2855C12.8046 47.237 12.6919 47.8644 12.6552 48.0552C12.5845 48.382 12.5085 48.8185 12.456 49.3388C12.2803 50.706 12.2669 51.5582 12.2825 51.8066C12.2693 52.0811 12.3058 52.468 12.3945 52.9125C12.4388 53.1347 12.5275 53.5792 12.7575 53.9479C12.8044 54.1152 12.909 54.2303 13.0135 54.3454C13.1442 54.4892 13.3062 54.552 13.3323 54.5808C13.3585 54.6096 13.5205 54.6724 13.7375 54.7378C13.8734 54.7718 14.093 54.7824 14.2865 54.7642C14.8669 54.7095 15.4317 54.4065 15.4317 54.4065C16.4201 53.8762 17.1916 53.2804 17.1916 53.2804C17.9944 52.6036 18.6012 52 19.0615 51.5819C19.2942 51.3179 20.2776 50.3196 21.5331 48.8117C22.2341 47.9649 22.7049 47.3272 23.1182 46.7418C23.3248 46.4491 24.1775 45.307 25.3024 43.6552C25.6869 43.0959 26.8457 41.3081 28.2846 38.8461C28.9779 37.5862 29.5796 36.5146 29.9747 35.7357Z" fill="#FFCE00"/>
</g>
<g id="Group_3">
<path id="Vector_5" d="M80.8357 41.9555C80.8357 41.9555 80.8357 41.9555 80.8099 41.9671C80.784 41.9787 80.7698 42.0161 80.744 42.0277C80.744 42.0277 80.7182 42.0393 80.704 42.0767C80.6782 42.0883 80.664 42.1257 80.6382 42.1373C80.6124 42.1489 80.5982 42.1863 80.5466 42.2095C80.5466 42.2095 80.455 42.2817 80.4666 42.3075C80.4266 42.3565 80.3865 42.4055 80.3465 42.4546L80.2665 42.5526L80.1607 42.6622L80.0949 42.7228L80.029 42.7834C79.989 42.8324 79.9232 42.893 79.9232 42.893C79.9232 42.893 79.8974 42.9046 79.8832 42.942L79.8574 42.9536C79.8574 42.9536 79.8316 42.9652 79.8174 43.0026C79.8174 43.0026 79.7374 43.1006 79.6715 43.1612L79.6315 43.2102C79.4341 43.392 79.2366 43.5738 79.0766 43.7698C78.945 43.891 78.8133 44.0122 78.6933 44.1592C78.6933 44.1592 78.3758 44.488 78.35 44.4996C78.3242 44.5112 77.5976 45.2411 77.5718 45.2527C77.417 45.3223 71.4262 51.1789 71.3604 51.2395C71.0971 51.4819 66.7143 55.8093 66.6227 55.8815C66.4511 56.0517 66.2794 56.2219 66.1078 56.3921C66.1078 56.3921 66.082 56.4037 66.042 56.4527C66.0162 56.4643 66.0278 56.4901 66.002 56.5017C66.002 56.5017 65.9762 56.5133 65.962 56.5507C65.9361 56.5623 65.9477 56.5882 65.9219 56.5998C65.9219 56.5998 65.8961 56.6113 65.9077 56.6372C65.9077 56.6372 65.8935 56.6746 65.8677 56.6862C65.8677 56.6862 65.8535 56.7236 65.8277 56.7352C65.8277 56.7352 65.8135 56.7726 65.7993 56.81C65.7993 56.81 65.7851 56.8474 65.7709 56.8848C65.7567 56.9222 65.7425 56.9596 65.7399 57.0228C65.7515 57.0486 65.723 57.1234 65.7062 57.224C65.6726 57.4253 65.688 57.6665 65.688 57.6665C65.7008 57.9709 65.7677 58.189 65.7741 58.3412C65.8153 58.5708 65.8849 58.7257 65.9171 58.8663C65.9725 59.0585 66.0421 59.2134 66.0627 59.3282C66.0975 59.4056 66.1992 59.7011 66.3964 60.1398C66.4312 60.2172 66.5356 60.4494 66.7006 60.7475C67.193 61.7049 67.8698 62.7965 67.9046 62.8739C68.3673 63.6275 68.7747 64.1888 69.0493 64.5927C69.2169 64.8276 69.5521 65.2973 70.0085 65.8986C70.4159 66.46 71.6292 68.055 73.4072 70.0785C73.6122 70.3275 74.3394 71.1173 75.2975 72.1446C75.6495 72.5137 76.1949 73.106 76.9247 73.8326C77.545 74.4534 78.0324 74.9167 78.3122 75.1942C78.7622 75.6433 79.1284 75.975 79.3245 76.135C79.6907 76.4667 79.9589 76.7184 80.1059 76.8384C80.1549 76.8785 80.3509 77.0385 80.5585 77.2244C81.3284 77.9019 82.0144 78.4621 82.1124 78.5421C82.7495 79.0623 83.2021 79.4482 83.3375 79.5424C83.4729 79.6366 83.8649 79.9567 84.2944 80.291C84.8592 80.7196 85.7929 81.4166 87.0142 82.2014C87.0142 82.2014 88.1375 82.9063 89.1422 83.4163C89.1422 83.4163 89.738 83.7068 90.3623 83.9225C90.5493 83.9935 90.6873 84.0245 90.7248 84.0387C90.8744 84.0956 91.0756 84.1292 91.3142 84.177C91.4781 84.1964 91.6535 84.2417 91.8689 84.2379C92.0211 84.2315 92.2366 84.2277 92.4804 84.1491C92.5578 84.1143 92.6985 84.0822 92.8159 83.9984C92.8559 83.9494 92.9333 83.9146 92.9733 83.8655C93.0649 83.7933 93.105 83.7443 93.1192 83.7069C93.2508 83.5857 93.3824 83.4645 93.5025 83.3175C93.5025 83.3175 94.0032 82.8443 93.9916 82.8185C93.9916 82.8185 94.5981 82.2357 94.6124 82.1983C94.9414 81.8953 95.2331 81.578 95.5622 81.275C95.8655 80.9836 96.143 80.7038 96.4462 80.4124L97.2502 79.6478C97.5535 79.3564 97.871 79.0275 98.1743 78.7361L99.0983 77.8245C100.537 76.4022 102.002 74.9684 103.453 73.5719C104.483 72.5507 105.524 71.5552 106.554 70.534C106.554 70.534 106.937 70.1446 106.963 70.133L107.266 69.8416C107.266 69.8416 107.595 69.5385 107.584 69.5127L107.675 69.4405C107.65 69.4521 107.65 69.4521 107.635 69.4895C107.635 69.4895 107.61 69.5011 107.584 69.5127C107.532 69.5359 107.492 69.5849 107.466 69.5965C107.441 69.6081 107.415 69.6197 107.337 69.6545C107.337 69.6545 107.26 69.6893 107.197 69.6867C107.119 69.7215 107.056 69.7189 107.03 69.7305C106.941 69.7395 106.89 69.7627 106.852 69.7485C106.763 69.7575 106.7 69.7549 106.674 69.7665C106.574 69.7497 106.485 69.7587 106.447 69.7444C106.447 69.7444 106.384 69.7418 106.283 69.725C106.246 69.7108 106.12 69.7056 105.944 69.6604C105.832 69.6178 105.731 69.6009 105.668 69.5983C105.556 69.5557 105.481 69.5273 105.418 69.5247C105.38 69.5105 105.28 69.4937 105.13 69.4369C105.093 69.4226 104.992 69.4058 104.868 69.3374C104.794 69.309 104.494 69.1953 104.134 69.0159C103.947 68.9448 103.824 68.8764 103.737 68.8222C103.501 68.7112 103.328 68.6027 103.216 68.5601C103.179 68.5459 102.969 68.4233 102.684 68.2722C102.635 68.2322 102.436 68.1354 102.177 67.9727C102.177 67.9727 101.88 67.7958 101.583 67.619C100.411 66.8741 99.1086 65.9086 99.1086 65.9086C98.175 65.2116 97.5005 64.6773 97.0853 64.3056C96.8777 64.1197 95.9092 63.3453 94.701 62.2444C94.3838 61.9527 93.4437 61.1035 92.2264 59.9136C90.8764 58.5662 89.8319 57.4847 89.3239 56.9066C88.7179 56.2484 87.6877 55.1295 86.446 53.6093C84.9994 51.8401 84.0544 50.4968 83.8146 50.1703C83.4678 49.6748 82.8464 48.7754 82.1722 47.6206C82.0884 47.5031 81.6051 46.6347 81.0921 45.5625C81.0689 45.5109 80.8369 44.9948 80.6128 44.2891C80.6128 44.2891 80.444 43.7756 80.4275 43.2557C80.4301 43.1925 80.4005 42.9886 80.4483 42.75C80.4793 42.612 80.4961 42.5114 80.5246 42.4366C80.553 42.3618 80.5556 42.2986 80.6098 42.2121C80.7298 42.0651 80.8473 41.9813 80.8357 41.9555Z" fill="#FFEB90"/>
<path id="Vector_6" d="M90.1517 57.7131C90.4921 58.0564 90.7951 58.3855 91.0981 58.7146C91.2799 58.912 91.4991 59.1237 91.7674 59.3754C91.9982 59.6128 92.327 59.9303 92.728 60.3394C93.4836 61.0544 94.0691 61.5978 94.2393 61.7694C95.3379 62.7645 96.1942 63.4963 96.4392 63.6964C96.9408 64.1223 97.6759 64.7225 98.6443 65.4969C100.203 66.6882 101.338 67.4189 101.647 67.6215C102.03 67.8526 102.597 68.2179 103.291 68.5885C103.291 68.5885 104.232 69.0959 105.119 69.411C105.231 69.4536 105.455 69.5389 105.769 69.6151C106.045 69.6771 106.246 69.7108 106.309 69.7134C106.574 69.7496 106.726 69.7432 106.789 69.7458C106.852 69.7484 107.03 69.7305 107.197 69.6867C107.286 69.6777 107.363 69.6429 107.363 69.6429C107.44 69.6081 107.466 69.5965 107.492 69.5849C107.544 69.5617 107.569 69.5501 107.595 69.5385C107.621 69.5269 107.647 69.5153 107.661 69.4779C107.687 69.4663 107.687 69.4663 107.701 69.4289L107.727 69.4173C107.753 69.4057 107.767 69.3683 107.767 69.3683C107.767 69.3683 107.767 69.3683 107.793 69.3567C107.833 69.3077 107.873 69.2587 107.873 69.2587C107.899 69.2471 107.913 69.2097 107.941 69.1349C107.955 69.0975 107.995 69.0485 108.012 68.9478C108.043 68.8098 108.06 68.7092 108.063 68.646C108.094 68.508 108.073 68.3932 108.076 68.33C108.078 68.2667 108.081 68.2035 108.06 68.0887C108.036 67.7585 107.96 67.4514 107.925 67.374C107.849 67.0669 107.771 66.8231 107.701 66.6683C107.576 66.3212 107.472 66.0889 107.379 65.8825C107.321 65.7535 107.216 65.5212 107.089 65.2374C106.866 64.8103 106.655 64.409 106.443 64.0077C105.899 63.0735 105.434 62.3831 105.185 61.9677C105.113 61.876 104.815 61.4205 104.396 60.8334C104.396 60.8334 104.156 60.5069 103.916 60.1804C102.585 58.3906 100.93 56.4355 100.93 56.4355C100.555 56.0148 99.3109 54.5579 97.5366 52.7498C96.8932 52.0774 96.3567 51.5741 96.0769 51.2966C94.104 49.3917 92.5759 48.0623 92.0369 47.6222C90.8982 46.6761 90.0768 46.0217 89.7453 45.7674C88.9097 45.1505 88.3074 44.7077 88.0366 44.5193C87.348 44.0223 86.8411 43.7228 86.6683 43.6144C86.0634 43.2349 85.6546 43.0154 85.5308 42.9469C85.3206 42.8243 85.0356 42.6733 84.6873 42.5196C83.7806 42.0896 83.1938 41.8881 83.0183 41.8429C82.8313 41.7719 82.5553 41.7098 82.2276 41.671C82.0638 41.6516 81.7362 41.6127 81.4291 41.6887C81.3027 41.6835 81.1995 41.7299 81.0962 41.7763C80.9672 41.8343 80.8872 41.9323 80.8614 41.9439C80.8356 41.9555 80.7556 42.0535 80.6613 42.1889C80.6071 42.2753 80.5503 42.4249 80.5193 42.5629C80.4262 42.977 80.5086 43.4363 80.5086 43.4363C80.6527 44.24 80.8911 44.9083 80.8911 44.9083C81.1784 45.6167 81.4594 46.1728 81.645 46.5857C81.7752 46.8063 82.2444 47.7121 83.0049 48.9212C83.4329 49.5973 83.7681 50.0671 84.0801 50.4852C84.2361 50.6942 84.8343 51.542 85.724 52.6931C86.0244 53.0854 87.0004 54.2907 88.38 55.8419C89.0956 56.6059 89.7017 57.264 90.1517 57.7131Z" fill="#FFCE00"/>
</g>
</g>
</svg>
