<svg width="67" height="55" viewBox="0 0 67 55" fill="none" xmlns="http://www.w3.org/2000/svg">
<g id="Group">
<path id="Vector" d="M9.89803 35.1553C9.89803 35.1553 9.89803 35.1553 9.91564 35.1814C9.93326 35.2075 9.97939 35.2196 9.997 35.2457C9.997 35.2457 10.0146 35.2718 10.0607 35.2839C10.0784 35.31 10.1245 35.3221 10.1421 35.3482C10.1597 35.3743 10.2058 35.3864 10.2411 35.4386C10.2411 35.4386 10.34 35.529 10.3686 35.5149C10.4323 35.5531 10.496 35.5913 10.5598 35.6295L10.6873 35.7059L10.8324 35.8083L10.9137 35.8726L10.9951 35.9369C11.0588 35.9751 11.1402 36.0394 11.1402 36.0394C11.1402 36.0394 11.1578 36.0655 11.2039 36.0776L11.2215 36.1037C11.2215 36.1037 11.2392 36.1298 11.2853 36.1419C11.2853 36.1419 11.4128 36.2182 11.4941 36.2825L11.5579 36.3207C11.8019 36.5136 12.046 36.7064 12.301 36.8592C12.4637 36.9877 12.6264 37.1163 12.8176 37.2309C12.8176 37.2309 13.2529 37.5383 13.2705 37.5644C13.2882 37.5905 14.2577 38.2957 14.2753 38.3218C14.381 38.4785 22.1862 44.3051 22.2676 44.3694C22.593 44.6265 28.3534 48.886 28.4523 48.9764C28.6788 49.1432 28.9053 49.3099 29.1317 49.4767C29.1317 49.4767 29.1493 49.5028 29.2131 49.541C29.2307 49.5671 29.2592 49.5531 29.2768 49.5792C29.2768 49.5792 29.2944 49.6053 29.3405 49.6174C29.3582 49.6435 29.3867 49.6294 29.4043 49.6555C29.4043 49.6555 29.4219 49.6816 29.4504 49.6676C29.4504 49.6676 29.4965 49.6797 29.5142 49.7058C29.5142 49.7058 29.5603 49.7179 29.5779 49.744C29.5779 49.744 29.624 49.756 29.6702 49.7681C29.6702 49.7681 29.7163 49.7802 29.7624 49.7923C29.8086 49.8043 29.8547 49.8164 29.9293 49.8144C29.9578 49.8004 30.0501 49.8245 30.1709 49.8346C30.4124 49.8548 30.6934 49.8209 30.6934 49.8209C31.049 49.7849 31.2947 49.6987 31.4725 49.6808C31.7359 49.6207 31.907 49.5364 32.0671 49.4923C32.2844 49.4202 32.4555 49.336 32.5871 49.3059C32.6727 49.2638 33.004 49.1355 33.4887 48.8968C33.5743 48.8547 33.8309 48.7284 34.1555 48.5338C35.2038 47.9481 36.3813 47.1597 36.4669 47.1176C37.2804 46.578 37.8767 46.1105 38.3086 45.7935C38.5585 45.6009 39.0583 45.2157 39.6941 44.694C40.2903 44.2266 41.9761 42.8401 44.0778 40.8316C44.3386 40.5988 45.1538 39.7801 46.2121 38.7025C46.5912 38.3072 47.2026 37.6932 47.9431 36.8765C48.5763 36.1821 49.0451 35.6383 49.3278 35.3252C49.7857 34.8216 50.1186 34.4142 50.2763 34.1974C50.6092 33.79 50.8633 33.491 50.9816 33.3285C51.021 33.2743 51.1787 33.0575 51.3648 32.8267C52.0416 31.9718 52.5935 31.2132 52.6723 31.1048C53.1847 30.4004 53.568 29.8987 53.6577 29.7502C53.7474 29.6016 54.0628 29.1681 54.389 28.6945C54.805 28.0723 55.4792 27.0448 56.2122 25.71C56.2122 25.71 56.8663 24.4837 57.3099 23.3957C57.3099 23.3957 57.559 22.7514 57.7158 22.0829C57.7703 21.8822 57.7854 21.7356 57.7963 21.6955C57.8399 21.5349 57.8483 21.322 57.8676 21.0691C57.865 20.8964 57.891 20.7097 57.8533 20.4848C57.8222 20.3262 57.7845 20.1013 57.6545 19.8523C57.6016 19.774 57.5421 19.6294 57.4255 19.5129C57.3618 19.4747 57.3089 19.3964 57.2452 19.3582C57.1462 19.2678 57.0825 19.2296 57.0363 19.2175C56.8736 19.0889 56.7109 18.9604 56.5197 18.8458C56.5197 18.8458 55.8864 18.3576 55.8579 18.3716C55.8579 18.3716 55.0796 17.781 55.0335 17.7689C54.6267 17.4474 54.209 17.1661 53.8022 16.8447C53.413 16.5493 53.0415 16.2801 52.6523 15.9847L51.6299 15.2012C51.2407 14.9058 50.8054 14.5984 50.4163 14.3031L49.2026 13.405C47.3096 12.0066 45.399 10.5821 43.5345 9.16964C42.1758 8.16907 40.8456 7.15445 39.4868 6.15387C39.4868 6.15387 38.9702 5.78217 38.9526 5.75606L38.5634 5.46071C38.5634 5.46071 38.1566 5.13926 38.1281 5.1533L38.0291 5.0629C38.0467 5.08901 38.0467 5.08901 38.0929 5.10108C38.0929 5.10108 38.1105 5.12719 38.1281 5.1533C38.1633 5.20552 38.2271 5.2437 38.2447 5.26981C38.2623 5.29592 38.2799 5.32203 38.3327 5.40036C38.3327 5.40036 38.3856 5.47869 38.3923 5.54494C38.4451 5.62327 38.4518 5.68953 38.4695 5.71564C38.4938 5.80801 38.529 5.86023 38.5181 5.90038C38.5424 5.99274 38.5492 6.059 38.5668 6.08511C38.5626 6.19152 38.5869 6.28389 38.576 6.32404C38.576 6.32404 38.5827 6.39029 38.5785 6.4967C38.5676 6.53685 38.5811 6.66936 38.5551 6.85607C38.5224 6.97651 38.5182 7.08292 38.5249 7.14918C38.4922 7.26962 38.4704 7.34992 38.4771 7.41618C38.4662 7.45633 38.462 7.56273 38.4184 7.72333C38.4075 7.76348 38.4033 7.86988 38.3421 8.00436C38.3203 8.08466 38.2331 8.40585 38.0779 8.79526C38.0234 8.996 37.9622 9.13048 37.9119 9.22482C37.818 9.47975 37.7173 9.66842 37.6846 9.78886C37.6737 9.82901 37.5622 10.0578 37.4288 10.3669C37.3894 10.4211 37.3064 10.6359 37.1555 10.9189C37.1555 10.9189 36.9936 11.2421 36.8318 11.5652C36.1382 12.8458 35.2056 14.2788 35.2056 14.2788C34.5314 15.3064 34.0081 16.0509 33.6357 16.5125C33.4495 16.7433 32.6897 17.813 31.5835 19.1576C31.29 19.5108 30.4379 20.5563 29.2286 21.9169C27.8549 23.428 26.7462 24.5999 26.1457 25.1737C25.4664 25.856 24.3115 27.0158 22.7181 28.4264C20.8638 30.0697 19.4322 31.1571 19.0858 31.432C18.5574 31.8312 17.5972 32.5474 16.345 33.3378C16.2201 33.4341 15.2749 34.0038 14.0949 34.6195C14.0378 34.6476 13.4675 34.9284 12.6733 35.215C12.6733 35.215 12.0963 35.4296 11.4882 35.4854C11.4136 35.4874 11.1787 35.5335 10.8911 35.5012C10.7242 35.479 10.6034 35.4689 10.5111 35.4448C10.4189 35.4206 10.3442 35.4226 10.2344 35.3723C10.0431 35.2578 9.92654 35.1413 9.89803 35.1553Z" fill="#A9C4FF"/>
<path id="Vector_2" d="M27.2045 24.6359C27.5579 24.2507 27.9002 23.9061 28.2426 23.5614C28.448 23.3546 28.6644 23.1073 28.9205 22.8052C29.1656 22.5436 29.4902 22.1726 29.912 21.7185C30.6407 20.8669 31.1927 20.2079 31.3693 20.0153C32.3761 18.7806 33.109 17.8215 33.3076 17.5478C33.7336 16.9861 34.3296 16.1649 35.0954 15.0842C36.2627 13.3485 36.9508 12.0952 37.1427 11.7546C37.3565 11.3328 37.7006 10.7062 38.0311 9.94567C38.0311 9.94567 38.485 8.91344 38.7199 7.95411C38.7529 7.83242 38.8188 7.58904 38.8602 7.25234C38.8906 6.95621 38.8991 6.74119 38.8923 6.67425C38.894 6.3923 38.8627 6.23203 38.8559 6.16509C38.8492 6.09815 38.8001 5.9115 38.7224 5.73904C38.6978 5.64572 38.6446 5.56658 38.6446 5.56658C38.5913 5.48744 38.5736 5.46106 38.5558 5.43469C38.5203 5.38193 38.5026 5.35555 38.4848 5.32917C38.467 5.30279 38.4493 5.27641 38.4028 5.26421C38.385 5.23783 38.385 5.23783 38.3385 5.22564L38.3208 5.19926C38.303 5.17288 38.2565 5.16068 38.2565 5.16068C38.2565 5.16068 38.2565 5.16068 38.2388 5.1343C38.1745 5.09573 38.1103 5.05715 38.1103 5.05715C38.0925 5.03077 38.0461 5.01858 37.9531 4.99419C37.9066 4.98199 37.8423 4.94341 37.7206 4.93321C37.5524 4.9108 37.4306 4.90059 37.3554 4.90258C37.1872 4.88018 37.0545 4.91053 36.9792 4.91252C36.904 4.91451 36.8287 4.91649 36.696 4.94685C36.3089 4.99735 35.9572 5.10061 35.871 5.14316C35.5193 5.24642 35.2429 5.34769 35.0704 5.43279C34.6791 5.5908 34.4204 5.71845 34.1905 5.83192C34.0468 5.90284 33.7881 6.03049 33.4719 6.18651C33.0011 6.45401 32.559 6.70733 32.1169 6.96064C31.0957 7.60513 30.351 8.14835 29.8979 8.44223C29.8007 8.52535 29.3079 8.87397 28.6781 9.36046C28.6781 9.36046 28.329 9.63817 27.9799 9.91588C26.0686 11.4565 24.012 13.3499 24.012 13.3499C23.5724 13.7777 22.0416 15.2008 20.1777 17.21C19.482 17.9399 18.9697 18.5441 18.6849 18.8604C16.7373 21.0865 15.4017 22.7998 14.9647 23.4021C14.0222 24.6754 13.3755 25.5919 13.1262 25.961C12.526 26.8897 12.0958 27.5588 11.9149 27.8589C11.4339 28.6234 11.1583 29.1811 11.0569 29.3717C10.7019 30.0389 10.5058 30.487 10.4441 30.6229C10.3317 30.8541 10.1973 31.1664 10.0696 31.5457C9.70197 32.5353 9.55491 33.1702 9.52871 33.3588C9.47377 33.5616 9.44335 33.8578 9.44844 34.2067C9.45098 34.3811 9.45607 34.73 9.59388 35.0485C9.60741 35.1824 9.67842 35.2879 9.74944 35.3935C9.8382 35.5254 9.9667 35.6025 9.98445 35.6289C10.0022 35.6553 10.1307 35.7324 10.3057 35.8218C10.4164 35.8725 10.6024 35.9213 10.7706 35.9437C11.2753 36.0109 11.8062 35.8895 11.8062 35.8895C12.7352 35.677 13.4893 35.3752 13.4893 35.3752C14.283 35.0186 14.8976 34.6802 15.3574 34.4533C15.5983 34.2992 16.5975 33.7359 17.9103 32.842C18.644 32.3394 19.1478 31.9502 19.5942 31.5894C19.8173 31.409 20.7277 30.7137 21.9518 29.688C22.3693 29.3413 23.6441 28.2203 25.2654 26.6471C26.0583 25.8341 26.743 25.1448 27.2045 24.6359Z" fill="#6795D6"/>
</g>
</svg>
