<svg width="106" height="104" viewBox="0 0 106 104" fill="none" xmlns="http://www.w3.org/2000/svg">
<g id="Group">
<path id="Vector" d="M64.6688 93.5083C64.6688 93.5083 64.6688 93.5083 64.7246 93.4908C64.7803 93.4732 64.8126 93.4042 64.8684 93.3866C64.8684 93.3866 64.9242 93.3691 64.9565 93.3001C65.0122 93.2825 65.0445 93.2135 65.1003 93.196C65.156 93.1784 65.1883 93.1094 65.2998 93.0743C65.2998 93.0743 65.4994 92.9526 65.4759 92.9012C65.564 92.8146 65.652 92.7281 65.7401 92.6415L65.9162 92.4684L66.1481 92.2777L66.2919 92.1736L66.4357 92.0695C66.5237 91.9829 66.6675 91.8788 66.6675 91.8788C66.6675 91.8788 66.7233 91.8612 66.7556 91.7922L66.8113 91.7747C66.8113 91.7747 66.8671 91.7571 66.8994 91.6881C66.8994 91.6881 67.0755 91.515 67.2193 91.4109L67.3074 91.3243C67.7388 91.012 68.1702 90.6996 68.5224 90.3534C68.81 90.1451 69.0976 89.9369 69.3618 89.6772C69.3618 89.6772 70.0574 89.1052 70.1131 89.0876C70.1689 89.07 71.7596 87.8043 71.8154 87.7867C72.1499 87.6813 85.2571 77.5525 85.4009 77.4484C85.9761 77.0319 95.5674 69.5402 95.7669 69.4185C96.1426 69.1237 96.5183 68.8289 96.8939 68.534C96.8939 68.534 96.9497 68.5165 97.0377 68.4299C97.0935 68.4124 97.0701 68.3609 97.1258 68.3434C97.1258 68.3434 97.1816 68.3258 97.2139 68.2568C97.2696 68.2392 97.2462 68.1878 97.3019 68.1703C97.3019 68.1703 97.3577 68.1527 97.3342 68.1013C97.3342 68.1013 97.3665 68.0323 97.4223 68.0147C97.4223 68.0147 97.4546 67.9457 97.5103 67.9282C97.5103 67.9282 97.5426 67.8592 97.5749 67.7902C97.5749 67.7902 97.6072 67.7212 97.6395 67.6523C97.6718 67.5833 97.7041 67.5143 97.713 67.3939C97.6895 67.3425 97.7541 67.2045 97.7952 67.0152C97.8775 66.6364 97.8572 66.1724 97.8572 66.1724C97.8456 65.5881 97.7138 65.1592 97.708 64.8671C97.6319 64.4206 97.4911 64.1122 97.4296 63.8376C97.3212 63.4602 97.1805 63.1517 97.1424 62.9285C97.072 62.7743 96.8698 62.1912 96.4711 61.3173C96.4007 61.163 96.1896 60.7004 95.8524 60.101C94.8497 58.1827 93.4597 55.9747 93.3893 55.8205C92.4392 54.2972 91.5976 53.1512 91.0316 52.33C90.6855 51.8511 89.9934 50.8932 89.0491 49.662C88.2074 48.5161 85.697 45.2501 82.0016 41.0639C81.5763 40.5512 80.0629 38.9113 78.0685 36.7763C77.3353 36.0078 76.2002 34.7779 74.678 33.2585C73.3845 31.961 72.3667 30.9881 71.7831 30.4077C70.8445 29.4687 70.079 28.7692 69.6683 28.4282C68.9028 27.7287 68.3425 27.1996 68.0346 26.9439C67.9319 26.8586 67.5212 26.5177 67.0871 26.1253C65.4769 24.6924 64.0396 23.499 63.8343 23.3285C62.4996 22.2203 61.5522 21.4017 61.2677 21.1974C60.9832 20.9931 60.1619 20.3111 59.2614 19.5953C58.0763 18.6752 56.1169 17.176 53.5473 15.4574C53.5473 15.4574 51.1829 13.9094 49.062 12.7551C49.062 12.7551 47.8035 12.0933 46.4805 11.5695C46.0844 11.4003 45.791 11.3164 45.7118 11.2825C45.395 11.1472 44.9667 11.047 44.4591 10.913C44.11 10.8466 43.7374 10.7288 43.2768 10.6976C42.9511 10.6826 42.4904 10.6514 41.9652 10.7582C41.7979 10.8109 41.4957 10.8473 41.2404 10.9866C41.1524 11.0732 40.9851 11.1259 40.897 11.2124C40.6975 11.3341 40.6094 11.4207 40.5771 11.4897C40.2895 11.6979 40.0019 11.9062 39.7377 12.1658C39.7377 12.1658 38.643 12.9812 38.6665 13.0327C38.6665 13.0327 37.3399 14.0388 37.3076 14.1078C36.5886 14.6284 35.9488 15.1828 35.2297 15.7035C34.5664 16.2065 33.9589 16.692 33.2956 17.195L31.5376 18.5135C30.8744 19.0166 30.1788 19.5886 29.5155 20.0917L27.4934 21.6698C24.3442 24.1323 21.1393 26.6125 17.9667 29.0236C15.7127 30.7924 13.4353 32.5098 11.1813 34.2786C11.1813 34.2786 10.3419 34.9548 10.2861 34.9724L9.62283 35.4754C9.62283 35.4754 8.90379 35.996 8.92725 36.0475L8.72769 36.1692C8.78344 36.1516 8.78344 36.1516 8.81574 36.0826C8.81574 36.0826 8.87149 36.065 8.92725 36.0475C9.03875 36.0123 9.12681 35.9258 9.18256 35.9082C9.23832 35.8906 9.29407 35.8731 9.46133 35.8203C9.46133 35.8203 9.62859 35.7676 9.76355 35.7839C9.93081 35.7312 10.0658 35.7474 10.1215 35.7299C10.3122 35.7285 10.4238 35.6934 10.503 35.7272C10.6937 35.7259 10.8286 35.7422 10.8844 35.7246C11.0986 35.7747 11.2893 35.7734 11.3685 35.8072C11.3685 35.8072 11.5034 35.8235 11.7176 35.8736C11.7968 35.9074 12.0667 35.94 12.4393 36.0577C12.677 36.1592 12.8911 36.2094 13.0261 36.2256C13.2637 36.3271 13.4221 36.3948 13.5571 36.4111C13.6363 36.4449 13.8505 36.495 14.1673 36.6303C14.2465 36.6642 14.4607 36.7143 14.7218 36.8672C14.8802 36.9349 15.5138 37.2055 16.2736 37.6129C16.6697 37.7821 16.9307 37.935 17.1126 38.0541C17.6113 38.3085 17.975 38.5466 18.2127 38.6482C18.2919 38.682 18.7348 38.954 19.3362 39.2937C19.4389 39.3789 19.8584 39.5995 20.404 39.9567C20.404 39.9567 21.0288 40.3478 21.6536 40.7389C24.1206 42.3722 26.8544 44.4505 26.8544 44.4505C28.8138 45.9498 30.2276 47.0918 31.0958 47.8766C31.5299 48.269 33.5597 49.9224 36.0851 52.2429C36.748 52.8572 38.7132 54.6486 41.2532 57.1409C44.0689 59.9579 46.2452 62.212 47.3011 63.408C48.5622 64.7745 50.7062 67.0976 53.2812 70.2257C56.2815 73.8665 58.2317 76.6035 58.7273 77.2705C59.4428 78.2797 60.7244 80.1103 62.1055 82.4386C62.2785 82.678 63.2667 84.4246 64.3075 86.5662C64.3544 86.669 64.8235 87.6972 65.266 89.0865C65.266 89.0865 65.6002 90.0984 65.6086 91.0953C65.5998 91.2157 65.6524 91.6107 65.5378 92.0584C65.4644 92.3168 65.4233 92.5062 65.3587 92.6441C65.2941 92.7821 65.2852 92.9025 65.1649 93.058C64.9007 93.3177 64.6454 93.4569 64.6688 93.5083Z" fill="#6795D6"/>
<path id="Vector_2" d="M44.5166 62.1389C43.8173 61.4282 43.196 60.7509 42.5748 60.0737C42.202 59.6674 41.7512 59.2275 41.1992 58.7032C40.7253 58.2123 40.0491 57.5525 39.2255 56.7063C37.6708 55.2177 36.4658 54.0845 36.1161 53.7291C33.8534 51.6491 32.0876 50.1109 31.5819 49.6884C30.5473 48.7925 29.0301 47.5252 27.0303 45.8863C23.808 43.3529 21.4554 41.7676 20.8167 41.329C20.0219 40.8234 18.8457 40.0307 17.4035 39.2058C17.4035 39.2058 15.4468 38.0778 13.597 37.3239C13.3629 37.2232 12.8946 37.022 12.2385 36.8221C11.6604 36.6557 11.2384 36.5564 11.1054 36.5403C10.5504 36.4248 10.2295 36.41 10.0966 36.3939C9.96359 36.3778 9.58779 36.3804 9.23509 36.4339C9.04719 36.4352 8.8824 36.4875 8.8824 36.4875C8.71761 36.5397 8.66267 36.5571 8.60774 36.5746C8.49788 36.6094 8.44295 36.6268 8.38802 36.6442C8.33309 36.6616 8.27816 36.6791 8.24633 36.7474C8.1914 36.7648 8.19141 36.7649 8.15958 36.8332L8.10465 36.8506C8.04972 36.8681 8.0179 36.9364 8.0179 36.9364C8.0179 36.9364 8.0179 36.9364 7.96296 36.9538C7.87621 37.0396 7.78946 37.1254 7.78946 37.1254C7.73453 37.1428 7.7027 37.2112 7.63906 37.3479C7.60723 37.4163 7.52048 37.5021 7.47994 37.6898C7.40758 37.9459 7.36704 38.1336 7.35833 38.2529C7.28597 38.509 7.32347 38.7302 7.31476 38.8495C7.30604 38.9688 7.29733 39.0882 7.33483 39.3094C7.36929 39.9395 7.51362 40.5349 7.58294 40.6877C7.72727 41.2831 7.88031 41.7591 8.01896 42.0648C8.26444 42.7446 8.47241 43.2032 8.65728 43.6108C8.77282 43.8656 8.98079 44.3242 9.23498 44.8847C9.68275 45.7335 10.1074 46.5313 10.5321 47.3292C11.6299 49.1957 12.5747 50.5863 13.0774 51.4177C13.2248 51.6041 13.8286 52.52 14.681 53.7067C14.681 53.7067 15.1693 54.3678 15.6576 55.0289C18.3707 58.6563 21.7544 62.6538 21.7544 62.6538C22.5231 63.5175 25.0688 66.4985 28.7127 70.2387C30.0333 71.6267 31.1372 72.6754 31.7123 73.2508C35.7695 77.2096 38.9195 79.9991 40.0321 80.9285C42.3816 82.9227 44.078 84.3081 44.7629 84.8486C46.4912 86.1656 47.7367 87.1111 48.2974 87.5162C49.7222 88.5797 50.7742 89.2369 51.1326 89.473C52.3869 90.2992 53.2366 90.7874 53.4938 90.939C53.9302 91.2085 54.5227 91.5452 55.2482 91.898C57.1355 92.8732 58.361 93.3588 58.7281 93.4755C59.1183 93.6432 59.6964 93.8096 60.3844 93.9412C60.7284 94.0069 61.4163 94.1385 62.0668 94.0488C62.3327 94.081 62.5524 94.0114 62.7722 93.9417C63.0468 93.8546 63.2203 93.683 63.2753 93.6656C63.3302 93.6482 63.5037 93.4766 63.709 93.2367C63.8276 93.0825 63.9549 92.809 64.0273 92.553C64.2443 91.7848 64.0943 90.8999 64.0943 90.8999C63.8318 89.3512 63.364 88.0425 63.364 88.0425C62.795 86.6494 62.2317 85.5458 61.862 84.7305C61.5991 84.2894 60.6573 82.4899 59.1174 80.0641C58.2506 78.7071 57.5687 77.7577 56.9331 76.9102C56.6152 76.4864 55.3988 74.774 53.5842 72.4353C52.9717 71.6388 50.9779 69.182 48.1519 65.9984C46.6839 64.4241 45.4413 63.0696 44.5166 62.1389Z" fill="#A9C4FF"/>
</g>
</svg>
