<svg width="265" height="220" viewBox="0 0 265 220" fill="none" xmlns="http://www.w3.org/2000/svg">
<path d="M118 20.7324L132.164 106.331L151.323 103.161L150.092 95.7173L178.073 91.0873L182.703 119.069L175.26 120.3L178.43 139.46L264.029 125.296L260.858 106.137L253.415 107.368L247.906 74.9298C247.723 74.252 247.494 73.2985 247.243 72.2072C243.812 59.6048 237.61 50.789 234.823 47.2141C225.271 34.8457 213.989 28.7113 208.617 26.2014C203.705 23.8988 193.385 19.7294 180.236 19.427C175.688 19.3298 171.725 19.773 164.03 20.7632C153.21 22.1287 144.342 23.7376 138.391 25.0055L137.16 17.5621L118 20.7324Z" fill="#FFCE00"/>
<path d="M137.096 32.5836L122.968 34.9214L125.055 47.5337L139.183 45.1959L137.096 32.5836Z" fill="#FFEB90"/>
<path d="M203.044 118.323L190.362 120.421L192.7 134.55L205.381 132.452L203.044 118.323Z" fill="#FFEB90"/>
<path d="M143.028 37.1958C143.553 40.3661 144.077 43.5365 144.613 46.7757L174.421 42.0559C175.053 42.0222 175.891 41.9543 176.948 41.9211C178.429 41.8884 184.574 41.7922 192.599 43.6505C196.503 44.5624 206.468 47.0202 217.025 54.3366C223.67 58.9726 227.431 63.3066 228.406 64.4906C232.019 68.7785 233.818 72.3753 234.333 73.352C236.35 77.4084 237.172 81.0959 237.241 81.0845C237.379 81.0617 236.614 77.2939 234.988 73.0312C233.878 70.1703 232.594 67.5504 230.669 64.4703C228.147 60.3559 225.132 55.4026 220.28 50.4701C212.262 42.2379 203.733 38.6219 199.934 37.0556C194.217 34.6027 189.602 33.6671 188.132 33.3438C186.307 33.0086 182.07 32.2227 176.477 32.2277C172.09 32.2455 169.551 32.7364 160.04 34.3101C156.87 34.8347 151.701 35.69 145.153 36.7734L143.017 37.1269L143.028 37.1958Z" fill="#FFEB90"/>
<path d="M109.208 129C104.691 148.231 100.184 167.419 95.667 186.651L108.574 189.682L109.789 184.702L122.825 187.764L180.615 208.828L193.436 211.839L192.264 216.83L205.171 219.861L218.712 162.211L205.805 159.179L204.633 164.17L191.812 161.158L134.065 140.104L121.029 137.042L122.115 132.032L109.208 129Z" fill="#FFCE00"/>
<path d="M118.08 141.479L108.572 139.246L106.571 147.765L116.079 149.998L118.08 141.479Z" fill="#FFEB90"/>
<path d="M120.231 147.977L118.716 154.43L130.074 157.098L187.864 178.162L198.964 180.77L200.48 174.316L189.38 171.709L131.589 150.645L120.231 147.977Z" fill="#FFEB90"/>
<path d="M214.763 171.679L205.212 169.436L203.211 177.954L212.762 180.197L214.763 171.679Z" fill="#FFEB90"/>
<path d="M42.4229 27L13.4584 69.9831L23.0767 76.4644L25.6346 72.7678L39.6709 82.2262L30.1815 96.3084L26.4538 93.7965L19.9725 103.415L62.9556 132.379L69.4369 122.761L65.7092 120.249L75.1987 106.167L89.2349 115.625L86.769 119.384L96.3873 125.865L125.352 82.8821L115.733 76.4008L113.175 80.0974L49.5752 37.24L52.0411 33.4813L42.4229 27Z" fill="#FFCE00"/>
<path d="M45.7913 39.9764L38.7041 35.2007L34.4246 41.5515L41.5117 46.3272L45.7913 39.9764Z" fill="#FFEB90"/>
<path d="M107.638 85.5346L46.5693 44.3828L43.3442 49.1689L104.413 90.3207L107.638 85.5346Z" fill="#FFEB90"/>
<path d="M119.102 89.3768L112.015 84.6011L107.735 90.9519L114.822 95.7276L119.102 89.3768Z" fill="#FFEB90"/>
<path d="M39.3303 104.281L32.9795 100.001L28.2038 107.088L34.5546 111.368L39.3303 104.281Z" fill="#FFEB90"/>
</svg>
