<svg width="188" height="169" viewBox="0 0 188 169" fill="none" xmlns="http://www.w3.org/2000/svg">
<g id="Group">
<path id="Vector" d="M187.829 32.3057L112.053 1.6673L103.199 17.2865L109.728 20.0183L96.806 42.812L71.9801 32.7741L75.4118 26.7208L58.4556 19.8648L18.885 89.6657L35.8413 96.5216L39.273 90.4682L64.0989 100.506L51.177 123.3L44.5631 120.717L35.7085 136.337L111.484 166.975L120.339 151.356L113.81 148.624L172.361 45.3426L178.974 47.9249L187.829 32.3057Z" fill="#6795D6"/>
<path id="Vector_2" d="M166.762 42.9212L173.309 31.3793L162.075 26.8394L155.529 38.3814L166.762 42.9212Z" fill="#A9C4FF"/>
<path id="Vector_3" d="M106.008 141.957L159.993 44.6923L151.891 41.3463L97.9064 138.611L106.008 141.957Z" fill="#A9C4FF"/>
<path id="Vector_4" d="M102.713 159.333L109.259 147.791L98.0253 143.251L91.4788 154.793L102.713 159.333Z" fill="#A9C4FF"/>
<path id="Vector_5" d="M58.4598 47.2893L64.3511 36.9039L51.7615 31.8169L45.8702 42.2022L58.4598 47.2893Z" fill="#A9C4FF"/>
</g>
</svg>
