<svg width="159" height="141" viewBox="0 0 159 141" fill="none" xmlns="http://www.w3.org/2000/svg">
<g id="Group">
<path id="Vector" d="M61.0981 1.54517L19.7564 62.7117L34.7127 70.0878L38.3077 64.769L60.1503 75.5413L46.636 95.5361L40.8257 92.6706L31.5721 106.362L98.3912 139.315L107.645 125.624L101.834 122.759L117.405 99.5097C117.684 98.9907 118.096 98.2747 118.575 97.4602C123.744 87.7959 124.766 79.1726 124.996 75.543C125.85 63.0286 121.811 53.6162 119.642 49.395C117.664 45.53 113.11 37.8339 104.322 31.2016C101.278 28.9126 98.3116 27.2525 92.473 24.1103C84.2799 19.6757 77.2732 16.3515 72.4595 14.2401L76.0544 8.92129L61.0981 1.54517Z" fill="#6795D6"/>
<path id="Vector_2" d="M65.1368 18.2059L54.0879 12.7567L47.9854 21.7857L59.0343 27.2349L65.1368 18.2059Z" fill="#A9C4FF"/>
<path id="Vector_3" d="M61.9856 104.069L52.104 99.1951L45.2924 109.274L55.174 114.148L61.9856 104.069Z" fill="#A9C4FF"/>
<path id="Vector_4" d="M67.9964 24.2648C66.4563 26.5445 64.9162 28.8242 63.3427 31.1535L86.6187 42.8367C87.0722 43.1266 87.6881 43.4965 88.4328 43.9962C89.4688 44.7055 93.7413 47.6727 98.1329 52.8132C100.264 55.3186 105.628 61.7976 108.485 71.6656C110.265 77.896 110.248 82.5133 110.207 83.7486C110.115 88.2629 109.194 91.4426 108.962 92.3195C107.915 95.8994 106.269 98.6557 106.323 98.6824C106.431 98.7358 108.165 95.9567 109.604 92.4378C110.556 90.0664 111.246 87.7637 111.771 84.8508C112.507 80.9848 113.407 76.3411 113.035 70.8048C112.468 61.6045 108.784 55.0954 107.117 52.2241C104.665 47.8427 102.06 44.9712 101.245 44.0407C100.194 42.9271 97.7585 40.3378 93.9189 37.5842C90.8987 35.4332 88.8631 34.4948 81.3956 30.8102C78.9064 29.582 74.848 27.5795 69.7073 25.043L68.0298 24.2152L67.9964 24.2648Z" fill="#A9C4FF"/>
</g>
</svg>
