<svg width="172" height="147" viewBox="0 0 172 147" fill="none" xmlns="http://www.w3.org/2000/svg">
<g id="Group">
<path id="Vector" d="M70.4934 0.154114L22.9817 46.1422L34.6433 55.2511L38.8195 51.3064L55.8377 64.5993L40.2717 79.6661L35.7522 76.1358L25.1205 86.4265L77.2352 127.133L87.8668 116.843L83.3472 113.312L98.9132 98.2456L115.931 111.539L111.867 115.57L123.528 124.679L171.04 78.6912L159.378 69.5823L155.202 73.527L78.0904 13.2949L82.155 9.26302L70.4934 0.154114Z" fill="#6795D6"/>
<path id="Vector_2" d="M71.9802 15.8606L63.3926 9.15289L56.3768 15.9436L64.9645 22.6513L71.9802 15.8606Z" fill="#A9C4FF"/>
<path id="Vector_3" d="M146.689 79.3625L72.272 21.203L66.9549 26.3525L141.371 84.5119L146.689 79.3625Z" fill="#A9C4FF"/>
<path id="Vector_4" d="M161.401 85.7636L152.813 79.0558L145.798 85.8465L154.385 92.5542L161.401 85.7636Z" fill="#A9C4FF"/>
<path id="Vector_5" d="M51.1719 90.1564L43.4827 84.1504L35.6598 91.7223L43.349 97.7282L51.1719 90.1564Z" fill="#A9C4FF"/>
</g>
</svg>
