<svg width="70" height="39" viewBox="0 0 70 39" fill="none" xmlns="http://www.w3.org/2000/svg">
<g id="Group">
<path id="Vector" d="M0.811523 4.10291C1.58661 14.1606 2.35996 24.1958 3.13504 34.2535L10.7618 33.9042L10.5861 31.293L18.2891 30.9401L53.709 33.0435L61.2849 32.6965L61.4861 35.3066L69.1128 34.9573L66.7893 4.80668L59.1626 5.156L59.3637 7.76605L51.7878 8.11304L16.3933 6.0085L8.69025 6.36131L8.43827 3.75359L0.811523 4.10291Z" fill="#6795D6"/>
<path id="Vector_2" d="M7.76002 9.25479L2.15576 9.51111L2.49823 13.9486L8.10248 13.6923L7.76002 9.25479Z" fill="#A9C4FF"/>
<path id="Vector_3" d="M10.0718 11.8354L10.3328 15.2879L17.0678 14.9734L52.612 17.125L59.1939 16.8177L58.9329 13.3653L52.351 13.6726L16.8068 11.521L10.0718 11.8354Z" fill="#A9C4FF"/>
<path id="Vector_4" d="M66.414 9.90365L60.7842 10.1611L61.1267 14.5988L66.7565 14.3413L66.414 9.90365Z" fill="#A9C4FF"/>
</g>
</svg>
