<svg width="78" height="74" viewBox="0 0 78 74" fill="none" xmlns="http://www.w3.org/2000/svg">
<g id="Camada 2">
<g id="Camada 1">
<path id="Vector" d="M33.1215 68.9989V62.6365C29.2728 62.527 27.527 62.6365 24.7621 62.6365C22.6788 62.5721 20.511 62.4562 19.3493 62.527C16.7446 62.7349 14.125 62.6658 11.5351 62.321C9.19858 61.9925 9.16613 61.2455 8.79618 60.8978C8.15721 60.2406 7.78911 59.37 7.76424 58.4572C7.82914 58.7727 7.64741 57.4719 7.76424 57.1692C8.19908 56.2419 8.48465 54.7544 9.26348 53.3054C10.5161 50.955 11.548 49.2678 11.9764 48.5658C13.2744 46.4794 15.2215 43.1887 18.1486 37.9146L22.2958 40.0075C21.967 38.7196 21.6533 37.4059 21.3548 36.0665C20.8918 33.9414 20.4981 31.8871 20.1735 29.9037L20.0178 28.6802L19.3688 28.8927L18.233 29.2791L7.83563 31.6424L11.8206 34.4501C9.93846 37.9855 8.31591 40.7996 7.14118 42.7702C6.90104 43.1759 5.72631 45.2559 3.37036 49.4416C2.46966 50.8976 1.75047 52.4567 1.22858 54.0846C0.723231 55.5025 0.477067 56.9985 0.501679 58.5022C0.741817 63.171 4.48668 66.1848 4.92152 66.5196C6.88436 68.0221 9.26621 68.8878 11.7427 68.9989L25.4761 69.1985L33.1215 68.9989Z" fill="#3D3D3A" fill-opacity="0.4"/>
<path id="Vector_2" d="M19.1935 24.7775L24.801 27.8557C26.7481 24.5586 27.4945 22.9873 28.8185 20.5788C29.8764 18.8015 31.0252 16.9662 31.5184 15.923C32.601 13.5499 33.9323 11.2964 35.4904 9.19996C36.9053 7.32602 37.5803 7.65444 38.0865 7.49989C38.9811 7.26622 39.9316 7.37664 40.7475 7.80899C40.4425 7.71884 41.6756 8.18249 41.8638 8.45296C42.4739 9.28368 43.6486 10.2432 44.5703 11.6277C46.05 13.8494 47.0365 15.5623 47.4519 16.2707C48.685 18.3829 50.6581 21.6543 53.8967 26.7674L50.048 29.3432C51.346 29.6738 52.6592 30.0344 53.9876 30.4251C56.0839 31.069 58.0894 31.713 59.9975 32.357L61.1528 32.8142L61.2761 32.1702L61.4838 30.9982L64.3654 20.7592L59.9651 22.8778C57.7454 19.5421 56.0709 16.773 54.8702 14.8025C54.6301 14.3968 53.3515 12.3747 50.8009 8.32417C49.9511 6.84061 48.9224 5.46527 47.7375 4.22854C46.7167 3.10532 45.5039 2.17005 44.1549 1.46593C39.9233 -0.581885 35.458 1.22766 34.9517 1.46593C32.679 2.45134 30.7683 4.1088 29.4805 6.21196C27.2219 10.1316 24.9611 14.0726 22.6982 18.0352L19.1935 24.7775Z" fill="#3D3D3A" fill-opacity="0.4"/>
<path id="Vector_3" d="M65.2157 32.9043L59.6925 36.1241C61.5487 39.4663 62.5352 40.9024 63.9436 43.2657C64.9431 45.0753 65.9491 46.9878 66.5981 47.9473C68.1077 50.0793 69.3827 52.3655 70.4014 54.7669C71.3035 56.9307 70.674 57.3428 70.5571 57.8322C70.3021 58.7131 69.723 59.4669 68.9346 59.9444C69.1747 59.7255 68.1363 60.5433 67.8183 60.5884C66.7928 60.685 65.352 61.1937 63.684 61.2774C61.01 61.3998 59.0175 61.374 58.1868 61.3676C55.7335 61.3676 51.8848 61.3676 45.8034 61.5093L45.5179 56.8985C44.5768 57.8258 43.5708 58.766 42.5713 59.7062C40.9682 61.1809 39.3781 62.5589 37.8269 63.8469L36.8469 64.5939L37.3661 65.0318L38.2748 65.811L45.6542 73.4999L46.063 68.6637C50.087 68.477 53.358 68.4383 55.6621 68.4383C56.1359 68.4383 58.5437 68.3868 63.353 68.2774C65.0752 68.3078 66.7947 68.1305 68.4738 67.7493C69.9662 67.4516 71.3941 66.8958 72.6924 66.1072C76.6255 63.5313 77.3329 58.8046 77.4043 58.2637C77.7179 55.8262 77.2645 53.3521 76.1063 51.1801L69.298 39.3375L65.2157 32.9043Z" fill="#3D3D3A" fill-opacity="0.4"/>
</g>
</g>
</svg>
