<svg width="24" height="24" viewBox="0 0 24 24" fill="none" xmlns="http://www.w3.org/2000/svg">
<g id="User">
<path id="Vector" d="M24 0H0V24H24V0Z" fill="white"/>
<path id="Vector (Stroke)" fill-rule="evenodd" clip-rule="evenodd" d="M12 3.75C9.1005 3.75 6.75 6.1005 6.75 9C6.75 11.8995 9.1005 14.25 12 14.25C14.8995 14.25 17.25 11.8995 17.25 9C17.25 6.1005 14.8995 3.75 12 3.75ZM5.25 9C5.25 5.27208 8.27208 2.25 12 2.25C15.7279 2.25 18.75 5.27208 18.75 9C18.75 12.7279 15.7279 15.75 12 15.75C8.27208 15.75 5.25 12.7279 5.25 9Z" fill="#6C727F"/>
<path id="Vector (Stroke)_2" fill-rule="evenodd" clip-rule="evenodd" d="M12.0001 15.749C10.2885 15.749 8.60702 16.1996 7.12474 17.0555C5.64246 17.9114 4.41161 19.1424 3.55593 20.6248C3.34886 20.9835 2.89017 21.1065 2.53144 20.8994C2.1727 20.6923 2.04975 20.2337 2.25682 19.8749C3.24415 18.1645 4.66435 16.7441 6.37468 15.7565C8.085 14.7689 10.0252 14.249 12.0001 14.249C13.9751 14.249 15.9153 14.7689 17.6256 15.7565C19.3359 16.7441 20.7561 18.1645 21.7434 19.8749C21.9505 20.2337 21.8276 20.6923 21.4688 20.8994C21.1101 21.1065 20.6514 20.9835 20.4443 20.6248C19.5886 19.1424 18.3578 17.9114 16.8755 17.0555C15.3932 16.1996 13.7118 15.749 12.0001 15.749Z" fill="#6C727F"/>
</g>
</svg>
